G04 #@! TF.GenerationSoftware,KiCad,Pcbnew,(5.99.0-8045-ga69a4be853)*
G04 #@! TF.CreationDate,2021-01-01T20:51:05-08:00*
G04 #@! TF.ProjectId,gtb-6layer-no-mask,6774622d-366c-4617-9965-722d6e6f2d6d,rev?*
G04 #@! TF.SameCoordinates,Original*
G04 #@! TF.FileFunction,Legend,Top*
G04 #@! TF.FilePolarity,Positive*
%FSLAX46Y46*%
G04 Gerber Fmt 4.6, Leading zero omitted, Abs format (unit mm)*
G04 Created by KiCad (PCBNEW (5.99.0-8045-ga69a4be853)) date 2021-01-01 20:51:05*
%MOMM*%
%LPD*%
G01*
G04 APERTURE LIST*
%ADD10C,0.177800*%
%ADD11C,0.150000*%
%ADD12C,0.381000*%
%ADD13C,0.100000*%
%ADD14C,0.120000*%
%ADD15C,0.010000*%
%ADD16C,1.998980*%
G04 APERTURE END LIST*
D10*
X146309238Y-111070642D02*
X146309238Y-112201547D01*
X146242714Y-112334595D01*
X146176190Y-112401119D01*
X146043142Y-112467642D01*
X145843571Y-112467642D01*
X145710523Y-112401119D01*
X146309238Y-111935452D02*
X146176190Y-112001976D01*
X145910095Y-112001976D01*
X145777047Y-111935452D01*
X145710523Y-111868928D01*
X145644000Y-111735880D01*
X145644000Y-111336738D01*
X145710523Y-111203690D01*
X145777047Y-111137166D01*
X145910095Y-111070642D01*
X146176190Y-111070642D01*
X146309238Y-111137166D01*
X146974476Y-112001976D02*
X146974476Y-111070642D01*
X146974476Y-110604976D02*
X146907952Y-110671500D01*
X146974476Y-110738023D01*
X147041000Y-110671500D01*
X146974476Y-110604976D01*
X146974476Y-110738023D01*
X147440142Y-111070642D02*
X147972333Y-111070642D01*
X147639714Y-110604976D02*
X147639714Y-111802404D01*
X147706238Y-111935452D01*
X147839285Y-112001976D01*
X147972333Y-112001976D01*
X148438000Y-112001976D02*
X148438000Y-110604976D01*
X149036714Y-112001976D02*
X149036714Y-111270214D01*
X148970190Y-111137166D01*
X148837142Y-111070642D01*
X148637571Y-111070642D01*
X148504523Y-111137166D01*
X148438000Y-111203690D01*
X150300666Y-111070642D02*
X150300666Y-112001976D01*
X149701952Y-111070642D02*
X149701952Y-111802404D01*
X149768476Y-111935452D01*
X149901523Y-112001976D01*
X150101095Y-112001976D01*
X150234142Y-111935452D01*
X150300666Y-111868928D01*
X150965904Y-112001976D02*
X150965904Y-110604976D01*
X150965904Y-111137166D02*
X151098952Y-111070642D01*
X151365047Y-111070642D01*
X151498095Y-111137166D01*
X151564619Y-111203690D01*
X151631142Y-111336738D01*
X151631142Y-111735880D01*
X151564619Y-111868928D01*
X151498095Y-111935452D01*
X151365047Y-112001976D01*
X151098952Y-112001976D01*
X150965904Y-111935452D01*
X152229857Y-111868928D02*
X152296380Y-111935452D01*
X152229857Y-112001976D01*
X152163333Y-111935452D01*
X152229857Y-111868928D01*
X152229857Y-112001976D01*
X153493809Y-111935452D02*
X153360761Y-112001976D01*
X153094666Y-112001976D01*
X152961619Y-111935452D01*
X152895095Y-111868928D01*
X152828571Y-111735880D01*
X152828571Y-111336738D01*
X152895095Y-111203690D01*
X152961619Y-111137166D01*
X153094666Y-111070642D01*
X153360761Y-111070642D01*
X153493809Y-111137166D01*
X154292095Y-112001976D02*
X154159047Y-111935452D01*
X154092523Y-111868928D01*
X154026000Y-111735880D01*
X154026000Y-111336738D01*
X154092523Y-111203690D01*
X154159047Y-111137166D01*
X154292095Y-111070642D01*
X154491666Y-111070642D01*
X154624714Y-111137166D01*
X154691238Y-111203690D01*
X154757761Y-111336738D01*
X154757761Y-111735880D01*
X154691238Y-111868928D01*
X154624714Y-111935452D01*
X154491666Y-112001976D01*
X154292095Y-112001976D01*
X155356476Y-112001976D02*
X155356476Y-111070642D01*
X155356476Y-111203690D02*
X155423000Y-111137166D01*
X155556047Y-111070642D01*
X155755619Y-111070642D01*
X155888666Y-111137166D01*
X155955190Y-111270214D01*
X155955190Y-112001976D01*
X155955190Y-111270214D02*
X156021714Y-111137166D01*
X156154761Y-111070642D01*
X156354333Y-111070642D01*
X156487380Y-111137166D01*
X156553904Y-111270214D01*
X156553904Y-112001976D01*
X158217000Y-110538452D02*
X157019571Y-112334595D01*
X158682666Y-111070642D02*
X158682666Y-112467642D01*
X158682666Y-111137166D02*
X158815714Y-111070642D01*
X159081809Y-111070642D01*
X159214857Y-111137166D01*
X159281380Y-111203690D01*
X159347904Y-111336738D01*
X159347904Y-111735880D01*
X159281380Y-111868928D01*
X159214857Y-111935452D01*
X159081809Y-112001976D01*
X158815714Y-112001976D01*
X158682666Y-111935452D01*
X160545333Y-112001976D02*
X160545333Y-110604976D01*
X160545333Y-111935452D02*
X160412285Y-112001976D01*
X160146190Y-112001976D01*
X160013142Y-111935452D01*
X159946619Y-111868928D01*
X159880095Y-111735880D01*
X159880095Y-111336738D01*
X159946619Y-111203690D01*
X160013142Y-111137166D01*
X160146190Y-111070642D01*
X160412285Y-111070642D01*
X160545333Y-111137166D01*
X161210571Y-111070642D02*
X161210571Y-112467642D01*
X161210571Y-111137166D02*
X161343619Y-111070642D01*
X161609714Y-111070642D01*
X161742761Y-111137166D01*
X161809285Y-111203690D01*
X161875809Y-111336738D01*
X161875809Y-111735880D01*
X161809285Y-111868928D01*
X161742761Y-111935452D01*
X161609714Y-112001976D01*
X161343619Y-112001976D01*
X161210571Y-111935452D01*
X162341476Y-110604976D02*
X163272809Y-110604976D01*
X162674095Y-112001976D01*
X164802857Y-110538452D02*
X163605428Y-112334595D01*
X165867238Y-111070642D02*
X165867238Y-112201547D01*
X165800714Y-112334595D01*
X165734190Y-112401119D01*
X165601142Y-112467642D01*
X165401571Y-112467642D01*
X165268523Y-112401119D01*
X165867238Y-111935452D02*
X165734190Y-112001976D01*
X165468095Y-112001976D01*
X165335047Y-111935452D01*
X165268523Y-111868928D01*
X165202000Y-111735880D01*
X165202000Y-111336738D01*
X165268523Y-111203690D01*
X165335047Y-111137166D01*
X165468095Y-111070642D01*
X165734190Y-111070642D01*
X165867238Y-111137166D01*
X166332904Y-111070642D02*
X166865095Y-111070642D01*
X166532476Y-110604976D02*
X166532476Y-111802404D01*
X166599000Y-111935452D01*
X166732047Y-112001976D01*
X166865095Y-112001976D01*
X167330761Y-112001976D02*
X167330761Y-110604976D01*
X167330761Y-111137166D02*
X167463809Y-111070642D01*
X167729904Y-111070642D01*
X167862952Y-111137166D01*
X167929476Y-111203690D01*
X167996000Y-111336738D01*
X167996000Y-111735880D01*
X167929476Y-111868928D01*
X167862952Y-111935452D01*
X167729904Y-112001976D01*
X167463809Y-112001976D01*
X167330761Y-111935452D01*
D11*
X161381218Y-82956629D02*
X161044501Y-82619912D01*
X161751607Y-81912805D01*
X161717936Y-83293347D02*
X161684264Y-83192332D01*
X161684264Y-83124988D01*
X161717936Y-83023973D01*
X161919966Y-82821942D01*
X162020981Y-82788271D01*
X162088325Y-82788271D01*
X162189340Y-82821942D01*
X162290355Y-82922958D01*
X162324027Y-83023973D01*
X162324027Y-83091316D01*
X162290355Y-83192332D01*
X162088325Y-83394362D01*
X161987310Y-83428034D01*
X161919966Y-83428034D01*
X161818951Y-83394362D01*
X161717936Y-83293347D01*
X162357699Y-83933110D02*
X162324027Y-83832095D01*
X162324027Y-83764751D01*
X162357699Y-83663736D01*
X162559729Y-83461706D01*
X162660745Y-83428034D01*
X162728088Y-83428034D01*
X162829103Y-83461706D01*
X162930119Y-83562721D01*
X162963790Y-83663736D01*
X162963790Y-83731080D01*
X162930119Y-83832095D01*
X162728088Y-84034125D01*
X162627073Y-84067797D01*
X162559729Y-84067797D01*
X162458714Y-84034125D01*
X162357699Y-83933110D01*
X162896447Y-84471858D02*
X163603554Y-83764751D01*
X163233164Y-84269828D02*
X163165821Y-84741232D01*
X163637225Y-84269828D02*
X163098477Y-84269828D01*
X164007615Y-85583026D02*
X164479019Y-85111622D01*
X164411676Y-85178965D02*
X164479019Y-85178965D01*
X164580035Y-85212637D01*
X164681050Y-85313652D01*
X164714722Y-85414667D01*
X164681050Y-85515683D01*
X164310661Y-85886072D01*
X164681050Y-85515683D02*
X164782065Y-85482011D01*
X164883080Y-85515683D01*
X164984096Y-85616698D01*
X165017767Y-85717713D01*
X164984096Y-85818728D01*
X164613706Y-86189118D01*
X165253470Y-86828881D02*
X165623859Y-86458492D01*
X165657531Y-86357476D01*
X165623859Y-86256461D01*
X165489172Y-86121774D01*
X165388157Y-86088102D01*
X165287141Y-86795209D02*
X165186126Y-86761537D01*
X165017767Y-86593179D01*
X164984096Y-86492163D01*
X165017767Y-86391148D01*
X165085111Y-86323805D01*
X165186126Y-86290133D01*
X165287141Y-86323805D01*
X165455500Y-86492163D01*
X165556515Y-86525835D01*
X165657531Y-87165598D02*
X165623859Y-87199270D01*
X165522844Y-87232942D01*
X165455500Y-87232942D01*
X166937057Y-87569659D02*
X166465653Y-88041064D01*
X166869714Y-87637003D02*
X166937057Y-87637003D01*
X167038072Y-87670675D01*
X167139088Y-87771690D01*
X167172759Y-87872705D01*
X167139088Y-87973720D01*
X166768698Y-88344110D01*
X167206431Y-88781842D02*
X167172759Y-88680827D01*
X167172759Y-88613484D01*
X167206431Y-88512468D01*
X167408462Y-88310438D01*
X167509477Y-88276766D01*
X167576820Y-88276766D01*
X167677836Y-88310438D01*
X167778851Y-88411453D01*
X167812523Y-88512468D01*
X167812523Y-88579812D01*
X167778851Y-88680827D01*
X167576820Y-88882858D01*
X167475805Y-88916529D01*
X167408462Y-88916529D01*
X167307446Y-88882858D01*
X167206431Y-88781842D01*
X168654316Y-89286919D02*
X168923690Y-89556293D01*
X168991034Y-89152232D02*
X168384942Y-89758323D01*
X168351271Y-89859338D01*
X168384942Y-89960354D01*
X168452286Y-90027697D01*
X168687988Y-90263399D02*
X169159393Y-89791995D01*
X169024706Y-89926682D02*
X169125721Y-89893010D01*
X169193064Y-89893010D01*
X169294080Y-89926682D01*
X169361423Y-89994025D01*
X169428767Y-91004178D02*
X169799156Y-90633789D01*
X169832828Y-90532774D01*
X169799156Y-90431758D01*
X169664469Y-90297071D01*
X169563454Y-90263399D01*
X169462439Y-90970506D02*
X169361423Y-90936835D01*
X169193064Y-90768476D01*
X169159393Y-90667461D01*
X169193064Y-90566445D01*
X169260408Y-90499102D01*
X169361423Y-90465430D01*
X169462439Y-90499102D01*
X169630797Y-90667461D01*
X169731813Y-90701132D01*
X170102202Y-91610270D02*
X170001187Y-91576598D01*
X169866500Y-91441911D01*
X169832828Y-91340896D01*
X169832828Y-91273552D01*
X169866500Y-91172537D01*
X170068530Y-90970506D01*
X170169545Y-90936835D01*
X170236889Y-90936835D01*
X170337904Y-90970506D01*
X170472591Y-91105193D01*
X170506263Y-91206209D01*
X170674622Y-92182689D02*
X170573606Y-92149018D01*
X170438919Y-92014331D01*
X170405248Y-91913315D01*
X170438919Y-91812300D01*
X170708293Y-91542926D01*
X170809309Y-91509254D01*
X170910324Y-91542926D01*
X171045011Y-91677613D01*
X171078683Y-91778628D01*
X171045011Y-91879644D01*
X170977667Y-91946987D01*
X170573606Y-91677613D01*
X170977667Y-92485735D02*
X171011339Y-92586750D01*
X171146026Y-92721437D01*
X171247041Y-92755109D01*
X171348057Y-92721437D01*
X171381728Y-92687766D01*
X171415400Y-92586750D01*
X171381728Y-92485735D01*
X171280713Y-92384720D01*
X171247041Y-92283705D01*
X171280713Y-92182689D01*
X171314385Y-92149018D01*
X171415400Y-92115346D01*
X171516415Y-92149018D01*
X171617431Y-92250033D01*
X171651102Y-92351048D01*
X171617431Y-93058155D02*
X171617431Y-93125498D01*
X171550087Y-93125498D01*
X171550087Y-93058155D01*
X171617431Y-93058155D01*
X171550087Y-93125498D01*
X171819461Y-92856124D02*
X172189850Y-92418392D01*
X172257194Y-92418392D01*
X172257194Y-92485735D01*
X171819461Y-92856124D01*
X172257194Y-92418392D01*
D12*
X141974769Y-104390000D02*
X141747983Y-104269047D01*
X141385126Y-104269047D01*
X141007150Y-104390000D01*
X140735007Y-104631904D01*
X140583817Y-104873809D01*
X140402388Y-105357619D01*
X140357031Y-105720476D01*
X140417507Y-106204285D01*
X140508222Y-106446190D01*
X140719888Y-106688095D01*
X141067626Y-106809047D01*
X141309531Y-106809047D01*
X141687507Y-106688095D01*
X141823579Y-106567142D01*
X141929412Y-105720476D01*
X141445602Y-105720476D01*
X143864650Y-106688095D02*
X143607626Y-106809047D01*
X143123817Y-106809047D01*
X142897031Y-106688095D01*
X142806317Y-106446190D01*
X142927269Y-105478571D01*
X143078460Y-105236666D01*
X143335483Y-105115714D01*
X143819293Y-105115714D01*
X144046079Y-105236666D01*
X144136793Y-105478571D01*
X144106555Y-105720476D01*
X142866793Y-105962380D01*
X144907864Y-105115714D02*
X145875483Y-105115714D01*
X145376555Y-104269047D02*
X145104412Y-106446190D01*
X145195126Y-106688095D01*
X145421912Y-106809047D01*
X145663817Y-106809047D01*
X146359293Y-105115714D02*
X147326912Y-105115714D01*
X146827983Y-104269047D02*
X146555841Y-106446190D01*
X146646555Y-106688095D01*
X146873341Y-106809047D01*
X147115245Y-106809047D01*
X147961912Y-106809047D02*
X148173579Y-105115714D01*
X148279412Y-104269047D02*
X148143341Y-104390000D01*
X148249174Y-104510952D01*
X148385245Y-104390000D01*
X148279412Y-104269047D01*
X148249174Y-104510952D01*
X149383102Y-105115714D02*
X149171436Y-106809047D01*
X149352864Y-105357619D02*
X149488936Y-105236666D01*
X149745960Y-105115714D01*
X150108817Y-105115714D01*
X150335602Y-105236666D01*
X150426317Y-105478571D01*
X150260007Y-106809047D01*
X152769769Y-105115714D02*
X152512745Y-107171904D01*
X152361555Y-107413809D01*
X152225483Y-107534761D01*
X151968460Y-107655714D01*
X151605602Y-107655714D01*
X151378817Y-107534761D01*
X152573222Y-106688095D02*
X152316198Y-106809047D01*
X151832388Y-106809047D01*
X151605602Y-106688095D01*
X151499769Y-106567142D01*
X151409055Y-106325238D01*
X151499769Y-105599523D01*
X151650960Y-105357619D01*
X151787031Y-105236666D01*
X152044055Y-105115714D01*
X152527864Y-105115714D01*
X152754650Y-105236666D01*
X155551674Y-105115714D02*
X156519293Y-105115714D01*
X156020364Y-104269047D02*
X155748222Y-106446190D01*
X155838936Y-106688095D01*
X156065722Y-106809047D01*
X156307626Y-106809047D01*
X157517150Y-106809047D02*
X157290364Y-106688095D01*
X157184531Y-106567142D01*
X157093817Y-106325238D01*
X157184531Y-105599523D01*
X157335722Y-105357619D01*
X157471793Y-105236666D01*
X157728817Y-105115714D01*
X158091674Y-105115714D01*
X158318460Y-105236666D01*
X158424293Y-105357619D01*
X158515007Y-105599523D01*
X158424293Y-106325238D01*
X158273102Y-106567142D01*
X158137031Y-106688095D01*
X157880007Y-106809047D01*
X157517150Y-106809047D01*
X162400602Y-105478571D02*
X162748341Y-105599523D01*
X162854174Y-105720476D01*
X162944888Y-105962380D01*
X162899531Y-106325238D01*
X162748341Y-106567142D01*
X162612269Y-106688095D01*
X162355245Y-106809047D01*
X161387626Y-106809047D01*
X161705126Y-104269047D01*
X162551793Y-104269047D01*
X162778579Y-104390000D01*
X162884412Y-104510952D01*
X162975126Y-104752857D01*
X162944888Y-104994761D01*
X162793698Y-105236666D01*
X162657626Y-105357619D01*
X162400602Y-105478571D01*
X161553936Y-105478571D01*
X164290483Y-106809047D02*
X164063698Y-106688095D01*
X163972983Y-106446190D01*
X164245126Y-104269047D01*
X165258102Y-106809047D02*
X165469769Y-105115714D01*
X165575602Y-104269047D02*
X165439531Y-104390000D01*
X165545364Y-104510952D01*
X165681436Y-104390000D01*
X165575602Y-104269047D01*
X165545364Y-104510952D01*
X166679293Y-105115714D02*
X166467626Y-106809047D01*
X166649055Y-105357619D02*
X166785126Y-105236666D01*
X167042150Y-105115714D01*
X167405007Y-105115714D01*
X167631793Y-105236666D01*
X167722507Y-105478571D01*
X167556198Y-106809047D01*
X168765722Y-106809047D02*
X169083222Y-104269047D01*
X169128579Y-105841428D02*
X169733341Y-106809047D01*
X169945007Y-105115714D02*
X168856436Y-106083333D01*
X170791674Y-105115714D02*
X171184769Y-106809047D01*
X172001198Y-105115714D02*
X171184769Y-106809047D01*
X170867269Y-107413809D01*
X170731198Y-107534761D01*
X170474174Y-107655714D01*
X172787388Y-106567142D02*
X172893222Y-106688095D01*
X172757150Y-106809047D01*
X172651317Y-106688095D01*
X172787388Y-106567142D01*
X172757150Y-106809047D01*
X172878102Y-105841428D02*
X172938579Y-104390000D01*
X173074650Y-104269047D01*
X173180483Y-104390000D01*
X172878102Y-105841428D01*
X173074650Y-104269047D01*
D11*
X149002380Y-91981904D02*
X149811904Y-91981904D01*
X149907142Y-91934285D01*
X149954761Y-91886666D01*
X150002380Y-91791428D01*
X150002380Y-91600952D01*
X149954761Y-91505714D01*
X149907142Y-91458095D01*
X149811904Y-91410476D01*
X149002380Y-91410476D01*
X150002380Y-90410476D02*
X150002380Y-90981904D01*
X150002380Y-90696190D02*
X149002380Y-90696190D01*
X149145238Y-90791428D01*
X149240476Y-90886666D01*
X149288095Y-90981904D01*
X174092380Y-89366666D02*
X173616190Y-89700000D01*
X174092380Y-89938095D02*
X173092380Y-89938095D01*
X173092380Y-89557142D01*
X173140000Y-89461904D01*
X173187619Y-89414285D01*
X173282857Y-89366666D01*
X173425714Y-89366666D01*
X173520952Y-89414285D01*
X173568571Y-89461904D01*
X173616190Y-89557142D01*
X173616190Y-89938095D01*
X173092380Y-89033333D02*
X173092380Y-88414285D01*
X173473333Y-88747619D01*
X173473333Y-88604761D01*
X173520952Y-88509523D01*
X173568571Y-88461904D01*
X173663809Y-88414285D01*
X173901904Y-88414285D01*
X173997142Y-88461904D01*
X174044761Y-88509523D01*
X174092380Y-88604761D01*
X174092380Y-88890476D01*
X174044761Y-88985714D01*
X173997142Y-89033333D01*
X140442380Y-101346666D02*
X139966190Y-101680000D01*
X140442380Y-101918095D02*
X139442380Y-101918095D01*
X139442380Y-101537142D01*
X139490000Y-101441904D01*
X139537619Y-101394285D01*
X139632857Y-101346666D01*
X139775714Y-101346666D01*
X139870952Y-101394285D01*
X139918571Y-101441904D01*
X139966190Y-101537142D01*
X139966190Y-101918095D01*
X139537619Y-100965714D02*
X139490000Y-100918095D01*
X139442380Y-100822857D01*
X139442380Y-100584761D01*
X139490000Y-100489523D01*
X139537619Y-100441904D01*
X139632857Y-100394285D01*
X139728095Y-100394285D01*
X139870952Y-100441904D01*
X140442380Y-101013333D01*
X140442380Y-100394285D01*
X140032380Y-87796666D02*
X139556190Y-88130000D01*
X140032380Y-88368095D02*
X139032380Y-88368095D01*
X139032380Y-87987142D01*
X139080000Y-87891904D01*
X139127619Y-87844285D01*
X139222857Y-87796666D01*
X139365714Y-87796666D01*
X139460952Y-87844285D01*
X139508571Y-87891904D01*
X139556190Y-87987142D01*
X139556190Y-88368095D01*
X140032380Y-86844285D02*
X140032380Y-87415714D01*
X140032380Y-87130000D02*
X139032380Y-87130000D01*
X139175238Y-87225238D01*
X139270476Y-87320476D01*
X139318095Y-87415714D01*
X173897142Y-100706666D02*
X173944761Y-100754285D01*
X173992380Y-100897142D01*
X173992380Y-100992380D01*
X173944761Y-101135238D01*
X173849523Y-101230476D01*
X173754285Y-101278095D01*
X173563809Y-101325714D01*
X173420952Y-101325714D01*
X173230476Y-101278095D01*
X173135238Y-101230476D01*
X173040000Y-101135238D01*
X172992380Y-100992380D01*
X172992380Y-100897142D01*
X173040000Y-100754285D01*
X173087619Y-100706666D01*
X173992380Y-99754285D02*
X173992380Y-100325714D01*
X173992380Y-100040000D02*
X172992380Y-100040000D01*
X173135238Y-100135238D01*
X173230476Y-100230476D01*
X173278095Y-100325714D01*
D13*
X160870000Y-94870000D02*
X160870000Y-94570000D01*
X160870000Y-88070000D02*
X160870000Y-88370000D01*
X151170000Y-88070000D02*
X150870000Y-88070000D01*
X150870000Y-94870000D02*
X150870000Y-94570000D01*
X150870000Y-88070000D02*
X150870000Y-88370000D01*
X160570000Y-94870000D02*
X160870000Y-94870000D01*
X160570000Y-88070000D02*
X160870000Y-88070000D01*
X151170000Y-94870000D02*
X150870000Y-94870000D01*
D11*
X174670000Y-91830000D02*
X174670000Y-85480000D01*
X177210000Y-85480000D02*
X177210000Y-91830000D01*
X174670000Y-85480000D02*
X177210000Y-85480000D01*
X177210000Y-91830000D02*
X174670000Y-91830000D01*
X138610000Y-97550000D02*
X138610000Y-103900000D01*
X136070000Y-97550000D02*
X138610000Y-97550000D01*
X136070000Y-103900000D02*
X136070000Y-97550000D01*
X138610000Y-103900000D02*
X136070000Y-103900000D01*
X138550000Y-91350000D02*
X136010000Y-91350000D01*
X136010000Y-85000000D02*
X138550000Y-85000000D01*
X136010000Y-91350000D02*
X136010000Y-85000000D01*
X138550000Y-85000000D02*
X138550000Y-91350000D01*
D14*
X146000000Y-95630000D02*
X146156000Y-95630000D01*
X143684000Y-95630000D02*
X143840000Y-95630000D01*
X143841392Y-92397665D02*
G75*
G03*
X143684484Y-95630000I1078608J-1672335D01*
G01*
X145999837Y-93028870D02*
G75*
G02*
X146000000Y-95110961I-1079837J-1041130D01*
G01*
X143840163Y-93028870D02*
G75*
G03*
X143840000Y-95110961I1079837J-1041130D01*
G01*
X145998608Y-92397665D02*
G75*
G02*
X146155516Y-95630000I-1078608J-1672335D01*
G01*
X175960000Y-103250000D02*
X175960000Y-102560000D01*
X175960000Y-97830000D02*
X175960000Y-98520000D01*
X174540000Y-102560000D02*
X177380000Y-102560000D01*
X177380000Y-98520000D02*
X174540000Y-98520000D01*
X177380000Y-102560000D02*
X177380000Y-98520000D01*
X174540000Y-98520000D02*
X174540000Y-102560000D01*
D15*
X156119878Y-88597776D02*
X156225612Y-88598355D01*
X156225612Y-88598355D02*
X156302132Y-88599922D01*
X156302132Y-88599922D02*
X156354372Y-88602972D01*
X156354372Y-88602972D02*
X156387263Y-88607996D01*
X156387263Y-88607996D02*
X156405737Y-88615489D01*
X156405737Y-88615489D02*
X156414727Y-88625944D01*
X156414727Y-88625944D02*
X156419163Y-88639853D01*
X156419163Y-88639853D02*
X156419594Y-88641654D01*
X156419594Y-88641654D02*
X156426333Y-88674145D01*
X156426333Y-88674145D02*
X156438808Y-88738252D01*
X156438808Y-88738252D02*
X156455719Y-88827151D01*
X156455719Y-88827151D02*
X156475771Y-88934019D01*
X156475771Y-88934019D02*
X156497664Y-89052033D01*
X156497664Y-89052033D02*
X156498429Y-89056178D01*
X156498429Y-89056178D02*
X156520359Y-89171831D01*
X156520359Y-89171831D02*
X156540877Y-89274014D01*
X156540877Y-89274014D02*
X156558659Y-89356598D01*
X156558659Y-89356598D02*
X156572381Y-89413456D01*
X156572381Y-89413456D02*
X156580718Y-89438458D01*
X156580718Y-89438458D02*
X156581116Y-89438901D01*
X156581116Y-89438901D02*
X156605677Y-89451110D01*
X156605677Y-89451110D02*
X156656315Y-89471456D01*
X156656315Y-89471456D02*
X156722095Y-89495545D01*
X156722095Y-89495545D02*
X156722461Y-89495674D01*
X156722461Y-89495674D02*
X156805317Y-89526818D01*
X156805317Y-89526818D02*
X156903000Y-89566491D01*
X156903000Y-89566491D02*
X156995077Y-89606381D01*
X156995077Y-89606381D02*
X156999434Y-89608353D01*
X156999434Y-89608353D02*
X157149407Y-89676420D01*
X157149407Y-89676420D02*
X157481498Y-89449639D01*
X157481498Y-89449639D02*
X157583374Y-89380504D01*
X157583374Y-89380504D02*
X157675657Y-89318697D01*
X157675657Y-89318697D02*
X157753003Y-89267733D01*
X157753003Y-89267733D02*
X157810064Y-89231127D01*
X157810064Y-89231127D02*
X157841495Y-89212394D01*
X157841495Y-89212394D02*
X157844479Y-89211004D01*
X157844479Y-89211004D02*
X157867321Y-89217190D01*
X157867321Y-89217190D02*
X157909982Y-89247035D01*
X157909982Y-89247035D02*
X157974128Y-89301947D01*
X157974128Y-89301947D02*
X158061421Y-89383334D01*
X158061421Y-89383334D02*
X158150535Y-89469922D01*
X158150535Y-89469922D02*
X158236441Y-89555247D01*
X158236441Y-89555247D02*
X158313327Y-89633108D01*
X158313327Y-89633108D02*
X158376564Y-89698697D01*
X158376564Y-89698697D02*
X158421523Y-89747205D01*
X158421523Y-89747205D02*
X158443576Y-89773825D01*
X158443576Y-89773825D02*
X158444396Y-89775195D01*
X158444396Y-89775195D02*
X158446834Y-89793463D01*
X158446834Y-89793463D02*
X158437650Y-89823295D01*
X158437650Y-89823295D02*
X158414574Y-89868721D01*
X158414574Y-89868721D02*
X158375337Y-89933770D01*
X158375337Y-89933770D02*
X158317670Y-90022470D01*
X158317670Y-90022470D02*
X158240795Y-90136657D01*
X158240795Y-90136657D02*
X158172570Y-90237162D01*
X158172570Y-90237162D02*
X158111582Y-90327303D01*
X158111582Y-90327303D02*
X158061356Y-90401849D01*
X158061356Y-90401849D02*
X158025416Y-90455565D01*
X158025416Y-90455565D02*
X158007287Y-90483218D01*
X158007287Y-90483218D02*
X158006146Y-90485095D01*
X158006146Y-90485095D02*
X158008359Y-90511590D01*
X158008359Y-90511590D02*
X158025138Y-90563086D01*
X158025138Y-90563086D02*
X158053142Y-90629851D01*
X158053142Y-90629851D02*
X158063122Y-90651172D01*
X158063122Y-90651172D02*
X158106672Y-90746159D01*
X158106672Y-90746159D02*
X158153134Y-90853937D01*
X158153134Y-90853937D02*
X158190877Y-90947192D01*
X158190877Y-90947192D02*
X158218073Y-91016406D01*
X158218073Y-91016406D02*
X158239675Y-91069006D01*
X158239675Y-91069006D02*
X158252158Y-91096497D01*
X158252158Y-91096497D02*
X158253709Y-91098616D01*
X158253709Y-91098616D02*
X158276668Y-91102124D01*
X158276668Y-91102124D02*
X158330786Y-91111738D01*
X158330786Y-91111738D02*
X158408868Y-91126089D01*
X158408868Y-91126089D02*
X158503719Y-91143807D01*
X158503719Y-91143807D02*
X158608143Y-91163525D01*
X158608143Y-91163525D02*
X158714944Y-91183874D01*
X158714944Y-91183874D02*
X158816926Y-91203486D01*
X158816926Y-91203486D02*
X158906894Y-91220991D01*
X158906894Y-91220991D02*
X158977653Y-91235022D01*
X158977653Y-91235022D02*
X159022006Y-91244209D01*
X159022006Y-91244209D02*
X159032885Y-91246807D01*
X159032885Y-91246807D02*
X159044122Y-91253218D01*
X159044122Y-91253218D02*
X159052605Y-91267697D01*
X159052605Y-91267697D02*
X159058714Y-91295133D01*
X159058714Y-91295133D02*
X159062832Y-91340411D01*
X159062832Y-91340411D02*
X159065341Y-91408420D01*
X159065341Y-91408420D02*
X159066621Y-91504047D01*
X159066621Y-91504047D02*
X159067054Y-91632180D01*
X159067054Y-91632180D02*
X159067077Y-91684701D01*
X159067077Y-91684701D02*
X159067077Y-92111845D01*
X159067077Y-92111845D02*
X158964500Y-92132091D01*
X158964500Y-92132091D02*
X158907431Y-92143070D01*
X158907431Y-92143070D02*
X158822269Y-92159095D01*
X158822269Y-92159095D02*
X158719372Y-92178233D01*
X158719372Y-92178233D02*
X158609096Y-92198551D01*
X158609096Y-92198551D02*
X158578615Y-92204132D01*
X158578615Y-92204132D02*
X158476855Y-92223917D01*
X158476855Y-92223917D02*
X158388205Y-92243373D01*
X158388205Y-92243373D02*
X158320108Y-92260697D01*
X158320108Y-92260697D02*
X158280004Y-92274088D01*
X158280004Y-92274088D02*
X158273323Y-92278079D01*
X158273323Y-92278079D02*
X158256919Y-92306342D01*
X158256919Y-92306342D02*
X158233399Y-92361109D01*
X158233399Y-92361109D02*
X158207316Y-92431588D01*
X158207316Y-92431588D02*
X158202142Y-92446769D01*
X158202142Y-92446769D02*
X158167956Y-92540896D01*
X158167956Y-92540896D02*
X158125523Y-92647101D01*
X158125523Y-92647101D02*
X158083997Y-92742473D01*
X158083997Y-92742473D02*
X158083792Y-92742916D01*
X158083792Y-92742916D02*
X158014640Y-92892525D01*
X158014640Y-92892525D02*
X158469512Y-93561617D01*
X158469512Y-93561617D02*
X158177500Y-93854116D01*
X158177500Y-93854116D02*
X158089180Y-93941170D01*
X158089180Y-93941170D02*
X158008625Y-94017909D01*
X158008625Y-94017909D02*
X157940360Y-94080237D01*
X157940360Y-94080237D02*
X157888908Y-94124056D01*
X157888908Y-94124056D02*
X157858794Y-94145270D01*
X157858794Y-94145270D02*
X157854474Y-94146616D01*
X157854474Y-94146616D02*
X157829111Y-94136016D01*
X157829111Y-94136016D02*
X157777358Y-94106547D01*
X157777358Y-94106547D02*
X157704868Y-94061705D01*
X157704868Y-94061705D02*
X157617294Y-94004984D01*
X157617294Y-94004984D02*
X157522612Y-93941462D01*
X157522612Y-93941462D02*
X157426516Y-93876668D01*
X157426516Y-93876668D02*
X157340837Y-93820287D01*
X157340837Y-93820287D02*
X157271016Y-93775788D01*
X157271016Y-93775788D02*
X157222494Y-93746639D01*
X157222494Y-93746639D02*
X157200782Y-93736308D01*
X157200782Y-93736308D02*
X157174293Y-93745050D01*
X157174293Y-93745050D02*
X157124062Y-93768087D01*
X157124062Y-93768087D02*
X157060451Y-93800631D01*
X157060451Y-93800631D02*
X157053708Y-93804249D01*
X157053708Y-93804249D02*
X156968046Y-93847210D01*
X156968046Y-93847210D02*
X156909306Y-93868279D01*
X156909306Y-93868279D02*
X156872772Y-93868503D01*
X156872772Y-93868503D02*
X156853731Y-93848928D01*
X156853731Y-93848928D02*
X156853620Y-93848654D01*
X156853620Y-93848654D02*
X156844102Y-93825472D01*
X156844102Y-93825472D02*
X156821403Y-93770441D01*
X156821403Y-93770441D02*
X156787282Y-93687822D01*
X156787282Y-93687822D02*
X156743500Y-93581872D01*
X156743500Y-93581872D02*
X156691816Y-93456852D01*
X156691816Y-93456852D02*
X156633992Y-93317020D01*
X156633992Y-93317020D02*
X156577991Y-93181637D01*
X156577991Y-93181637D02*
X156516447Y-93032234D01*
X156516447Y-93032234D02*
X156459939Y-92893832D01*
X156459939Y-92893832D02*
X156410161Y-92770673D01*
X156410161Y-92770673D02*
X156368806Y-92667002D01*
X156368806Y-92667002D02*
X156337568Y-92587059D01*
X156337568Y-92587059D02*
X156318141Y-92535088D01*
X156318141Y-92535088D02*
X156312154Y-92515692D01*
X156312154Y-92515692D02*
X156327168Y-92493443D01*
X156327168Y-92493443D02*
X156366439Y-92457982D01*
X156366439Y-92457982D02*
X156418807Y-92418887D01*
X156418807Y-92418887D02*
X156567941Y-92295245D01*
X156567941Y-92295245D02*
X156684511Y-92153522D01*
X156684511Y-92153522D02*
X156767118Y-91996704D01*
X156767118Y-91996704D02*
X156814366Y-91827775D01*
X156814366Y-91827775D02*
X156824857Y-91649722D01*
X156824857Y-91649722D02*
X156817231Y-91567539D01*
X156817231Y-91567539D02*
X156775682Y-91397031D01*
X156775682Y-91397031D02*
X156704123Y-91246459D01*
X156704123Y-91246459D02*
X156606995Y-91117309D01*
X156606995Y-91117309D02*
X156488734Y-91011064D01*
X156488734Y-91011064D02*
X156353780Y-90929210D01*
X156353780Y-90929210D02*
X156206571Y-90873232D01*
X156206571Y-90873232D02*
X156051544Y-90844615D01*
X156051544Y-90844615D02*
X155893139Y-90844844D01*
X155893139Y-90844844D02*
X155735794Y-90875405D01*
X155735794Y-90875405D02*
X155583946Y-90937782D01*
X155583946Y-90937782D02*
X155442035Y-91033460D01*
X155442035Y-91033460D02*
X155382803Y-91087572D01*
X155382803Y-91087572D02*
X155269203Y-91226520D01*
X155269203Y-91226520D02*
X155190106Y-91378361D01*
X155190106Y-91378361D02*
X155144986Y-91538667D01*
X155144986Y-91538667D02*
X155133316Y-91703012D01*
X155133316Y-91703012D02*
X155154569Y-91866971D01*
X155154569Y-91866971D02*
X155208220Y-92026118D01*
X155208220Y-92026118D02*
X155293740Y-92176025D01*
X155293740Y-92176025D02*
X155410605Y-92312267D01*
X155410605Y-92312267D02*
X155541193Y-92418887D01*
X155541193Y-92418887D02*
X155595588Y-92459642D01*
X155595588Y-92459642D02*
X155634014Y-92494718D01*
X155634014Y-92494718D02*
X155647846Y-92515726D01*
X155647846Y-92515726D02*
X155640603Y-92538635D01*
X155640603Y-92538635D02*
X155620005Y-92593365D01*
X155620005Y-92593365D02*
X155587746Y-92675672D01*
X155587746Y-92675672D02*
X155545521Y-92781315D01*
X155545521Y-92781315D02*
X155495023Y-92906050D01*
X155495023Y-92906050D02*
X155437948Y-93045636D01*
X155437948Y-93045636D02*
X155381854Y-93181670D01*
X155381854Y-93181670D02*
X155319967Y-93331201D01*
X155319967Y-93331201D02*
X155262644Y-93469767D01*
X155262644Y-93469767D02*
X155211644Y-93593107D01*
X155211644Y-93593107D02*
X155168727Y-93696964D01*
X155168727Y-93696964D02*
X155135653Y-93777080D01*
X155135653Y-93777080D02*
X155114181Y-93829195D01*
X155114181Y-93829195D02*
X155106225Y-93848654D01*
X155106225Y-93848654D02*
X155087429Y-93868423D01*
X155087429Y-93868423D02*
X155051074Y-93868365D01*
X155051074Y-93868365D02*
X154992479Y-93847441D01*
X154992479Y-93847441D02*
X154906968Y-93804613D01*
X154906968Y-93804613D02*
X154906292Y-93804249D01*
X154906292Y-93804249D02*
X154841907Y-93771012D01*
X154841907Y-93771012D02*
X154789861Y-93746802D01*
X154789861Y-93746802D02*
X154760512Y-93736404D01*
X154760512Y-93736404D02*
X154759217Y-93736308D01*
X154759217Y-93736308D02*
X154737124Y-93746855D01*
X154737124Y-93746855D02*
X154688348Y-93776184D01*
X154688348Y-93776184D02*
X154618331Y-93820827D01*
X154618331Y-93820827D02*
X154532514Y-93877314D01*
X154532514Y-93877314D02*
X154437388Y-93941462D01*
X154437388Y-93941462D02*
X154340540Y-94006411D01*
X154340540Y-94006411D02*
X154253253Y-94062896D01*
X154253253Y-94062896D02*
X154181181Y-94107421D01*
X154181181Y-94107421D02*
X154129977Y-94136490D01*
X154129977Y-94136490D02*
X154105526Y-94146616D01*
X154105526Y-94146616D02*
X154083010Y-94133307D01*
X154083010Y-94133307D02*
X154037742Y-94096112D01*
X154037742Y-94096112D02*
X153974244Y-94039128D01*
X153974244Y-94039128D02*
X153897039Y-93966449D01*
X153897039Y-93966449D02*
X153810651Y-93882171D01*
X153810651Y-93882171D02*
X153782399Y-93854016D01*
X153782399Y-93854016D02*
X153490287Y-93561416D01*
X153490287Y-93561416D02*
X153712631Y-93235104D01*
X153712631Y-93235104D02*
X153780202Y-93134897D01*
X153780202Y-93134897D02*
X153839507Y-93044963D01*
X153839507Y-93044963D02*
X153887217Y-92970510D01*
X153887217Y-92970510D02*
X153920007Y-92916751D01*
X153920007Y-92916751D02*
X153934548Y-92888894D01*
X153934548Y-92888894D02*
X153934974Y-92886912D01*
X153934974Y-92886912D02*
X153927308Y-92860655D01*
X153927308Y-92860655D02*
X153906689Y-92807837D01*
X153906689Y-92807837D02*
X153876685Y-92737310D01*
X153876685Y-92737310D02*
X153855625Y-92690093D01*
X153855625Y-92690093D02*
X153816248Y-92599694D01*
X153816248Y-92599694D02*
X153779165Y-92508366D01*
X153779165Y-92508366D02*
X153750415Y-92431200D01*
X153750415Y-92431200D02*
X153742605Y-92407692D01*
X153742605Y-92407692D02*
X153720417Y-92344916D01*
X153720417Y-92344916D02*
X153698727Y-92296411D01*
X153698727Y-92296411D02*
X153686813Y-92278079D01*
X153686813Y-92278079D02*
X153660523Y-92266859D01*
X153660523Y-92266859D02*
X153603142Y-92250954D01*
X153603142Y-92250954D02*
X153522118Y-92232167D01*
X153522118Y-92232167D02*
X153424895Y-92212299D01*
X153424895Y-92212299D02*
X153381385Y-92204132D01*
X153381385Y-92204132D02*
X153270896Y-92183829D01*
X153270896Y-92183829D02*
X153164916Y-92164170D01*
X153164916Y-92164170D02*
X153073801Y-92147088D01*
X153073801Y-92147088D02*
X153007908Y-92134518D01*
X153007908Y-92134518D02*
X152995500Y-92132091D01*
X152995500Y-92132091D02*
X152892923Y-92111845D01*
X152892923Y-92111845D02*
X152892923Y-91684701D01*
X152892923Y-91684701D02*
X152893153Y-91544246D01*
X152893153Y-91544246D02*
X152894099Y-91437979D01*
X152894099Y-91437979D02*
X152896141Y-91361013D01*
X152896141Y-91361013D02*
X152899662Y-91308460D01*
X152899662Y-91308460D02*
X152905043Y-91275433D01*
X152905043Y-91275433D02*
X152912666Y-91257045D01*
X152912666Y-91257045D02*
X152922912Y-91248408D01*
X152922912Y-91248408D02*
X152927115Y-91246807D01*
X152927115Y-91246807D02*
X152952470Y-91241127D01*
X152952470Y-91241127D02*
X153008484Y-91229795D01*
X153008484Y-91229795D02*
X153087964Y-91214179D01*
X153087964Y-91214179D02*
X153183712Y-91195647D01*
X153183712Y-91195647D02*
X153288533Y-91175569D01*
X153288533Y-91175569D02*
X153395232Y-91155312D01*
X153395232Y-91155312D02*
X153496613Y-91136246D01*
X153496613Y-91136246D02*
X153585479Y-91119739D01*
X153585479Y-91119739D02*
X153654637Y-91107159D01*
X153654637Y-91107159D02*
X153696889Y-91099875D01*
X153696889Y-91099875D02*
X153706290Y-91098616D01*
X153706290Y-91098616D02*
X153714807Y-91081763D01*
X153714807Y-91081763D02*
X153733660Y-91036870D01*
X153733660Y-91036870D02*
X153759324Y-90972430D01*
X153759324Y-90972430D02*
X153769123Y-90947192D01*
X153769123Y-90947192D02*
X153808648Y-90849686D01*
X153808648Y-90849686D02*
X153855192Y-90741959D01*
X153855192Y-90741959D02*
X153896877Y-90651172D01*
X153896877Y-90651172D02*
X153927550Y-90581753D01*
X153927550Y-90581753D02*
X153947956Y-90524710D01*
X153947956Y-90524710D02*
X153954768Y-90489777D01*
X153954768Y-90489777D02*
X153953682Y-90485095D01*
X153953682Y-90485095D02*
X153939285Y-90462991D01*
X153939285Y-90462991D02*
X153906412Y-90413831D01*
X153906412Y-90413831D02*
X153858590Y-90342848D01*
X153858590Y-90342848D02*
X153799348Y-90255278D01*
X153799348Y-90255278D02*
X153732215Y-90156357D01*
X153732215Y-90156357D02*
X153718941Y-90136830D01*
X153718941Y-90136830D02*
X153641046Y-90021140D01*
X153641046Y-90021140D02*
X153583787Y-89933044D01*
X153583787Y-89933044D02*
X153544881Y-89868486D01*
X153544881Y-89868486D02*
X153522044Y-89823411D01*
X153522044Y-89823411D02*
X153512994Y-89793763D01*
X153512994Y-89793763D02*
X153515448Y-89775485D01*
X153515448Y-89775485D02*
X153515511Y-89775369D01*
X153515511Y-89775369D02*
X153534827Y-89751361D01*
X153534827Y-89751361D02*
X153577551Y-89704947D01*
X153577551Y-89704947D02*
X153639051Y-89640937D01*
X153639051Y-89640937D02*
X153714698Y-89564145D01*
X153714698Y-89564145D02*
X153799861Y-89479382D01*
X153799861Y-89479382D02*
X153809465Y-89469922D01*
X153809465Y-89469922D02*
X153916790Y-89365989D01*
X153916790Y-89365989D02*
X153999615Y-89289675D01*
X153999615Y-89289675D02*
X154059605Y-89239571D01*
X154059605Y-89239571D02*
X154098423Y-89214270D01*
X154098423Y-89214270D02*
X154115520Y-89211004D01*
X154115520Y-89211004D02*
X154140473Y-89225250D01*
X154140473Y-89225250D02*
X154192255Y-89258156D01*
X154192255Y-89258156D02*
X154265520Y-89306208D01*
X154265520Y-89306208D02*
X154354920Y-89365890D01*
X154354920Y-89365890D02*
X154455111Y-89433688D01*
X154455111Y-89433688D02*
X154478501Y-89449639D01*
X154478501Y-89449639D02*
X154810593Y-89676420D01*
X154810593Y-89676420D02*
X154960565Y-89608353D01*
X154960565Y-89608353D02*
X155051770Y-89568685D01*
X155051770Y-89568685D02*
X155149669Y-89528791D01*
X155149669Y-89528791D02*
X155233831Y-89496983D01*
X155233831Y-89496983D02*
X155237538Y-89495674D01*
X155237538Y-89495674D02*
X155303369Y-89471576D01*
X155303369Y-89471576D02*
X155354116Y-89451200D01*
X155354116Y-89451200D02*
X155378842Y-89438936D01*
X155378842Y-89438936D02*
X155378884Y-89438901D01*
X155378884Y-89438901D02*
X155386729Y-89416734D01*
X155386729Y-89416734D02*
X155400066Y-89362217D01*
X155400066Y-89362217D02*
X155417570Y-89281480D01*
X155417570Y-89281480D02*
X155437917Y-89180650D01*
X155437917Y-89180650D02*
X155459782Y-89065856D01*
X155459782Y-89065856D02*
X155461571Y-89056178D01*
X155461571Y-89056178D02*
X155483504Y-88937904D01*
X155483504Y-88937904D02*
X155503640Y-88830542D01*
X155503640Y-88830542D02*
X155520680Y-88740917D01*
X155520680Y-88740917D02*
X155533328Y-88675851D01*
X155533328Y-88675851D02*
X155540284Y-88642168D01*
X155540284Y-88642168D02*
X155540406Y-88641654D01*
X155540406Y-88641654D02*
X155544639Y-88627325D01*
X155544639Y-88627325D02*
X155552871Y-88616507D01*
X155552871Y-88616507D02*
X155570033Y-88608706D01*
X155570033Y-88608706D02*
X155601058Y-88603429D01*
X155601058Y-88603429D02*
X155650878Y-88600182D01*
X155650878Y-88600182D02*
X155724424Y-88598472D01*
X155724424Y-88598472D02*
X155826629Y-88597807D01*
X155826629Y-88597807D02*
X155962425Y-88597693D01*
X155962425Y-88597693D02*
X155980000Y-88597692D01*
X155980000Y-88597692D02*
X156119878Y-88597776D01*
X156119878Y-88597776D02*
X156119878Y-88597776D01*
G36*
X156119878Y-88597776D02*
G01*
X156225612Y-88598355D01*
X156302132Y-88599922D01*
X156354372Y-88602972D01*
X156387263Y-88607996D01*
X156405737Y-88615489D01*
X156414727Y-88625944D01*
X156419163Y-88639853D01*
X156419594Y-88641654D01*
X156426333Y-88674145D01*
X156438808Y-88738252D01*
X156455719Y-88827151D01*
X156475771Y-88934019D01*
X156497664Y-89052033D01*
X156498429Y-89056178D01*
X156520359Y-89171831D01*
X156540877Y-89274014D01*
X156558659Y-89356598D01*
X156572381Y-89413456D01*
X156580718Y-89438458D01*
X156581116Y-89438901D01*
X156605677Y-89451110D01*
X156656315Y-89471456D01*
X156722095Y-89495545D01*
X156722461Y-89495674D01*
X156805317Y-89526818D01*
X156903000Y-89566491D01*
X156995077Y-89606381D01*
X156999434Y-89608353D01*
X157149407Y-89676420D01*
X157481498Y-89449639D01*
X157583374Y-89380504D01*
X157675657Y-89318697D01*
X157753003Y-89267733D01*
X157810064Y-89231127D01*
X157841495Y-89212394D01*
X157844479Y-89211004D01*
X157867321Y-89217190D01*
X157909982Y-89247035D01*
X157974128Y-89301947D01*
X158061421Y-89383334D01*
X158150535Y-89469922D01*
X158236441Y-89555247D01*
X158313327Y-89633108D01*
X158376564Y-89698697D01*
X158421523Y-89747205D01*
X158443576Y-89773825D01*
X158444396Y-89775195D01*
X158446834Y-89793463D01*
X158437650Y-89823295D01*
X158414574Y-89868721D01*
X158375337Y-89933770D01*
X158317670Y-90022470D01*
X158240795Y-90136657D01*
X158172570Y-90237162D01*
X158111582Y-90327303D01*
X158061356Y-90401849D01*
X158025416Y-90455565D01*
X158007287Y-90483218D01*
X158006146Y-90485095D01*
X158008359Y-90511590D01*
X158025138Y-90563086D01*
X158053142Y-90629851D01*
X158063122Y-90651172D01*
X158106672Y-90746159D01*
X158153134Y-90853937D01*
X158190877Y-90947192D01*
X158218073Y-91016406D01*
X158239675Y-91069006D01*
X158252158Y-91096497D01*
X158253709Y-91098616D01*
X158276668Y-91102124D01*
X158330786Y-91111738D01*
X158408868Y-91126089D01*
X158503719Y-91143807D01*
X158608143Y-91163525D01*
X158714944Y-91183874D01*
X158816926Y-91203486D01*
X158906894Y-91220991D01*
X158977653Y-91235022D01*
X159022006Y-91244209D01*
X159032885Y-91246807D01*
X159044122Y-91253218D01*
X159052605Y-91267697D01*
X159058714Y-91295133D01*
X159062832Y-91340411D01*
X159065341Y-91408420D01*
X159066621Y-91504047D01*
X159067054Y-91632180D01*
X159067077Y-91684701D01*
X159067077Y-92111845D01*
X158964500Y-92132091D01*
X158907431Y-92143070D01*
X158822269Y-92159095D01*
X158719372Y-92178233D01*
X158609096Y-92198551D01*
X158578615Y-92204132D01*
X158476855Y-92223917D01*
X158388205Y-92243373D01*
X158320108Y-92260697D01*
X158280004Y-92274088D01*
X158273323Y-92278079D01*
X158256919Y-92306342D01*
X158233399Y-92361109D01*
X158207316Y-92431588D01*
X158202142Y-92446769D01*
X158167956Y-92540896D01*
X158125523Y-92647101D01*
X158083997Y-92742473D01*
X158083792Y-92742916D01*
X158014640Y-92892525D01*
X158469512Y-93561617D01*
X158177500Y-93854116D01*
X158089180Y-93941170D01*
X158008625Y-94017909D01*
X157940360Y-94080237D01*
X157888908Y-94124056D01*
X157858794Y-94145270D01*
X157854474Y-94146616D01*
X157829111Y-94136016D01*
X157777358Y-94106547D01*
X157704868Y-94061705D01*
X157617294Y-94004984D01*
X157522612Y-93941462D01*
X157426516Y-93876668D01*
X157340837Y-93820287D01*
X157271016Y-93775788D01*
X157222494Y-93746639D01*
X157200782Y-93736308D01*
X157174293Y-93745050D01*
X157124062Y-93768087D01*
X157060451Y-93800631D01*
X157053708Y-93804249D01*
X156968046Y-93847210D01*
X156909306Y-93868279D01*
X156872772Y-93868503D01*
X156853731Y-93848928D01*
X156853620Y-93848654D01*
X156844102Y-93825472D01*
X156821403Y-93770441D01*
X156787282Y-93687822D01*
X156743500Y-93581872D01*
X156691816Y-93456852D01*
X156633992Y-93317020D01*
X156577991Y-93181637D01*
X156516447Y-93032234D01*
X156459939Y-92893832D01*
X156410161Y-92770673D01*
X156368806Y-92667002D01*
X156337568Y-92587059D01*
X156318141Y-92535088D01*
X156312154Y-92515692D01*
X156327168Y-92493443D01*
X156366439Y-92457982D01*
X156418807Y-92418887D01*
X156567941Y-92295245D01*
X156684511Y-92153522D01*
X156767118Y-91996704D01*
X156814366Y-91827775D01*
X156824857Y-91649722D01*
X156817231Y-91567539D01*
X156775682Y-91397031D01*
X156704123Y-91246459D01*
X156606995Y-91117309D01*
X156488734Y-91011064D01*
X156353780Y-90929210D01*
X156206571Y-90873232D01*
X156051544Y-90844615D01*
X155893139Y-90844844D01*
X155735794Y-90875405D01*
X155583946Y-90937782D01*
X155442035Y-91033460D01*
X155382803Y-91087572D01*
X155269203Y-91226520D01*
X155190106Y-91378361D01*
X155144986Y-91538667D01*
X155133316Y-91703012D01*
X155154569Y-91866971D01*
X155208220Y-92026118D01*
X155293740Y-92176025D01*
X155410605Y-92312267D01*
X155541193Y-92418887D01*
X155595588Y-92459642D01*
X155634014Y-92494718D01*
X155647846Y-92515726D01*
X155640603Y-92538635D01*
X155620005Y-92593365D01*
X155587746Y-92675672D01*
X155545521Y-92781315D01*
X155495023Y-92906050D01*
X155437948Y-93045636D01*
X155381854Y-93181670D01*
X155319967Y-93331201D01*
X155262644Y-93469767D01*
X155211644Y-93593107D01*
X155168727Y-93696964D01*
X155135653Y-93777080D01*
X155114181Y-93829195D01*
X155106225Y-93848654D01*
X155087429Y-93868423D01*
X155051074Y-93868365D01*
X154992479Y-93847441D01*
X154906968Y-93804613D01*
X154906292Y-93804249D01*
X154841907Y-93771012D01*
X154789861Y-93746802D01*
X154760512Y-93736404D01*
X154759217Y-93736308D01*
X154737124Y-93746855D01*
X154688348Y-93776184D01*
X154618331Y-93820827D01*
X154532514Y-93877314D01*
X154437388Y-93941462D01*
X154340540Y-94006411D01*
X154253253Y-94062896D01*
X154181181Y-94107421D01*
X154129977Y-94136490D01*
X154105526Y-94146616D01*
X154083010Y-94133307D01*
X154037742Y-94096112D01*
X153974244Y-94039128D01*
X153897039Y-93966449D01*
X153810651Y-93882171D01*
X153782399Y-93854016D01*
X153490287Y-93561416D01*
X153712631Y-93235104D01*
X153780202Y-93134897D01*
X153839507Y-93044963D01*
X153887217Y-92970510D01*
X153920007Y-92916751D01*
X153934548Y-92888894D01*
X153934974Y-92886912D01*
X153927308Y-92860655D01*
X153906689Y-92807837D01*
X153876685Y-92737310D01*
X153855625Y-92690093D01*
X153816248Y-92599694D01*
X153779165Y-92508366D01*
X153750415Y-92431200D01*
X153742605Y-92407692D01*
X153720417Y-92344916D01*
X153698727Y-92296411D01*
X153686813Y-92278079D01*
X153660523Y-92266859D01*
X153603142Y-92250954D01*
X153522118Y-92232167D01*
X153424895Y-92212299D01*
X153381385Y-92204132D01*
X153270896Y-92183829D01*
X153164916Y-92164170D01*
X153073801Y-92147088D01*
X153007908Y-92134518D01*
X152995500Y-92132091D01*
X152892923Y-92111845D01*
X152892923Y-91684701D01*
X152893153Y-91544246D01*
X152894099Y-91437979D01*
X152896141Y-91361013D01*
X152899662Y-91308460D01*
X152905043Y-91275433D01*
X152912666Y-91257045D01*
X152922912Y-91248408D01*
X152927115Y-91246807D01*
X152952470Y-91241127D01*
X153008484Y-91229795D01*
X153087964Y-91214179D01*
X153183712Y-91195647D01*
X153288533Y-91175569D01*
X153395232Y-91155312D01*
X153496613Y-91136246D01*
X153585479Y-91119739D01*
X153654637Y-91107159D01*
X153696889Y-91099875D01*
X153706290Y-91098616D01*
X153714807Y-91081763D01*
X153733660Y-91036870D01*
X153759324Y-90972430D01*
X153769123Y-90947192D01*
X153808648Y-90849686D01*
X153855192Y-90741959D01*
X153896877Y-90651172D01*
X153927550Y-90581753D01*
X153947956Y-90524710D01*
X153954768Y-90489777D01*
X153953682Y-90485095D01*
X153939285Y-90462991D01*
X153906412Y-90413831D01*
X153858590Y-90342848D01*
X153799348Y-90255278D01*
X153732215Y-90156357D01*
X153718941Y-90136830D01*
X153641046Y-90021140D01*
X153583787Y-89933044D01*
X153544881Y-89868486D01*
X153522044Y-89823411D01*
X153512994Y-89793763D01*
X153515448Y-89775485D01*
X153515511Y-89775369D01*
X153534827Y-89751361D01*
X153577551Y-89704947D01*
X153639051Y-89640937D01*
X153714698Y-89564145D01*
X153799861Y-89479382D01*
X153809465Y-89469922D01*
X153916790Y-89365989D01*
X153999615Y-89289675D01*
X154059605Y-89239571D01*
X154098423Y-89214270D01*
X154115520Y-89211004D01*
X154140473Y-89225250D01*
X154192255Y-89258156D01*
X154265520Y-89306208D01*
X154354920Y-89365890D01*
X154455111Y-89433688D01*
X154478501Y-89449639D01*
X154810593Y-89676420D01*
X154960565Y-89608353D01*
X155051770Y-89568685D01*
X155149669Y-89528791D01*
X155233831Y-89496983D01*
X155237538Y-89495674D01*
X155303369Y-89471576D01*
X155354116Y-89451200D01*
X155378842Y-89438936D01*
X155378884Y-89438901D01*
X155386729Y-89416734D01*
X155400066Y-89362217D01*
X155417570Y-89281480D01*
X155437917Y-89180650D01*
X155459782Y-89065856D01*
X155461571Y-89056178D01*
X155483504Y-88937904D01*
X155503640Y-88830542D01*
X155520680Y-88740917D01*
X155533328Y-88675851D01*
X155540284Y-88642168D01*
X155540406Y-88641654D01*
X155544639Y-88627325D01*
X155552871Y-88616507D01*
X155570033Y-88608706D01*
X155601058Y-88603429D01*
X155650878Y-88600182D01*
X155724424Y-88598472D01*
X155826629Y-88597807D01*
X155962425Y-88597693D01*
X155980000Y-88597692D01*
X156119878Y-88597776D01*
G37*
X156119878Y-88597776D02*
X156225612Y-88598355D01*
X156302132Y-88599922D01*
X156354372Y-88602972D01*
X156387263Y-88607996D01*
X156405737Y-88615489D01*
X156414727Y-88625944D01*
X156419163Y-88639853D01*
X156419594Y-88641654D01*
X156426333Y-88674145D01*
X156438808Y-88738252D01*
X156455719Y-88827151D01*
X156475771Y-88934019D01*
X156497664Y-89052033D01*
X156498429Y-89056178D01*
X156520359Y-89171831D01*
X156540877Y-89274014D01*
X156558659Y-89356598D01*
X156572381Y-89413456D01*
X156580718Y-89438458D01*
X156581116Y-89438901D01*
X156605677Y-89451110D01*
X156656315Y-89471456D01*
X156722095Y-89495545D01*
X156722461Y-89495674D01*
X156805317Y-89526818D01*
X156903000Y-89566491D01*
X156995077Y-89606381D01*
X156999434Y-89608353D01*
X157149407Y-89676420D01*
X157481498Y-89449639D01*
X157583374Y-89380504D01*
X157675657Y-89318697D01*
X157753003Y-89267733D01*
X157810064Y-89231127D01*
X157841495Y-89212394D01*
X157844479Y-89211004D01*
X157867321Y-89217190D01*
X157909982Y-89247035D01*
X157974128Y-89301947D01*
X158061421Y-89383334D01*
X158150535Y-89469922D01*
X158236441Y-89555247D01*
X158313327Y-89633108D01*
X158376564Y-89698697D01*
X158421523Y-89747205D01*
X158443576Y-89773825D01*
X158444396Y-89775195D01*
X158446834Y-89793463D01*
X158437650Y-89823295D01*
X158414574Y-89868721D01*
X158375337Y-89933770D01*
X158317670Y-90022470D01*
X158240795Y-90136657D01*
X158172570Y-90237162D01*
X158111582Y-90327303D01*
X158061356Y-90401849D01*
X158025416Y-90455565D01*
X158007287Y-90483218D01*
X158006146Y-90485095D01*
X158008359Y-90511590D01*
X158025138Y-90563086D01*
X158053142Y-90629851D01*
X158063122Y-90651172D01*
X158106672Y-90746159D01*
X158153134Y-90853937D01*
X158190877Y-90947192D01*
X158218073Y-91016406D01*
X158239675Y-91069006D01*
X158252158Y-91096497D01*
X158253709Y-91098616D01*
X158276668Y-91102124D01*
X158330786Y-91111738D01*
X158408868Y-91126089D01*
X158503719Y-91143807D01*
X158608143Y-91163525D01*
X158714944Y-91183874D01*
X158816926Y-91203486D01*
X158906894Y-91220991D01*
X158977653Y-91235022D01*
X159022006Y-91244209D01*
X159032885Y-91246807D01*
X159044122Y-91253218D01*
X159052605Y-91267697D01*
X159058714Y-91295133D01*
X159062832Y-91340411D01*
X159065341Y-91408420D01*
X159066621Y-91504047D01*
X159067054Y-91632180D01*
X159067077Y-91684701D01*
X159067077Y-92111845D01*
X158964500Y-92132091D01*
X158907431Y-92143070D01*
X158822269Y-92159095D01*
X158719372Y-92178233D01*
X158609096Y-92198551D01*
X158578615Y-92204132D01*
X158476855Y-92223917D01*
X158388205Y-92243373D01*
X158320108Y-92260697D01*
X158280004Y-92274088D01*
X158273323Y-92278079D01*
X158256919Y-92306342D01*
X158233399Y-92361109D01*
X158207316Y-92431588D01*
X158202142Y-92446769D01*
X158167956Y-92540896D01*
X158125523Y-92647101D01*
X158083997Y-92742473D01*
X158083792Y-92742916D01*
X158014640Y-92892525D01*
X158469512Y-93561617D01*
X158177500Y-93854116D01*
X158089180Y-93941170D01*
X158008625Y-94017909D01*
X157940360Y-94080237D01*
X157888908Y-94124056D01*
X157858794Y-94145270D01*
X157854474Y-94146616D01*
X157829111Y-94136016D01*
X157777358Y-94106547D01*
X157704868Y-94061705D01*
X157617294Y-94004984D01*
X157522612Y-93941462D01*
X157426516Y-93876668D01*
X157340837Y-93820287D01*
X157271016Y-93775788D01*
X157222494Y-93746639D01*
X157200782Y-93736308D01*
X157174293Y-93745050D01*
X157124062Y-93768087D01*
X157060451Y-93800631D01*
X157053708Y-93804249D01*
X156968046Y-93847210D01*
X156909306Y-93868279D01*
X156872772Y-93868503D01*
X156853731Y-93848928D01*
X156853620Y-93848654D01*
X156844102Y-93825472D01*
X156821403Y-93770441D01*
X156787282Y-93687822D01*
X156743500Y-93581872D01*
X156691816Y-93456852D01*
X156633992Y-93317020D01*
X156577991Y-93181637D01*
X156516447Y-93032234D01*
X156459939Y-92893832D01*
X156410161Y-92770673D01*
X156368806Y-92667002D01*
X156337568Y-92587059D01*
X156318141Y-92535088D01*
X156312154Y-92515692D01*
X156327168Y-92493443D01*
X156366439Y-92457982D01*
X156418807Y-92418887D01*
X156567941Y-92295245D01*
X156684511Y-92153522D01*
X156767118Y-91996704D01*
X156814366Y-91827775D01*
X156824857Y-91649722D01*
X156817231Y-91567539D01*
X156775682Y-91397031D01*
X156704123Y-91246459D01*
X156606995Y-91117309D01*
X156488734Y-91011064D01*
X156353780Y-90929210D01*
X156206571Y-90873232D01*
X156051544Y-90844615D01*
X155893139Y-90844844D01*
X155735794Y-90875405D01*
X155583946Y-90937782D01*
X155442035Y-91033460D01*
X155382803Y-91087572D01*
X155269203Y-91226520D01*
X155190106Y-91378361D01*
X155144986Y-91538667D01*
X155133316Y-91703012D01*
X155154569Y-91866971D01*
X155208220Y-92026118D01*
X155293740Y-92176025D01*
X155410605Y-92312267D01*
X155541193Y-92418887D01*
X155595588Y-92459642D01*
X155634014Y-92494718D01*
X155647846Y-92515726D01*
X155640603Y-92538635D01*
X155620005Y-92593365D01*
X155587746Y-92675672D01*
X155545521Y-92781315D01*
X155495023Y-92906050D01*
X155437948Y-93045636D01*
X155381854Y-93181670D01*
X155319967Y-93331201D01*
X155262644Y-93469767D01*
X155211644Y-93593107D01*
X155168727Y-93696964D01*
X155135653Y-93777080D01*
X155114181Y-93829195D01*
X155106225Y-93848654D01*
X155087429Y-93868423D01*
X155051074Y-93868365D01*
X154992479Y-93847441D01*
X154906968Y-93804613D01*
X154906292Y-93804249D01*
X154841907Y-93771012D01*
X154789861Y-93746802D01*
X154760512Y-93736404D01*
X154759217Y-93736308D01*
X154737124Y-93746855D01*
X154688348Y-93776184D01*
X154618331Y-93820827D01*
X154532514Y-93877314D01*
X154437388Y-93941462D01*
X154340540Y-94006411D01*
X154253253Y-94062896D01*
X154181181Y-94107421D01*
X154129977Y-94136490D01*
X154105526Y-94146616D01*
X154083010Y-94133307D01*
X154037742Y-94096112D01*
X153974244Y-94039128D01*
X153897039Y-93966449D01*
X153810651Y-93882171D01*
X153782399Y-93854016D01*
X153490287Y-93561416D01*
X153712631Y-93235104D01*
X153780202Y-93134897D01*
X153839507Y-93044963D01*
X153887217Y-92970510D01*
X153920007Y-92916751D01*
X153934548Y-92888894D01*
X153934974Y-92886912D01*
X153927308Y-92860655D01*
X153906689Y-92807837D01*
X153876685Y-92737310D01*
X153855625Y-92690093D01*
X153816248Y-92599694D01*
X153779165Y-92508366D01*
X153750415Y-92431200D01*
X153742605Y-92407692D01*
X153720417Y-92344916D01*
X153698727Y-92296411D01*
X153686813Y-92278079D01*
X153660523Y-92266859D01*
X153603142Y-92250954D01*
X153522118Y-92232167D01*
X153424895Y-92212299D01*
X153381385Y-92204132D01*
X153270896Y-92183829D01*
X153164916Y-92164170D01*
X153073801Y-92147088D01*
X153007908Y-92134518D01*
X152995500Y-92132091D01*
X152892923Y-92111845D01*
X152892923Y-91684701D01*
X152893153Y-91544246D01*
X152894099Y-91437979D01*
X152896141Y-91361013D01*
X152899662Y-91308460D01*
X152905043Y-91275433D01*
X152912666Y-91257045D01*
X152922912Y-91248408D01*
X152927115Y-91246807D01*
X152952470Y-91241127D01*
X153008484Y-91229795D01*
X153087964Y-91214179D01*
X153183712Y-91195647D01*
X153288533Y-91175569D01*
X153395232Y-91155312D01*
X153496613Y-91136246D01*
X153585479Y-91119739D01*
X153654637Y-91107159D01*
X153696889Y-91099875D01*
X153706290Y-91098616D01*
X153714807Y-91081763D01*
X153733660Y-91036870D01*
X153759324Y-90972430D01*
X153769123Y-90947192D01*
X153808648Y-90849686D01*
X153855192Y-90741959D01*
X153896877Y-90651172D01*
X153927550Y-90581753D01*
X153947956Y-90524710D01*
X153954768Y-90489777D01*
X153953682Y-90485095D01*
X153939285Y-90462991D01*
X153906412Y-90413831D01*
X153858590Y-90342848D01*
X153799348Y-90255278D01*
X153732215Y-90156357D01*
X153718941Y-90136830D01*
X153641046Y-90021140D01*
X153583787Y-89933044D01*
X153544881Y-89868486D01*
X153522044Y-89823411D01*
X153512994Y-89793763D01*
X153515448Y-89775485D01*
X153515511Y-89775369D01*
X153534827Y-89751361D01*
X153577551Y-89704947D01*
X153639051Y-89640937D01*
X153714698Y-89564145D01*
X153799861Y-89479382D01*
X153809465Y-89469922D01*
X153916790Y-89365989D01*
X153999615Y-89289675D01*
X154059605Y-89239571D01*
X154098423Y-89214270D01*
X154115520Y-89211004D01*
X154140473Y-89225250D01*
X154192255Y-89258156D01*
X154265520Y-89306208D01*
X154354920Y-89365890D01*
X154455111Y-89433688D01*
X154478501Y-89449639D01*
X154810593Y-89676420D01*
X154960565Y-89608353D01*
X155051770Y-89568685D01*
X155149669Y-89528791D01*
X155233831Y-89496983D01*
X155237538Y-89495674D01*
X155303369Y-89471576D01*
X155354116Y-89451200D01*
X155378842Y-89438936D01*
X155378884Y-89438901D01*
X155386729Y-89416734D01*
X155400066Y-89362217D01*
X155417570Y-89281480D01*
X155437917Y-89180650D01*
X155459782Y-89065856D01*
X155461571Y-89056178D01*
X155483504Y-88937904D01*
X155503640Y-88830542D01*
X155520680Y-88740917D01*
X155533328Y-88675851D01*
X155540284Y-88642168D01*
X155540406Y-88641654D01*
X155544639Y-88627325D01*
X155552871Y-88616507D01*
X155570033Y-88608706D01*
X155601058Y-88603429D01*
X155650878Y-88600182D01*
X155724424Y-88598472D01*
X155826629Y-88597807D01*
X155962425Y-88597693D01*
X155980000Y-88597692D01*
X156119878Y-88597776D01*
D14*
X154590000Y-83880000D02*
X154590000Y-84036000D01*
X154590000Y-81564000D02*
X154590000Y-81720000D01*
X157822335Y-81721392D02*
G75*
G03*
X154590000Y-81564484I-1672335J-1078608D01*
G01*
X157191130Y-83879837D02*
G75*
G02*
X155109039Y-83880000I-1041130J1079837D01*
G01*
X157822335Y-83878608D02*
G75*
G02*
X154590000Y-84035516I-1672335J1078608D01*
G01*
X157191130Y-81720163D02*
G75*
G03*
X155109039Y-81720000I-1041130J-1079837D01*
G01*
X154830000Y-98854000D02*
X154830000Y-99010000D01*
X154830000Y-101170000D02*
X154830000Y-101326000D01*
X157431130Y-101169837D02*
G75*
G02*
X155349039Y-101170000I-1041130J1079837D01*
G01*
X158062335Y-99011392D02*
G75*
G03*
X154830000Y-98854484I-1672335J-1078608D01*
G01*
X158062335Y-101168608D02*
G75*
G02*
X154830000Y-101325516I-1672335J1078608D01*
G01*
X157431130Y-99010163D02*
G75*
G03*
X155349039Y-99010000I-1041130J-1079837D01*
G01*
X166720000Y-95370000D02*
X166876000Y-95370000D01*
X164404000Y-95370000D02*
X164560000Y-95370000D01*
X166718608Y-92137665D02*
G75*
G02*
X166875516Y-95370000I-1078608J-1672335D01*
G01*
X166719837Y-92768870D02*
G75*
G02*
X166720000Y-94850961I-1079837J-1041130D01*
G01*
X164560163Y-92768870D02*
G75*
G03*
X164560000Y-94850961I1079837J-1041130D01*
G01*
X164561392Y-92137665D02*
G75*
G03*
X164404484Y-95370000I1078608J-1672335D01*
G01*
D15*
X163912270Y-74266825D02*
X164029041Y-74267304D01*
X164029041Y-74267304D02*
X164068729Y-74267545D01*
X164068729Y-74267545D02*
X164614486Y-74271135D01*
X164614486Y-74271135D02*
X164621351Y-76364919D01*
X164621351Y-76364919D02*
X164622258Y-76648842D01*
X164622258Y-76648842D02*
X164623062Y-76906640D01*
X164623062Y-76906640D02*
X164623815Y-77139646D01*
X164623815Y-77139646D02*
X164624569Y-77349194D01*
X164624569Y-77349194D02*
X164625375Y-77536618D01*
X164625375Y-77536618D02*
X164626285Y-77703250D01*
X164626285Y-77703250D02*
X164627351Y-77850425D01*
X164627351Y-77850425D02*
X164628624Y-77979477D01*
X164628624Y-77979477D02*
X164630156Y-78091739D01*
X164630156Y-78091739D02*
X164631998Y-78188544D01*
X164631998Y-78188544D02*
X164634203Y-78271226D01*
X164634203Y-78271226D02*
X164636822Y-78341119D01*
X164636822Y-78341119D02*
X164639906Y-78399557D01*
X164639906Y-78399557D02*
X164643508Y-78447872D01*
X164643508Y-78447872D02*
X164647678Y-78487400D01*
X164647678Y-78487400D02*
X164652469Y-78519473D01*
X164652469Y-78519473D02*
X164657931Y-78545424D01*
X164657931Y-78545424D02*
X164664118Y-78566589D01*
X164664118Y-78566589D02*
X164671080Y-78584299D01*
X164671080Y-78584299D02*
X164678869Y-78599889D01*
X164678869Y-78599889D02*
X164687537Y-78614693D01*
X164687537Y-78614693D02*
X164697135Y-78630044D01*
X164697135Y-78630044D02*
X164707715Y-78647276D01*
X164707715Y-78647276D02*
X164709884Y-78650946D01*
X164709884Y-78650946D02*
X164746268Y-78713031D01*
X164746268Y-78713031D02*
X164220431Y-78709434D01*
X164220431Y-78709434D02*
X163694594Y-78705838D01*
X163694594Y-78705838D02*
X163687729Y-78590331D01*
X163687729Y-78590331D02*
X163683992Y-78534899D01*
X163683992Y-78534899D02*
X163680097Y-78502851D01*
X163680097Y-78502851D02*
X163674811Y-78490135D01*
X163674811Y-78490135D02*
X163666903Y-78492696D01*
X163666903Y-78492696D02*
X163660270Y-78500024D01*
X163660270Y-78500024D02*
X163631374Y-78526714D01*
X163631374Y-78526714D02*
X163584279Y-78561021D01*
X163584279Y-78561021D02*
X163525620Y-78598846D01*
X163525620Y-78598846D02*
X163462031Y-78636090D01*
X163462031Y-78636090D02*
X163400149Y-78668653D01*
X163400149Y-78668653D02*
X163352634Y-78690077D01*
X163352634Y-78690077D02*
X163241316Y-78725283D01*
X163241316Y-78725283D02*
X163113596Y-78750222D01*
X163113596Y-78750222D02*
X162978901Y-78763941D01*
X162978901Y-78763941D02*
X162846663Y-78765486D01*
X162846663Y-78765486D02*
X162726308Y-78753906D01*
X162726308Y-78753906D02*
X162724326Y-78753574D01*
X162724326Y-78753574D02*
X162559641Y-78712250D01*
X162559641Y-78712250D02*
X162405479Y-78646412D01*
X162405479Y-78646412D02*
X162263328Y-78557474D01*
X162263328Y-78557474D02*
X162134675Y-78446852D01*
X162134675Y-78446852D02*
X162021007Y-78315961D01*
X162021007Y-78315961D02*
X161923810Y-78166216D01*
X161923810Y-78166216D02*
X161844572Y-77999033D01*
X161844572Y-77999033D02*
X161801430Y-77875190D01*
X161801430Y-77875190D02*
X161772979Y-77771581D01*
X161772979Y-77771581D02*
X161751880Y-77671252D01*
X161751880Y-77671252D02*
X161737488Y-77568109D01*
X161737488Y-77568109D02*
X161729158Y-77456057D01*
X161729158Y-77456057D02*
X161726245Y-77329001D01*
X161726245Y-77329001D02*
X161727535Y-77225252D01*
X161727535Y-77225252D02*
X162740650Y-77225252D01*
X162740650Y-77225252D02*
X162745444Y-77399222D01*
X162745444Y-77399222D02*
X162760568Y-77548895D01*
X162760568Y-77548895D02*
X162786485Y-77675597D01*
X162786485Y-77675597D02*
X162823663Y-77780658D01*
X162823663Y-77780658D02*
X162872565Y-77865406D01*
X162872565Y-77865406D02*
X162933658Y-77931169D01*
X162933658Y-77931169D02*
X163004177Y-77977659D01*
X163004177Y-77977659D02*
X163040871Y-77995014D01*
X163040871Y-77995014D02*
X163072696Y-78005419D01*
X163072696Y-78005419D02*
X163108177Y-78010179D01*
X163108177Y-78010179D02*
X163155841Y-78010601D01*
X163155841Y-78010601D02*
X163207189Y-78008748D01*
X163207189Y-78008748D02*
X163308169Y-77999841D01*
X163308169Y-77999841D02*
X163388035Y-77982398D01*
X163388035Y-77982398D02*
X163413135Y-77973661D01*
X163413135Y-77973661D02*
X163470448Y-77947857D01*
X163470448Y-77947857D02*
X163530897Y-77915453D01*
X163530897Y-77915453D02*
X163557297Y-77899233D01*
X163557297Y-77899233D02*
X163625946Y-77854205D01*
X163625946Y-77854205D02*
X163625946Y-76426982D01*
X163625946Y-76426982D02*
X163550432Y-76381718D01*
X163550432Y-76381718D02*
X163445121Y-76330572D01*
X163445121Y-76330572D02*
X163337525Y-76300324D01*
X163337525Y-76300324D02*
X163231581Y-76290795D01*
X163231581Y-76290795D02*
X163131224Y-76301807D01*
X163131224Y-76301807D02*
X163040387Y-76333181D01*
X163040387Y-76333181D02*
X162963007Y-76384740D01*
X162963007Y-76384740D02*
X162938039Y-76409488D01*
X162938039Y-76409488D02*
X162877856Y-76490577D01*
X162877856Y-76490577D02*
X162829145Y-76588734D01*
X162829145Y-76588734D02*
X162791499Y-76705643D01*
X162791499Y-76705643D02*
X162764512Y-76842985D01*
X162764512Y-76842985D02*
X162747775Y-77002444D01*
X162747775Y-77002444D02*
X162740883Y-77185700D01*
X162740883Y-77185700D02*
X162740650Y-77225252D01*
X162740650Y-77225252D02*
X161727535Y-77225252D01*
X161727535Y-77225252D02*
X161728073Y-77182067D01*
X161728073Y-77182067D02*
X161739647Y-76956053D01*
X161739647Y-76956053D02*
X161762920Y-76752192D01*
X161762920Y-76752192D02*
X161798504Y-76567513D01*
X161798504Y-76567513D02*
X161847013Y-76399048D01*
X161847013Y-76399048D02*
X161909060Y-76243826D01*
X161909060Y-76243826D02*
X161931201Y-76197808D01*
X161931201Y-76197808D02*
X162020385Y-76047739D01*
X162020385Y-76047739D02*
X162128159Y-75914377D01*
X162128159Y-75914377D02*
X162251990Y-75799877D01*
X162251990Y-75799877D02*
X162389342Y-75706389D01*
X162389342Y-75706389D02*
X162537683Y-75636068D01*
X162537683Y-75636068D02*
X162626604Y-75607060D01*
X162626604Y-75607060D02*
X162713933Y-75589840D01*
X162713933Y-75589840D02*
X162819011Y-75579594D01*
X162819011Y-75579594D02*
X162933029Y-75576318D01*
X162933029Y-75576318D02*
X163047177Y-75580009D01*
X163047177Y-75580009D02*
X163152648Y-75590660D01*
X163152648Y-75590660D02*
X163237334Y-75607370D01*
X163237334Y-75607370D02*
X163338128Y-75640140D01*
X163338128Y-75640140D02*
X163435822Y-75682279D01*
X163435822Y-75682279D02*
X163521296Y-75729519D01*
X163521296Y-75729519D02*
X163566789Y-75761581D01*
X163566789Y-75761581D02*
X163598169Y-75785422D01*
X163598169Y-75785422D02*
X163620142Y-75799939D01*
X163620142Y-75799939D02*
X163625141Y-75802000D01*
X163625141Y-75802000D02*
X163626690Y-75788718D01*
X163626690Y-75788718D02*
X163628135Y-75750663D01*
X163628135Y-75750663D02*
X163629443Y-75690519D01*
X163629443Y-75690519D02*
X163630583Y-75610973D01*
X163630583Y-75610973D02*
X163631521Y-75514711D01*
X163631521Y-75514711D02*
X163632226Y-75404419D01*
X163632226Y-75404419D02*
X163632667Y-75282781D01*
X163632667Y-75282781D02*
X163632811Y-75158885D01*
X163632811Y-75158885D02*
X163632730Y-75000196D01*
X163632730Y-75000196D02*
X163632335Y-74866408D01*
X163632335Y-74866408D02*
X163631395Y-74754960D01*
X163631395Y-74754960D02*
X163629680Y-74663295D01*
X163629680Y-74663295D02*
X163626957Y-74588853D01*
X163626957Y-74588853D02*
X163622997Y-74529075D01*
X163622997Y-74529075D02*
X163617569Y-74481402D01*
X163617569Y-74481402D02*
X163610441Y-74443274D01*
X163610441Y-74443274D02*
X163601384Y-74412134D01*
X163601384Y-74412134D02*
X163590167Y-74385421D01*
X163590167Y-74385421D02*
X163576558Y-74360577D01*
X163576558Y-74360577D02*
X163560328Y-74335043D01*
X163560328Y-74335043D02*
X163558240Y-74331881D01*
X163558240Y-74331881D02*
X163537306Y-74298810D01*
X163537306Y-74298810D02*
X163524667Y-74276069D01*
X163524667Y-74276069D02*
X163522973Y-74271272D01*
X163522973Y-74271272D02*
X163536216Y-74269759D01*
X163536216Y-74269759D02*
X163574002Y-74268528D01*
X163574002Y-74268528D02*
X163633416Y-74267599D01*
X163633416Y-74267599D02*
X163711542Y-74266992D01*
X163711542Y-74266992D02*
X163805465Y-74266727D01*
X163805465Y-74266727D02*
X163912270Y-74266825D01*
X163912270Y-74266825D02*
X163912270Y-74266825D01*
G36*
X161739647Y-76956053D02*
G01*
X161762920Y-76752192D01*
X161798504Y-76567513D01*
X161847013Y-76399048D01*
X161909060Y-76243826D01*
X161931201Y-76197808D01*
X162020385Y-76047739D01*
X162128159Y-75914377D01*
X162251990Y-75799877D01*
X162389342Y-75706389D01*
X162537683Y-75636068D01*
X162626604Y-75607060D01*
X162713933Y-75589840D01*
X162819011Y-75579594D01*
X162933029Y-75576318D01*
X163047177Y-75580009D01*
X163152648Y-75590660D01*
X163237334Y-75607370D01*
X163338128Y-75640140D01*
X163435822Y-75682279D01*
X163521296Y-75729519D01*
X163566789Y-75761581D01*
X163598169Y-75785422D01*
X163620142Y-75799939D01*
X163625141Y-75802000D01*
X163626690Y-75788718D01*
X163628135Y-75750663D01*
X163629443Y-75690519D01*
X163630583Y-75610973D01*
X163631521Y-75514711D01*
X163632226Y-75404419D01*
X163632667Y-75282781D01*
X163632811Y-75158885D01*
X163632730Y-75000196D01*
X163632335Y-74866408D01*
X163631395Y-74754960D01*
X163629680Y-74663295D01*
X163626957Y-74588853D01*
X163622997Y-74529075D01*
X163617569Y-74481402D01*
X163610441Y-74443274D01*
X163601384Y-74412134D01*
X163590167Y-74385421D01*
X163576558Y-74360577D01*
X163560328Y-74335043D01*
X163558240Y-74331881D01*
X163537306Y-74298810D01*
X163524667Y-74276069D01*
X163522973Y-74271272D01*
X163536216Y-74269759D01*
X163574002Y-74268528D01*
X163633416Y-74267599D01*
X163711542Y-74266992D01*
X163805465Y-74266727D01*
X163912270Y-74266825D01*
X164029041Y-74267304D01*
X164068729Y-74267545D01*
X164614486Y-74271135D01*
X164621351Y-76364919D01*
X164622258Y-76648842D01*
X164623062Y-76906640D01*
X164623815Y-77139646D01*
X164624569Y-77349194D01*
X164625375Y-77536618D01*
X164626285Y-77703250D01*
X164627351Y-77850425D01*
X164628624Y-77979477D01*
X164630156Y-78091739D01*
X164631998Y-78188544D01*
X164634203Y-78271226D01*
X164636822Y-78341119D01*
X164639906Y-78399557D01*
X164643508Y-78447872D01*
X164647678Y-78487400D01*
X164652469Y-78519473D01*
X164657931Y-78545424D01*
X164664118Y-78566589D01*
X164671080Y-78584299D01*
X164678869Y-78599889D01*
X164687537Y-78614693D01*
X164697135Y-78630044D01*
X164707715Y-78647276D01*
X164709884Y-78650946D01*
X164746268Y-78713031D01*
X164220431Y-78709434D01*
X163694594Y-78705838D01*
X163687729Y-78590331D01*
X163683992Y-78534899D01*
X163680097Y-78502851D01*
X163674811Y-78490135D01*
X163666903Y-78492696D01*
X163660270Y-78500024D01*
X163631374Y-78526714D01*
X163584279Y-78561021D01*
X163525620Y-78598846D01*
X163462031Y-78636090D01*
X163400149Y-78668653D01*
X163352634Y-78690077D01*
X163241316Y-78725283D01*
X163113596Y-78750222D01*
X162978901Y-78763941D01*
X162846663Y-78765486D01*
X162726308Y-78753906D01*
X162724326Y-78753574D01*
X162559641Y-78712250D01*
X162405479Y-78646412D01*
X162263328Y-78557474D01*
X162134675Y-78446852D01*
X162021007Y-78315961D01*
X161923810Y-78166216D01*
X161844572Y-77999033D01*
X161801430Y-77875190D01*
X161772979Y-77771581D01*
X161751880Y-77671252D01*
X161737488Y-77568109D01*
X161729158Y-77456057D01*
X161726245Y-77329001D01*
X161727535Y-77225252D01*
X162740650Y-77225252D01*
X162745444Y-77399222D01*
X162760568Y-77548895D01*
X162786485Y-77675597D01*
X162823663Y-77780658D01*
X162872565Y-77865406D01*
X162933658Y-77931169D01*
X163004177Y-77977659D01*
X163040871Y-77995014D01*
X163072696Y-78005419D01*
X163108177Y-78010179D01*
X163155841Y-78010601D01*
X163207189Y-78008748D01*
X163308169Y-77999841D01*
X163388035Y-77982398D01*
X163413135Y-77973661D01*
X163470448Y-77947857D01*
X163530897Y-77915453D01*
X163557297Y-77899233D01*
X163625946Y-77854205D01*
X163625946Y-76426982D01*
X163550432Y-76381718D01*
X163445121Y-76330572D01*
X163337525Y-76300324D01*
X163231581Y-76290795D01*
X163131224Y-76301807D01*
X163040387Y-76333181D01*
X162963007Y-76384740D01*
X162938039Y-76409488D01*
X162877856Y-76490577D01*
X162829145Y-76588734D01*
X162791499Y-76705643D01*
X162764512Y-76842985D01*
X162747775Y-77002444D01*
X162740883Y-77185700D01*
X162740650Y-77225252D01*
X161727535Y-77225252D01*
X161728073Y-77182067D01*
X161739647Y-76956053D01*
G37*
X161739647Y-76956053D02*
X161762920Y-76752192D01*
X161798504Y-76567513D01*
X161847013Y-76399048D01*
X161909060Y-76243826D01*
X161931201Y-76197808D01*
X162020385Y-76047739D01*
X162128159Y-75914377D01*
X162251990Y-75799877D01*
X162389342Y-75706389D01*
X162537683Y-75636068D01*
X162626604Y-75607060D01*
X162713933Y-75589840D01*
X162819011Y-75579594D01*
X162933029Y-75576318D01*
X163047177Y-75580009D01*
X163152648Y-75590660D01*
X163237334Y-75607370D01*
X163338128Y-75640140D01*
X163435822Y-75682279D01*
X163521296Y-75729519D01*
X163566789Y-75761581D01*
X163598169Y-75785422D01*
X163620142Y-75799939D01*
X163625141Y-75802000D01*
X163626690Y-75788718D01*
X163628135Y-75750663D01*
X163629443Y-75690519D01*
X163630583Y-75610973D01*
X163631521Y-75514711D01*
X163632226Y-75404419D01*
X163632667Y-75282781D01*
X163632811Y-75158885D01*
X163632730Y-75000196D01*
X163632335Y-74866408D01*
X163631395Y-74754960D01*
X163629680Y-74663295D01*
X163626957Y-74588853D01*
X163622997Y-74529075D01*
X163617569Y-74481402D01*
X163610441Y-74443274D01*
X163601384Y-74412134D01*
X163590167Y-74385421D01*
X163576558Y-74360577D01*
X163560328Y-74335043D01*
X163558240Y-74331881D01*
X163537306Y-74298810D01*
X163524667Y-74276069D01*
X163522973Y-74271272D01*
X163536216Y-74269759D01*
X163574002Y-74268528D01*
X163633416Y-74267599D01*
X163711542Y-74266992D01*
X163805465Y-74266727D01*
X163912270Y-74266825D01*
X164029041Y-74267304D01*
X164068729Y-74267545D01*
X164614486Y-74271135D01*
X164621351Y-76364919D01*
X164622258Y-76648842D01*
X164623062Y-76906640D01*
X164623815Y-77139646D01*
X164624569Y-77349194D01*
X164625375Y-77536618D01*
X164626285Y-77703250D01*
X164627351Y-77850425D01*
X164628624Y-77979477D01*
X164630156Y-78091739D01*
X164631998Y-78188544D01*
X164634203Y-78271226D01*
X164636822Y-78341119D01*
X164639906Y-78399557D01*
X164643508Y-78447872D01*
X164647678Y-78487400D01*
X164652469Y-78519473D01*
X164657931Y-78545424D01*
X164664118Y-78566589D01*
X164671080Y-78584299D01*
X164678869Y-78599889D01*
X164687537Y-78614693D01*
X164697135Y-78630044D01*
X164707715Y-78647276D01*
X164709884Y-78650946D01*
X164746268Y-78713031D01*
X164220431Y-78709434D01*
X163694594Y-78705838D01*
X163687729Y-78590331D01*
X163683992Y-78534899D01*
X163680097Y-78502851D01*
X163674811Y-78490135D01*
X163666903Y-78492696D01*
X163660270Y-78500024D01*
X163631374Y-78526714D01*
X163584279Y-78561021D01*
X163525620Y-78598846D01*
X163462031Y-78636090D01*
X163400149Y-78668653D01*
X163352634Y-78690077D01*
X163241316Y-78725283D01*
X163113596Y-78750222D01*
X162978901Y-78763941D01*
X162846663Y-78765486D01*
X162726308Y-78753906D01*
X162724326Y-78753574D01*
X162559641Y-78712250D01*
X162405479Y-78646412D01*
X162263328Y-78557474D01*
X162134675Y-78446852D01*
X162021007Y-78315961D01*
X161923810Y-78166216D01*
X161844572Y-77999033D01*
X161801430Y-77875190D01*
X161772979Y-77771581D01*
X161751880Y-77671252D01*
X161737488Y-77568109D01*
X161729158Y-77456057D01*
X161726245Y-77329001D01*
X161727535Y-77225252D01*
X162740650Y-77225252D01*
X162745444Y-77399222D01*
X162760568Y-77548895D01*
X162786485Y-77675597D01*
X162823663Y-77780658D01*
X162872565Y-77865406D01*
X162933658Y-77931169D01*
X163004177Y-77977659D01*
X163040871Y-77995014D01*
X163072696Y-78005419D01*
X163108177Y-78010179D01*
X163155841Y-78010601D01*
X163207189Y-78008748D01*
X163308169Y-77999841D01*
X163388035Y-77982398D01*
X163413135Y-77973661D01*
X163470448Y-77947857D01*
X163530897Y-77915453D01*
X163557297Y-77899233D01*
X163625946Y-77854205D01*
X163625946Y-76426982D01*
X163550432Y-76381718D01*
X163445121Y-76330572D01*
X163337525Y-76300324D01*
X163231581Y-76290795D01*
X163131224Y-76301807D01*
X163040387Y-76333181D01*
X162963007Y-76384740D01*
X162938039Y-76409488D01*
X162877856Y-76490577D01*
X162829145Y-76588734D01*
X162791499Y-76705643D01*
X162764512Y-76842985D01*
X162747775Y-77002444D01*
X162740883Y-77185700D01*
X162740650Y-77225252D01*
X161727535Y-77225252D01*
X161728073Y-77182067D01*
X161739647Y-76956053D01*
X151114257Y-73783689D02*
X151378780Y-73783725D01*
X151378780Y-73783725D02*
X151501912Y-73783730D01*
X151501912Y-73783730D02*
X153472811Y-73783730D01*
X153472811Y-73783730D02*
X153472811Y-73899910D01*
X153472811Y-73899910D02*
X153485211Y-74041291D01*
X153485211Y-74041291D02*
X153522636Y-74171684D01*
X153522636Y-74171684D02*
X153585423Y-74291862D01*
X153585423Y-74291862D02*
X153673906Y-74402602D01*
X153673906Y-74402602D02*
X153703843Y-74432511D01*
X153703843Y-74432511D02*
X153811534Y-74517348D01*
X153811534Y-74517348D02*
X153930275Y-74579221D01*
X153930275Y-74579221D02*
X154056540Y-74618159D01*
X154056540Y-74618159D02*
X154186803Y-74634190D01*
X154186803Y-74634190D02*
X154317535Y-74627342D01*
X154317535Y-74627342D02*
X154445212Y-74597643D01*
X154445212Y-74597643D02*
X154566305Y-74545120D01*
X154566305Y-74545120D02*
X154677288Y-74469803D01*
X154677288Y-74469803D02*
X154727132Y-74424363D01*
X154727132Y-74424363D02*
X154820017Y-74312952D01*
X154820017Y-74312952D02*
X154888127Y-74190435D01*
X154888127Y-74190435D02*
X154930871Y-74058215D01*
X154930871Y-74058215D02*
X154947653Y-73917692D01*
X154947653Y-73917692D02*
X154947876Y-73903867D01*
X154947876Y-73903867D02*
X154948756Y-73783734D01*
X154948756Y-73783734D02*
X155001557Y-73783732D01*
X155001557Y-73783732D02*
X155048396Y-73790089D01*
X155048396Y-73790089D02*
X155091183Y-73805556D01*
X155091183Y-73805556D02*
X155094011Y-73807154D01*
X155094011Y-73807154D02*
X155103675Y-73812168D01*
X155103675Y-73812168D02*
X155112549Y-73816073D01*
X155112549Y-73816073D02*
X155120665Y-73820007D01*
X155120665Y-73820007D02*
X155128057Y-73825106D01*
X155128057Y-73825106D02*
X155134755Y-73832508D01*
X155134755Y-73832508D02*
X155140792Y-73843351D01*
X155140792Y-73843351D02*
X155146199Y-73858772D01*
X155146199Y-73858772D02*
X155151010Y-73879909D01*
X155151010Y-73879909D02*
X155155255Y-73907899D01*
X155155255Y-73907899D02*
X155158968Y-73943879D01*
X155158968Y-73943879D02*
X155162179Y-73988987D01*
X155162179Y-73988987D02*
X155164922Y-74044360D01*
X155164922Y-74044360D02*
X155167228Y-74111137D01*
X155167228Y-74111137D02*
X155169129Y-74190453D01*
X155169129Y-74190453D02*
X155170658Y-74283447D01*
X155170658Y-74283447D02*
X155171846Y-74391257D01*
X155171846Y-74391257D02*
X155172726Y-74515019D01*
X155172726Y-74515019D02*
X155173330Y-74655871D01*
X155173330Y-74655871D02*
X155173689Y-74814950D01*
X155173689Y-74814950D02*
X155173835Y-74993395D01*
X155173835Y-74993395D02*
X155173802Y-75192342D01*
X155173802Y-75192342D02*
X155173620Y-75412929D01*
X155173620Y-75412929D02*
X155173323Y-75656293D01*
X155173323Y-75656293D02*
X155172941Y-75923572D01*
X155172941Y-75923572D02*
X155172508Y-76215903D01*
X155172508Y-76215903D02*
X155172055Y-76534424D01*
X155172055Y-76534424D02*
X155172002Y-76573230D01*
X155172002Y-76573230D02*
X155171596Y-76893782D01*
X155171596Y-76893782D02*
X155171251Y-77188012D01*
X155171251Y-77188012D02*
X155170931Y-77457056D01*
X155170931Y-77457056D02*
X155170600Y-77702052D01*
X155170600Y-77702052D02*
X155170221Y-77924137D01*
X155170221Y-77924137D02*
X155169757Y-78124447D01*
X155169757Y-78124447D02*
X155169172Y-78304119D01*
X155169172Y-78304119D02*
X155168430Y-78464290D01*
X155168430Y-78464290D02*
X155167494Y-78606098D01*
X155167494Y-78606098D02*
X155166327Y-78730679D01*
X155166327Y-78730679D02*
X155164893Y-78839170D01*
X155164893Y-78839170D02*
X155163156Y-78932707D01*
X155163156Y-78932707D02*
X155161078Y-79012429D01*
X155161078Y-79012429D02*
X155158624Y-79079472D01*
X155158624Y-79079472D02*
X155155756Y-79134973D01*
X155155756Y-79134973D02*
X155152439Y-79180068D01*
X155152439Y-79180068D02*
X155148636Y-79215895D01*
X155148636Y-79215895D02*
X155144310Y-79243591D01*
X155144310Y-79243591D02*
X155139425Y-79264293D01*
X155139425Y-79264293D02*
X155133945Y-79279137D01*
X155133945Y-79279137D02*
X155127832Y-79289260D01*
X155127832Y-79289260D02*
X155121050Y-79295800D01*
X155121050Y-79295800D02*
X155113563Y-79299893D01*
X155113563Y-79299893D02*
X155105334Y-79302676D01*
X155105334Y-79302676D02*
X155096327Y-79305287D01*
X155096327Y-79305287D02*
X155086505Y-79308862D01*
X155086505Y-79308862D02*
X155084106Y-79309950D01*
X155084106Y-79309950D02*
X155076565Y-79312396D01*
X155076565Y-79312396D02*
X155063944Y-79314642D01*
X155063944Y-79314642D02*
X155045141Y-79316698D01*
X155045141Y-79316698D02*
X155019053Y-79318572D01*
X155019053Y-79318572D02*
X154984578Y-79320271D01*
X154984578Y-79320271D02*
X154940615Y-79321803D01*
X154940615Y-79321803D02*
X154886061Y-79323177D01*
X154886061Y-79323177D02*
X154819815Y-79324400D01*
X154819815Y-79324400D02*
X154740774Y-79325481D01*
X154740774Y-79325481D02*
X154647837Y-79326427D01*
X154647837Y-79326427D02*
X154539901Y-79327247D01*
X154539901Y-79327247D02*
X154415864Y-79327947D01*
X154415864Y-79327947D02*
X154274624Y-79328538D01*
X154274624Y-79328538D02*
X154115079Y-79329025D01*
X154115079Y-79329025D02*
X153936128Y-79329419D01*
X153936128Y-79329419D02*
X153736668Y-79329725D01*
X153736668Y-79329725D02*
X153515596Y-79329953D01*
X153515596Y-79329953D02*
X153271812Y-79330110D01*
X153271812Y-79330110D02*
X153004213Y-79330205D01*
X153004213Y-79330205D02*
X152711697Y-79330245D01*
X152711697Y-79330245D02*
X152393161Y-79330238D01*
X152393161Y-79330238D02*
X152289979Y-79330228D01*
X152289979Y-79330228D02*
X151964377Y-79330176D01*
X151964377Y-79330176D02*
X151665119Y-79330091D01*
X151665119Y-79330091D02*
X151391091Y-79329963D01*
X151391091Y-79329963D02*
X151141176Y-79329785D01*
X151141176Y-79329785D02*
X150914260Y-79329548D01*
X150914260Y-79329548D02*
X150709227Y-79329242D01*
X150709227Y-79329242D02*
X150524962Y-79328860D01*
X150524962Y-79328860D02*
X150360350Y-79328392D01*
X150360350Y-79328392D02*
X150214275Y-79327830D01*
X150214275Y-79327830D02*
X150085624Y-79327165D01*
X150085624Y-79327165D02*
X149973279Y-79326388D01*
X149973279Y-79326388D02*
X149876126Y-79325491D01*
X149876126Y-79325491D02*
X149793050Y-79324465D01*
X149793050Y-79324465D02*
X149722936Y-79323301D01*
X149722936Y-79323301D02*
X149664668Y-79321991D01*
X149664668Y-79321991D02*
X149617131Y-79320525D01*
X149617131Y-79320525D02*
X149579210Y-79318896D01*
X149579210Y-79318896D02*
X149549790Y-79317093D01*
X149549790Y-79317093D02*
X149527755Y-79315110D01*
X149527755Y-79315110D02*
X149511990Y-79312936D01*
X149511990Y-79312936D02*
X149501380Y-79310563D01*
X149501380Y-79310563D02*
X149495596Y-79308391D01*
X149495596Y-79308391D02*
X149485316Y-79304056D01*
X149485316Y-79304056D02*
X149475878Y-79300859D01*
X149475878Y-79300859D02*
X149467245Y-79297665D01*
X149467245Y-79297665D02*
X149459381Y-79293338D01*
X149459381Y-79293338D02*
X149452252Y-79286744D01*
X149452252Y-79286744D02*
X149445821Y-79276747D01*
X149445821Y-79276747D02*
X149440053Y-79262212D01*
X149440053Y-79262212D02*
X149434911Y-79242003D01*
X149434911Y-79242003D02*
X149430360Y-79214985D01*
X149430360Y-79214985D02*
X149426365Y-79180023D01*
X149426365Y-79180023D02*
X149422889Y-79135981D01*
X149422889Y-79135981D02*
X149419898Y-79081724D01*
X149419898Y-79081724D02*
X149417354Y-79016117D01*
X149417354Y-79016117D02*
X149415223Y-78938024D01*
X149415223Y-78938024D02*
X149413468Y-78846310D01*
X149413468Y-78846310D02*
X149412055Y-78739840D01*
X149412055Y-78739840D02*
X149411685Y-78698973D01*
X149411685Y-78698973D02*
X149778116Y-78698973D01*
X149778116Y-78698973D02*
X151073266Y-78698973D01*
X151073266Y-78698973D02*
X151048345Y-78661217D01*
X151048345Y-78661217D02*
X151023553Y-78622417D01*
X151023553Y-78622417D02*
X151002560Y-78585469D01*
X151002560Y-78585469D02*
X150985065Y-78547788D01*
X150985065Y-78547788D02*
X150970770Y-78506788D01*
X150970770Y-78506788D02*
X150959377Y-78459883D01*
X150959377Y-78459883D02*
X150950587Y-78404487D01*
X150950587Y-78404487D02*
X150944102Y-78338016D01*
X150944102Y-78338016D02*
X150939623Y-78257883D01*
X150939623Y-78257883D02*
X150936850Y-78161502D01*
X150936850Y-78161502D02*
X150935487Y-78046289D01*
X150935487Y-78046289D02*
X150935233Y-77909657D01*
X150935233Y-77909657D02*
X150935791Y-77749020D01*
X150935791Y-77749020D02*
X150936107Y-77689382D01*
X150936107Y-77689382D02*
X150939675Y-77050041D01*
X150939675Y-77050041D02*
X151344702Y-77601449D01*
X151344702Y-77601449D02*
X151459446Y-77757876D01*
X151459446Y-77757876D02*
X151558857Y-77894088D01*
X151558857Y-77894088D02*
X151644010Y-78011890D01*
X151644010Y-78011890D02*
X151715978Y-78113084D01*
X151715978Y-78113084D02*
X151775834Y-78199477D01*
X151775834Y-78199477D02*
X151824652Y-78272874D01*
X151824652Y-78272874D02*
X151863505Y-78335077D01*
X151863505Y-78335077D02*
X151893466Y-78387893D01*
X151893466Y-78387893D02*
X151915609Y-78433125D01*
X151915609Y-78433125D02*
X151931007Y-78472578D01*
X151931007Y-78472578D02*
X151940734Y-78508058D01*
X151940734Y-78508058D02*
X151945863Y-78541368D01*
X151945863Y-78541368D02*
X151947468Y-78574313D01*
X151947468Y-78574313D02*
X151946621Y-78608697D01*
X151946621Y-78608697D02*
X151946405Y-78613019D01*
X151946405Y-78613019D02*
X151941946Y-78699031D01*
X151941946Y-78699031D02*
X153361308Y-78698973D01*
X153361308Y-78698973D02*
X153255735Y-78592522D01*
X153255735Y-78592522D02*
X153227087Y-78563406D01*
X153227087Y-78563406D02*
X153199910Y-78535076D01*
X153199910Y-78535076D02*
X153173011Y-78505968D01*
X153173011Y-78505968D02*
X153145197Y-78474520D01*
X153145197Y-78474520D02*
X153115275Y-78439169D01*
X153115275Y-78439169D02*
X153082054Y-78398354D01*
X153082054Y-78398354D02*
X153044339Y-78350511D01*
X153044339Y-78350511D02*
X153000940Y-78294079D01*
X153000940Y-78294079D02*
X152950662Y-78227494D01*
X152950662Y-78227494D02*
X152892312Y-78149195D01*
X152892312Y-78149195D02*
X152824700Y-78057619D01*
X152824700Y-78057619D02*
X152746631Y-77951204D01*
X152746631Y-77951204D02*
X152656912Y-77828387D01*
X152656912Y-77828387D02*
X152554352Y-77687605D01*
X152554352Y-77687605D02*
X152437758Y-77527297D01*
X152437758Y-77527297D02*
X152342191Y-77395798D01*
X152342191Y-77395798D02*
X152222251Y-77230596D01*
X152222251Y-77230596D02*
X152117620Y-77086152D01*
X152117620Y-77086152D02*
X152027352Y-76961094D01*
X152027352Y-76961094D02*
X151950497Y-76854052D01*
X151950497Y-76854052D02*
X151886109Y-76763654D01*
X151886109Y-76763654D02*
X151833239Y-76688529D01*
X151833239Y-76688529D02*
X151790940Y-76627304D01*
X151790940Y-76627304D02*
X151758264Y-76578610D01*
X151758264Y-76578610D02*
X151734262Y-76541074D01*
X151734262Y-76541074D02*
X151717987Y-76513325D01*
X151717987Y-76513325D02*
X151708492Y-76493992D01*
X151708492Y-76493992D02*
X151704827Y-76481703D01*
X151704827Y-76481703D02*
X151705929Y-76475242D01*
X151705929Y-76475242D02*
X151719276Y-76458048D01*
X151719276Y-76458048D02*
X151748134Y-76421655D01*
X151748134Y-76421655D02*
X151790760Y-76368224D01*
X151790760Y-76368224D02*
X151845415Y-76299919D01*
X151845415Y-76299919D02*
X151910356Y-76218903D01*
X151910356Y-76218903D02*
X151983842Y-76127340D01*
X151983842Y-76127340D02*
X152064132Y-76027392D01*
X152064132Y-76027392D02*
X152149485Y-75921224D01*
X152149485Y-75921224D02*
X152238160Y-75810997D01*
X152238160Y-75810997D02*
X152328414Y-75698876D01*
X152328414Y-75698876D02*
X152378056Y-75637244D01*
X152378056Y-75637244D02*
X153610627Y-75637244D01*
X153610627Y-75637244D02*
X153661854Y-75729919D01*
X153661854Y-75729919D02*
X153713081Y-75822595D01*
X153713081Y-75822595D02*
X153713081Y-78513622D01*
X153713081Y-78513622D02*
X153661854Y-78606298D01*
X153661854Y-78606298D02*
X153610627Y-78698973D01*
X153610627Y-78698973D02*
X154216604Y-78698973D01*
X154216604Y-78698973D02*
X154361266Y-78698931D01*
X154361266Y-78698931D02*
X154480756Y-78698741D01*
X154480756Y-78698741D02*
X154577358Y-78698308D01*
X154577358Y-78698308D02*
X154653358Y-78697536D01*
X154653358Y-78697536D02*
X154711043Y-78696330D01*
X154711043Y-78696330D02*
X154752699Y-78694594D01*
X154752699Y-78694594D02*
X154780611Y-78692232D01*
X154780611Y-78692232D02*
X154797065Y-78689150D01*
X154797065Y-78689150D02*
X154804348Y-78685251D01*
X154804348Y-78685251D02*
X154804745Y-78680440D01*
X154804745Y-78680440D02*
X154800542Y-78674622D01*
X154800542Y-78674622D02*
X154800499Y-78674574D01*
X154800499Y-78674574D02*
X154783187Y-78649532D01*
X154783187Y-78649532D02*
X154760264Y-78608815D01*
X154760264Y-78608815D02*
X154740019Y-78568168D01*
X154740019Y-78568168D02*
X154701621Y-78486162D01*
X154701621Y-78486162D02*
X154693789Y-75637244D01*
X154693789Y-75637244D02*
X153610627Y-75637244D01*
X153610627Y-75637244D02*
X152378056Y-75637244D01*
X152378056Y-75637244D02*
X152418507Y-75587024D01*
X152418507Y-75587024D02*
X152506698Y-75477604D01*
X152506698Y-75477604D02*
X152591246Y-75372778D01*
X152591246Y-75372778D02*
X152670408Y-75274711D01*
X152670408Y-75274711D02*
X152742444Y-75185566D01*
X152742444Y-75185566D02*
X152805613Y-75107505D01*
X152805613Y-75107505D02*
X152858173Y-75042692D01*
X152858173Y-75042692D02*
X152898383Y-74993290D01*
X152898383Y-74993290D02*
X152922000Y-74964487D01*
X152922000Y-74964487D02*
X153013710Y-74856778D01*
X153013710Y-74856778D02*
X153101940Y-74759580D01*
X153101940Y-74759580D02*
X153183597Y-74676076D01*
X153183597Y-74676076D02*
X153255590Y-74609448D01*
X153255590Y-74609448D02*
X153306681Y-74568599D01*
X153306681Y-74568599D02*
X153367093Y-74525135D01*
X153367093Y-74525135D02*
X151977702Y-74525135D01*
X151977702Y-74525135D02*
X151978092Y-74606666D01*
X151978092Y-74606666D02*
X151974209Y-74666606D01*
X151974209Y-74666606D02*
X151959610Y-74722177D01*
X151959610Y-74722177D02*
X151937012Y-74774855D01*
X151937012Y-74774855D02*
X151922322Y-74804615D01*
X151922322Y-74804615D02*
X151906528Y-74834103D01*
X151906528Y-74834103D02*
X151888186Y-74865276D01*
X151888186Y-74865276D02*
X151865855Y-74900093D01*
X151865855Y-74900093D02*
X151838091Y-74940510D01*
X151838091Y-74940510D02*
X151803451Y-74988486D01*
X151803451Y-74988486D02*
X151760493Y-75045978D01*
X151760493Y-75045978D02*
X151707773Y-75114943D01*
X151707773Y-75114943D02*
X151643849Y-75197339D01*
X151643849Y-75197339D02*
X151567279Y-75295124D01*
X151567279Y-75295124D02*
X151476619Y-75410255D01*
X151476619Y-75410255D02*
X151370426Y-75544690D01*
X151370426Y-75544690D02*
X151358432Y-75559859D01*
X151358432Y-75559859D02*
X150939675Y-76089412D01*
X150939675Y-76089412D02*
X150935622Y-75502922D01*
X150935622Y-75502922D02*
X150934805Y-75327251D01*
X150934805Y-75327251D02*
X150934979Y-75178532D01*
X150934979Y-75178532D02*
X150936151Y-75056275D01*
X150936151Y-75056275D02*
X150938331Y-74959989D01*
X150938331Y-74959989D02*
X150941526Y-74889183D01*
X150941526Y-74889183D02*
X150945744Y-74843369D01*
X150945744Y-74843369D02*
X150947162Y-74834679D01*
X150947162Y-74834679D02*
X150969409Y-74743135D01*
X150969409Y-74743135D02*
X150998557Y-74660608D01*
X150998557Y-74660608D02*
X151031818Y-74594253D01*
X151031818Y-74594253D02*
X151051800Y-74566110D01*
X151051800Y-74566110D02*
X151086278Y-74525135D01*
X151086278Y-74525135D02*
X150432086Y-74525135D01*
X150432086Y-74525135D02*
X150276031Y-74525269D01*
X150276031Y-74525269D02*
X150145533Y-74525703D01*
X150145533Y-74525703D02*
X150038690Y-74526489D01*
X150038690Y-74526489D02*
X149953602Y-74527676D01*
X149953602Y-74527676D02*
X149888365Y-74529317D01*
X149888365Y-74529317D02*
X149841079Y-74531461D01*
X149841079Y-74531461D02*
X149809843Y-74534159D01*
X149809843Y-74534159D02*
X149792754Y-74537462D01*
X149792754Y-74537462D02*
X149787912Y-74541421D01*
X149787912Y-74541421D02*
X149788247Y-74542298D01*
X149788247Y-74542298D02*
X149802115Y-74563231D01*
X149802115Y-74563231D02*
X149825268Y-74596412D01*
X149825268Y-74596412D02*
X149837246Y-74613193D01*
X149837246Y-74613193D02*
X149849631Y-74629940D01*
X149849631Y-74629940D02*
X149860763Y-74644915D01*
X149860763Y-74644915D02*
X149870712Y-74659594D01*
X149870712Y-74659594D02*
X149879549Y-74675449D01*
X149879549Y-74675449D02*
X149887343Y-74693955D01*
X149887343Y-74693955D02*
X149894165Y-74716585D01*
X149894165Y-74716585D02*
X149900084Y-74744813D01*
X149900084Y-74744813D02*
X149905171Y-74780113D01*
X149905171Y-74780113D02*
X149909496Y-74823958D01*
X149909496Y-74823958D02*
X149913129Y-74877822D01*
X149913129Y-74877822D02*
X149916140Y-74943180D01*
X149916140Y-74943180D02*
X149918599Y-75021504D01*
X149918599Y-75021504D02*
X149920577Y-75114268D01*
X149920577Y-75114268D02*
X149922142Y-75222947D01*
X149922142Y-75222947D02*
X149923366Y-75349013D01*
X149923366Y-75349013D02*
X149924319Y-75493942D01*
X149924319Y-75493942D02*
X149925070Y-75659206D01*
X149925070Y-75659206D02*
X149925689Y-75846279D01*
X149925689Y-75846279D02*
X149926248Y-76056635D01*
X149926248Y-76056635D02*
X149926815Y-76291748D01*
X149926815Y-76291748D02*
X149927345Y-76507741D01*
X149927345Y-76507741D02*
X149927845Y-76748535D01*
X149927845Y-76748535D02*
X149928105Y-76978274D01*
X149928105Y-76978274D02*
X149928132Y-77195493D01*
X149928132Y-77195493D02*
X149927933Y-77398722D01*
X149927933Y-77398722D02*
X149927514Y-77586496D01*
X149927514Y-77586496D02*
X149926882Y-77757345D01*
X149926882Y-77757345D02*
X149926044Y-77909803D01*
X149926044Y-77909803D02*
X149925008Y-78042403D01*
X149925008Y-78042403D02*
X149923780Y-78153676D01*
X149923780Y-78153676D02*
X149922367Y-78242156D01*
X149922367Y-78242156D02*
X149920775Y-78306375D01*
X149920775Y-78306375D02*
X149919013Y-78344865D01*
X149919013Y-78344865D02*
X149918679Y-78348933D01*
X149918679Y-78348933D02*
X149906534Y-78442248D01*
X149906534Y-78442248D02*
X149887573Y-78517190D01*
X149887573Y-78517190D02*
X149858698Y-78582594D01*
X149858698Y-78582594D02*
X149816810Y-78647293D01*
X149816810Y-78647293D02*
X149811571Y-78654352D01*
X149811571Y-78654352D02*
X149778116Y-78698973D01*
X149778116Y-78698973D02*
X149411685Y-78698973D01*
X149411685Y-78698973D02*
X149410946Y-78617479D01*
X149410946Y-78617479D02*
X149410107Y-78478090D01*
X149410107Y-78478090D02*
X149409502Y-78320539D01*
X149409502Y-78320539D02*
X149409095Y-78143691D01*
X149409095Y-78143691D02*
X149408850Y-77946410D01*
X149408850Y-77946410D02*
X149408733Y-77727560D01*
X149408733Y-77727560D02*
X149408705Y-77486007D01*
X149408705Y-77486007D02*
X149408733Y-77220615D01*
X149408733Y-77220615D02*
X149408780Y-76930249D01*
X149408780Y-76930249D02*
X149408810Y-76613773D01*
X149408810Y-76613773D02*
X149408811Y-76550946D01*
X149408811Y-76550946D02*
X149408828Y-76231137D01*
X149408828Y-76231137D02*
X149408888Y-75937661D01*
X149408888Y-75937661D02*
X149408998Y-75669390D01*
X149408998Y-75669390D02*
X149409167Y-75425198D01*
X149409167Y-75425198D02*
X149409403Y-75203957D01*
X149409403Y-75203957D02*
X149409716Y-75004540D01*
X149409716Y-75004540D02*
X149410115Y-74825820D01*
X149410115Y-74825820D02*
X149410607Y-74666671D01*
X149410607Y-74666671D02*
X149411203Y-74525966D01*
X149411203Y-74525966D02*
X149411910Y-74402576D01*
X149411910Y-74402576D02*
X149412737Y-74295376D01*
X149412737Y-74295376D02*
X149413693Y-74203238D01*
X149413693Y-74203238D02*
X149414787Y-74125035D01*
X149414787Y-74125035D02*
X149416027Y-74059641D01*
X149416027Y-74059641D02*
X149417422Y-74005928D01*
X149417422Y-74005928D02*
X149418982Y-73962769D01*
X149418982Y-73962769D02*
X149420714Y-73929037D01*
X149420714Y-73929037D02*
X149422628Y-73903605D01*
X149422628Y-73903605D02*
X149424732Y-73885347D01*
X149424732Y-73885347D02*
X149427034Y-73873134D01*
X149427034Y-73873134D02*
X149429545Y-73865841D01*
X149429545Y-73865841D02*
X149429637Y-73865659D01*
X149429637Y-73865659D02*
X149434808Y-73854518D01*
X149434808Y-73854518D02*
X149439115Y-73844431D01*
X149439115Y-73844431D02*
X149443879Y-73835346D01*
X149443879Y-73835346D02*
X149450422Y-73827212D01*
X149450422Y-73827212D02*
X149460065Y-73819976D01*
X149460065Y-73819976D02*
X149474129Y-73813586D01*
X149474129Y-73813586D02*
X149493937Y-73807989D01*
X149493937Y-73807989D02*
X149520809Y-73803133D01*
X149520809Y-73803133D02*
X149556067Y-73798966D01*
X149556067Y-73798966D02*
X149601032Y-73795436D01*
X149601032Y-73795436D02*
X149657026Y-73792491D01*
X149657026Y-73792491D02*
X149725371Y-73790077D01*
X149725371Y-73790077D02*
X149807386Y-73788144D01*
X149807386Y-73788144D02*
X149904395Y-73786638D01*
X149904395Y-73786638D02*
X150017718Y-73785508D01*
X150017718Y-73785508D02*
X150148677Y-73784702D01*
X150148677Y-73784702D02*
X150298593Y-73784166D01*
X150298593Y-73784166D02*
X150468787Y-73783849D01*
X150468787Y-73783849D02*
X150660582Y-73783699D01*
X150660582Y-73783699D02*
X150875298Y-73783663D01*
X150875298Y-73783663D02*
X151114257Y-73783689D01*
X151114257Y-73783689D02*
X151114257Y-73783689D01*
G36*
X149410107Y-78478090D02*
G01*
X149409502Y-78320539D01*
X149409095Y-78143691D01*
X149408850Y-77946410D01*
X149408733Y-77727560D01*
X149408705Y-77486007D01*
X149408733Y-77220615D01*
X149408780Y-76930249D01*
X149408810Y-76613773D01*
X149408811Y-76550946D01*
X149408828Y-76231137D01*
X149408888Y-75937661D01*
X149408998Y-75669390D01*
X149409167Y-75425198D01*
X149409403Y-75203957D01*
X149409716Y-75004540D01*
X149410115Y-74825820D01*
X149410607Y-74666671D01*
X149411203Y-74525966D01*
X149411910Y-74402576D01*
X149412737Y-74295376D01*
X149413693Y-74203238D01*
X149414787Y-74125035D01*
X149416027Y-74059641D01*
X149417422Y-74005928D01*
X149418982Y-73962769D01*
X149420714Y-73929037D01*
X149422628Y-73903605D01*
X149424732Y-73885347D01*
X149427034Y-73873134D01*
X149429545Y-73865841D01*
X149429637Y-73865659D01*
X149434808Y-73854518D01*
X149439115Y-73844431D01*
X149443879Y-73835346D01*
X149450422Y-73827212D01*
X149460065Y-73819976D01*
X149474129Y-73813586D01*
X149493937Y-73807989D01*
X149520809Y-73803133D01*
X149556067Y-73798966D01*
X149601032Y-73795436D01*
X149657026Y-73792491D01*
X149725371Y-73790077D01*
X149807386Y-73788144D01*
X149904395Y-73786638D01*
X150017718Y-73785508D01*
X150148677Y-73784702D01*
X150298593Y-73784166D01*
X150468787Y-73783849D01*
X150660582Y-73783699D01*
X150875298Y-73783663D01*
X151114257Y-73783689D01*
X151378780Y-73783725D01*
X151501912Y-73783730D01*
X153472811Y-73783730D01*
X153472811Y-73899910D01*
X153485211Y-74041291D01*
X153522636Y-74171684D01*
X153585423Y-74291862D01*
X153673906Y-74402602D01*
X153703843Y-74432511D01*
X153811534Y-74517348D01*
X153930275Y-74579221D01*
X154056540Y-74618159D01*
X154186803Y-74634190D01*
X154317535Y-74627342D01*
X154445212Y-74597643D01*
X154566305Y-74545120D01*
X154677288Y-74469803D01*
X154727132Y-74424363D01*
X154820017Y-74312952D01*
X154888127Y-74190435D01*
X154930871Y-74058215D01*
X154947653Y-73917692D01*
X154947876Y-73903867D01*
X154948756Y-73783734D01*
X155001557Y-73783732D01*
X155048396Y-73790089D01*
X155091183Y-73805556D01*
X155094011Y-73807154D01*
X155103675Y-73812168D01*
X155112549Y-73816073D01*
X155120665Y-73820007D01*
X155128057Y-73825106D01*
X155134755Y-73832508D01*
X155140792Y-73843351D01*
X155146199Y-73858772D01*
X155151010Y-73879909D01*
X155155255Y-73907899D01*
X155158968Y-73943879D01*
X155162179Y-73988987D01*
X155164922Y-74044360D01*
X155167228Y-74111137D01*
X155169129Y-74190453D01*
X155170658Y-74283447D01*
X155171846Y-74391257D01*
X155172726Y-74515019D01*
X155173330Y-74655871D01*
X155173689Y-74814950D01*
X155173835Y-74993395D01*
X155173802Y-75192342D01*
X155173620Y-75412929D01*
X155173323Y-75656293D01*
X155172941Y-75923572D01*
X155172508Y-76215903D01*
X155172055Y-76534424D01*
X155172002Y-76573230D01*
X155171596Y-76893782D01*
X155171251Y-77188012D01*
X155170931Y-77457056D01*
X155170600Y-77702052D01*
X155170221Y-77924137D01*
X155169757Y-78124447D01*
X155169172Y-78304119D01*
X155168430Y-78464290D01*
X155167494Y-78606098D01*
X155166327Y-78730679D01*
X155164893Y-78839170D01*
X155163156Y-78932707D01*
X155161078Y-79012429D01*
X155158624Y-79079472D01*
X155155756Y-79134973D01*
X155152439Y-79180068D01*
X155148636Y-79215895D01*
X155144310Y-79243591D01*
X155139425Y-79264293D01*
X155133945Y-79279137D01*
X155127832Y-79289260D01*
X155121050Y-79295800D01*
X155113563Y-79299893D01*
X155105334Y-79302676D01*
X155096327Y-79305287D01*
X155086505Y-79308862D01*
X155084106Y-79309950D01*
X155076565Y-79312396D01*
X155063944Y-79314642D01*
X155045141Y-79316698D01*
X155019053Y-79318572D01*
X154984578Y-79320271D01*
X154940615Y-79321803D01*
X154886061Y-79323177D01*
X154819815Y-79324400D01*
X154740774Y-79325481D01*
X154647837Y-79326427D01*
X154539901Y-79327247D01*
X154415864Y-79327947D01*
X154274624Y-79328538D01*
X154115079Y-79329025D01*
X153936128Y-79329419D01*
X153736668Y-79329725D01*
X153515596Y-79329953D01*
X153271812Y-79330110D01*
X153004213Y-79330205D01*
X152711697Y-79330245D01*
X152393161Y-79330238D01*
X152289979Y-79330228D01*
X151964377Y-79330176D01*
X151665119Y-79330091D01*
X151391091Y-79329963D01*
X151141176Y-79329785D01*
X150914260Y-79329548D01*
X150709227Y-79329242D01*
X150524962Y-79328860D01*
X150360350Y-79328392D01*
X150214275Y-79327830D01*
X150085624Y-79327165D01*
X149973279Y-79326388D01*
X149876126Y-79325491D01*
X149793050Y-79324465D01*
X149722936Y-79323301D01*
X149664668Y-79321991D01*
X149617131Y-79320525D01*
X149579210Y-79318896D01*
X149549790Y-79317093D01*
X149527755Y-79315110D01*
X149511990Y-79312936D01*
X149501380Y-79310563D01*
X149495596Y-79308391D01*
X149485316Y-79304056D01*
X149475878Y-79300859D01*
X149467245Y-79297665D01*
X149459381Y-79293338D01*
X149452252Y-79286744D01*
X149445821Y-79276747D01*
X149440053Y-79262212D01*
X149434911Y-79242003D01*
X149430360Y-79214985D01*
X149426365Y-79180023D01*
X149422889Y-79135981D01*
X149419898Y-79081724D01*
X149417354Y-79016117D01*
X149415223Y-78938024D01*
X149413468Y-78846310D01*
X149412055Y-78739840D01*
X149411685Y-78698973D01*
X149778116Y-78698973D01*
X151073266Y-78698973D01*
X151048345Y-78661217D01*
X151023553Y-78622417D01*
X151002560Y-78585469D01*
X150985065Y-78547788D01*
X150970770Y-78506788D01*
X150959377Y-78459883D01*
X150950587Y-78404487D01*
X150944102Y-78338016D01*
X150939623Y-78257883D01*
X150936850Y-78161502D01*
X150935487Y-78046289D01*
X150935233Y-77909657D01*
X150935791Y-77749020D01*
X150936107Y-77689382D01*
X150939675Y-77050041D01*
X151344702Y-77601449D01*
X151459446Y-77757876D01*
X151558857Y-77894088D01*
X151644010Y-78011890D01*
X151715978Y-78113084D01*
X151775834Y-78199477D01*
X151824652Y-78272874D01*
X151863505Y-78335077D01*
X151893466Y-78387893D01*
X151915609Y-78433125D01*
X151931007Y-78472578D01*
X151940734Y-78508058D01*
X151945863Y-78541368D01*
X151947468Y-78574313D01*
X151946621Y-78608697D01*
X151946405Y-78613019D01*
X151941946Y-78699031D01*
X153361308Y-78698973D01*
X153610627Y-78698973D01*
X154216604Y-78698973D01*
X154361266Y-78698931D01*
X154480756Y-78698741D01*
X154577358Y-78698308D01*
X154653358Y-78697536D01*
X154711043Y-78696330D01*
X154752699Y-78694594D01*
X154780611Y-78692232D01*
X154797065Y-78689150D01*
X154804348Y-78685251D01*
X154804745Y-78680440D01*
X154800542Y-78674622D01*
X154800499Y-78674574D01*
X154783187Y-78649532D01*
X154760264Y-78608815D01*
X154740019Y-78568168D01*
X154701621Y-78486162D01*
X154693789Y-75637244D01*
X153610627Y-75637244D01*
X153661854Y-75729919D01*
X153713081Y-75822595D01*
X153713081Y-78513622D01*
X153661854Y-78606298D01*
X153610627Y-78698973D01*
X153361308Y-78698973D01*
X153255735Y-78592522D01*
X153227087Y-78563406D01*
X153199910Y-78535076D01*
X153173011Y-78505968D01*
X153145197Y-78474520D01*
X153115275Y-78439169D01*
X153082054Y-78398354D01*
X153044339Y-78350511D01*
X153000940Y-78294079D01*
X152950662Y-78227494D01*
X152892312Y-78149195D01*
X152824700Y-78057619D01*
X152746631Y-77951204D01*
X152656912Y-77828387D01*
X152554352Y-77687605D01*
X152437758Y-77527297D01*
X152342191Y-77395798D01*
X152222251Y-77230596D01*
X152117620Y-77086152D01*
X152027352Y-76961094D01*
X151950497Y-76854052D01*
X151886109Y-76763654D01*
X151833239Y-76688529D01*
X151790940Y-76627304D01*
X151758264Y-76578610D01*
X151734262Y-76541074D01*
X151717987Y-76513325D01*
X151708492Y-76493992D01*
X151704827Y-76481703D01*
X151705929Y-76475242D01*
X151719276Y-76458048D01*
X151748134Y-76421655D01*
X151790760Y-76368224D01*
X151845415Y-76299919D01*
X151910356Y-76218903D01*
X151983842Y-76127340D01*
X152064132Y-76027392D01*
X152149485Y-75921224D01*
X152238160Y-75810997D01*
X152328414Y-75698876D01*
X152378056Y-75637244D01*
X152418507Y-75587024D01*
X152506698Y-75477604D01*
X152591246Y-75372778D01*
X152670408Y-75274711D01*
X152742444Y-75185566D01*
X152805613Y-75107505D01*
X152858173Y-75042692D01*
X152898383Y-74993290D01*
X152922000Y-74964487D01*
X153013710Y-74856778D01*
X153101940Y-74759580D01*
X153183597Y-74676076D01*
X153255590Y-74609448D01*
X153306681Y-74568599D01*
X153367093Y-74525135D01*
X151977702Y-74525135D01*
X151978092Y-74606666D01*
X151974209Y-74666606D01*
X151959610Y-74722177D01*
X151937012Y-74774855D01*
X151922322Y-74804615D01*
X151906528Y-74834103D01*
X151888186Y-74865276D01*
X151865855Y-74900093D01*
X151838091Y-74940510D01*
X151803451Y-74988486D01*
X151760493Y-75045978D01*
X151707773Y-75114943D01*
X151643849Y-75197339D01*
X151567279Y-75295124D01*
X151476619Y-75410255D01*
X151370426Y-75544690D01*
X151358432Y-75559859D01*
X150939675Y-76089412D01*
X150935622Y-75502922D01*
X150934805Y-75327251D01*
X150934979Y-75178532D01*
X150936151Y-75056275D01*
X150938331Y-74959989D01*
X150941526Y-74889183D01*
X150945744Y-74843369D01*
X150947162Y-74834679D01*
X150969409Y-74743135D01*
X150998557Y-74660608D01*
X151031818Y-74594253D01*
X151051800Y-74566110D01*
X151086278Y-74525135D01*
X150432086Y-74525135D01*
X150276031Y-74525269D01*
X150145533Y-74525703D01*
X150038690Y-74526489D01*
X149953602Y-74527676D01*
X149888365Y-74529317D01*
X149841079Y-74531461D01*
X149809843Y-74534159D01*
X149792754Y-74537462D01*
X149787912Y-74541421D01*
X149788247Y-74542298D01*
X149802115Y-74563231D01*
X149825268Y-74596412D01*
X149837246Y-74613193D01*
X149849631Y-74629940D01*
X149860763Y-74644915D01*
X149870712Y-74659594D01*
X149879549Y-74675449D01*
X149887343Y-74693955D01*
X149894165Y-74716585D01*
X149900084Y-74744813D01*
X149905171Y-74780113D01*
X149909496Y-74823958D01*
X149913129Y-74877822D01*
X149916140Y-74943180D01*
X149918599Y-75021504D01*
X149920577Y-75114268D01*
X149922142Y-75222947D01*
X149923366Y-75349013D01*
X149924319Y-75493942D01*
X149925070Y-75659206D01*
X149925689Y-75846279D01*
X149926248Y-76056635D01*
X149926815Y-76291748D01*
X149927345Y-76507741D01*
X149927845Y-76748535D01*
X149928105Y-76978274D01*
X149928132Y-77195493D01*
X149927933Y-77398722D01*
X149927514Y-77586496D01*
X149926882Y-77757345D01*
X149926044Y-77909803D01*
X149925008Y-78042403D01*
X149923780Y-78153676D01*
X149922367Y-78242156D01*
X149920775Y-78306375D01*
X149919013Y-78344865D01*
X149918679Y-78348933D01*
X149906534Y-78442248D01*
X149887573Y-78517190D01*
X149858698Y-78582594D01*
X149816810Y-78647293D01*
X149811571Y-78654352D01*
X149778116Y-78698973D01*
X149411685Y-78698973D01*
X149410946Y-78617479D01*
X149410107Y-78478090D01*
G37*
X149410107Y-78478090D02*
X149409502Y-78320539D01*
X149409095Y-78143691D01*
X149408850Y-77946410D01*
X149408733Y-77727560D01*
X149408705Y-77486007D01*
X149408733Y-77220615D01*
X149408780Y-76930249D01*
X149408810Y-76613773D01*
X149408811Y-76550946D01*
X149408828Y-76231137D01*
X149408888Y-75937661D01*
X149408998Y-75669390D01*
X149409167Y-75425198D01*
X149409403Y-75203957D01*
X149409716Y-75004540D01*
X149410115Y-74825820D01*
X149410607Y-74666671D01*
X149411203Y-74525966D01*
X149411910Y-74402576D01*
X149412737Y-74295376D01*
X149413693Y-74203238D01*
X149414787Y-74125035D01*
X149416027Y-74059641D01*
X149417422Y-74005928D01*
X149418982Y-73962769D01*
X149420714Y-73929037D01*
X149422628Y-73903605D01*
X149424732Y-73885347D01*
X149427034Y-73873134D01*
X149429545Y-73865841D01*
X149429637Y-73865659D01*
X149434808Y-73854518D01*
X149439115Y-73844431D01*
X149443879Y-73835346D01*
X149450422Y-73827212D01*
X149460065Y-73819976D01*
X149474129Y-73813586D01*
X149493937Y-73807989D01*
X149520809Y-73803133D01*
X149556067Y-73798966D01*
X149601032Y-73795436D01*
X149657026Y-73792491D01*
X149725371Y-73790077D01*
X149807386Y-73788144D01*
X149904395Y-73786638D01*
X150017718Y-73785508D01*
X150148677Y-73784702D01*
X150298593Y-73784166D01*
X150468787Y-73783849D01*
X150660582Y-73783699D01*
X150875298Y-73783663D01*
X151114257Y-73783689D01*
X151378780Y-73783725D01*
X151501912Y-73783730D01*
X153472811Y-73783730D01*
X153472811Y-73899910D01*
X153485211Y-74041291D01*
X153522636Y-74171684D01*
X153585423Y-74291862D01*
X153673906Y-74402602D01*
X153703843Y-74432511D01*
X153811534Y-74517348D01*
X153930275Y-74579221D01*
X154056540Y-74618159D01*
X154186803Y-74634190D01*
X154317535Y-74627342D01*
X154445212Y-74597643D01*
X154566305Y-74545120D01*
X154677288Y-74469803D01*
X154727132Y-74424363D01*
X154820017Y-74312952D01*
X154888127Y-74190435D01*
X154930871Y-74058215D01*
X154947653Y-73917692D01*
X154947876Y-73903867D01*
X154948756Y-73783734D01*
X155001557Y-73783732D01*
X155048396Y-73790089D01*
X155091183Y-73805556D01*
X155094011Y-73807154D01*
X155103675Y-73812168D01*
X155112549Y-73816073D01*
X155120665Y-73820007D01*
X155128057Y-73825106D01*
X155134755Y-73832508D01*
X155140792Y-73843351D01*
X155146199Y-73858772D01*
X155151010Y-73879909D01*
X155155255Y-73907899D01*
X155158968Y-73943879D01*
X155162179Y-73988987D01*
X155164922Y-74044360D01*
X155167228Y-74111137D01*
X155169129Y-74190453D01*
X155170658Y-74283447D01*
X155171846Y-74391257D01*
X155172726Y-74515019D01*
X155173330Y-74655871D01*
X155173689Y-74814950D01*
X155173835Y-74993395D01*
X155173802Y-75192342D01*
X155173620Y-75412929D01*
X155173323Y-75656293D01*
X155172941Y-75923572D01*
X155172508Y-76215903D01*
X155172055Y-76534424D01*
X155172002Y-76573230D01*
X155171596Y-76893782D01*
X155171251Y-77188012D01*
X155170931Y-77457056D01*
X155170600Y-77702052D01*
X155170221Y-77924137D01*
X155169757Y-78124447D01*
X155169172Y-78304119D01*
X155168430Y-78464290D01*
X155167494Y-78606098D01*
X155166327Y-78730679D01*
X155164893Y-78839170D01*
X155163156Y-78932707D01*
X155161078Y-79012429D01*
X155158624Y-79079472D01*
X155155756Y-79134973D01*
X155152439Y-79180068D01*
X155148636Y-79215895D01*
X155144310Y-79243591D01*
X155139425Y-79264293D01*
X155133945Y-79279137D01*
X155127832Y-79289260D01*
X155121050Y-79295800D01*
X155113563Y-79299893D01*
X155105334Y-79302676D01*
X155096327Y-79305287D01*
X155086505Y-79308862D01*
X155084106Y-79309950D01*
X155076565Y-79312396D01*
X155063944Y-79314642D01*
X155045141Y-79316698D01*
X155019053Y-79318572D01*
X154984578Y-79320271D01*
X154940615Y-79321803D01*
X154886061Y-79323177D01*
X154819815Y-79324400D01*
X154740774Y-79325481D01*
X154647837Y-79326427D01*
X154539901Y-79327247D01*
X154415864Y-79327947D01*
X154274624Y-79328538D01*
X154115079Y-79329025D01*
X153936128Y-79329419D01*
X153736668Y-79329725D01*
X153515596Y-79329953D01*
X153271812Y-79330110D01*
X153004213Y-79330205D01*
X152711697Y-79330245D01*
X152393161Y-79330238D01*
X152289979Y-79330228D01*
X151964377Y-79330176D01*
X151665119Y-79330091D01*
X151391091Y-79329963D01*
X151141176Y-79329785D01*
X150914260Y-79329548D01*
X150709227Y-79329242D01*
X150524962Y-79328860D01*
X150360350Y-79328392D01*
X150214275Y-79327830D01*
X150085624Y-79327165D01*
X149973279Y-79326388D01*
X149876126Y-79325491D01*
X149793050Y-79324465D01*
X149722936Y-79323301D01*
X149664668Y-79321991D01*
X149617131Y-79320525D01*
X149579210Y-79318896D01*
X149549790Y-79317093D01*
X149527755Y-79315110D01*
X149511990Y-79312936D01*
X149501380Y-79310563D01*
X149495596Y-79308391D01*
X149485316Y-79304056D01*
X149475878Y-79300859D01*
X149467245Y-79297665D01*
X149459381Y-79293338D01*
X149452252Y-79286744D01*
X149445821Y-79276747D01*
X149440053Y-79262212D01*
X149434911Y-79242003D01*
X149430360Y-79214985D01*
X149426365Y-79180023D01*
X149422889Y-79135981D01*
X149419898Y-79081724D01*
X149417354Y-79016117D01*
X149415223Y-78938024D01*
X149413468Y-78846310D01*
X149412055Y-78739840D01*
X149411685Y-78698973D01*
X149778116Y-78698973D01*
X151073266Y-78698973D01*
X151048345Y-78661217D01*
X151023553Y-78622417D01*
X151002560Y-78585469D01*
X150985065Y-78547788D01*
X150970770Y-78506788D01*
X150959377Y-78459883D01*
X150950587Y-78404487D01*
X150944102Y-78338016D01*
X150939623Y-78257883D01*
X150936850Y-78161502D01*
X150935487Y-78046289D01*
X150935233Y-77909657D01*
X150935791Y-77749020D01*
X150936107Y-77689382D01*
X150939675Y-77050041D01*
X151344702Y-77601449D01*
X151459446Y-77757876D01*
X151558857Y-77894088D01*
X151644010Y-78011890D01*
X151715978Y-78113084D01*
X151775834Y-78199477D01*
X151824652Y-78272874D01*
X151863505Y-78335077D01*
X151893466Y-78387893D01*
X151915609Y-78433125D01*
X151931007Y-78472578D01*
X151940734Y-78508058D01*
X151945863Y-78541368D01*
X151947468Y-78574313D01*
X151946621Y-78608697D01*
X151946405Y-78613019D01*
X151941946Y-78699031D01*
X153361308Y-78698973D01*
X153610627Y-78698973D01*
X154216604Y-78698973D01*
X154361266Y-78698931D01*
X154480756Y-78698741D01*
X154577358Y-78698308D01*
X154653358Y-78697536D01*
X154711043Y-78696330D01*
X154752699Y-78694594D01*
X154780611Y-78692232D01*
X154797065Y-78689150D01*
X154804348Y-78685251D01*
X154804745Y-78680440D01*
X154800542Y-78674622D01*
X154800499Y-78674574D01*
X154783187Y-78649532D01*
X154760264Y-78608815D01*
X154740019Y-78568168D01*
X154701621Y-78486162D01*
X154693789Y-75637244D01*
X153610627Y-75637244D01*
X153661854Y-75729919D01*
X153713081Y-75822595D01*
X153713081Y-78513622D01*
X153661854Y-78606298D01*
X153610627Y-78698973D01*
X153361308Y-78698973D01*
X153255735Y-78592522D01*
X153227087Y-78563406D01*
X153199910Y-78535076D01*
X153173011Y-78505968D01*
X153145197Y-78474520D01*
X153115275Y-78439169D01*
X153082054Y-78398354D01*
X153044339Y-78350511D01*
X153000940Y-78294079D01*
X152950662Y-78227494D01*
X152892312Y-78149195D01*
X152824700Y-78057619D01*
X152746631Y-77951204D01*
X152656912Y-77828387D01*
X152554352Y-77687605D01*
X152437758Y-77527297D01*
X152342191Y-77395798D01*
X152222251Y-77230596D01*
X152117620Y-77086152D01*
X152027352Y-76961094D01*
X151950497Y-76854052D01*
X151886109Y-76763654D01*
X151833239Y-76688529D01*
X151790940Y-76627304D01*
X151758264Y-76578610D01*
X151734262Y-76541074D01*
X151717987Y-76513325D01*
X151708492Y-76493992D01*
X151704827Y-76481703D01*
X151705929Y-76475242D01*
X151719276Y-76458048D01*
X151748134Y-76421655D01*
X151790760Y-76368224D01*
X151845415Y-76299919D01*
X151910356Y-76218903D01*
X151983842Y-76127340D01*
X152064132Y-76027392D01*
X152149485Y-75921224D01*
X152238160Y-75810997D01*
X152328414Y-75698876D01*
X152378056Y-75637244D01*
X152418507Y-75587024D01*
X152506698Y-75477604D01*
X152591246Y-75372778D01*
X152670408Y-75274711D01*
X152742444Y-75185566D01*
X152805613Y-75107505D01*
X152858173Y-75042692D01*
X152898383Y-74993290D01*
X152922000Y-74964487D01*
X153013710Y-74856778D01*
X153101940Y-74759580D01*
X153183597Y-74676076D01*
X153255590Y-74609448D01*
X153306681Y-74568599D01*
X153367093Y-74525135D01*
X151977702Y-74525135D01*
X151978092Y-74606666D01*
X151974209Y-74666606D01*
X151959610Y-74722177D01*
X151937012Y-74774855D01*
X151922322Y-74804615D01*
X151906528Y-74834103D01*
X151888186Y-74865276D01*
X151865855Y-74900093D01*
X151838091Y-74940510D01*
X151803451Y-74988486D01*
X151760493Y-75045978D01*
X151707773Y-75114943D01*
X151643849Y-75197339D01*
X151567279Y-75295124D01*
X151476619Y-75410255D01*
X151370426Y-75544690D01*
X151358432Y-75559859D01*
X150939675Y-76089412D01*
X150935622Y-75502922D01*
X150934805Y-75327251D01*
X150934979Y-75178532D01*
X150936151Y-75056275D01*
X150938331Y-74959989D01*
X150941526Y-74889183D01*
X150945744Y-74843369D01*
X150947162Y-74834679D01*
X150969409Y-74743135D01*
X150998557Y-74660608D01*
X151031818Y-74594253D01*
X151051800Y-74566110D01*
X151086278Y-74525135D01*
X150432086Y-74525135D01*
X150276031Y-74525269D01*
X150145533Y-74525703D01*
X150038690Y-74526489D01*
X149953602Y-74527676D01*
X149888365Y-74529317D01*
X149841079Y-74531461D01*
X149809843Y-74534159D01*
X149792754Y-74537462D01*
X149787912Y-74541421D01*
X149788247Y-74542298D01*
X149802115Y-74563231D01*
X149825268Y-74596412D01*
X149837246Y-74613193D01*
X149849631Y-74629940D01*
X149860763Y-74644915D01*
X149870712Y-74659594D01*
X149879549Y-74675449D01*
X149887343Y-74693955D01*
X149894165Y-74716585D01*
X149900084Y-74744813D01*
X149905171Y-74780113D01*
X149909496Y-74823958D01*
X149913129Y-74877822D01*
X149916140Y-74943180D01*
X149918599Y-75021504D01*
X149920577Y-75114268D01*
X149922142Y-75222947D01*
X149923366Y-75349013D01*
X149924319Y-75493942D01*
X149925070Y-75659206D01*
X149925689Y-75846279D01*
X149926248Y-76056635D01*
X149926815Y-76291748D01*
X149927345Y-76507741D01*
X149927845Y-76748535D01*
X149928105Y-76978274D01*
X149928132Y-77195493D01*
X149927933Y-77398722D01*
X149927514Y-77586496D01*
X149926882Y-77757345D01*
X149926044Y-77909803D01*
X149925008Y-78042403D01*
X149923780Y-78153676D01*
X149922367Y-78242156D01*
X149920775Y-78306375D01*
X149919013Y-78344865D01*
X149918679Y-78348933D01*
X149906534Y-78442248D01*
X149887573Y-78517190D01*
X149858698Y-78582594D01*
X149816810Y-78647293D01*
X149811571Y-78654352D01*
X149778116Y-78698973D01*
X149411685Y-78698973D01*
X149410946Y-78617479D01*
X149410107Y-78478090D01*
X157509962Y-74470499D02*
X157658014Y-74486707D01*
X157658014Y-74486707D02*
X157801452Y-74515718D01*
X157801452Y-74515718D02*
X157946110Y-74559045D01*
X157946110Y-74559045D02*
X158097824Y-74618201D01*
X158097824Y-74618201D02*
X158262428Y-74694700D01*
X158262428Y-74694700D02*
X158292071Y-74709517D01*
X158292071Y-74709517D02*
X158360098Y-74743031D01*
X158360098Y-74743031D02*
X158424256Y-74773208D01*
X158424256Y-74773208D02*
X158478215Y-74797166D01*
X158478215Y-74797166D02*
X158515640Y-74812024D01*
X158515640Y-74812024D02*
X158521389Y-74813895D01*
X158521389Y-74813895D02*
X158576486Y-74830402D01*
X158576486Y-74830402D02*
X158329851Y-75189201D01*
X158329851Y-75189201D02*
X158269552Y-75276893D01*
X158269552Y-75276893D02*
X158214422Y-75357012D01*
X158214422Y-75357012D02*
X158166336Y-75426836D01*
X158166336Y-75426836D02*
X158127168Y-75483647D01*
X158127168Y-75483647D02*
X158098794Y-75524723D01*
X158098794Y-75524723D02*
X158083087Y-75547346D01*
X158083087Y-75547346D02*
X158080536Y-75550928D01*
X158080536Y-75550928D02*
X158070171Y-75543438D01*
X158070171Y-75543438D02*
X158044660Y-75520918D01*
X158044660Y-75520918D02*
X158008563Y-75487461D01*
X158008563Y-75487461D02*
X157988642Y-75468550D01*
X157988642Y-75468550D02*
X157875773Y-75378778D01*
X157875773Y-75378778D02*
X157749014Y-75310561D01*
X157749014Y-75310561D02*
X157639783Y-75273195D01*
X157639783Y-75273195D02*
X157574214Y-75261460D01*
X157574214Y-75261460D02*
X157492116Y-75254308D01*
X157492116Y-75254308D02*
X157403144Y-75251874D01*
X157403144Y-75251874D02*
X157316956Y-75254288D01*
X157316956Y-75254288D02*
X157243205Y-75261683D01*
X157243205Y-75261683D02*
X157213776Y-75267347D01*
X157213776Y-75267347D02*
X157081133Y-75312982D01*
X157081133Y-75312982D02*
X156961606Y-75382663D01*
X156961606Y-75382663D02*
X156855283Y-75476260D01*
X156855283Y-75476260D02*
X156762253Y-75593649D01*
X156762253Y-75593649D02*
X156682605Y-75734700D01*
X156682605Y-75734700D02*
X156616426Y-75899286D01*
X156616426Y-75899286D02*
X156563806Y-76087280D01*
X156563806Y-76087280D02*
X156532533Y-76248217D01*
X156532533Y-76248217D02*
X156524374Y-76319263D01*
X156524374Y-76319263D02*
X156518815Y-76411046D01*
X156518815Y-76411046D02*
X156515802Y-76516968D01*
X156515802Y-76516968D02*
X156515281Y-76630434D01*
X156515281Y-76630434D02*
X156517200Y-76744849D01*
X156517200Y-76744849D02*
X156521503Y-76853617D01*
X156521503Y-76853617D02*
X156528137Y-76950143D01*
X156528137Y-76950143D02*
X156537049Y-77027831D01*
X156537049Y-77027831D02*
X156538979Y-77039817D01*
X156538979Y-77039817D02*
X156581499Y-77232892D01*
X156581499Y-77232892D02*
X156639433Y-77403773D01*
X156639433Y-77403773D02*
X156713133Y-77553224D01*
X156713133Y-77553224D02*
X156802951Y-77682011D01*
X156802951Y-77682011D02*
X156866707Y-77751639D01*
X156866707Y-77751639D02*
X156981286Y-77846173D01*
X156981286Y-77846173D02*
X157106942Y-77916246D01*
X157106942Y-77916246D02*
X157241557Y-77961477D01*
X157241557Y-77961477D02*
X157383011Y-77981484D01*
X157383011Y-77981484D02*
X157529183Y-77975885D01*
X157529183Y-77975885D02*
X157677955Y-77944300D01*
X157677955Y-77944300D02*
X157765911Y-77913394D01*
X157765911Y-77913394D02*
X157887629Y-77851506D01*
X157887629Y-77851506D02*
X158013080Y-77762729D01*
X158013080Y-77762729D02*
X158083353Y-77702694D01*
X158083353Y-77702694D02*
X158122811Y-77667947D01*
X158122811Y-77667947D02*
X158153812Y-77642454D01*
X158153812Y-77642454D02*
X158171458Y-77630170D01*
X158171458Y-77630170D02*
X158173648Y-77629795D01*
X158173648Y-77629795D02*
X158181524Y-77642347D01*
X158181524Y-77642347D02*
X158201932Y-77675516D01*
X158201932Y-77675516D02*
X158233132Y-77726458D01*
X158233132Y-77726458D02*
X158273386Y-77792331D01*
X158273386Y-77792331D02*
X158320957Y-77870289D01*
X158320957Y-77870289D02*
X158374104Y-77957490D01*
X158374104Y-77957490D02*
X158403687Y-78006067D01*
X158403687Y-78006067D02*
X158629648Y-78377215D01*
X158629648Y-78377215D02*
X158347527Y-78516639D01*
X158347527Y-78516639D02*
X158245522Y-78566719D01*
X158245522Y-78566719D02*
X158162889Y-78606210D01*
X158162889Y-78606210D02*
X158094578Y-78637073D01*
X158094578Y-78637073D02*
X158035537Y-78661268D01*
X158035537Y-78661268D02*
X157980714Y-78680758D01*
X157980714Y-78680758D02*
X157925060Y-78697503D01*
X157925060Y-78697503D02*
X157863523Y-78713465D01*
X157863523Y-78713465D02*
X157804540Y-78727482D01*
X157804540Y-78727482D02*
X157752115Y-78738329D01*
X157752115Y-78738329D02*
X157697288Y-78746526D01*
X157697288Y-78746526D02*
X157634572Y-78752528D01*
X157634572Y-78752528D02*
X157558477Y-78756790D01*
X157558477Y-78756790D02*
X157463516Y-78759767D01*
X157463516Y-78759767D02*
X157399513Y-78761052D01*
X157399513Y-78761052D02*
X157308192Y-78761930D01*
X157308192Y-78761930D02*
X157220627Y-78761487D01*
X157220627Y-78761487D02*
X157142612Y-78759852D01*
X157142612Y-78759852D02*
X157079942Y-78757149D01*
X157079942Y-78757149D02*
X157038413Y-78753505D01*
X157038413Y-78753505D02*
X157035952Y-78753142D01*
X157035952Y-78753142D02*
X156820303Y-78706487D01*
X156820303Y-78706487D02*
X156617793Y-78635729D01*
X156617793Y-78635729D02*
X156428495Y-78540914D01*
X156428495Y-78540914D02*
X156252479Y-78422089D01*
X156252479Y-78422089D02*
X156089816Y-78279300D01*
X156089816Y-78279300D02*
X155940578Y-78112594D01*
X155940578Y-78112594D02*
X155832496Y-77964433D01*
X155832496Y-77964433D02*
X155717434Y-77770502D01*
X155717434Y-77770502D02*
X155624423Y-77565699D01*
X155624423Y-77565699D02*
X155553013Y-77348383D01*
X155553013Y-77348383D02*
X155502756Y-77116912D01*
X155502756Y-77116912D02*
X155473201Y-76869643D01*
X155473201Y-76869643D02*
X155463889Y-76618559D01*
X155463889Y-76618559D02*
X155471548Y-76375670D01*
X155471548Y-76375670D02*
X155495613Y-76151570D01*
X155495613Y-76151570D02*
X155536852Y-75942477D01*
X155536852Y-75942477D02*
X155596027Y-75744613D01*
X155596027Y-75744613D02*
X155673904Y-75554196D01*
X155673904Y-75554196D02*
X155683203Y-75534468D01*
X155683203Y-75534468D02*
X155785648Y-75350059D01*
X155785648Y-75350059D02*
X155911472Y-75174576D01*
X155911472Y-75174576D02*
X156057112Y-75011650D01*
X156057112Y-75011650D02*
X156219001Y-74864914D01*
X156219001Y-74864914D02*
X156393576Y-74738001D01*
X156393576Y-74738001D02*
X156556244Y-74644905D01*
X156556244Y-74644905D02*
X156720573Y-74571991D01*
X156720573Y-74571991D02*
X156885251Y-74519174D01*
X156885251Y-74519174D02*
X157056652Y-74485015D01*
X157056652Y-74485015D02*
X157241153Y-74468078D01*
X157241153Y-74468078D02*
X157351459Y-74465580D01*
X157351459Y-74465580D02*
X157509962Y-74470499D01*
X157509962Y-74470499D02*
X157509962Y-74470499D01*
G36*
X157509962Y-74470499D02*
G01*
X157658014Y-74486707D01*
X157801452Y-74515718D01*
X157946110Y-74559045D01*
X158097824Y-74618201D01*
X158262428Y-74694700D01*
X158292071Y-74709517D01*
X158360098Y-74743031D01*
X158424256Y-74773208D01*
X158478215Y-74797166D01*
X158515640Y-74812024D01*
X158521389Y-74813895D01*
X158576486Y-74830402D01*
X158329851Y-75189201D01*
X158269552Y-75276893D01*
X158214422Y-75357012D01*
X158166336Y-75426836D01*
X158127168Y-75483647D01*
X158098794Y-75524723D01*
X158083087Y-75547346D01*
X158080536Y-75550928D01*
X158070171Y-75543438D01*
X158044660Y-75520918D01*
X158008563Y-75487461D01*
X157988642Y-75468550D01*
X157875773Y-75378778D01*
X157749014Y-75310561D01*
X157639783Y-75273195D01*
X157574214Y-75261460D01*
X157492116Y-75254308D01*
X157403144Y-75251874D01*
X157316956Y-75254288D01*
X157243205Y-75261683D01*
X157213776Y-75267347D01*
X157081133Y-75312982D01*
X156961606Y-75382663D01*
X156855283Y-75476260D01*
X156762253Y-75593649D01*
X156682605Y-75734700D01*
X156616426Y-75899286D01*
X156563806Y-76087280D01*
X156532533Y-76248217D01*
X156524374Y-76319263D01*
X156518815Y-76411046D01*
X156515802Y-76516968D01*
X156515281Y-76630434D01*
X156517200Y-76744849D01*
X156521503Y-76853617D01*
X156528137Y-76950143D01*
X156537049Y-77027831D01*
X156538979Y-77039817D01*
X156581499Y-77232892D01*
X156639433Y-77403773D01*
X156713133Y-77553224D01*
X156802951Y-77682011D01*
X156866707Y-77751639D01*
X156981286Y-77846173D01*
X157106942Y-77916246D01*
X157241557Y-77961477D01*
X157383011Y-77981484D01*
X157529183Y-77975885D01*
X157677955Y-77944300D01*
X157765911Y-77913394D01*
X157887629Y-77851506D01*
X158013080Y-77762729D01*
X158083353Y-77702694D01*
X158122811Y-77667947D01*
X158153812Y-77642454D01*
X158171458Y-77630170D01*
X158173648Y-77629795D01*
X158181524Y-77642347D01*
X158201932Y-77675516D01*
X158233132Y-77726458D01*
X158273386Y-77792331D01*
X158320957Y-77870289D01*
X158374104Y-77957490D01*
X158403687Y-78006067D01*
X158629648Y-78377215D01*
X158347527Y-78516639D01*
X158245522Y-78566719D01*
X158162889Y-78606210D01*
X158094578Y-78637073D01*
X158035537Y-78661268D01*
X157980714Y-78680758D01*
X157925060Y-78697503D01*
X157863523Y-78713465D01*
X157804540Y-78727482D01*
X157752115Y-78738329D01*
X157697288Y-78746526D01*
X157634572Y-78752528D01*
X157558477Y-78756790D01*
X157463516Y-78759767D01*
X157399513Y-78761052D01*
X157308192Y-78761930D01*
X157220627Y-78761487D01*
X157142612Y-78759852D01*
X157079942Y-78757149D01*
X157038413Y-78753505D01*
X157035952Y-78753142D01*
X156820303Y-78706487D01*
X156617793Y-78635729D01*
X156428495Y-78540914D01*
X156252479Y-78422089D01*
X156089816Y-78279300D01*
X155940578Y-78112594D01*
X155832496Y-77964433D01*
X155717434Y-77770502D01*
X155624423Y-77565699D01*
X155553013Y-77348383D01*
X155502756Y-77116912D01*
X155473201Y-76869643D01*
X155463889Y-76618559D01*
X155471548Y-76375670D01*
X155495613Y-76151570D01*
X155536852Y-75942477D01*
X155596027Y-75744613D01*
X155673904Y-75554196D01*
X155683203Y-75534468D01*
X155785648Y-75350059D01*
X155911472Y-75174576D01*
X156057112Y-75011650D01*
X156219001Y-74864914D01*
X156393576Y-74738001D01*
X156556244Y-74644905D01*
X156720573Y-74571991D01*
X156885251Y-74519174D01*
X157056652Y-74485015D01*
X157241153Y-74468078D01*
X157351459Y-74465580D01*
X157509962Y-74470499D01*
G37*
X157509962Y-74470499D02*
X157658014Y-74486707D01*
X157801452Y-74515718D01*
X157946110Y-74559045D01*
X158097824Y-74618201D01*
X158262428Y-74694700D01*
X158292071Y-74709517D01*
X158360098Y-74743031D01*
X158424256Y-74773208D01*
X158478215Y-74797166D01*
X158515640Y-74812024D01*
X158521389Y-74813895D01*
X158576486Y-74830402D01*
X158329851Y-75189201D01*
X158269552Y-75276893D01*
X158214422Y-75357012D01*
X158166336Y-75426836D01*
X158127168Y-75483647D01*
X158098794Y-75524723D01*
X158083087Y-75547346D01*
X158080536Y-75550928D01*
X158070171Y-75543438D01*
X158044660Y-75520918D01*
X158008563Y-75487461D01*
X157988642Y-75468550D01*
X157875773Y-75378778D01*
X157749014Y-75310561D01*
X157639783Y-75273195D01*
X157574214Y-75261460D01*
X157492116Y-75254308D01*
X157403144Y-75251874D01*
X157316956Y-75254288D01*
X157243205Y-75261683D01*
X157213776Y-75267347D01*
X157081133Y-75312982D01*
X156961606Y-75382663D01*
X156855283Y-75476260D01*
X156762253Y-75593649D01*
X156682605Y-75734700D01*
X156616426Y-75899286D01*
X156563806Y-76087280D01*
X156532533Y-76248217D01*
X156524374Y-76319263D01*
X156518815Y-76411046D01*
X156515802Y-76516968D01*
X156515281Y-76630434D01*
X156517200Y-76744849D01*
X156521503Y-76853617D01*
X156528137Y-76950143D01*
X156537049Y-77027831D01*
X156538979Y-77039817D01*
X156581499Y-77232892D01*
X156639433Y-77403773D01*
X156713133Y-77553224D01*
X156802951Y-77682011D01*
X156866707Y-77751639D01*
X156981286Y-77846173D01*
X157106942Y-77916246D01*
X157241557Y-77961477D01*
X157383011Y-77981484D01*
X157529183Y-77975885D01*
X157677955Y-77944300D01*
X157765911Y-77913394D01*
X157887629Y-77851506D01*
X158013080Y-77762729D01*
X158083353Y-77702694D01*
X158122811Y-77667947D01*
X158153812Y-77642454D01*
X158171458Y-77630170D01*
X158173648Y-77629795D01*
X158181524Y-77642347D01*
X158201932Y-77675516D01*
X158233132Y-77726458D01*
X158273386Y-77792331D01*
X158320957Y-77870289D01*
X158374104Y-77957490D01*
X158403687Y-78006067D01*
X158629648Y-78377215D01*
X158347527Y-78516639D01*
X158245522Y-78566719D01*
X158162889Y-78606210D01*
X158094578Y-78637073D01*
X158035537Y-78661268D01*
X157980714Y-78680758D01*
X157925060Y-78697503D01*
X157863523Y-78713465D01*
X157804540Y-78727482D01*
X157752115Y-78738329D01*
X157697288Y-78746526D01*
X157634572Y-78752528D01*
X157558477Y-78756790D01*
X157463516Y-78759767D01*
X157399513Y-78761052D01*
X157308192Y-78761930D01*
X157220627Y-78761487D01*
X157142612Y-78759852D01*
X157079942Y-78757149D01*
X157038413Y-78753505D01*
X157035952Y-78753142D01*
X156820303Y-78706487D01*
X156617793Y-78635729D01*
X156428495Y-78540914D01*
X156252479Y-78422089D01*
X156089816Y-78279300D01*
X155940578Y-78112594D01*
X155832496Y-77964433D01*
X155717434Y-77770502D01*
X155624423Y-77565699D01*
X155553013Y-77348383D01*
X155502756Y-77116912D01*
X155473201Y-76869643D01*
X155463889Y-76618559D01*
X155471548Y-76375670D01*
X155495613Y-76151570D01*
X155536852Y-75942477D01*
X155596027Y-75744613D01*
X155673904Y-75554196D01*
X155683203Y-75534468D01*
X155785648Y-75350059D01*
X155911472Y-75174576D01*
X156057112Y-75011650D01*
X156219001Y-74864914D01*
X156393576Y-74738001D01*
X156556244Y-74644905D01*
X156720573Y-74571991D01*
X156885251Y-74519174D01*
X157056652Y-74485015D01*
X157241153Y-74468078D01*
X157351459Y-74465580D01*
X157509962Y-74470499D01*
X160237505Y-75574229D02*
X160305531Y-75579378D01*
X160305531Y-75579378D02*
X160500163Y-75605273D01*
X160500163Y-75605273D02*
X160672529Y-75646575D01*
X160672529Y-75646575D02*
X160823470Y-75703853D01*
X160823470Y-75703853D02*
X160953825Y-75777674D01*
X160953825Y-75777674D02*
X161064434Y-75868608D01*
X161064434Y-75868608D02*
X161156135Y-75977222D01*
X161156135Y-75977222D02*
X161229770Y-76104085D01*
X161229770Y-76104085D02*
X161283539Y-76241352D01*
X161283539Y-76241352D02*
X161297187Y-76285137D01*
X161297187Y-76285137D02*
X161309073Y-76326141D01*
X161309073Y-76326141D02*
X161319334Y-76366569D01*
X161319334Y-76366569D02*
X161328113Y-76408630D01*
X161328113Y-76408630D02*
X161335548Y-76454531D01*
X161335548Y-76454531D02*
X161341780Y-76506480D01*
X161341780Y-76506480D02*
X161346950Y-76566685D01*
X161346950Y-76566685D02*
X161351196Y-76637352D01*
X161351196Y-76637352D02*
X161354660Y-76720689D01*
X161354660Y-76720689D02*
X161357481Y-76818905D01*
X161357481Y-76818905D02*
X161359800Y-76934205D01*
X161359800Y-76934205D02*
X161361757Y-77068799D01*
X161361757Y-77068799D02*
X161363491Y-77224893D01*
X161363491Y-77224893D02*
X161365143Y-77404695D01*
X161365143Y-77404695D02*
X161366324Y-77545676D01*
X161366324Y-77545676D02*
X161374270Y-78513622D01*
X161374270Y-78513622D02*
X161425756Y-78606770D01*
X161425756Y-78606770D02*
X161450137Y-78651645D01*
X161450137Y-78651645D02*
X161468280Y-78686501D01*
X161468280Y-78686501D02*
X161476935Y-78705054D01*
X161476935Y-78705054D02*
X161477243Y-78706311D01*
X161477243Y-78706311D02*
X161464014Y-78707749D01*
X161464014Y-78707749D02*
X161426326Y-78709074D01*
X161426326Y-78709074D02*
X161367183Y-78710249D01*
X161367183Y-78710249D02*
X161289586Y-78711237D01*
X161289586Y-78711237D02*
X161196536Y-78711999D01*
X161196536Y-78711999D02*
X161091035Y-78712500D01*
X161091035Y-78712500D02*
X160976084Y-78712701D01*
X160976084Y-78712701D02*
X160962378Y-78712703D01*
X160962378Y-78712703D02*
X160447513Y-78712703D01*
X160447513Y-78712703D02*
X160447513Y-78596000D01*
X160447513Y-78596000D02*
X160446635Y-78543260D01*
X160446635Y-78543260D02*
X160444292Y-78502926D01*
X160444292Y-78502926D02*
X160440921Y-78481300D01*
X160440921Y-78481300D02*
X160439431Y-78479298D01*
X160439431Y-78479298D02*
X160425804Y-78487683D01*
X160425804Y-78487683D02*
X160397757Y-78509692D01*
X160397757Y-78509692D02*
X160361303Y-78540601D01*
X160361303Y-78540601D02*
X160360485Y-78541316D01*
X160360485Y-78541316D02*
X160293962Y-78590843D01*
X160293962Y-78590843D02*
X160209948Y-78640575D01*
X160209948Y-78640575D02*
X160117937Y-78685626D01*
X160117937Y-78685626D02*
X160027421Y-78721110D01*
X160027421Y-78721110D02*
X159987567Y-78733236D01*
X159987567Y-78733236D02*
X159908255Y-78748637D01*
X159908255Y-78748637D02*
X159810935Y-78758465D01*
X159810935Y-78758465D02*
X159704516Y-78762580D01*
X159704516Y-78762580D02*
X159597907Y-78760841D01*
X159597907Y-78760841D02*
X159500017Y-78753108D01*
X159500017Y-78753108D02*
X159431513Y-78741981D01*
X159431513Y-78741981D02*
X159263520Y-78692648D01*
X159263520Y-78692648D02*
X159112281Y-78622342D01*
X159112281Y-78622342D02*
X158978782Y-78531933D01*
X158978782Y-78531933D02*
X158864006Y-78422295D01*
X158864006Y-78422295D02*
X158768937Y-78294299D01*
X158768937Y-78294299D02*
X158694560Y-78148818D01*
X158694560Y-78148818D02*
X158662474Y-78060541D01*
X158662474Y-78060541D02*
X158642365Y-77974739D01*
X158642365Y-77974739D02*
X158629038Y-77871736D01*
X158629038Y-77871736D02*
X158622872Y-77761034D01*
X158622872Y-77761034D02*
X158623074Y-77744925D01*
X158623074Y-77744925D02*
X159551648Y-77744925D01*
X159551648Y-77744925D02*
X159559348Y-77827184D01*
X159559348Y-77827184D02*
X159584989Y-77895546D01*
X159584989Y-77895546D02*
X159632378Y-77958970D01*
X159632378Y-77958970D02*
X159650579Y-77977567D01*
X159650579Y-77977567D02*
X159715282Y-78027846D01*
X159715282Y-78027846D02*
X159790066Y-78060056D01*
X159790066Y-78060056D02*
X159879662Y-78075648D01*
X159879662Y-78075648D02*
X159974012Y-78076796D01*
X159974012Y-78076796D02*
X160063501Y-78069216D01*
X160063501Y-78069216D02*
X160132018Y-78054389D01*
X160132018Y-78054389D02*
X160161775Y-78043253D01*
X160161775Y-78043253D02*
X160215408Y-78012904D01*
X160215408Y-78012904D02*
X160272235Y-77970221D01*
X160272235Y-77970221D02*
X160324082Y-77922317D01*
X160324082Y-77922317D02*
X160362778Y-77876301D01*
X160362778Y-77876301D02*
X160373054Y-77859421D01*
X160373054Y-77859421D02*
X160381042Y-77835782D01*
X160381042Y-77835782D02*
X160386721Y-77798168D01*
X160386721Y-77798168D02*
X160390356Y-77742985D01*
X160390356Y-77742985D02*
X160392211Y-77666640D01*
X160392211Y-77666640D02*
X160392594Y-77593981D01*
X160392594Y-77593981D02*
X160392335Y-77509270D01*
X160392335Y-77509270D02*
X160391287Y-77448018D01*
X160391287Y-77448018D02*
X160389045Y-77406227D01*
X160389045Y-77406227D02*
X160385206Y-77379899D01*
X160385206Y-77379899D02*
X160379365Y-77365035D01*
X160379365Y-77365035D02*
X160371118Y-77357639D01*
X160371118Y-77357639D02*
X160368567Y-77356461D01*
X160368567Y-77356461D02*
X160346400Y-77352833D01*
X160346400Y-77352833D02*
X160302680Y-77349866D01*
X160302680Y-77349866D02*
X160243311Y-77347827D01*
X160243311Y-77347827D02*
X160174196Y-77346983D01*
X160174196Y-77346983D02*
X160159189Y-77346982D01*
X160159189Y-77346982D02*
X160066805Y-77348457D01*
X160066805Y-77348457D02*
X159995432Y-77352842D01*
X159995432Y-77352842D02*
X159938719Y-77360738D01*
X159938719Y-77360738D02*
X159891872Y-77372270D01*
X159891872Y-77372270D02*
X159775669Y-77416215D01*
X159775669Y-77416215D02*
X159684543Y-77470243D01*
X159684543Y-77470243D02*
X159617705Y-77535219D01*
X159617705Y-77535219D02*
X159574365Y-77612005D01*
X159574365Y-77612005D02*
X159553734Y-77701467D01*
X159553734Y-77701467D02*
X159551648Y-77744925D01*
X159551648Y-77744925D02*
X158623074Y-77744925D01*
X158623074Y-77744925D02*
X158624244Y-77652133D01*
X158624244Y-77652133D02*
X158633532Y-77554536D01*
X158633532Y-77554536D02*
X158640777Y-77515105D01*
X158640777Y-77515105D02*
X158687039Y-77368701D01*
X158687039Y-77368701D02*
X158757384Y-77233995D01*
X158757384Y-77233995D02*
X158850484Y-77112280D01*
X158850484Y-77112280D02*
X158965012Y-77004847D01*
X158965012Y-77004847D02*
X159099640Y-76912988D01*
X159099640Y-76912988D02*
X159253040Y-76837996D01*
X159253040Y-76837996D02*
X159383459Y-76792458D01*
X159383459Y-76792458D02*
X159470623Y-76768533D01*
X159470623Y-76768533D02*
X159553996Y-76749943D01*
X159553996Y-76749943D02*
X159638976Y-76736084D01*
X159638976Y-76736084D02*
X159730965Y-76726351D01*
X159730965Y-76726351D02*
X159835362Y-76720141D01*
X159835362Y-76720141D02*
X159957568Y-76716851D01*
X159957568Y-76716851D02*
X160068055Y-76715924D01*
X160068055Y-76715924D02*
X160395677Y-76715027D01*
X160395677Y-76715027D02*
X160389401Y-76616547D01*
X160389401Y-76616547D02*
X160371579Y-76509695D01*
X160371579Y-76509695D02*
X160333667Y-76417852D01*
X160333667Y-76417852D02*
X160277280Y-76343310D01*
X160277280Y-76343310D02*
X160204031Y-76288364D01*
X160204031Y-76288364D02*
X160139535Y-76261552D01*
X160139535Y-76261552D02*
X160047123Y-76244654D01*
X160047123Y-76244654D02*
X159937111Y-76242227D01*
X159937111Y-76242227D02*
X159814656Y-76253378D01*
X159814656Y-76253378D02*
X159684914Y-76277210D01*
X159684914Y-76277210D02*
X159553042Y-76312830D01*
X159553042Y-76312830D02*
X159424198Y-76359343D01*
X159424198Y-76359343D02*
X159330566Y-76401883D01*
X159330566Y-76401883D02*
X159285517Y-76423728D01*
X159285517Y-76423728D02*
X159251156Y-76438984D01*
X159251156Y-76438984D02*
X159233681Y-76444937D01*
X159233681Y-76444937D02*
X159232733Y-76444746D01*
X159232733Y-76444746D02*
X159226703Y-76431412D01*
X159226703Y-76431412D02*
X159211645Y-76396068D01*
X159211645Y-76396068D02*
X159188977Y-76342101D01*
X159188977Y-76342101D02*
X159160115Y-76272896D01*
X159160115Y-76272896D02*
X159126477Y-76191840D01*
X159126477Y-76191840D02*
X159092284Y-76109118D01*
X159092284Y-76109118D02*
X158955586Y-75777803D01*
X158955586Y-75777803D02*
X159052820Y-75761833D01*
X159052820Y-75761833D02*
X159094964Y-75753820D01*
X159094964Y-75753820D02*
X159158319Y-75740361D01*
X159158319Y-75740361D02*
X159237457Y-75722679D01*
X159237457Y-75722679D02*
X159326951Y-75701996D01*
X159326951Y-75701996D02*
X159421373Y-75679532D01*
X159421373Y-75679532D02*
X159458973Y-75670403D01*
X159458973Y-75670403D02*
X159621637Y-75632674D01*
X159621637Y-75632674D02*
X159764050Y-75604388D01*
X159764050Y-75604388D02*
X159891527Y-75584972D01*
X159891527Y-75584972D02*
X160009384Y-75573854D01*
X160009384Y-75573854D02*
X160122938Y-75570464D01*
X160122938Y-75570464D02*
X160237505Y-75574229D01*
X160237505Y-75574229D02*
X160237505Y-75574229D01*
G36*
X158633532Y-77554536D02*
G01*
X158640777Y-77515105D01*
X158687039Y-77368701D01*
X158757384Y-77233995D01*
X158850484Y-77112280D01*
X158965012Y-77004847D01*
X159099640Y-76912988D01*
X159253040Y-76837996D01*
X159383459Y-76792458D01*
X159470623Y-76768533D01*
X159553996Y-76749943D01*
X159638976Y-76736084D01*
X159730965Y-76726351D01*
X159835362Y-76720141D01*
X159957568Y-76716851D01*
X160068055Y-76715924D01*
X160395677Y-76715027D01*
X160389401Y-76616547D01*
X160371579Y-76509695D01*
X160333667Y-76417852D01*
X160277280Y-76343310D01*
X160204031Y-76288364D01*
X160139535Y-76261552D01*
X160047123Y-76244654D01*
X159937111Y-76242227D01*
X159814656Y-76253378D01*
X159684914Y-76277210D01*
X159553042Y-76312830D01*
X159424198Y-76359343D01*
X159330566Y-76401883D01*
X159285517Y-76423728D01*
X159251156Y-76438984D01*
X159233681Y-76444937D01*
X159232733Y-76444746D01*
X159226703Y-76431412D01*
X159211645Y-76396068D01*
X159188977Y-76342101D01*
X159160115Y-76272896D01*
X159126477Y-76191840D01*
X159092284Y-76109118D01*
X158955586Y-75777803D01*
X159052820Y-75761833D01*
X159094964Y-75753820D01*
X159158319Y-75740361D01*
X159237457Y-75722679D01*
X159326951Y-75701996D01*
X159421373Y-75679532D01*
X159458973Y-75670403D01*
X159621637Y-75632674D01*
X159764050Y-75604388D01*
X159891527Y-75584972D01*
X160009384Y-75573854D01*
X160122938Y-75570464D01*
X160237505Y-75574229D01*
X160305531Y-75579378D01*
X160500163Y-75605273D01*
X160672529Y-75646575D01*
X160823470Y-75703853D01*
X160953825Y-75777674D01*
X161064434Y-75868608D01*
X161156135Y-75977222D01*
X161229770Y-76104085D01*
X161283539Y-76241352D01*
X161297187Y-76285137D01*
X161309073Y-76326141D01*
X161319334Y-76366569D01*
X161328113Y-76408630D01*
X161335548Y-76454531D01*
X161341780Y-76506480D01*
X161346950Y-76566685D01*
X161351196Y-76637352D01*
X161354660Y-76720689D01*
X161357481Y-76818905D01*
X161359800Y-76934205D01*
X161361757Y-77068799D01*
X161363491Y-77224893D01*
X161365143Y-77404695D01*
X161366324Y-77545676D01*
X161374270Y-78513622D01*
X161425756Y-78606770D01*
X161450137Y-78651645D01*
X161468280Y-78686501D01*
X161476935Y-78705054D01*
X161477243Y-78706311D01*
X161464014Y-78707749D01*
X161426326Y-78709074D01*
X161367183Y-78710249D01*
X161289586Y-78711237D01*
X161196536Y-78711999D01*
X161091035Y-78712500D01*
X160976084Y-78712701D01*
X160962378Y-78712703D01*
X160447513Y-78712703D01*
X160447513Y-78596000D01*
X160446635Y-78543260D01*
X160444292Y-78502926D01*
X160440921Y-78481300D01*
X160439431Y-78479298D01*
X160425804Y-78487683D01*
X160397757Y-78509692D01*
X160361303Y-78540601D01*
X160360485Y-78541316D01*
X160293962Y-78590843D01*
X160209948Y-78640575D01*
X160117937Y-78685626D01*
X160027421Y-78721110D01*
X159987567Y-78733236D01*
X159908255Y-78748637D01*
X159810935Y-78758465D01*
X159704516Y-78762580D01*
X159597907Y-78760841D01*
X159500017Y-78753108D01*
X159431513Y-78741981D01*
X159263520Y-78692648D01*
X159112281Y-78622342D01*
X158978782Y-78531933D01*
X158864006Y-78422295D01*
X158768937Y-78294299D01*
X158694560Y-78148818D01*
X158662474Y-78060541D01*
X158642365Y-77974739D01*
X158629038Y-77871736D01*
X158622872Y-77761034D01*
X158623074Y-77744925D01*
X159551648Y-77744925D01*
X159559348Y-77827184D01*
X159584989Y-77895546D01*
X159632378Y-77958970D01*
X159650579Y-77977567D01*
X159715282Y-78027846D01*
X159790066Y-78060056D01*
X159879662Y-78075648D01*
X159974012Y-78076796D01*
X160063501Y-78069216D01*
X160132018Y-78054389D01*
X160161775Y-78043253D01*
X160215408Y-78012904D01*
X160272235Y-77970221D01*
X160324082Y-77922317D01*
X160362778Y-77876301D01*
X160373054Y-77859421D01*
X160381042Y-77835782D01*
X160386721Y-77798168D01*
X160390356Y-77742985D01*
X160392211Y-77666640D01*
X160392594Y-77593981D01*
X160392335Y-77509270D01*
X160391287Y-77448018D01*
X160389045Y-77406227D01*
X160385206Y-77379899D01*
X160379365Y-77365035D01*
X160371118Y-77357639D01*
X160368567Y-77356461D01*
X160346400Y-77352833D01*
X160302680Y-77349866D01*
X160243311Y-77347827D01*
X160174196Y-77346983D01*
X160159189Y-77346982D01*
X160066805Y-77348457D01*
X159995432Y-77352842D01*
X159938719Y-77360738D01*
X159891872Y-77372270D01*
X159775669Y-77416215D01*
X159684543Y-77470243D01*
X159617705Y-77535219D01*
X159574365Y-77612005D01*
X159553734Y-77701467D01*
X159551648Y-77744925D01*
X158623074Y-77744925D01*
X158624244Y-77652133D01*
X158633532Y-77554536D01*
G37*
X158633532Y-77554536D02*
X158640777Y-77515105D01*
X158687039Y-77368701D01*
X158757384Y-77233995D01*
X158850484Y-77112280D01*
X158965012Y-77004847D01*
X159099640Y-76912988D01*
X159253040Y-76837996D01*
X159383459Y-76792458D01*
X159470623Y-76768533D01*
X159553996Y-76749943D01*
X159638976Y-76736084D01*
X159730965Y-76726351D01*
X159835362Y-76720141D01*
X159957568Y-76716851D01*
X160068055Y-76715924D01*
X160395677Y-76715027D01*
X160389401Y-76616547D01*
X160371579Y-76509695D01*
X160333667Y-76417852D01*
X160277280Y-76343310D01*
X160204031Y-76288364D01*
X160139535Y-76261552D01*
X160047123Y-76244654D01*
X159937111Y-76242227D01*
X159814656Y-76253378D01*
X159684914Y-76277210D01*
X159553042Y-76312830D01*
X159424198Y-76359343D01*
X159330566Y-76401883D01*
X159285517Y-76423728D01*
X159251156Y-76438984D01*
X159233681Y-76444937D01*
X159232733Y-76444746D01*
X159226703Y-76431412D01*
X159211645Y-76396068D01*
X159188977Y-76342101D01*
X159160115Y-76272896D01*
X159126477Y-76191840D01*
X159092284Y-76109118D01*
X158955586Y-75777803D01*
X159052820Y-75761833D01*
X159094964Y-75753820D01*
X159158319Y-75740361D01*
X159237457Y-75722679D01*
X159326951Y-75701996D01*
X159421373Y-75679532D01*
X159458973Y-75670403D01*
X159621637Y-75632674D01*
X159764050Y-75604388D01*
X159891527Y-75584972D01*
X160009384Y-75573854D01*
X160122938Y-75570464D01*
X160237505Y-75574229D01*
X160305531Y-75579378D01*
X160500163Y-75605273D01*
X160672529Y-75646575D01*
X160823470Y-75703853D01*
X160953825Y-75777674D01*
X161064434Y-75868608D01*
X161156135Y-75977222D01*
X161229770Y-76104085D01*
X161283539Y-76241352D01*
X161297187Y-76285137D01*
X161309073Y-76326141D01*
X161319334Y-76366569D01*
X161328113Y-76408630D01*
X161335548Y-76454531D01*
X161341780Y-76506480D01*
X161346950Y-76566685D01*
X161351196Y-76637352D01*
X161354660Y-76720689D01*
X161357481Y-76818905D01*
X161359800Y-76934205D01*
X161361757Y-77068799D01*
X161363491Y-77224893D01*
X161365143Y-77404695D01*
X161366324Y-77545676D01*
X161374270Y-78513622D01*
X161425756Y-78606770D01*
X161450137Y-78651645D01*
X161468280Y-78686501D01*
X161476935Y-78705054D01*
X161477243Y-78706311D01*
X161464014Y-78707749D01*
X161426326Y-78709074D01*
X161367183Y-78710249D01*
X161289586Y-78711237D01*
X161196536Y-78711999D01*
X161091035Y-78712500D01*
X160976084Y-78712701D01*
X160962378Y-78712703D01*
X160447513Y-78712703D01*
X160447513Y-78596000D01*
X160446635Y-78543260D01*
X160444292Y-78502926D01*
X160440921Y-78481300D01*
X160439431Y-78479298D01*
X160425804Y-78487683D01*
X160397757Y-78509692D01*
X160361303Y-78540601D01*
X160360485Y-78541316D01*
X160293962Y-78590843D01*
X160209948Y-78640575D01*
X160117937Y-78685626D01*
X160027421Y-78721110D01*
X159987567Y-78733236D01*
X159908255Y-78748637D01*
X159810935Y-78758465D01*
X159704516Y-78762580D01*
X159597907Y-78760841D01*
X159500017Y-78753108D01*
X159431513Y-78741981D01*
X159263520Y-78692648D01*
X159112281Y-78622342D01*
X158978782Y-78531933D01*
X158864006Y-78422295D01*
X158768937Y-78294299D01*
X158694560Y-78148818D01*
X158662474Y-78060541D01*
X158642365Y-77974739D01*
X158629038Y-77871736D01*
X158622872Y-77761034D01*
X158623074Y-77744925D01*
X159551648Y-77744925D01*
X159559348Y-77827184D01*
X159584989Y-77895546D01*
X159632378Y-77958970D01*
X159650579Y-77977567D01*
X159715282Y-78027846D01*
X159790066Y-78060056D01*
X159879662Y-78075648D01*
X159974012Y-78076796D01*
X160063501Y-78069216D01*
X160132018Y-78054389D01*
X160161775Y-78043253D01*
X160215408Y-78012904D01*
X160272235Y-77970221D01*
X160324082Y-77922317D01*
X160362778Y-77876301D01*
X160373054Y-77859421D01*
X160381042Y-77835782D01*
X160386721Y-77798168D01*
X160390356Y-77742985D01*
X160392211Y-77666640D01*
X160392594Y-77593981D01*
X160392335Y-77509270D01*
X160391287Y-77448018D01*
X160389045Y-77406227D01*
X160385206Y-77379899D01*
X160379365Y-77365035D01*
X160371118Y-77357639D01*
X160368567Y-77356461D01*
X160346400Y-77352833D01*
X160302680Y-77349866D01*
X160243311Y-77347827D01*
X160174196Y-77346983D01*
X160159189Y-77346982D01*
X160066805Y-77348457D01*
X159995432Y-77352842D01*
X159938719Y-77360738D01*
X159891872Y-77372270D01*
X159775669Y-77416215D01*
X159684543Y-77470243D01*
X159617705Y-77535219D01*
X159574365Y-77612005D01*
X159553734Y-77701467D01*
X159551648Y-77744925D01*
X158623074Y-77744925D01*
X158624244Y-77652133D01*
X158633532Y-77554536D01*
X154343921Y-73346490D02*
X154447027Y-73382238D01*
X154447027Y-73382238D02*
X154543022Y-73438507D01*
X154543022Y-73438507D02*
X154628753Y-73515288D01*
X154628753Y-73515288D02*
X154701070Y-73612573D01*
X154701070Y-73612573D02*
X154733555Y-73673892D01*
X154733555Y-73673892D02*
X154761668Y-73759660D01*
X154761668Y-73759660D02*
X154775295Y-73858677D01*
X154775295Y-73858677D02*
X154773786Y-73960471D01*
X154773786Y-73960471D02*
X154757031Y-74052714D01*
X154757031Y-74052714D02*
X154711237Y-74165432D01*
X154711237Y-74165432D02*
X154644832Y-74263207D01*
X154644832Y-74263207D02*
X154561191Y-74344115D01*
X154561191Y-74344115D02*
X154463688Y-74406232D01*
X154463688Y-74406232D02*
X154355700Y-74447634D01*
X154355700Y-74447634D02*
X154240601Y-74466397D01*
X154240601Y-74466397D02*
X154121766Y-74460598D01*
X154121766Y-74460598D02*
X154063189Y-74448206D01*
X154063189Y-74448206D02*
X153949028Y-74403797D01*
X153949028Y-74403797D02*
X153847635Y-74336033D01*
X153847635Y-74336033D02*
X153761455Y-74247001D01*
X153761455Y-74247001D02*
X153692934Y-74138791D01*
X153692934Y-74138791D02*
X153687136Y-74126973D01*
X153687136Y-74126973D02*
X153667096Y-74082628D01*
X153667096Y-74082628D02*
X153654513Y-74045280D01*
X153654513Y-74045280D02*
X153647681Y-74005880D01*
X153647681Y-74005880D02*
X153644895Y-73955381D01*
X153644895Y-73955381D02*
X153644432Y-73900433D01*
X153644432Y-73900433D02*
X153645197Y-73834415D01*
X153645197Y-73834415D02*
X153648648Y-73786689D01*
X153648648Y-73786689D02*
X153656523Y-73748103D01*
X153656523Y-73748103D02*
X153670557Y-73709506D01*
X153670557Y-73709506D02*
X153687880Y-73671426D01*
X153687880Y-73671426D02*
X153752495Y-73563328D01*
X153752495Y-73563328D02*
X153832066Y-73475803D01*
X153832066Y-73475803D02*
X153923440Y-73408841D01*
X153923440Y-73408841D02*
X154023464Y-73362436D01*
X154023464Y-73362436D02*
X154128988Y-73336581D01*
X154128988Y-73336581D02*
X154236858Y-73331268D01*
X154236858Y-73331268D02*
X154343921Y-73346490D01*
X154343921Y-73346490D02*
X154343921Y-73346490D01*
G36*
X154343921Y-73346490D02*
G01*
X154447027Y-73382238D01*
X154543022Y-73438507D01*
X154628753Y-73515288D01*
X154701070Y-73612573D01*
X154733555Y-73673892D01*
X154761668Y-73759660D01*
X154775295Y-73858677D01*
X154773786Y-73960471D01*
X154757031Y-74052714D01*
X154711237Y-74165432D01*
X154644832Y-74263207D01*
X154561191Y-74344115D01*
X154463688Y-74406232D01*
X154355700Y-74447634D01*
X154240601Y-74466397D01*
X154121766Y-74460598D01*
X154063189Y-74448206D01*
X153949028Y-74403797D01*
X153847635Y-74336033D01*
X153761455Y-74247001D01*
X153692934Y-74138791D01*
X153687136Y-74126973D01*
X153667096Y-74082628D01*
X153654513Y-74045280D01*
X153647681Y-74005880D01*
X153644895Y-73955381D01*
X153644432Y-73900433D01*
X153645197Y-73834415D01*
X153648648Y-73786689D01*
X153656523Y-73748103D01*
X153670557Y-73709506D01*
X153687880Y-73671426D01*
X153752495Y-73563328D01*
X153832066Y-73475803D01*
X153923440Y-73408841D01*
X154023464Y-73362436D01*
X154128988Y-73336581D01*
X154236858Y-73331268D01*
X154343921Y-73346490D01*
G37*
X154343921Y-73346490D02*
X154447027Y-73382238D01*
X154543022Y-73438507D01*
X154628753Y-73515288D01*
X154701070Y-73612573D01*
X154733555Y-73673892D01*
X154761668Y-73759660D01*
X154775295Y-73858677D01*
X154773786Y-73960471D01*
X154757031Y-74052714D01*
X154711237Y-74165432D01*
X154644832Y-74263207D01*
X154561191Y-74344115D01*
X154463688Y-74406232D01*
X154355700Y-74447634D01*
X154240601Y-74466397D01*
X154121766Y-74460598D01*
X154063189Y-74448206D01*
X153949028Y-74403797D01*
X153847635Y-74336033D01*
X153761455Y-74247001D01*
X153692934Y-74138791D01*
X153687136Y-74126973D01*
X153667096Y-74082628D01*
X153654513Y-74045280D01*
X153647681Y-74005880D01*
X153644895Y-73955381D01*
X153644432Y-73900433D01*
X153645197Y-73834415D01*
X153648648Y-73786689D01*
X153656523Y-73748103D01*
X153670557Y-73709506D01*
X153687880Y-73671426D01*
X153752495Y-73563328D01*
X153832066Y-73475803D01*
X153923440Y-73408841D01*
X154023464Y-73362436D01*
X154128988Y-73336581D01*
X154236858Y-73331268D01*
X154343921Y-73346490D01*
D16*
X175940000Y-93100000D03*
X175940000Y-84100000D03*
X137340000Y-105170000D03*
X137340000Y-96170000D03*
X137280000Y-83730000D03*
X137280000Y-92730000D03*
M02*
