G04 #@! TF.GenerationSoftware,KiCad,Pcbnew,(5.99.0-3978-g0efe073de)*
G04 #@! TF.CreationDate,2020-10-25T12:36:58-05:00*
G04 #@! TF.ProjectId,gtb-pumpkin,6774622d-7075-46d7-906b-696e2e6b6963,rev?*
G04 #@! TF.SameCoordinates,Original*
G04 #@! TF.FileFunction,Legend,Bot*
G04 #@! TF.FilePolarity,Positive*
%FSLAX46Y46*%
G04 Gerber Fmt 4.6, Leading zero omitted, Abs format (unit mm)*
G04 Created by KiCad (PCBNEW (5.99.0-3978-g0efe073de)) date 2020-10-25 12:36:58*
%MOMM*%
%LPD*%
G01*
G04 APERTURE LIST*
%ADD10C,0.150000*%
%ADD11C,0.120000*%
%ADD12C,0.100000*%
G04 APERTURE END LIST*
D10*
X182384157Y-125833878D02*
X182336538Y-125881497D01*
X182288919Y-126024354D01*
X182288919Y-126119592D01*
X182336538Y-126262449D01*
X182431776Y-126357687D01*
X182527014Y-126405306D01*
X182717490Y-126452925D01*
X182860347Y-126452925D01*
X183050823Y-126405306D01*
X183146061Y-126357687D01*
X183241300Y-126262449D01*
X183288919Y-126119592D01*
X183288919Y-126024354D01*
X183241300Y-125881497D01*
X183193680Y-125833878D01*
X182288919Y-124833878D02*
X182765109Y-125167211D01*
X182288919Y-125405306D02*
X183288919Y-125405306D01*
X183288919Y-125024354D01*
X183241300Y-124929116D01*
X183193680Y-124881497D01*
X183098442Y-124833878D01*
X182955585Y-124833878D01*
X182860347Y-124881497D01*
X182812728Y-124929116D01*
X182765109Y-125024354D01*
X182765109Y-125405306D01*
X182288919Y-123881497D02*
X182288919Y-124452925D01*
X182288919Y-124167211D02*
X183288919Y-124167211D01*
X183146061Y-124262449D01*
X183050823Y-124357687D01*
X183003204Y-124452925D01*
X183193680Y-123500544D02*
X183241300Y-123452925D01*
X183288919Y-123357687D01*
X183288919Y-123119592D01*
X183241300Y-123024354D01*
X183193680Y-122976735D01*
X183098442Y-122929116D01*
X183003204Y-122929116D01*
X182860347Y-122976735D01*
X182288919Y-123548163D01*
X182288919Y-122929116D01*
X183193680Y-122548163D02*
X183241300Y-122500544D01*
X183288919Y-122405306D01*
X183288919Y-122167211D01*
X183241300Y-122071973D01*
X183193680Y-122024354D01*
X183098442Y-121976735D01*
X183003204Y-121976735D01*
X182860347Y-122024354D01*
X182288919Y-122595782D01*
X182288919Y-121976735D01*
X183288919Y-121357687D02*
X183288919Y-121262449D01*
X183241300Y-121167211D01*
X183193680Y-121119592D01*
X183098442Y-121071973D01*
X182907966Y-121024354D01*
X182669871Y-121024354D01*
X182479395Y-121071973D01*
X182384157Y-121119592D01*
X182336538Y-121167211D01*
X182288919Y-121262449D01*
X182288919Y-121357687D01*
X182336538Y-121452925D01*
X182384157Y-121500544D01*
X182479395Y-121548163D01*
X182669871Y-121595782D01*
X182907966Y-121595782D01*
X183098442Y-121548163D01*
X183193680Y-121500544D01*
X183241300Y-121452925D01*
X183288919Y-121357687D01*
X170900919Y-123243244D02*
X170091395Y-123243244D01*
X169996157Y-123195625D01*
X169948538Y-123148006D01*
X169900919Y-123052768D01*
X169900919Y-122862292D01*
X169948538Y-122767054D01*
X169996157Y-122719435D01*
X170091395Y-122671816D01*
X170900919Y-122671816D01*
X169900919Y-121671816D02*
X169900919Y-122243244D01*
X169900919Y-121957530D02*
X170900919Y-121957530D01*
X170758061Y-122052768D01*
X170662823Y-122148006D01*
X170615204Y-122243244D01*
X159530919Y-124243244D02*
X159530919Y-123576578D01*
X158530919Y-124005149D01*
X159530919Y-122719435D02*
X159530919Y-123195625D01*
X159054728Y-123243244D01*
X159102347Y-123195625D01*
X159149966Y-123100387D01*
X159149966Y-122862292D01*
X159102347Y-122767054D01*
X159054728Y-122719435D01*
X158959490Y-122671816D01*
X158721395Y-122671816D01*
X158626157Y-122719435D01*
X158578538Y-122767054D01*
X158530919Y-122862292D01*
X158530919Y-123100387D01*
X158578538Y-123195625D01*
X158626157Y-123243244D01*
X159530919Y-121767054D02*
X159530919Y-122243244D01*
X159054728Y-122290863D01*
X159102347Y-122243244D01*
X159149966Y-122148006D01*
X159149966Y-121909911D01*
X159102347Y-121814673D01*
X159054728Y-121767054D01*
X158959490Y-121719435D01*
X158721395Y-121719435D01*
X158626157Y-121767054D01*
X158578538Y-121814673D01*
X158530919Y-121909911D01*
X158530919Y-122148006D01*
X158578538Y-122243244D01*
X158626157Y-122290863D01*
X159530919Y-120814673D02*
X159530919Y-121290863D01*
X159054728Y-121338482D01*
X159102347Y-121290863D01*
X159149966Y-121195625D01*
X159149966Y-120957530D01*
X159102347Y-120862292D01*
X159054728Y-120814673D01*
X158959490Y-120767054D01*
X158721395Y-120767054D01*
X158626157Y-120814673D01*
X158578538Y-120862292D01*
X158530919Y-120957530D01*
X158530919Y-121195625D01*
X158578538Y-121290863D01*
X158626157Y-121338482D01*
X179346599Y-112300046D02*
X179822789Y-112633380D01*
X179346599Y-112871475D02*
X180346599Y-112871475D01*
X180346599Y-112490522D01*
X180298980Y-112395284D01*
X180251360Y-112347665D01*
X180156122Y-112300046D01*
X180013265Y-112300046D01*
X179918027Y-112347665D01*
X179870408Y-112395284D01*
X179822789Y-112490522D01*
X179822789Y-112871475D01*
X180346599Y-111966713D02*
X180346599Y-111347665D01*
X179965646Y-111680999D01*
X179965646Y-111538141D01*
X179918027Y-111442903D01*
X179870408Y-111395284D01*
X179775170Y-111347665D01*
X179537075Y-111347665D01*
X179441837Y-111395284D01*
X179394218Y-111442903D01*
X179346599Y-111538141D01*
X179346599Y-111823856D01*
X179394218Y-111919094D01*
X179441837Y-111966713D01*
X176036979Y-112728926D02*
X176036979Y-113300355D01*
X176036979Y-113014640D02*
X177036979Y-113014640D01*
X176894121Y-113109879D01*
X176798883Y-113205117D01*
X176751264Y-113300355D01*
X177036979Y-112109879D02*
X177036979Y-112014640D01*
X176989360Y-111919402D01*
X176941740Y-111871783D01*
X176846502Y-111824164D01*
X176656026Y-111776545D01*
X176417931Y-111776545D01*
X176227455Y-111824164D01*
X176132217Y-111871783D01*
X176084598Y-111919402D01*
X176036979Y-112014640D01*
X176036979Y-112109879D01*
X176084598Y-112205117D01*
X176132217Y-112252736D01*
X176227455Y-112300355D01*
X176417931Y-112347974D01*
X176656026Y-112347974D01*
X176846502Y-112300355D01*
X176941740Y-112252736D01*
X176989360Y-112205117D01*
X177036979Y-112109879D01*
X177036979Y-111157498D02*
X177036979Y-111062260D01*
X176989360Y-110967021D01*
X176941740Y-110919402D01*
X176846502Y-110871783D01*
X176656026Y-110824164D01*
X176417931Y-110824164D01*
X176227455Y-110871783D01*
X176132217Y-110919402D01*
X176084598Y-110967021D01*
X176036979Y-111062260D01*
X176036979Y-111157498D01*
X176084598Y-111252736D01*
X176132217Y-111300355D01*
X176227455Y-111347974D01*
X176417931Y-111395593D01*
X176656026Y-111395593D01*
X176846502Y-111347974D01*
X176941740Y-111300355D01*
X176989360Y-111252736D01*
X177036979Y-111157498D01*
X179348139Y-130748066D02*
X179824329Y-131081400D01*
X179348139Y-131319495D02*
X180348139Y-131319495D01*
X180348139Y-130938542D01*
X180300520Y-130843304D01*
X180252900Y-130795685D01*
X180157662Y-130748066D01*
X180014805Y-130748066D01*
X179919567Y-130795685D01*
X179871948Y-130843304D01*
X179824329Y-130938542D01*
X179824329Y-131319495D01*
X180252900Y-130367114D02*
X180300520Y-130319495D01*
X180348139Y-130224257D01*
X180348139Y-129986161D01*
X180300520Y-129890923D01*
X180252900Y-129843304D01*
X180157662Y-129795685D01*
X180062424Y-129795685D01*
X179919567Y-129843304D01*
X179348139Y-130414733D01*
X179348139Y-129795685D01*
X176714805Y-131843304D02*
X176048139Y-131843304D01*
X177095758Y-132081400D02*
X176381472Y-132319495D01*
X176381472Y-131700447D01*
X177048139Y-131414733D02*
X177048139Y-130748066D01*
X176048139Y-131176638D01*
X177048139Y-130176638D02*
X177048139Y-130081400D01*
X177000520Y-129986161D01*
X176952900Y-129938542D01*
X176857662Y-129890923D01*
X176667186Y-129843304D01*
X176429091Y-129843304D01*
X176238615Y-129890923D01*
X176143377Y-129938542D01*
X176095758Y-129986161D01*
X176048139Y-130081400D01*
X176048139Y-130176638D01*
X176095758Y-130271876D01*
X176143377Y-130319495D01*
X176238615Y-130367114D01*
X176429091Y-130414733D01*
X176667186Y-130414733D01*
X176857662Y-130367114D01*
X176952900Y-130319495D01*
X177000520Y-130271876D01*
X177048139Y-130176638D01*
X176048139Y-129414733D02*
X177048139Y-129414733D01*
X176048139Y-128843304D02*
X176619567Y-129271876D01*
X177048139Y-128843304D02*
X176476710Y-129414733D01*
X179337979Y-137867686D02*
X179814169Y-138201020D01*
X179337979Y-138439115D02*
X180337979Y-138439115D01*
X180337979Y-138058162D01*
X180290360Y-137962924D01*
X180242740Y-137915305D01*
X180147502Y-137867686D01*
X180004645Y-137867686D01*
X179909407Y-137915305D01*
X179861788Y-137962924D01*
X179814169Y-138058162D01*
X179814169Y-138439115D01*
X179337979Y-136915305D02*
X179337979Y-137486734D01*
X179337979Y-137201020D02*
X180337979Y-137201020D01*
X180195121Y-137296258D01*
X180099883Y-137391496D01*
X180052264Y-137486734D01*
X176037979Y-137915305D02*
X176037979Y-138486734D01*
X176037979Y-138201020D02*
X177037979Y-138201020D01*
X176895121Y-138296258D01*
X176799883Y-138391496D01*
X176752264Y-138486734D01*
X176037979Y-137486734D02*
X177037979Y-137486734D01*
X176037979Y-136915305D02*
X176609407Y-137343877D01*
X177037979Y-136915305D02*
X176466550Y-137486734D01*
X179340519Y-118286755D02*
X180340519Y-118286755D01*
X180340519Y-118048660D01*
X180292900Y-117905802D01*
X180197661Y-117810564D01*
X180102423Y-117762945D01*
X179911947Y-117715326D01*
X179769090Y-117715326D01*
X179578614Y-117762945D01*
X179483376Y-117810564D01*
X179388138Y-117905802D01*
X179340519Y-118048660D01*
X179340519Y-118286755D01*
X179340519Y-116762945D02*
X179340519Y-117334374D01*
X179340519Y-117048660D02*
X180340519Y-117048660D01*
X180197661Y-117143898D01*
X180102423Y-117239136D01*
X180054804Y-117334374D01*
X176040519Y-118191517D02*
X176040519Y-118667707D01*
X177040519Y-118667707D01*
X176564328Y-117858183D02*
X176564328Y-117524850D01*
X176040519Y-117381993D02*
X176040519Y-117858183D01*
X177040519Y-117858183D01*
X177040519Y-117381993D01*
X176040519Y-116953421D02*
X177040519Y-116953421D01*
X177040519Y-116715326D01*
X176992900Y-116572469D01*
X176897661Y-116477231D01*
X176802423Y-116429612D01*
X176611947Y-116381993D01*
X176469090Y-116381993D01*
X176278614Y-116429612D01*
X176183376Y-116477231D01*
X176088138Y-116572469D01*
X176040519Y-116715326D01*
X176040519Y-116953421D01*
X179613377Y-123897686D02*
X179565758Y-123945305D01*
X179518139Y-124088162D01*
X179518139Y-124183400D01*
X179565758Y-124326258D01*
X179660996Y-124421496D01*
X179756234Y-124469115D01*
X179946710Y-124516734D01*
X180089567Y-124516734D01*
X180280043Y-124469115D01*
X180375281Y-124421496D01*
X180470520Y-124326258D01*
X180518139Y-124183400D01*
X180518139Y-124088162D01*
X180470520Y-123945305D01*
X180422900Y-123897686D01*
X179518139Y-122945305D02*
X179518139Y-123516734D01*
X179518139Y-123231020D02*
X180518139Y-123231020D01*
X180375281Y-123326258D01*
X180280043Y-123421496D01*
X180232424Y-123516734D01*
X175878139Y-124326258D02*
X175878139Y-124897686D01*
X175878139Y-124611972D02*
X176878139Y-124611972D01*
X176735281Y-124707210D01*
X176640043Y-124802448D01*
X176592424Y-124897686D01*
X176544805Y-123469115D02*
X175878139Y-123469115D01*
X176544805Y-123897686D02*
X176020996Y-123897686D01*
X175925758Y-123850067D01*
X175878139Y-123754829D01*
X175878139Y-123611972D01*
X175925758Y-123516734D01*
X175973377Y-123469115D01*
X176401948Y-122659591D02*
X176401948Y-122992924D01*
X175878139Y-122992924D02*
X176878139Y-122992924D01*
X176878139Y-122516734D01*
D11*
X184691300Y-119588640D02*
X183891300Y-119588640D01*
X192741300Y-130488640D02*
X194841300Y-130488640D01*
X187291300Y-130488640D02*
X188741300Y-130488640D01*
X187291300Y-116988640D02*
X184691300Y-119588640D01*
X188741300Y-116988640D02*
X187291300Y-116988640D01*
X183891300Y-119588640D02*
X183891300Y-127888640D01*
X183891300Y-127888640D02*
X184691300Y-127888640D01*
X192741300Y-116988640D02*
X194841300Y-116988640D01*
X184691300Y-127888640D02*
X187291300Y-130488640D01*
X196325460Y-118324025D02*
G75*
G02*
X195941300Y-119238640I-984160J-124615D01*
G01*
X194791300Y-116988640D02*
G75*
G02*
X196341300Y-118438640I50000J-1500000D01*
G01*
X196325460Y-129153255D02*
G75*
G03*
X195941300Y-128238640I-984160J124615D01*
G01*
X194791300Y-130488640D02*
G75*
G03*
X196341300Y-129038640I50000J1500000D01*
G01*
D12*
X162733300Y-119881340D02*
X162733300Y-120181340D01*
X162993300Y-124841340D02*
X161223300Y-124841340D01*
X163033300Y-119881340D02*
X162733300Y-119881340D01*
X166933300Y-125081340D02*
X166633300Y-125081340D01*
X163383300Y-125031340D02*
X163183300Y-125031340D01*
X166933300Y-119881340D02*
X166633300Y-119881340D01*
X166933300Y-124781340D02*
X166933300Y-125081340D01*
X163183300Y-125031340D02*
X162993300Y-124841340D01*
X166933300Y-119881340D02*
X166933300Y-120181340D01*
D11*
X178860520Y-111806088D02*
X178860520Y-112328592D01*
X177440520Y-111806088D02*
X177440520Y-112328592D01*
X177440520Y-130842652D02*
X177440520Y-130320148D01*
X178860520Y-130842652D02*
X178860520Y-130320148D01*
X177430360Y-137962272D02*
X177430360Y-137439768D01*
X178850360Y-137962272D02*
X178850360Y-137439768D01*
X177182900Y-119408660D02*
X177182900Y-116548660D01*
X179102900Y-116548660D02*
X179102900Y-119408660D01*
X179102900Y-119408660D02*
X177182900Y-119408660D01*
X179060520Y-124333084D02*
X179060520Y-123128956D01*
X177240520Y-124333084D02*
X177240520Y-123128956D01*
M02*
