G04 #@! TF.GenerationSoftware,KiCad,Pcbnew,(5.99.0-3978-g0efe073de)*
G04 #@! TF.CreationDate,2020-10-25T12:36:58-05:00*
G04 #@! TF.ProjectId,gtb-pumpkin,6774622d-7075-46d7-906b-696e2e6b6963,rev?*
G04 #@! TF.SameCoordinates,Original*
G04 #@! TF.FileFunction,Copper,L2,Bot*
G04 #@! TF.FilePolarity,Positive*
%FSLAX46Y46*%
G04 Gerber Fmt 4.6, Leading zero omitted, Abs format (unit mm)*
G04 Created by KiCad (PCBNEW (5.99.0-3978-g0efe073de)) date 2020-10-25 12:36:58*
%MOMM*%
%LPD*%
G01*
G04 APERTURE LIST*
G04 Aperture macros list*
%AMRoundRect*
0 Rectangle with rounded corners*
0 $1 Rounding radius*
0 $2 $3 $4 $5 $6 $7 $8 $9 X,Y pos of 4 corners*
0 Add a 4 corners polygon primitive as box body*
4,1,4,$2,$3,$4,$5,$6,$7,$8,$9,$2,$3,0*
0 Add four circle primitives for the rounded corners*
1,1,$1+$1,$2,$3,0*
1,1,$1+$1,$4,$5,0*
1,1,$1+$1,$6,$7,0*
1,1,$1+$1,$8,$9,0*
0 Add four rect primitives between the rounded corners*
20,1,$1+$1,$2,$3,$4,$5,0*
20,1,$1+$1,$4,$5,$6,$7,0*
20,1,$1+$1,$6,$7,$8,$9,0*
20,1,$1+$1,$8,$9,$2,$3,0*%
G04 Aperture macros list end*
G04 #@! TA.AperFunction,SMDPad,CuDef*
%ADD10R,3.300000X3.500000*%
G04 #@! TD*
G04 #@! TA.AperFunction,SMDPad,CuDef*
%ADD11C,10.200000*%
G04 #@! TD*
G04 #@! TA.AperFunction,SMDPad,CuDef*
%ADD12R,1.750000X0.650000*%
G04 #@! TD*
G04 #@! TA.AperFunction,SMDPad,CuDef*
%ADD13RoundRect,0.250000X-0.450000X0.325000X-0.450000X-0.325000X0.450000X-0.325000X0.450000X0.325000X0*%
G04 #@! TD*
G04 #@! TA.AperFunction,SMDPad,CuDef*
%ADD14RoundRect,0.250000X0.450000X-0.325000X0.450000X0.325000X-0.450000X0.325000X-0.450000X-0.325000X0*%
G04 #@! TD*
G04 #@! TA.AperFunction,SMDPad,CuDef*
%ADD15RoundRect,0.250001X0.624999X-0.462499X0.624999X0.462499X-0.624999X0.462499X-0.624999X-0.462499X0*%
G04 #@! TD*
G04 #@! TA.AperFunction,Conductor*
%ADD16C,0.508000*%
G04 #@! TD*
G04 APERTURE END LIST*
D10*
X190741300Y-131638640D03*
X190741300Y-115838640D03*
D11*
X190741300Y-123738640D03*
D12*
X162083300Y-124386340D03*
X162083300Y-123116340D03*
X162083300Y-121846340D03*
X162083300Y-120576340D03*
X167583300Y-120576340D03*
X167583300Y-121846340D03*
X167583300Y-123116340D03*
X167583300Y-124386340D03*
D13*
X178150520Y-111042340D03*
X178150520Y-113092340D03*
D14*
X178150520Y-131606400D03*
X178150520Y-129556400D03*
X178140360Y-138726020D03*
X178140360Y-136676020D03*
X178142900Y-118573660D03*
X178142900Y-116523660D03*
D15*
X178150520Y-125218520D03*
X178150520Y-122243520D03*
D16*
X160746032Y-128334090D02*
X171142036Y-136308436D01*
X159528681Y-121363945D02*
X159452895Y-121452887D01*
X159382101Y-121545851D02*
X159316511Y-121642557D01*
X159225973Y-125457471D02*
X159316511Y-121642557D01*
X159265419Y-125691170D02*
X159225973Y-125457471D01*
X159451723Y-126376748D02*
X159378430Y-126151362D01*
X159694303Y-121199188D02*
X159609231Y-121279294D01*
X159378430Y-126151362D02*
X159316279Y-125922652D01*
X159609231Y-121279294D02*
X159528681Y-121363945D01*
X159225973Y-125457471D02*
X159198034Y-125222119D01*
X159631003Y-126815391D02*
X159535982Y-126598269D01*
X159535982Y-126598269D02*
X159451723Y-126376748D01*
X159316279Y-125922652D02*
X159265419Y-125691170D01*
X159876973Y-121053562D02*
X159783640Y-121123869D01*
X159852394Y-127234360D02*
X159736559Y-127027591D01*
X159452895Y-121452887D02*
X159382101Y-121545851D01*
X159783640Y-121123869D02*
X159694303Y-121199188D01*
X159736559Y-127027591D02*
X159631003Y-126815391D01*
X164548132Y-123912916D02*
X164564787Y-123863076D01*
X164473781Y-124051498D02*
X164502465Y-124007468D01*
X164280888Y-124227100D02*
X164325170Y-124198805D01*
X166602926Y-119020303D02*
X178142900Y-118573660D01*
X164234366Y-124251534D02*
X164280888Y-124227100D01*
X165206039Y-120877228D02*
X165280467Y-120692926D01*
X165087498Y-121256516D02*
X165141653Y-121065273D01*
X164405748Y-124131480D02*
X164441465Y-124092935D01*
X164135953Y-124288147D02*
X164185937Y-124271932D01*
X166255724Y-119109761D02*
X166424533Y-119046432D01*
X165280467Y-120692926D02*
X165364720Y-120512904D01*
X164325170Y-124198805D02*
X164366890Y-124166855D01*
X166424533Y-119046432D02*
X166602926Y-119020303D01*
X165043730Y-121450399D02*
X164577151Y-123812002D01*
X165879221Y-119486617D02*
X165976736Y-119334967D01*
X163980307Y-124310677D02*
X164032766Y-124307590D01*
X164084772Y-124300062D02*
X164135953Y-124288147D01*
X164527308Y-123961162D02*
X164548132Y-123912916D01*
X164032766Y-124307590D02*
X164084772Y-124300062D01*
X164441465Y-124092935D02*
X164473781Y-124051498D01*
X165976736Y-119334967D02*
X166104165Y-119207417D01*
X164366890Y-124166855D02*
X164405748Y-124131480D01*
X163980307Y-124310677D02*
X161989320Y-124343160D01*
X166104165Y-119207417D02*
X166255724Y-119109761D01*
X165141653Y-121065273D02*
X165206039Y-120877228D01*
X178150520Y-122243520D02*
X190741300Y-123738640D01*
X165364720Y-120512904D02*
X165879221Y-119486617D01*
X164564787Y-123863076D02*
X164577151Y-123812002D01*
X178150520Y-122243520D02*
X178142900Y-118573660D01*
X165043730Y-121450399D02*
X165087498Y-121256516D01*
X164185937Y-124271932D02*
X164234366Y-124251534D01*
X164502465Y-124007468D02*
X164527308Y-123961162D01*
X187109904Y-132860249D02*
X186975869Y-133039922D01*
X196782540Y-118855007D02*
X196921788Y-119027207D01*
X159974022Y-120988481D02*
X159876973Y-121053562D01*
X184296159Y-138127501D02*
X184369159Y-138042079D01*
X197344558Y-119802345D02*
X197413935Y-120012653D01*
X188551214Y-131831026D02*
X188342978Y-131914007D01*
X170012070Y-134482572D02*
X167489320Y-124343160D01*
X189650120Y-131639325D02*
X189426097Y-131647180D01*
X197048238Y-119209012D02*
X197161231Y-119399473D01*
X196921788Y-119027207D02*
X197048238Y-119209012D01*
X186854509Y-133228389D02*
X186746397Y-133424756D01*
X197413935Y-120012653D02*
X197467946Y-120227422D01*
X184044787Y-138351320D02*
X184133596Y-138282481D01*
X196995079Y-128239969D02*
X197109255Y-128049009D01*
X187255980Y-132690219D02*
X187109904Y-132860249D01*
X189650120Y-131639325D02*
X190741300Y-131638640D01*
X187946063Y-132121884D02*
X187759265Y-132245797D01*
X172409991Y-137000164D02*
X178140360Y-138726020D01*
X195723191Y-118069777D02*
X190741300Y-115838640D01*
X183099280Y-138663573D02*
X183211524Y-138658335D01*
X187581431Y-132382264D02*
X187413404Y-132530639D01*
X197488781Y-126779359D02*
X197498134Y-126557064D01*
X196631222Y-118693311D02*
X196782540Y-118855007D01*
X160178087Y-120874759D02*
X160074494Y-120928820D01*
X197366860Y-127434463D02*
X197422978Y-127219165D01*
X197260176Y-119597595D02*
X197344558Y-119802345D01*
X195921902Y-118167536D02*
X196113036Y-118279388D01*
X171142036Y-136308436D02*
X171740109Y-136720115D01*
X170259191Y-135165289D02*
X170641278Y-135782687D01*
X197506308Y-120445530D02*
X197528821Y-120665838D01*
X170641278Y-135782687D02*
X171142036Y-136308436D01*
X197528821Y-120665838D02*
X197535367Y-120887197D01*
X197161231Y-119399473D02*
X197260176Y-119597595D01*
X196113036Y-118279388D02*
X196295594Y-118404748D01*
X196727603Y-128595239D02*
X196867647Y-128422352D01*
X196056276Y-129175223D02*
X196239140Y-129048483D01*
X196867647Y-128422352D02*
X196995079Y-128239969D01*
X183951500Y-138413958D02*
X184044787Y-138351320D01*
X160617311Y-120717509D02*
X160504432Y-120747718D01*
X160847184Y-120675873D02*
X161989320Y-120533160D01*
X160575187Y-128169826D02*
X160412603Y-127997380D01*
X183099280Y-138663573D02*
X178140360Y-138726020D01*
X184217516Y-138207759D02*
X184296159Y-138127501D01*
X197295615Y-127645239D02*
X197366860Y-127434463D01*
X159978231Y-127435198D02*
X159852394Y-127234360D01*
X183854168Y-138470105D02*
X183951500Y-138413958D01*
X187759265Y-132245797D02*
X187581431Y-132382264D01*
X197109255Y-128049009D02*
X197209603Y-127850432D01*
X197467946Y-120227422D02*
X197506308Y-120445530D01*
X184133596Y-138282481D02*
X184217516Y-138207759D01*
X171740109Y-136720115D02*
X172409991Y-137000164D01*
X160258673Y-127817168D02*
X160113766Y-127629623D01*
X196412556Y-128909095D02*
X196575651Y-128757759D01*
X188764665Y-131762564D02*
X188551214Y-131831026D01*
X170012070Y-134482572D02*
X170259191Y-135165289D01*
X188342978Y-131914007D02*
X188140942Y-132011113D01*
X195665928Y-129388269D02*
X190741300Y-131638640D01*
X195864884Y-129288676D02*
X196056276Y-129175223D01*
X184436178Y-137951888D02*
X184496907Y-137857347D01*
X196239140Y-129048483D02*
X196412556Y-128909095D01*
X189203145Y-131670423D02*
X188982319Y-131708945D01*
X183649188Y-138561913D02*
X183753241Y-138519499D01*
X160412603Y-127997380D02*
X160258673Y-127817168D01*
X186975869Y-133039922D02*
X186854509Y-133228389D01*
X184496907Y-137857347D02*
X184551062Y-137758893D01*
X195723191Y-118069777D02*
X195921902Y-118167536D01*
X160924727Y-128489778D02*
X160746032Y-128334090D01*
X195665928Y-129388269D02*
X195864884Y-129288676D01*
X197535367Y-120887197D02*
X197498134Y-126557064D01*
X187413404Y-132530639D02*
X187255980Y-132690219D01*
X197209603Y-127850432D02*
X197295615Y-127645239D01*
X160113766Y-127629623D02*
X159978231Y-127435198D01*
X196468624Y-118542963D02*
X196631222Y-118693311D01*
X183323150Y-138645473D02*
X183433643Y-138625047D01*
X197463686Y-127000430D02*
X197488781Y-126779359D01*
X188982319Y-131708945D02*
X188764665Y-131762564D01*
X184369159Y-138042079D02*
X184436178Y-137951888D01*
X183433643Y-138625047D02*
X183542491Y-138597150D01*
X160847184Y-120675873D02*
X160731676Y-120693538D01*
X196295594Y-118404748D02*
X196468624Y-118542963D01*
X183542491Y-138597150D02*
X183649188Y-138561913D01*
X160731676Y-120693538D02*
X160617311Y-120717509D01*
X160284489Y-120826461D02*
X160178087Y-120874759D01*
X160746032Y-128334090D02*
X160575187Y-128169826D01*
X196575651Y-128757759D02*
X196727603Y-128595239D01*
X183211524Y-138658335D02*
X183323150Y-138645473D01*
X186746397Y-133424756D02*
X184551062Y-137758893D01*
X188140942Y-132011113D02*
X187946063Y-132121884D01*
X160393380Y-120784071D02*
X160284489Y-120826461D01*
X183753241Y-138519499D02*
X183854168Y-138470105D01*
X160074494Y-120928820D02*
X159974022Y-120988481D01*
X160504432Y-120747718D02*
X160393380Y-120784071D01*
X197422978Y-127219165D02*
X197463686Y-127000430D01*
X189426097Y-131647180D02*
X189203145Y-131670423D01*
X174451401Y-124411526D02*
X174074419Y-124308528D01*
X165110613Y-125665937D02*
X165158910Y-125653401D01*
X160878520Y-125742700D02*
X165011544Y-125676989D01*
X166044469Y-122321238D02*
X165855959Y-122608156D01*
X173035224Y-123774920D02*
X172731850Y-123528568D01*
X165527198Y-125169288D02*
X165704520Y-123139200D01*
X166299281Y-122091177D02*
X166044469Y-122321238D01*
X165250850Y-125614880D02*
X165293658Y-125589244D01*
X170143251Y-122013655D02*
X170524557Y-122069191D01*
X165461378Y-125407599D02*
X165483526Y-125362886D01*
X165855959Y-122608156D02*
X165745953Y-122933358D01*
X165501323Y-125316270D02*
X165514607Y-125268173D01*
X165293658Y-125589244D02*
X165333835Y-125559653D01*
X165158910Y-125653401D02*
X165205798Y-125636331D01*
X160637220Y-123151900D02*
X162083300Y-123116340D01*
X170895346Y-122174045D02*
X171249267Y-122326421D01*
X178150520Y-129556400D02*
X178150520Y-125218520D01*
X165011544Y-125676989D02*
X165061342Y-125673823D01*
X174451401Y-124411526D02*
X178150520Y-125218520D01*
X160136840Y-124876560D02*
X160152080Y-123642120D01*
X174074419Y-124308528D02*
X173710143Y-124167011D01*
X160152080Y-123642120D02*
X160637220Y-123151900D01*
X170143251Y-122013655D02*
X167489320Y-121803160D01*
X166938615Y-121856541D02*
X166603902Y-121932862D01*
X165404868Y-125489717D02*
X165435079Y-125450004D01*
X171882651Y-122762533D02*
X172731850Y-123528568D01*
X166603902Y-121932862D02*
X166299281Y-122091177D01*
X170524557Y-122069191D02*
X170895346Y-122174045D01*
X165061342Y-125673823D02*
X165110613Y-125665937D01*
X173362496Y-123988501D02*
X173035224Y-123774920D01*
X165435079Y-125450004D02*
X165461378Y-125407599D01*
X165371018Y-125526377D02*
X165404868Y-125489717D01*
X166938615Y-121856541D02*
X167489320Y-121803160D01*
X165205798Y-125636331D02*
X165250850Y-125614880D01*
X171580258Y-122523710D02*
X171882651Y-122762533D01*
X165745953Y-122933358D02*
X165704520Y-123139200D01*
X173710143Y-124167011D02*
X173362496Y-123988501D01*
X165333835Y-125559653D02*
X165371018Y-125526377D01*
X160878520Y-125742700D02*
X160136840Y-124876560D01*
X165514607Y-125268173D02*
X165523259Y-125219031D01*
X171249267Y-122326421D02*
X171580258Y-122523710D01*
X165523259Y-125219031D02*
X165527198Y-125169288D01*
X165483526Y-125362886D02*
X165501323Y-125316270D01*
X178150520Y-113092340D02*
X178142900Y-116523660D01*
X172435070Y-128912787D02*
X172531858Y-129116559D01*
X170780811Y-124467141D02*
X170841349Y-124565164D01*
X172531858Y-129116559D02*
X172642059Y-129313401D01*
X170305355Y-123970373D02*
X170396571Y-124040751D01*
X173047920Y-129853705D02*
X173206272Y-130014377D01*
X178140360Y-136676020D02*
X178150520Y-131606400D01*
X170642648Y-124282867D02*
X170714497Y-124372928D01*
X172352128Y-128702997D02*
X172435070Y-128912787D01*
X170714497Y-124372928D02*
X170780811Y-124467141D01*
X173375017Y-130164096D02*
X173553399Y-130302194D01*
X174346743Y-130726823D02*
X174560589Y-130798662D01*
X170944248Y-124771216D02*
X170986237Y-124878502D01*
X175000282Y-130898686D02*
X177919380Y-131360020D01*
X170895893Y-124666645D02*
X170944248Y-124771216D01*
X169685263Y-123673182D02*
X167489320Y-123073160D01*
X173935837Y-130541101D02*
X174138181Y-130640841D01*
X174560589Y-130798662D02*
X174778761Y-130856036D01*
X173553399Y-130302194D02*
X173740619Y-130428050D01*
X170841349Y-124565164D02*
X170895893Y-124666645D01*
X170483398Y-124116478D02*
X170565522Y-124197280D01*
X169685263Y-123673182D02*
X169795438Y-123706873D01*
X170111086Y-123846658D02*
X170210079Y-123905598D01*
X170396571Y-124040751D02*
X170483398Y-124116478D01*
X170008734Y-123793768D02*
X170111086Y-123846658D01*
X174138181Y-130640841D02*
X174346743Y-130726823D01*
X172900669Y-129682801D02*
X173047920Y-129853705D01*
X173740619Y-130428050D02*
X173935837Y-130541101D01*
X174778761Y-130856036D02*
X175000282Y-130898686D01*
X172642059Y-129313401D02*
X172765180Y-129502430D01*
X170210079Y-123905598D02*
X170305355Y-123970373D01*
X169903391Y-123747117D02*
X170008734Y-123793768D01*
X169795438Y-123706873D02*
X169903391Y-123747117D01*
X170986237Y-124878502D02*
X172352128Y-128702997D01*
X173206272Y-130014377D02*
X173375017Y-130164096D01*
X172765180Y-129502430D02*
X172900669Y-129682801D01*
X170565522Y-124197280D02*
X170642648Y-124282867D01*
X166644109Y-113771585D02*
X166827220Y-113622957D01*
X165497348Y-115253440D02*
X165606134Y-115044191D01*
X165120858Y-116367656D02*
X165173123Y-116137682D01*
X165606134Y-115044191D02*
X165725484Y-114840782D01*
X167017696Y-113483893D02*
X167215037Y-113354757D01*
X165312583Y-115687255D02*
X165399412Y-115467983D01*
X171554631Y-111165491D02*
X171793826Y-111120115D01*
X165725484Y-114840782D02*
X165855087Y-114643746D01*
X166827220Y-113622957D02*
X167017696Y-113483893D01*
X163570791Y-121660212D02*
X161989320Y-121803160D01*
X166468844Y-113929389D02*
X166644109Y-113771585D01*
X172762042Y-111022727D02*
X173005481Y-111019557D01*
X169944666Y-111711638D02*
X170165788Y-111609765D01*
X165855087Y-114643746D02*
X165994602Y-114453601D01*
X165237087Y-115910683D02*
X165312583Y-115687255D01*
X170390330Y-111515668D02*
X170618017Y-111429461D01*
X169304484Y-112062624D02*
X169513752Y-111938206D01*
X173005481Y-111019557D02*
X178150520Y-111042340D01*
X163738042Y-121623090D02*
X163890398Y-121544741D01*
X165994602Y-114453601D02*
X166143665Y-114270844D01*
X165399412Y-115467983D02*
X165497348Y-115253440D01*
X170618017Y-111429461D02*
X170848573Y-111351250D01*
X164167051Y-121124957D02*
X165120858Y-116367656D01*
X165173123Y-116137682D02*
X165237087Y-115910683D01*
X171317165Y-111219185D02*
X171554631Y-111165491D01*
X166143665Y-114270844D02*
X166301884Y-114095954D01*
X170848573Y-111351250D02*
X171081717Y-111281129D01*
X164112162Y-121287247D02*
X164167051Y-121124957D01*
X172276234Y-111054522D02*
X172518860Y-111034386D01*
X163570791Y-121660212D02*
X163738042Y-121623090D01*
X172518860Y-111034386D02*
X172762042Y-111022727D01*
X172034458Y-111083110D02*
X172276234Y-111054522D01*
X169727233Y-111821162D02*
X169944666Y-111711638D01*
X163890398Y-121544741D02*
X164017887Y-121430296D01*
X164017887Y-121430296D02*
X164112162Y-121287247D01*
X166301884Y-114095954D02*
X166468844Y-113929389D01*
X170165788Y-111609765D02*
X170390330Y-111515668D01*
X169513752Y-111938206D02*
X169727233Y-111821162D01*
X167215037Y-113354757D02*
X169304484Y-112062624D01*
X171081717Y-111281129D02*
X171317165Y-111219185D01*
X171793826Y-111120115D02*
X172034458Y-111083110D01*
M02*
