M48
; DRILL file {KiCad (5.99.0-8437-ge27bd5cf15)} date Wed Jan 20 14:32:59 2021
; FORMAT={-:-/ absolute / inch / decimal}
; #@! TF.CreationDate,2021-01-20T14:32:59-08:00
; #@! TF.GenerationSoftware,Kicad,Pcbnew,(5.99.0-8437-ge27bd5cf15)
; #@! TF.FileFunction,Plated,1,6,PTH
FMAT,2
INCH
T1C0.0157
T2C0.0315
T3C0.0354
T4C0.0394
T5C0.0394
%
G90
G05
T1
X5.8504Y-4.3366
X6.1606Y-4.3311
X6.4732Y-4.3339
T2
X6.9276Y-3.8106
X6.9276Y-4.1059
T3
X5.7055Y-3.6535
X5.7055Y-3.7535
X6.0976Y-3.2598
X6.1071Y-3.9406
X6.1976Y-3.2598
X6.2071Y-3.9406
X6.5213Y-3.6433
X6.5213Y-3.7433
T4
X5.987Y-3.4508
X5.987Y-3.7508
X6.087Y-3.4508
X6.087Y-3.7508
X6.187Y-3.4508
X6.187Y-3.7508
X6.287Y-3.4508
X6.287Y-3.7508
T5
X5.4047Y-3.2965
X5.4047Y-3.6508
X5.4071Y-3.7862
X5.4071Y-4.1406
X6.9268Y-3.311
X6.9268Y-3.6654
T0
M30
