G04 #@! TF.GenerationSoftware,KiCad,Pcbnew,(5.99.0-8437-ge27bd5cf15)*
G04 #@! TF.CreationDate,2021-01-20T14:32:41-08:00*
G04 #@! TF.ProjectId,gtb-6layer,6774622d-366c-4617-9965-722e6b696361,rev?*
G04 #@! TF.SameCoordinates,Original*
G04 #@! TF.FileFunction,Legend,Bot*
G04 #@! TF.FilePolarity,Positive*
%FSLAX46Y46*%
G04 Gerber Fmt 4.6, Leading zero omitted, Abs format (unit mm)*
G04 Created by KiCad (PCBNEW (5.99.0-8437-ge27bd5cf15)) date 2021-01-20 14:32:41*
%MOMM*%
%LPD*%
G01*
G04 APERTURE LIST*
%ADD10C,0.150000*%
%ADD11C,0.120000*%
%ADD12C,0.010000*%
%ADD13C,1.998980*%
G04 APERTURE END LIST*
D10*
X171379782Y-92952369D02*
X171716499Y-93289086D01*
X172423606Y-92581980D01*
X171043064Y-92615651D02*
X171144079Y-92649323D01*
X171211423Y-92649323D01*
X171312438Y-92615651D01*
X171514469Y-92413621D01*
X171548140Y-92312606D01*
X171548140Y-92245262D01*
X171514469Y-92144247D01*
X171413453Y-92043232D01*
X171312438Y-92009560D01*
X171245095Y-92009560D01*
X171144079Y-92043232D01*
X170942049Y-92245262D01*
X170908377Y-92346277D01*
X170908377Y-92413621D01*
X170942049Y-92514636D01*
X171043064Y-92615651D01*
X170403301Y-91975888D02*
X170504316Y-92009560D01*
X170571660Y-92009560D01*
X170672675Y-91975888D01*
X170874705Y-91773858D01*
X170908377Y-91672842D01*
X170908377Y-91605499D01*
X170874705Y-91504484D01*
X170773690Y-91403468D01*
X170672675Y-91369797D01*
X170605331Y-91369797D01*
X170504316Y-91403468D01*
X170302286Y-91605499D01*
X170268614Y-91706514D01*
X170268614Y-91773858D01*
X170302286Y-91874873D01*
X170403301Y-91975888D01*
X169864553Y-91437140D02*
X170571660Y-90730033D01*
X170066583Y-91100423D02*
X169595179Y-91167766D01*
X170066583Y-90696362D02*
X170066583Y-91235110D01*
X168753385Y-90325972D02*
X169224789Y-89854568D01*
X169157446Y-89921911D02*
X169157446Y-89854568D01*
X169123774Y-89753552D01*
X169022759Y-89652537D01*
X168921744Y-89618865D01*
X168820728Y-89652537D01*
X168450339Y-90022926D01*
X168820728Y-89652537D02*
X168854400Y-89551522D01*
X168820728Y-89450507D01*
X168719713Y-89349491D01*
X168618698Y-89315820D01*
X168517683Y-89349491D01*
X168147293Y-89719881D01*
X167507530Y-89080117D02*
X167877919Y-88709728D01*
X167978935Y-88676056D01*
X168079950Y-88709728D01*
X168214637Y-88844415D01*
X168248309Y-88945430D01*
X167541202Y-89046446D02*
X167574874Y-89147461D01*
X167743232Y-89315820D01*
X167844248Y-89349491D01*
X167945263Y-89315820D01*
X168012606Y-89248476D01*
X168046278Y-89147461D01*
X168012606Y-89046446D01*
X167844248Y-88878087D01*
X167810576Y-88777072D01*
X167170813Y-88676056D02*
X167137141Y-88709728D01*
X167103469Y-88810743D01*
X167103469Y-88878087D01*
X166766752Y-87396530D02*
X166295347Y-87867934D01*
X166699408Y-87463873D02*
X166699408Y-87396530D01*
X166665736Y-87295515D01*
X166564721Y-87194499D01*
X166463706Y-87160828D01*
X166362691Y-87194499D01*
X165992301Y-87564889D01*
X165554569Y-87127156D02*
X165655584Y-87160828D01*
X165722927Y-87160828D01*
X165823943Y-87127156D01*
X166025973Y-86925125D01*
X166059645Y-86824110D01*
X166059645Y-86756767D01*
X166025973Y-86655751D01*
X165924958Y-86554736D01*
X165823943Y-86521064D01*
X165756599Y-86521064D01*
X165655584Y-86554736D01*
X165453553Y-86756767D01*
X165419882Y-86857782D01*
X165419882Y-86925125D01*
X165453553Y-87026141D01*
X165554569Y-87127156D01*
X165049492Y-85679271D02*
X164780118Y-85409897D01*
X165184179Y-85342553D02*
X164578088Y-85948645D01*
X164477073Y-85982316D01*
X164376057Y-85948645D01*
X164308714Y-85881301D01*
X164073012Y-85645599D02*
X164544416Y-85174194D01*
X164409729Y-85308881D02*
X164443401Y-85207866D01*
X164443401Y-85140523D01*
X164409729Y-85039507D01*
X164342386Y-84972164D01*
X163332233Y-84904820D02*
X163702622Y-84534431D01*
X163803637Y-84500759D01*
X163904653Y-84534431D01*
X164039340Y-84669118D01*
X164073012Y-84770133D01*
X163365905Y-84871148D02*
X163399576Y-84972164D01*
X163567935Y-85140523D01*
X163668950Y-85174194D01*
X163769966Y-85140523D01*
X163837309Y-85073179D01*
X163870981Y-84972164D01*
X163837309Y-84871148D01*
X163668950Y-84702790D01*
X163635279Y-84601774D01*
X162726141Y-84231385D02*
X162759813Y-84332400D01*
X162894500Y-84467087D01*
X162995515Y-84500759D01*
X163062859Y-84500759D01*
X163163874Y-84467087D01*
X163365905Y-84265057D01*
X163399576Y-84164042D01*
X163399576Y-84096698D01*
X163365905Y-83995683D01*
X163231218Y-83860996D01*
X163130202Y-83827324D01*
X162153722Y-83658965D02*
X162187393Y-83759981D01*
X162322080Y-83894668D01*
X162423096Y-83928339D01*
X162524111Y-83894668D01*
X162793485Y-83625294D01*
X162827157Y-83524278D01*
X162793485Y-83423263D01*
X162658798Y-83288576D01*
X162557783Y-83254904D01*
X162456767Y-83288576D01*
X162389424Y-83355920D01*
X162658798Y-83759981D01*
X161850676Y-83355920D02*
X161749661Y-83322248D01*
X161614974Y-83187561D01*
X161581302Y-83086546D01*
X161614974Y-82985530D01*
X161648645Y-82951859D01*
X161749661Y-82918187D01*
X161850676Y-82951859D01*
X161951691Y-83052874D01*
X162052706Y-83086546D01*
X162153722Y-83052874D01*
X162187393Y-83019202D01*
X162221065Y-82918187D01*
X162187393Y-82817172D01*
X162086378Y-82716156D01*
X161985363Y-82682485D01*
X161278256Y-82716156D02*
X161210913Y-82716156D01*
X161210913Y-82783500D01*
X161278256Y-82783500D01*
X161278256Y-82716156D01*
X161210913Y-82783500D01*
X161480287Y-82514126D02*
X161918019Y-82143737D01*
X161918019Y-82076393D01*
X161850676Y-82076393D01*
X161480287Y-82514126D01*
X161918019Y-82076393D01*
X164018571Y-79015000D02*
X164139523Y-78954523D01*
X164320952Y-78954523D01*
X164502380Y-79015000D01*
X164623333Y-79135952D01*
X164683809Y-79256904D01*
X164744285Y-79498809D01*
X164744285Y-79680238D01*
X164683809Y-79922142D01*
X164623333Y-80043095D01*
X164502380Y-80164047D01*
X164320952Y-80224523D01*
X164200000Y-80224523D01*
X164018571Y-80164047D01*
X163958095Y-80103571D01*
X163958095Y-79680238D01*
X164200000Y-79680238D01*
X162930000Y-80164047D02*
X163050952Y-80224523D01*
X163292857Y-80224523D01*
X163413809Y-80164047D01*
X163474285Y-80043095D01*
X163474285Y-79559285D01*
X163413809Y-79438333D01*
X163292857Y-79377857D01*
X163050952Y-79377857D01*
X162930000Y-79438333D01*
X162869523Y-79559285D01*
X162869523Y-79680238D01*
X163474285Y-79801190D01*
X162506666Y-79377857D02*
X162022857Y-79377857D01*
X162325238Y-78954523D02*
X162325238Y-80043095D01*
X162264761Y-80164047D01*
X162143809Y-80224523D01*
X162022857Y-80224523D01*
X161780952Y-79377857D02*
X161297142Y-79377857D01*
X161599523Y-78954523D02*
X161599523Y-80043095D01*
X161539047Y-80164047D01*
X161418095Y-80224523D01*
X161297142Y-80224523D01*
X160873809Y-80224523D02*
X160873809Y-79377857D01*
X160873809Y-78954523D02*
X160934285Y-79015000D01*
X160873809Y-79075476D01*
X160813333Y-79015000D01*
X160873809Y-78954523D01*
X160873809Y-79075476D01*
X160269047Y-79377857D02*
X160269047Y-80224523D01*
X160269047Y-79498809D02*
X160208571Y-79438333D01*
X160087619Y-79377857D01*
X159906190Y-79377857D01*
X159785238Y-79438333D01*
X159724761Y-79559285D01*
X159724761Y-80224523D01*
X158575714Y-79377857D02*
X158575714Y-80405952D01*
X158636190Y-80526904D01*
X158696666Y-80587380D01*
X158817619Y-80647857D01*
X158999047Y-80647857D01*
X159120000Y-80587380D01*
X158575714Y-80164047D02*
X158696666Y-80224523D01*
X158938571Y-80224523D01*
X159059523Y-80164047D01*
X159120000Y-80103571D01*
X159180476Y-79982619D01*
X159180476Y-79619761D01*
X159120000Y-79498809D01*
X159059523Y-79438333D01*
X158938571Y-79377857D01*
X158696666Y-79377857D01*
X158575714Y-79438333D01*
X157184761Y-79377857D02*
X156700952Y-79377857D01*
X157003333Y-78954523D02*
X157003333Y-80043095D01*
X156942857Y-80164047D01*
X156821904Y-80224523D01*
X156700952Y-80224523D01*
X156096190Y-80224523D02*
X156217142Y-80164047D01*
X156277619Y-80103571D01*
X156338095Y-79982619D01*
X156338095Y-79619761D01*
X156277619Y-79498809D01*
X156217142Y-79438333D01*
X156096190Y-79377857D01*
X155914761Y-79377857D01*
X155793809Y-79438333D01*
X155733333Y-79498809D01*
X155672857Y-79619761D01*
X155672857Y-79982619D01*
X155733333Y-80103571D01*
X155793809Y-80164047D01*
X155914761Y-80224523D01*
X156096190Y-80224523D01*
X153737619Y-79559285D02*
X153556190Y-79619761D01*
X153495714Y-79680238D01*
X153435238Y-79801190D01*
X153435238Y-79982619D01*
X153495714Y-80103571D01*
X153556190Y-80164047D01*
X153677142Y-80224523D01*
X154160952Y-80224523D01*
X154160952Y-78954523D01*
X153737619Y-78954523D01*
X153616666Y-79015000D01*
X153556190Y-79075476D01*
X153495714Y-79196428D01*
X153495714Y-79317380D01*
X153556190Y-79438333D01*
X153616666Y-79498809D01*
X153737619Y-79559285D01*
X154160952Y-79559285D01*
X152709523Y-80224523D02*
X152830476Y-80164047D01*
X152890952Y-80043095D01*
X152890952Y-78954523D01*
X152225714Y-80224523D02*
X152225714Y-79377857D01*
X152225714Y-78954523D02*
X152286190Y-79015000D01*
X152225714Y-79075476D01*
X152165238Y-79015000D01*
X152225714Y-78954523D01*
X152225714Y-79075476D01*
X151620952Y-79377857D02*
X151620952Y-80224523D01*
X151620952Y-79498809D02*
X151560476Y-79438333D01*
X151439523Y-79377857D01*
X151258095Y-79377857D01*
X151137142Y-79438333D01*
X151076666Y-79559285D01*
X151076666Y-80224523D01*
X150471904Y-80224523D02*
X150471904Y-78954523D01*
X150350952Y-79740714D02*
X149988095Y-80224523D01*
X149988095Y-79377857D02*
X150471904Y-79861666D01*
X149564761Y-79377857D02*
X149262380Y-80224523D01*
X148960000Y-79377857D02*
X149262380Y-80224523D01*
X149383333Y-80526904D01*
X149443809Y-80587380D01*
X149564761Y-80647857D01*
X148476190Y-80103571D02*
X148415714Y-80164047D01*
X148476190Y-80224523D01*
X148536666Y-80164047D01*
X148476190Y-80103571D01*
X148476190Y-80224523D01*
X148476190Y-79740714D02*
X148536666Y-79015000D01*
X148476190Y-78954523D01*
X148415714Y-79015000D01*
X148476190Y-79740714D01*
X148476190Y-78954523D01*
X158525238Y-102447142D02*
X158572857Y-102494761D01*
X158715714Y-102542380D01*
X158810952Y-102542380D01*
X158953809Y-102494761D01*
X159049047Y-102399523D01*
X159096666Y-102304285D01*
X159144285Y-102113809D01*
X159144285Y-101970952D01*
X159096666Y-101780476D01*
X159049047Y-101685238D01*
X158953809Y-101590000D01*
X158810952Y-101542380D01*
X158715714Y-101542380D01*
X158572857Y-101590000D01*
X158525238Y-101637619D01*
X157525238Y-102542380D02*
X157858571Y-102066190D01*
X158096666Y-102542380D02*
X158096666Y-101542380D01*
X157715714Y-101542380D01*
X157620476Y-101590000D01*
X157572857Y-101637619D01*
X157525238Y-101732857D01*
X157525238Y-101875714D01*
X157572857Y-101970952D01*
X157620476Y-102018571D01*
X157715714Y-102066190D01*
X158096666Y-102066190D01*
X156572857Y-102542380D02*
X157144285Y-102542380D01*
X156858571Y-102542380D02*
X156858571Y-101542380D01*
X156953809Y-101685238D01*
X157049047Y-101780476D01*
X157144285Y-101828095D01*
X156191904Y-101637619D02*
X156144285Y-101590000D01*
X156049047Y-101542380D01*
X155810952Y-101542380D01*
X155715714Y-101590000D01*
X155668095Y-101637619D01*
X155620476Y-101732857D01*
X155620476Y-101828095D01*
X155668095Y-101970952D01*
X156239523Y-102542380D01*
X155620476Y-102542380D01*
X155239523Y-101637619D02*
X155191904Y-101590000D01*
X155096666Y-101542380D01*
X154858571Y-101542380D01*
X154763333Y-101590000D01*
X154715714Y-101637619D01*
X154668095Y-101732857D01*
X154668095Y-101828095D01*
X154715714Y-101970952D01*
X155287142Y-102542380D01*
X154668095Y-102542380D01*
X154049047Y-101542380D02*
X153953809Y-101542380D01*
X153858571Y-101590000D01*
X153810952Y-101637619D01*
X153763333Y-101732857D01*
X153715714Y-101923333D01*
X153715714Y-102161428D01*
X153763333Y-102351904D01*
X153810952Y-102447142D01*
X153858571Y-102494761D01*
X153953809Y-102542380D01*
X154049047Y-102542380D01*
X154144285Y-102494761D01*
X154191904Y-102447142D01*
X154239523Y-102351904D01*
X154287142Y-102161428D01*
X154287142Y-101923333D01*
X154239523Y-101732857D01*
X154191904Y-101637619D01*
X154144285Y-101590000D01*
X154049047Y-101542380D01*
D11*
X149680000Y-106640000D02*
X149680000Y-108090000D01*
X163180000Y-106640000D02*
X160580000Y-104040000D01*
X163180000Y-112090000D02*
X163180000Y-114190000D01*
X160580000Y-103240000D02*
X152280000Y-103240000D01*
X160580000Y-104040000D02*
X160580000Y-103240000D01*
X152280000Y-104040000D02*
X149680000Y-106640000D01*
X152280000Y-103240000D02*
X152280000Y-104040000D01*
X149680000Y-112090000D02*
X149680000Y-114190000D01*
X163180000Y-108090000D02*
X163180000Y-106640000D01*
X149680000Y-114140000D02*
G75*
G03*
X151130000Y-115690000I1500000J-50000D01*
G01*
X151015385Y-115674160D02*
G75*
G03*
X151930000Y-115290000I124615J984160D01*
G01*
X161844615Y-115674160D02*
G75*
G02*
X160930000Y-115290000I-124615J984160D01*
G01*
X163180000Y-114140000D02*
G75*
G02*
X161730000Y-115690000I-1500000J-50000D01*
G01*
D12*
X159476400Y-73879054D02*
X159465535Y-73992993D01*
X159465535Y-73992993D02*
X159433918Y-74100616D01*
X159433918Y-74100616D02*
X159383015Y-74199615D01*
X159383015Y-74199615D02*
X159314293Y-74287684D01*
X159314293Y-74287684D02*
X159229219Y-74362516D01*
X159229219Y-74362516D02*
X159132232Y-74420384D01*
X159132232Y-74420384D02*
X159025964Y-74460005D01*
X159025964Y-74460005D02*
X158918950Y-74478573D01*
X158918950Y-74478573D02*
X158813300Y-74477434D01*
X158813300Y-74477434D02*
X158711125Y-74457930D01*
X158711125Y-74457930D02*
X158614534Y-74421406D01*
X158614534Y-74421406D02*
X158525638Y-74369205D01*
X158525638Y-74369205D02*
X158446546Y-74302673D01*
X158446546Y-74302673D02*
X158379369Y-74223152D01*
X158379369Y-74223152D02*
X158326217Y-74131987D01*
X158326217Y-74131987D02*
X158289199Y-74030523D01*
X158289199Y-74030523D02*
X158270427Y-73920102D01*
X158270427Y-73920102D02*
X158268489Y-73870206D01*
X158268489Y-73870206D02*
X158268489Y-73782267D01*
X158268489Y-73782267D02*
X158216560Y-73782267D01*
X158216560Y-73782267D02*
X158180253Y-73785111D01*
X158180253Y-73785111D02*
X158153355Y-73796911D01*
X158153355Y-73796911D02*
X158126249Y-73820649D01*
X158126249Y-73820649D02*
X158087867Y-73859031D01*
X158087867Y-73859031D02*
X158087867Y-76050602D01*
X158087867Y-76050602D02*
X158087876Y-76312739D01*
X158087876Y-76312739D02*
X158087908Y-76553241D01*
X158087908Y-76553241D02*
X158087972Y-76773048D01*
X158087972Y-76773048D02*
X158088076Y-76973101D01*
X158088076Y-76973101D02*
X158088227Y-77154344D01*
X158088227Y-77154344D02*
X158088434Y-77317716D01*
X158088434Y-77317716D02*
X158088706Y-77464160D01*
X158088706Y-77464160D02*
X158089050Y-77594617D01*
X158089050Y-77594617D02*
X158089474Y-77710029D01*
X158089474Y-77710029D02*
X158089987Y-77811338D01*
X158089987Y-77811338D02*
X158090597Y-77899484D01*
X158090597Y-77899484D02*
X158091312Y-77975410D01*
X158091312Y-77975410D02*
X158092140Y-78040057D01*
X158092140Y-78040057D02*
X158093089Y-78094367D01*
X158093089Y-78094367D02*
X158094167Y-78139280D01*
X158094167Y-78139280D02*
X158095383Y-78175740D01*
X158095383Y-78175740D02*
X158096745Y-78204687D01*
X158096745Y-78204687D02*
X158098261Y-78227063D01*
X158098261Y-78227063D02*
X158099938Y-78243809D01*
X158099938Y-78243809D02*
X158101786Y-78255868D01*
X158101786Y-78255868D02*
X158103813Y-78264180D01*
X158103813Y-78264180D02*
X158106025Y-78269687D01*
X158106025Y-78269687D02*
X158107108Y-78271537D01*
X158107108Y-78271537D02*
X158111271Y-78278549D01*
X158111271Y-78278549D02*
X158114805Y-78284996D01*
X158114805Y-78284996D02*
X158118635Y-78290900D01*
X158118635Y-78290900D02*
X158123682Y-78296286D01*
X158123682Y-78296286D02*
X158130871Y-78301178D01*
X158130871Y-78301178D02*
X158141123Y-78305598D01*
X158141123Y-78305598D02*
X158155364Y-78309572D01*
X158155364Y-78309572D02*
X158174514Y-78313121D01*
X158174514Y-78313121D02*
X158199499Y-78316270D01*
X158199499Y-78316270D02*
X158231240Y-78319042D01*
X158231240Y-78319042D02*
X158270662Y-78321461D01*
X158270662Y-78321461D02*
X158318686Y-78323551D01*
X158318686Y-78323551D02*
X158376237Y-78325335D01*
X158376237Y-78325335D02*
X158444237Y-78326837D01*
X158444237Y-78326837D02*
X158523610Y-78328080D01*
X158523610Y-78328080D02*
X158615279Y-78329089D01*
X158615279Y-78329089D02*
X158720166Y-78329885D01*
X158720166Y-78329885D02*
X158839196Y-78330494D01*
X158839196Y-78330494D02*
X158973290Y-78330939D01*
X158973290Y-78330939D02*
X159123373Y-78331243D01*
X159123373Y-78331243D02*
X159290367Y-78331430D01*
X159290367Y-78331430D02*
X159475196Y-78331524D01*
X159475196Y-78331524D02*
X159678783Y-78331548D01*
X159678783Y-78331548D02*
X159902050Y-78331525D01*
X159902050Y-78331525D02*
X160145922Y-78331480D01*
X160145922Y-78331480D02*
X160411321Y-78331437D01*
X160411321Y-78331437D02*
X160449704Y-78331432D01*
X160449704Y-78331432D02*
X160716682Y-78331389D01*
X160716682Y-78331389D02*
X160962002Y-78331318D01*
X160962002Y-78331318D02*
X161186583Y-78331213D01*
X161186583Y-78331213D02*
X161391345Y-78331066D01*
X161391345Y-78331066D02*
X161577206Y-78330869D01*
X161577206Y-78330869D02*
X161745088Y-78330616D01*
X161745088Y-78330616D02*
X161895908Y-78330300D01*
X161895908Y-78330300D02*
X162030587Y-78329913D01*
X162030587Y-78329913D02*
X162150044Y-78329447D01*
X162150044Y-78329447D02*
X162255199Y-78328897D01*
X162255199Y-78328897D02*
X162346971Y-78328253D01*
X162346971Y-78328253D02*
X162426279Y-78327511D01*
X162426279Y-78327511D02*
X162494043Y-78326661D01*
X162494043Y-78326661D02*
X162551182Y-78325697D01*
X162551182Y-78325697D02*
X162598617Y-78324611D01*
X162598617Y-78324611D02*
X162637266Y-78323397D01*
X162637266Y-78323397D02*
X162668049Y-78322047D01*
X162668049Y-78322047D02*
X162691885Y-78320555D01*
X162691885Y-78320555D02*
X162709694Y-78318911D01*
X162709694Y-78318911D02*
X162722395Y-78317111D01*
X162722395Y-78317111D02*
X162730908Y-78315145D01*
X162730908Y-78315145D02*
X162735266Y-78313477D01*
X162735266Y-78313477D02*
X162743728Y-78309906D01*
X162743728Y-78309906D02*
X162751497Y-78307270D01*
X162751497Y-78307270D02*
X162758602Y-78304634D01*
X162758602Y-78304634D02*
X162765073Y-78301062D01*
X162765073Y-78301062D02*
X162770939Y-78295621D01*
X162770939Y-78295621D02*
X162776229Y-78287375D01*
X162776229Y-78287375D02*
X162780974Y-78275390D01*
X162780974Y-78275390D02*
X162785202Y-78258731D01*
X162785202Y-78258731D02*
X162788943Y-78236463D01*
X162788943Y-78236463D02*
X162792227Y-78207652D01*
X162792227Y-78207652D02*
X162795083Y-78171363D01*
X162795083Y-78171363D02*
X162797540Y-78126661D01*
X162797540Y-78126661D02*
X162799629Y-78072611D01*
X162799629Y-78072611D02*
X162801378Y-78008279D01*
X162801378Y-78008279D02*
X162802817Y-77932730D01*
X162802817Y-77932730D02*
X162803976Y-77845030D01*
X162803976Y-77845030D02*
X162804883Y-77744243D01*
X162804883Y-77744243D02*
X162805569Y-77629434D01*
X162805569Y-77629434D02*
X162806063Y-77499670D01*
X162806063Y-77499670D02*
X162806395Y-77354015D01*
X162806395Y-77354015D02*
X162806593Y-77191535D01*
X162806593Y-77191535D02*
X162806687Y-77011295D01*
X162806687Y-77011295D02*
X162806708Y-76812360D01*
X162806708Y-76812360D02*
X162806685Y-76593796D01*
X162806685Y-76593796D02*
X162806646Y-76354668D01*
X162806646Y-76354668D02*
X162806622Y-76094040D01*
X162806622Y-76094040D02*
X162806622Y-76051889D01*
X162806622Y-76051889D02*
X162806636Y-75788992D01*
X162806636Y-75788992D02*
X162806661Y-75547732D01*
X162806661Y-75547732D02*
X162806671Y-75327165D01*
X162806671Y-75327165D02*
X162806642Y-75126352D01*
X162806642Y-75126352D02*
X162806548Y-74944349D01*
X162806548Y-74944349D02*
X162806362Y-74780216D01*
X162806362Y-74780216D02*
X162806059Y-74633011D01*
X162806059Y-74633011D02*
X162805614Y-74501792D01*
X162805614Y-74501792D02*
X162805034Y-74391867D01*
X162805034Y-74391867D02*
X162502197Y-74391867D01*
X162502197Y-74391867D02*
X162462407Y-74449711D01*
X162462407Y-74449711D02*
X162451236Y-74465479D01*
X162451236Y-74465479D02*
X162441166Y-74479441D01*
X162441166Y-74479441D02*
X162432138Y-74492784D01*
X162432138Y-74492784D02*
X162424097Y-74506693D01*
X162424097Y-74506693D02*
X162416986Y-74522356D01*
X162416986Y-74522356D02*
X162410747Y-74540958D01*
X162410747Y-74540958D02*
X162405325Y-74563686D01*
X162405325Y-74563686D02*
X162400662Y-74591727D01*
X162400662Y-74591727D02*
X162396701Y-74626267D01*
X162396701Y-74626267D02*
X162393385Y-74668492D01*
X162393385Y-74668492D02*
X162390659Y-74719589D01*
X162390659Y-74719589D02*
X162388464Y-74780744D01*
X162388464Y-74780744D02*
X162386745Y-74853144D01*
X162386745Y-74853144D02*
X162385444Y-74937975D01*
X162385444Y-74937975D02*
X162384505Y-75036422D01*
X162384505Y-75036422D02*
X162383870Y-75149674D01*
X162383870Y-75149674D02*
X162383484Y-75278916D01*
X162383484Y-75278916D02*
X162383288Y-75425334D01*
X162383288Y-75425334D02*
X162383227Y-75590116D01*
X162383227Y-75590116D02*
X162383243Y-75774447D01*
X162383243Y-75774447D02*
X162383280Y-75979513D01*
X162383280Y-75979513D02*
X162383289Y-76102133D01*
X162383289Y-76102133D02*
X162383265Y-76319082D01*
X162383265Y-76319082D02*
X162383231Y-76514642D01*
X162383231Y-76514642D02*
X162383243Y-76689999D01*
X162383243Y-76689999D02*
X162383358Y-76846341D01*
X162383358Y-76846341D02*
X162383630Y-76984857D01*
X162383630Y-76984857D02*
X162384118Y-77106734D01*
X162384118Y-77106734D02*
X162384876Y-77213160D01*
X162384876Y-77213160D02*
X162385962Y-77305322D01*
X162385962Y-77305322D02*
X162387431Y-77384409D01*
X162387431Y-77384409D02*
X162389340Y-77451608D01*
X162389340Y-77451608D02*
X162391744Y-77508107D01*
X162391744Y-77508107D02*
X162394701Y-77555093D01*
X162394701Y-77555093D02*
X162398266Y-77593755D01*
X162398266Y-77593755D02*
X162402495Y-77625280D01*
X162402495Y-77625280D02*
X162407446Y-77650855D01*
X162407446Y-77650855D02*
X162413173Y-77671670D01*
X162413173Y-77671670D02*
X162419733Y-77688911D01*
X162419733Y-77688911D02*
X162427183Y-77703765D01*
X162427183Y-77703765D02*
X162435579Y-77717422D01*
X162435579Y-77717422D02*
X162444976Y-77731069D01*
X162444976Y-77731069D02*
X162455432Y-77745893D01*
X162455432Y-77745893D02*
X162461523Y-77754783D01*
X162461523Y-77754783D02*
X162500296Y-77812400D01*
X162500296Y-77812400D02*
X161968732Y-77812400D01*
X161968732Y-77812400D02*
X161845483Y-77812365D01*
X161845483Y-77812365D02*
X161742987Y-77812215D01*
X161742987Y-77812215D02*
X161659420Y-77811878D01*
X161659420Y-77811878D02*
X161592956Y-77811286D01*
X161592956Y-77811286D02*
X161541771Y-77810367D01*
X161541771Y-77810367D02*
X161504041Y-77809051D01*
X161504041Y-77809051D02*
X161477940Y-77807269D01*
X161477940Y-77807269D02*
X161461644Y-77804951D01*
X161461644Y-77804951D02*
X161453328Y-77802026D01*
X161453328Y-77802026D02*
X161451168Y-77798424D01*
X161451168Y-77798424D02*
X161453339Y-77794075D01*
X161453339Y-77794075D02*
X161454535Y-77792645D01*
X161454535Y-77792645D02*
X161479685Y-77755573D01*
X161479685Y-77755573D02*
X161505583Y-77702772D01*
X161505583Y-77702772D02*
X161529192Y-77640770D01*
X161529192Y-77640770D02*
X161537461Y-77614357D01*
X161537461Y-77614357D02*
X161542078Y-77596416D01*
X161542078Y-77596416D02*
X161545979Y-77575355D01*
X161545979Y-77575355D02*
X161549248Y-77549089D01*
X161549248Y-77549089D02*
X161551966Y-77515532D01*
X161551966Y-77515532D02*
X161554215Y-77472599D01*
X161554215Y-77472599D02*
X161556077Y-77418204D01*
X161556077Y-77418204D02*
X161557636Y-77350262D01*
X161557636Y-77350262D02*
X161558972Y-77266688D01*
X161558972Y-77266688D02*
X161560169Y-77165395D01*
X161560169Y-77165395D02*
X161561308Y-77044300D01*
X161561308Y-77044300D02*
X161561685Y-76999600D01*
X161561685Y-76999600D02*
X161562702Y-76874449D01*
X161562702Y-76874449D02*
X161563460Y-76770082D01*
X161563460Y-76770082D02*
X161563903Y-76684707D01*
X161563903Y-76684707D02*
X161563970Y-76616533D01*
X161563970Y-76616533D02*
X161563605Y-76563765D01*
X161563605Y-76563765D02*
X161562748Y-76524614D01*
X161562748Y-76524614D02*
X161561341Y-76497285D01*
X161561341Y-76497285D02*
X161559325Y-76479986D01*
X161559325Y-76479986D02*
X161556643Y-76470926D01*
X161556643Y-76470926D02*
X161553236Y-76468312D01*
X161553236Y-76468312D02*
X161549044Y-76470351D01*
X161549044Y-76470351D02*
X161544571Y-76474667D01*
X161544571Y-76474667D02*
X161534216Y-76487602D01*
X161534216Y-76487602D02*
X161512158Y-76516676D01*
X161512158Y-76516676D02*
X161479957Y-76559759D01*
X161479957Y-76559759D02*
X161439174Y-76614718D01*
X161439174Y-76614718D02*
X161391370Y-76679423D01*
X161391370Y-76679423D02*
X161338105Y-76751742D01*
X161338105Y-76751742D02*
X161280940Y-76829544D01*
X161280940Y-76829544D02*
X161221437Y-76910698D01*
X161221437Y-76910698D02*
X161161155Y-76993072D01*
X161161155Y-76993072D02*
X161101655Y-77074536D01*
X161101655Y-77074536D02*
X161044498Y-77152957D01*
X161044498Y-77152957D02*
X160991245Y-77226204D01*
X160991245Y-77226204D02*
X160943457Y-77292147D01*
X160943457Y-77292147D02*
X160902693Y-77348654D01*
X160902693Y-77348654D02*
X160870516Y-77393593D01*
X160870516Y-77393593D02*
X160848485Y-77424834D01*
X160848485Y-77424834D02*
X160843917Y-77431466D01*
X160843917Y-77431466D02*
X160820996Y-77468369D01*
X160820996Y-77468369D02*
X160794188Y-77516359D01*
X160794188Y-77516359D02*
X160768789Y-77565897D01*
X160768789Y-77565897D02*
X160765568Y-77572577D01*
X160765568Y-77572577D02*
X160743890Y-77620772D01*
X160743890Y-77620772D02*
X160731304Y-77658334D01*
X160731304Y-77658334D02*
X160725574Y-77694160D01*
X160725574Y-77694160D02*
X160724456Y-77736200D01*
X160724456Y-77736200D02*
X160725090Y-77812400D01*
X160725090Y-77812400D02*
X159570651Y-77812400D01*
X159570651Y-77812400D02*
X159661815Y-77718669D01*
X159661815Y-77718669D02*
X159708612Y-77668775D01*
X159708612Y-77668775D02*
X159758899Y-77612295D01*
X159758899Y-77612295D02*
X159804944Y-77558026D01*
X159804944Y-77558026D02*
X159825369Y-77532673D01*
X159825369Y-77532673D02*
X159855807Y-77493128D01*
X159855807Y-77493128D02*
X159895862Y-77439916D01*
X159895862Y-77439916D02*
X159944361Y-77374667D01*
X159944361Y-77374667D02*
X160000135Y-77299011D01*
X160000135Y-77299011D02*
X160062011Y-77214577D01*
X160062011Y-77214577D02*
X160128819Y-77122994D01*
X160128819Y-77122994D02*
X160199387Y-77025892D01*
X160199387Y-77025892D02*
X160272545Y-76924901D01*
X160272545Y-76924901D02*
X160347121Y-76821650D01*
X160347121Y-76821650D02*
X160421944Y-76717768D01*
X160421944Y-76717768D02*
X160495843Y-76614885D01*
X160495843Y-76614885D02*
X160567646Y-76514631D01*
X160567646Y-76514631D02*
X160636184Y-76418636D01*
X160636184Y-76418636D02*
X160700284Y-76328527D01*
X160700284Y-76328527D02*
X160758775Y-76245936D01*
X160758775Y-76245936D02*
X160810486Y-76172492D01*
X160810486Y-76172492D02*
X160854247Y-76109824D01*
X160854247Y-76109824D02*
X160888885Y-76059561D01*
X160888885Y-76059561D02*
X160913230Y-76023334D01*
X160913230Y-76023334D02*
X160926111Y-76002771D01*
X160926111Y-76002771D02*
X160927869Y-75998668D01*
X160927869Y-75998668D02*
X160919910Y-75987342D01*
X160919910Y-75987342D02*
X160899115Y-75960162D01*
X160899115Y-75960162D02*
X160866847Y-75918829D01*
X160866847Y-75918829D02*
X160824470Y-75865044D01*
X160824470Y-75865044D02*
X160773347Y-75800506D01*
X160773347Y-75800506D02*
X160714841Y-75726918D01*
X160714841Y-75726918D02*
X160650314Y-75645978D01*
X160650314Y-75645978D02*
X160581131Y-75559388D01*
X160581131Y-75559388D02*
X160508653Y-75468848D01*
X160508653Y-75468848D02*
X160434246Y-75376060D01*
X160434246Y-75376060D02*
X160374517Y-75301702D01*
X160374517Y-75301702D02*
X159363511Y-75301702D01*
X159363511Y-75301702D02*
X159357602Y-75314659D01*
X159357602Y-75314659D02*
X159343272Y-75336908D01*
X159343272Y-75336908D02*
X159342225Y-75338391D01*
X159342225Y-75338391D02*
X159323438Y-75368544D01*
X159323438Y-75368544D02*
X159303791Y-75405375D01*
X159303791Y-75405375D02*
X159299892Y-75413511D01*
X159299892Y-75413511D02*
X159296356Y-75421940D01*
X159296356Y-75421940D02*
X159293230Y-75432059D01*
X159293230Y-75432059D02*
X159290486Y-75445260D01*
X159290486Y-75445260D02*
X159288092Y-75462938D01*
X159288092Y-75462938D02*
X159286019Y-75486484D01*
X159286019Y-75486484D02*
X159284235Y-75517293D01*
X159284235Y-75517293D02*
X159282712Y-75556757D01*
X159282712Y-75556757D02*
X159281419Y-75606269D01*
X159281419Y-75606269D02*
X159280326Y-75667223D01*
X159280326Y-75667223D02*
X159279403Y-75741011D01*
X159279403Y-75741011D02*
X159278619Y-75829028D01*
X159278619Y-75829028D02*
X159277945Y-75932665D01*
X159277945Y-75932665D02*
X159277350Y-76053316D01*
X159277350Y-76053316D02*
X159276805Y-76192374D01*
X159276805Y-76192374D02*
X159276279Y-76351232D01*
X159276279Y-76351232D02*
X159275745Y-76530089D01*
X159275745Y-76530089D02*
X159275206Y-76715207D01*
X159275206Y-76715207D02*
X159274772Y-76879145D01*
X159274772Y-76879145D02*
X159274509Y-77023303D01*
X159274509Y-77023303D02*
X159274484Y-77149079D01*
X159274484Y-77149079D02*
X159274765Y-77257871D01*
X159274765Y-77257871D02*
X159275419Y-77351077D01*
X159275419Y-77351077D02*
X159276514Y-77430097D01*
X159276514Y-77430097D02*
X159278118Y-77496328D01*
X159278118Y-77496328D02*
X159280297Y-77551170D01*
X159280297Y-77551170D02*
X159283119Y-77596021D01*
X159283119Y-77596021D02*
X159286651Y-77632278D01*
X159286651Y-77632278D02*
X159290961Y-77661341D01*
X159290961Y-77661341D02*
X159296117Y-77684609D01*
X159296117Y-77684609D02*
X159302185Y-77703479D01*
X159302185Y-77703479D02*
X159309233Y-77719351D01*
X159309233Y-77719351D02*
X159317329Y-77733622D01*
X159317329Y-77733622D02*
X159326540Y-77747691D01*
X159326540Y-77747691D02*
X159335040Y-77760158D01*
X159335040Y-77760158D02*
X159352176Y-77786452D01*
X159352176Y-77786452D02*
X159362322Y-77804037D01*
X159362322Y-77804037D02*
X159363511Y-77807257D01*
X159363511Y-77807257D02*
X159352604Y-77808334D01*
X159352604Y-77808334D02*
X159321411Y-77809335D01*
X159321411Y-77809335D02*
X159272223Y-77810235D01*
X159272223Y-77810235D02*
X159207333Y-77811010D01*
X159207333Y-77811010D02*
X159129030Y-77811637D01*
X159129030Y-77811637D02*
X159039607Y-77812091D01*
X159039607Y-77812091D02*
X158941356Y-77812349D01*
X158941356Y-77812349D02*
X158872445Y-77812400D01*
X158872445Y-77812400D02*
X158767452Y-77812180D01*
X158767452Y-77812180D02*
X158670610Y-77811548D01*
X158670610Y-77811548D02*
X158584107Y-77810549D01*
X158584107Y-77810549D02*
X158510132Y-77809227D01*
X158510132Y-77809227D02*
X158450874Y-77807626D01*
X158450874Y-77807626D02*
X158408520Y-77805791D01*
X158408520Y-77805791D02*
X158385260Y-77803765D01*
X158385260Y-77803765D02*
X158381378Y-77802493D01*
X158381378Y-77802493D02*
X158389076Y-77787591D01*
X158389076Y-77787591D02*
X158397074Y-77779560D01*
X158397074Y-77779560D02*
X158410246Y-77762434D01*
X158410246Y-77762434D02*
X158427485Y-77732183D01*
X158427485Y-77732183D02*
X158439407Y-77707622D01*
X158439407Y-77707622D02*
X158466045Y-77648711D01*
X158466045Y-77648711D02*
X158469120Y-76471845D01*
X158469120Y-76471845D02*
X158472195Y-75294978D01*
X158472195Y-75294978D02*
X158917853Y-75294978D01*
X158917853Y-75294978D02*
X159015670Y-75295142D01*
X159015670Y-75295142D02*
X159106064Y-75295611D01*
X159106064Y-75295611D02*
X159186630Y-75296347D01*
X159186630Y-75296347D02*
X159254962Y-75297316D01*
X159254962Y-75297316D02*
X159308656Y-75298480D01*
X159308656Y-75298480D02*
X159345305Y-75299803D01*
X159345305Y-75299803D02*
X159362504Y-75301249D01*
X159362504Y-75301249D02*
X159363511Y-75301702D01*
X159363511Y-75301702D02*
X160374517Y-75301702D01*
X160374517Y-75301702D02*
X160359270Y-75282722D01*
X160359270Y-75282722D02*
X160285090Y-75190537D01*
X160285090Y-75190537D02*
X160213069Y-75101204D01*
X160213069Y-75101204D02*
X160144569Y-75016424D01*
X160144569Y-75016424D02*
X160080955Y-74937898D01*
X160080955Y-74937898D02*
X160023588Y-74867326D01*
X160023588Y-74867326D02*
X159973833Y-74806409D01*
X159973833Y-74806409D02*
X159933052Y-74756847D01*
X159933052Y-74756847D02*
X159915888Y-74736178D01*
X159915888Y-74736178D02*
X159829596Y-74635516D01*
X159829596Y-74635516D02*
X159752997Y-74552259D01*
X159752997Y-74552259D02*
X159684183Y-74484438D01*
X159684183Y-74484438D02*
X159621248Y-74430089D01*
X159621248Y-74430089D02*
X159611867Y-74422722D01*
X159611867Y-74422722D02*
X159572356Y-74392117D01*
X159572356Y-74392117D02*
X160704116Y-74391867D01*
X160704116Y-74391867D02*
X160698827Y-74439844D01*
X160698827Y-74439844D02*
X160702130Y-74497188D01*
X160702130Y-74497188D02*
X160723661Y-74565463D01*
X160723661Y-74565463D02*
X160763635Y-74645212D01*
X160763635Y-74645212D02*
X160808943Y-74717495D01*
X160808943Y-74717495D02*
X160825161Y-74740140D01*
X160825161Y-74740140D02*
X160853214Y-74777696D01*
X160853214Y-74777696D02*
X160891430Y-74828021D01*
X160891430Y-74828021D02*
X160938137Y-74888973D01*
X160938137Y-74888973D02*
X160991661Y-74958411D01*
X160991661Y-74958411D02*
X161050331Y-75034194D01*
X161050331Y-75034194D02*
X161112475Y-75114180D01*
X161112475Y-75114180D02*
X161176421Y-75196228D01*
X161176421Y-75196228D02*
X161240495Y-75278196D01*
X161240495Y-75278196D02*
X161303027Y-75357943D01*
X161303027Y-75357943D02*
X161362343Y-75433327D01*
X161362343Y-75433327D02*
X161416771Y-75502207D01*
X161416771Y-75502207D02*
X161464639Y-75562442D01*
X161464639Y-75562442D02*
X161504275Y-75611889D01*
X161504275Y-75611889D02*
X161534006Y-75648408D01*
X161534006Y-75648408D02*
X161552161Y-75669858D01*
X161552161Y-75669858D02*
X161555220Y-75673156D01*
X161555220Y-75673156D02*
X161558079Y-75665149D01*
X161558079Y-75665149D02*
X161560293Y-75634855D01*
X161560293Y-75634855D02*
X161561857Y-75582556D01*
X161561857Y-75582556D02*
X161562767Y-75508531D01*
X161562767Y-75508531D02*
X161563020Y-75413063D01*
X161563020Y-75413063D02*
X161562613Y-75296434D01*
X161562613Y-75296434D02*
X161561704Y-75176445D01*
X161561704Y-75176445D02*
X161560382Y-75044333D01*
X161560382Y-75044333D02*
X161558857Y-74932594D01*
X161558857Y-74932594D02*
X161556881Y-74839025D01*
X161556881Y-74839025D02*
X161554206Y-74761419D01*
X161554206Y-74761419D02*
X161550582Y-74697574D01*
X161550582Y-74697574D02*
X161545761Y-74645283D01*
X161545761Y-74645283D02*
X161539494Y-74602344D01*
X161539494Y-74602344D02*
X161531532Y-74566551D01*
X161531532Y-74566551D02*
X161521627Y-74535700D01*
X161521627Y-74535700D02*
X161509531Y-74507586D01*
X161509531Y-74507586D02*
X161494993Y-74480005D01*
X161494993Y-74480005D02*
X161480311Y-74454966D01*
X161480311Y-74454966D02*
X161442314Y-74391867D01*
X161442314Y-74391867D02*
X162502197Y-74391867D01*
X162502197Y-74391867D02*
X162805034Y-74391867D01*
X162805034Y-74391867D02*
X162805001Y-74385617D01*
X162805001Y-74385617D02*
X162804195Y-74283544D01*
X162804195Y-74283544D02*
X162803170Y-74194633D01*
X162803170Y-74194633D02*
X162801900Y-74117941D01*
X162801900Y-74117941D02*
X162800360Y-74052527D01*
X162800360Y-74052527D02*
X162798524Y-73997449D01*
X162798524Y-73997449D02*
X162796367Y-73951765D01*
X162796367Y-73951765D02*
X162793863Y-73914534D01*
X162793863Y-73914534D02*
X162790987Y-73884813D01*
X162790987Y-73884813D02*
X162787713Y-73861662D01*
X162787713Y-73861662D02*
X162784015Y-73844139D01*
X162784015Y-73844139D02*
X162779869Y-73831301D01*
X162779869Y-73831301D02*
X162775247Y-73822208D01*
X162775247Y-73822208D02*
X162770126Y-73815918D01*
X162770126Y-73815918D02*
X162764478Y-73811488D01*
X162764478Y-73811488D02*
X162758279Y-73807978D01*
X162758279Y-73807978D02*
X162751504Y-73804445D01*
X162751504Y-73804445D02*
X162745508Y-73800876D01*
X162745508Y-73800876D02*
X162740275Y-73798300D01*
X162740275Y-73798300D02*
X162732099Y-73795972D01*
X162732099Y-73795972D02*
X162719886Y-73793878D01*
X162719886Y-73793878D02*
X162702541Y-73792007D01*
X162702541Y-73792007D02*
X162678969Y-73790347D01*
X162678969Y-73790347D02*
X162648077Y-73788884D01*
X162648077Y-73788884D02*
X162608768Y-73787608D01*
X162608768Y-73787608D02*
X162559950Y-73786504D01*
X162559950Y-73786504D02*
X162500527Y-73785561D01*
X162500527Y-73785561D02*
X162429404Y-73784767D01*
X162429404Y-73784767D02*
X162345488Y-73784109D01*
X162345488Y-73784109D02*
X162247683Y-73783575D01*
X162247683Y-73783575D02*
X162134894Y-73783153D01*
X162134894Y-73783153D02*
X162006029Y-73782829D01*
X162006029Y-73782829D02*
X161859991Y-73782592D01*
X161859991Y-73782592D02*
X161695686Y-73782430D01*
X161695686Y-73782430D02*
X161512020Y-73782330D01*
X161512020Y-73782330D02*
X161307897Y-73782280D01*
X161307897Y-73782280D02*
X161096753Y-73782267D01*
X161096753Y-73782267D02*
X159476400Y-73782267D01*
X159476400Y-73782267D02*
X159476400Y-73879054D01*
X159476400Y-73879054D02*
X159476400Y-73879054D01*
G36*
X162806059Y-74633011D02*
G01*
X162806362Y-74780216D01*
X162806548Y-74944349D01*
X162806642Y-75126352D01*
X162806671Y-75327165D01*
X162806661Y-75547732D01*
X162806636Y-75788992D01*
X162806622Y-76051889D01*
X162806622Y-76094040D01*
X162806646Y-76354668D01*
X162806685Y-76593796D01*
X162806708Y-76812360D01*
X162806687Y-77011295D01*
X162806593Y-77191535D01*
X162806395Y-77354015D01*
X162806063Y-77499670D01*
X162805569Y-77629434D01*
X162804883Y-77744243D01*
X162803976Y-77845030D01*
X162802817Y-77932730D01*
X162801378Y-78008279D01*
X162799629Y-78072611D01*
X162797540Y-78126661D01*
X162795083Y-78171363D01*
X162792227Y-78207652D01*
X162788943Y-78236463D01*
X162785202Y-78258731D01*
X162780974Y-78275390D01*
X162776229Y-78287375D01*
X162770939Y-78295621D01*
X162765073Y-78301062D01*
X162758602Y-78304634D01*
X162751497Y-78307270D01*
X162743728Y-78309906D01*
X162735266Y-78313477D01*
X162730908Y-78315145D01*
X162722395Y-78317111D01*
X162709694Y-78318911D01*
X162691885Y-78320555D01*
X162668049Y-78322047D01*
X162637266Y-78323397D01*
X162598617Y-78324611D01*
X162551182Y-78325697D01*
X162494043Y-78326661D01*
X162426279Y-78327511D01*
X162346971Y-78328253D01*
X162255199Y-78328897D01*
X162150044Y-78329447D01*
X162030587Y-78329913D01*
X161895908Y-78330300D01*
X161745088Y-78330616D01*
X161577206Y-78330869D01*
X161391345Y-78331066D01*
X161186583Y-78331213D01*
X160962002Y-78331318D01*
X160716682Y-78331389D01*
X160449704Y-78331432D01*
X160411321Y-78331437D01*
X160145922Y-78331480D01*
X159902050Y-78331525D01*
X159678783Y-78331548D01*
X159475196Y-78331524D01*
X159290367Y-78331430D01*
X159123373Y-78331243D01*
X158973290Y-78330939D01*
X158839196Y-78330494D01*
X158720166Y-78329885D01*
X158615279Y-78329089D01*
X158523610Y-78328080D01*
X158444237Y-78326837D01*
X158376237Y-78325335D01*
X158318686Y-78323551D01*
X158270662Y-78321461D01*
X158231240Y-78319042D01*
X158199499Y-78316270D01*
X158174514Y-78313121D01*
X158155364Y-78309572D01*
X158141123Y-78305598D01*
X158130871Y-78301178D01*
X158123682Y-78296286D01*
X158118635Y-78290900D01*
X158114805Y-78284996D01*
X158111271Y-78278549D01*
X158107108Y-78271537D01*
X158106025Y-78269687D01*
X158103813Y-78264180D01*
X158101786Y-78255868D01*
X158099938Y-78243809D01*
X158098261Y-78227063D01*
X158096745Y-78204687D01*
X158095383Y-78175740D01*
X158094167Y-78139280D01*
X158093089Y-78094367D01*
X158092140Y-78040057D01*
X158091312Y-77975410D01*
X158090597Y-77899484D01*
X158089987Y-77811338D01*
X158089942Y-77802493D01*
X158381378Y-77802493D01*
X158385260Y-77803765D01*
X158408520Y-77805791D01*
X158450874Y-77807626D01*
X158510132Y-77809227D01*
X158584107Y-77810549D01*
X158670610Y-77811548D01*
X158767452Y-77812180D01*
X158872445Y-77812400D01*
X159570651Y-77812400D01*
X160725090Y-77812400D01*
X160724456Y-77736200D01*
X160725574Y-77694160D01*
X160731304Y-77658334D01*
X160743890Y-77620772D01*
X160765568Y-77572577D01*
X160768789Y-77565897D01*
X160794188Y-77516359D01*
X160820996Y-77468369D01*
X160843917Y-77431466D01*
X160848485Y-77424834D01*
X160870516Y-77393593D01*
X160902693Y-77348654D01*
X160943457Y-77292147D01*
X160991245Y-77226204D01*
X161044498Y-77152957D01*
X161101655Y-77074536D01*
X161161155Y-76993072D01*
X161221437Y-76910698D01*
X161280940Y-76829544D01*
X161338105Y-76751742D01*
X161391370Y-76679423D01*
X161439174Y-76614718D01*
X161479957Y-76559759D01*
X161512158Y-76516676D01*
X161534216Y-76487602D01*
X161544571Y-76474667D01*
X161549044Y-76470351D01*
X161553236Y-76468312D01*
X161556643Y-76470926D01*
X161559325Y-76479986D01*
X161561341Y-76497285D01*
X161562748Y-76524614D01*
X161563605Y-76563765D01*
X161563970Y-76616533D01*
X161563903Y-76684707D01*
X161563460Y-76770082D01*
X161562702Y-76874449D01*
X161561685Y-76999600D01*
X161561308Y-77044300D01*
X161560169Y-77165395D01*
X161558972Y-77266688D01*
X161557636Y-77350262D01*
X161556077Y-77418204D01*
X161554215Y-77472599D01*
X161551966Y-77515532D01*
X161549248Y-77549089D01*
X161545979Y-77575355D01*
X161542078Y-77596416D01*
X161537461Y-77614357D01*
X161529192Y-77640770D01*
X161505583Y-77702772D01*
X161479685Y-77755573D01*
X161454535Y-77792645D01*
X161453339Y-77794075D01*
X161451168Y-77798424D01*
X161453328Y-77802026D01*
X161461644Y-77804951D01*
X161477940Y-77807269D01*
X161504041Y-77809051D01*
X161541771Y-77810367D01*
X161592956Y-77811286D01*
X161659420Y-77811878D01*
X161742987Y-77812215D01*
X161845483Y-77812365D01*
X161968732Y-77812400D01*
X162500296Y-77812400D01*
X162461523Y-77754783D01*
X162455432Y-77745893D01*
X162444976Y-77731069D01*
X162435579Y-77717422D01*
X162427183Y-77703765D01*
X162419733Y-77688911D01*
X162413173Y-77671670D01*
X162407446Y-77650855D01*
X162402495Y-77625280D01*
X162398266Y-77593755D01*
X162394701Y-77555093D01*
X162391744Y-77508107D01*
X162389340Y-77451608D01*
X162387431Y-77384409D01*
X162385962Y-77305322D01*
X162384876Y-77213160D01*
X162384118Y-77106734D01*
X162383630Y-76984857D01*
X162383358Y-76846341D01*
X162383243Y-76689999D01*
X162383231Y-76514642D01*
X162383265Y-76319082D01*
X162383289Y-76102133D01*
X162383280Y-75979513D01*
X162383243Y-75774447D01*
X162383227Y-75590116D01*
X162383288Y-75425334D01*
X162383484Y-75278916D01*
X162383870Y-75149674D01*
X162384505Y-75036422D01*
X162385444Y-74937975D01*
X162386745Y-74853144D01*
X162388464Y-74780744D01*
X162390659Y-74719589D01*
X162393385Y-74668492D01*
X162396701Y-74626267D01*
X162400662Y-74591727D01*
X162405325Y-74563686D01*
X162410747Y-74540958D01*
X162416986Y-74522356D01*
X162424097Y-74506693D01*
X162432138Y-74492784D01*
X162441166Y-74479441D01*
X162451236Y-74465479D01*
X162462407Y-74449711D01*
X162502197Y-74391867D01*
X161442314Y-74391867D01*
X161480311Y-74454966D01*
X161494993Y-74480005D01*
X161509531Y-74507586D01*
X161521627Y-74535700D01*
X161531532Y-74566551D01*
X161539494Y-74602344D01*
X161545761Y-74645283D01*
X161550582Y-74697574D01*
X161554206Y-74761419D01*
X161556881Y-74839025D01*
X161558857Y-74932594D01*
X161560382Y-75044333D01*
X161561704Y-75176445D01*
X161562613Y-75296434D01*
X161563020Y-75413063D01*
X161562767Y-75508531D01*
X161561857Y-75582556D01*
X161560293Y-75634855D01*
X161558079Y-75665149D01*
X161555220Y-75673156D01*
X161552161Y-75669858D01*
X161534006Y-75648408D01*
X161504275Y-75611889D01*
X161464639Y-75562442D01*
X161416771Y-75502207D01*
X161362343Y-75433327D01*
X161303027Y-75357943D01*
X161240495Y-75278196D01*
X161176421Y-75196228D01*
X161112475Y-75114180D01*
X161050331Y-75034194D01*
X160991661Y-74958411D01*
X160938137Y-74888973D01*
X160891430Y-74828021D01*
X160853214Y-74777696D01*
X160825161Y-74740140D01*
X160808943Y-74717495D01*
X160763635Y-74645212D01*
X160723661Y-74565463D01*
X160702130Y-74497188D01*
X160698827Y-74439844D01*
X160704116Y-74391867D01*
X159572356Y-74392117D01*
X159611867Y-74422722D01*
X159621248Y-74430089D01*
X159684183Y-74484438D01*
X159752997Y-74552259D01*
X159829596Y-74635516D01*
X159915888Y-74736178D01*
X159933052Y-74756847D01*
X159973833Y-74806409D01*
X160023588Y-74867326D01*
X160080955Y-74937898D01*
X160144569Y-75016424D01*
X160213069Y-75101204D01*
X160285090Y-75190537D01*
X160359270Y-75282722D01*
X160374517Y-75301702D01*
X160434246Y-75376060D01*
X160508653Y-75468848D01*
X160581131Y-75559388D01*
X160650314Y-75645978D01*
X160714841Y-75726918D01*
X160773347Y-75800506D01*
X160824470Y-75865044D01*
X160866847Y-75918829D01*
X160899115Y-75960162D01*
X160919910Y-75987342D01*
X160927869Y-75998668D01*
X160926111Y-76002771D01*
X160913230Y-76023334D01*
X160888885Y-76059561D01*
X160854247Y-76109824D01*
X160810486Y-76172492D01*
X160758775Y-76245936D01*
X160700284Y-76328527D01*
X160636184Y-76418636D01*
X160567646Y-76514631D01*
X160495843Y-76614885D01*
X160421944Y-76717768D01*
X160347121Y-76821650D01*
X160272545Y-76924901D01*
X160199387Y-77025892D01*
X160128819Y-77122994D01*
X160062011Y-77214577D01*
X160000135Y-77299011D01*
X159944361Y-77374667D01*
X159895862Y-77439916D01*
X159855807Y-77493128D01*
X159825369Y-77532673D01*
X159804944Y-77558026D01*
X159758899Y-77612295D01*
X159708612Y-77668775D01*
X159661815Y-77718669D01*
X159570651Y-77812400D01*
X158872445Y-77812400D01*
X158941356Y-77812349D01*
X159039607Y-77812091D01*
X159129030Y-77811637D01*
X159207333Y-77811010D01*
X159272223Y-77810235D01*
X159321411Y-77809335D01*
X159352604Y-77808334D01*
X159363511Y-77807257D01*
X159362322Y-77804037D01*
X159352176Y-77786452D01*
X159335040Y-77760158D01*
X159326540Y-77747691D01*
X159317329Y-77733622D01*
X159309233Y-77719351D01*
X159302185Y-77703479D01*
X159296117Y-77684609D01*
X159290961Y-77661341D01*
X159286651Y-77632278D01*
X159283119Y-77596021D01*
X159280297Y-77551170D01*
X159278118Y-77496328D01*
X159276514Y-77430097D01*
X159275419Y-77351077D01*
X159274765Y-77257871D01*
X159274484Y-77149079D01*
X159274509Y-77023303D01*
X159274772Y-76879145D01*
X159275206Y-76715207D01*
X159275745Y-76530089D01*
X159276279Y-76351232D01*
X159276805Y-76192374D01*
X159277350Y-76053316D01*
X159277945Y-75932665D01*
X159278619Y-75829028D01*
X159279403Y-75741011D01*
X159280326Y-75667223D01*
X159281419Y-75606269D01*
X159282712Y-75556757D01*
X159284235Y-75517293D01*
X159286019Y-75486484D01*
X159288092Y-75462938D01*
X159290486Y-75445260D01*
X159293230Y-75432059D01*
X159296356Y-75421940D01*
X159299892Y-75413511D01*
X159303791Y-75405375D01*
X159323438Y-75368544D01*
X159342225Y-75338391D01*
X159343272Y-75336908D01*
X159357602Y-75314659D01*
X159363511Y-75301702D01*
X159362504Y-75301249D01*
X159345305Y-75299803D01*
X159308656Y-75298480D01*
X159254962Y-75297316D01*
X159186630Y-75296347D01*
X159106064Y-75295611D01*
X159015670Y-75295142D01*
X158917853Y-75294978D01*
X158472195Y-75294978D01*
X158469120Y-76471845D01*
X158466045Y-77648711D01*
X158439407Y-77707622D01*
X158427485Y-77732183D01*
X158410246Y-77762434D01*
X158397074Y-77779560D01*
X158389076Y-77787591D01*
X158381378Y-77802493D01*
X158089942Y-77802493D01*
X158089474Y-77710029D01*
X158089050Y-77594617D01*
X158088706Y-77464160D01*
X158088434Y-77317716D01*
X158088227Y-77154344D01*
X158088076Y-76973101D01*
X158087972Y-76773048D01*
X158087908Y-76553241D01*
X158087876Y-76312739D01*
X158087867Y-76050602D01*
X158087867Y-73859031D01*
X158126249Y-73820649D01*
X158153355Y-73796911D01*
X158180253Y-73785111D01*
X158216560Y-73782267D01*
X158268489Y-73782267D01*
X158268489Y-73870206D01*
X158270427Y-73920102D01*
X158289199Y-74030523D01*
X158326217Y-74131987D01*
X158379369Y-74223152D01*
X158446546Y-74302673D01*
X158525638Y-74369205D01*
X158614534Y-74421406D01*
X158711125Y-74457930D01*
X158813300Y-74477434D01*
X158918950Y-74478573D01*
X159025964Y-74460005D01*
X159132232Y-74420384D01*
X159229219Y-74362516D01*
X159314293Y-74287684D01*
X159383015Y-74199615D01*
X159433918Y-74100616D01*
X159465535Y-73992993D01*
X159476400Y-73879054D01*
X159476400Y-73782267D01*
X161096753Y-73782267D01*
X161307897Y-73782280D01*
X161512020Y-73782330D01*
X161695686Y-73782430D01*
X161859991Y-73782592D01*
X162006029Y-73782829D01*
X162134894Y-73783153D01*
X162247683Y-73783575D01*
X162345488Y-73784109D01*
X162429404Y-73784767D01*
X162500527Y-73785561D01*
X162559950Y-73786504D01*
X162608768Y-73787608D01*
X162648077Y-73788884D01*
X162678969Y-73790347D01*
X162702541Y-73792007D01*
X162719886Y-73793878D01*
X162732099Y-73795972D01*
X162740275Y-73798300D01*
X162745508Y-73800876D01*
X162751504Y-73804445D01*
X162758279Y-73807978D01*
X162764478Y-73811488D01*
X162770126Y-73815918D01*
X162775247Y-73822208D01*
X162779869Y-73831301D01*
X162784015Y-73844139D01*
X162787713Y-73861662D01*
X162790987Y-73884813D01*
X162793863Y-73914534D01*
X162796367Y-73951765D01*
X162798524Y-73997449D01*
X162800360Y-74052527D01*
X162801900Y-74117941D01*
X162803170Y-74194633D01*
X162804195Y-74283544D01*
X162805001Y-74385617D01*
X162805034Y-74391867D01*
X162805614Y-74501792D01*
X162806059Y-74633011D01*
G37*
X162806059Y-74633011D02*
X162806362Y-74780216D01*
X162806548Y-74944349D01*
X162806642Y-75126352D01*
X162806671Y-75327165D01*
X162806661Y-75547732D01*
X162806636Y-75788992D01*
X162806622Y-76051889D01*
X162806622Y-76094040D01*
X162806646Y-76354668D01*
X162806685Y-76593796D01*
X162806708Y-76812360D01*
X162806687Y-77011295D01*
X162806593Y-77191535D01*
X162806395Y-77354015D01*
X162806063Y-77499670D01*
X162805569Y-77629434D01*
X162804883Y-77744243D01*
X162803976Y-77845030D01*
X162802817Y-77932730D01*
X162801378Y-78008279D01*
X162799629Y-78072611D01*
X162797540Y-78126661D01*
X162795083Y-78171363D01*
X162792227Y-78207652D01*
X162788943Y-78236463D01*
X162785202Y-78258731D01*
X162780974Y-78275390D01*
X162776229Y-78287375D01*
X162770939Y-78295621D01*
X162765073Y-78301062D01*
X162758602Y-78304634D01*
X162751497Y-78307270D01*
X162743728Y-78309906D01*
X162735266Y-78313477D01*
X162730908Y-78315145D01*
X162722395Y-78317111D01*
X162709694Y-78318911D01*
X162691885Y-78320555D01*
X162668049Y-78322047D01*
X162637266Y-78323397D01*
X162598617Y-78324611D01*
X162551182Y-78325697D01*
X162494043Y-78326661D01*
X162426279Y-78327511D01*
X162346971Y-78328253D01*
X162255199Y-78328897D01*
X162150044Y-78329447D01*
X162030587Y-78329913D01*
X161895908Y-78330300D01*
X161745088Y-78330616D01*
X161577206Y-78330869D01*
X161391345Y-78331066D01*
X161186583Y-78331213D01*
X160962002Y-78331318D01*
X160716682Y-78331389D01*
X160449704Y-78331432D01*
X160411321Y-78331437D01*
X160145922Y-78331480D01*
X159902050Y-78331525D01*
X159678783Y-78331548D01*
X159475196Y-78331524D01*
X159290367Y-78331430D01*
X159123373Y-78331243D01*
X158973290Y-78330939D01*
X158839196Y-78330494D01*
X158720166Y-78329885D01*
X158615279Y-78329089D01*
X158523610Y-78328080D01*
X158444237Y-78326837D01*
X158376237Y-78325335D01*
X158318686Y-78323551D01*
X158270662Y-78321461D01*
X158231240Y-78319042D01*
X158199499Y-78316270D01*
X158174514Y-78313121D01*
X158155364Y-78309572D01*
X158141123Y-78305598D01*
X158130871Y-78301178D01*
X158123682Y-78296286D01*
X158118635Y-78290900D01*
X158114805Y-78284996D01*
X158111271Y-78278549D01*
X158107108Y-78271537D01*
X158106025Y-78269687D01*
X158103813Y-78264180D01*
X158101786Y-78255868D01*
X158099938Y-78243809D01*
X158098261Y-78227063D01*
X158096745Y-78204687D01*
X158095383Y-78175740D01*
X158094167Y-78139280D01*
X158093089Y-78094367D01*
X158092140Y-78040057D01*
X158091312Y-77975410D01*
X158090597Y-77899484D01*
X158089987Y-77811338D01*
X158089942Y-77802493D01*
X158381378Y-77802493D01*
X158385260Y-77803765D01*
X158408520Y-77805791D01*
X158450874Y-77807626D01*
X158510132Y-77809227D01*
X158584107Y-77810549D01*
X158670610Y-77811548D01*
X158767452Y-77812180D01*
X158872445Y-77812400D01*
X159570651Y-77812400D01*
X160725090Y-77812400D01*
X160724456Y-77736200D01*
X160725574Y-77694160D01*
X160731304Y-77658334D01*
X160743890Y-77620772D01*
X160765568Y-77572577D01*
X160768789Y-77565897D01*
X160794188Y-77516359D01*
X160820996Y-77468369D01*
X160843917Y-77431466D01*
X160848485Y-77424834D01*
X160870516Y-77393593D01*
X160902693Y-77348654D01*
X160943457Y-77292147D01*
X160991245Y-77226204D01*
X161044498Y-77152957D01*
X161101655Y-77074536D01*
X161161155Y-76993072D01*
X161221437Y-76910698D01*
X161280940Y-76829544D01*
X161338105Y-76751742D01*
X161391370Y-76679423D01*
X161439174Y-76614718D01*
X161479957Y-76559759D01*
X161512158Y-76516676D01*
X161534216Y-76487602D01*
X161544571Y-76474667D01*
X161549044Y-76470351D01*
X161553236Y-76468312D01*
X161556643Y-76470926D01*
X161559325Y-76479986D01*
X161561341Y-76497285D01*
X161562748Y-76524614D01*
X161563605Y-76563765D01*
X161563970Y-76616533D01*
X161563903Y-76684707D01*
X161563460Y-76770082D01*
X161562702Y-76874449D01*
X161561685Y-76999600D01*
X161561308Y-77044300D01*
X161560169Y-77165395D01*
X161558972Y-77266688D01*
X161557636Y-77350262D01*
X161556077Y-77418204D01*
X161554215Y-77472599D01*
X161551966Y-77515532D01*
X161549248Y-77549089D01*
X161545979Y-77575355D01*
X161542078Y-77596416D01*
X161537461Y-77614357D01*
X161529192Y-77640770D01*
X161505583Y-77702772D01*
X161479685Y-77755573D01*
X161454535Y-77792645D01*
X161453339Y-77794075D01*
X161451168Y-77798424D01*
X161453328Y-77802026D01*
X161461644Y-77804951D01*
X161477940Y-77807269D01*
X161504041Y-77809051D01*
X161541771Y-77810367D01*
X161592956Y-77811286D01*
X161659420Y-77811878D01*
X161742987Y-77812215D01*
X161845483Y-77812365D01*
X161968732Y-77812400D01*
X162500296Y-77812400D01*
X162461523Y-77754783D01*
X162455432Y-77745893D01*
X162444976Y-77731069D01*
X162435579Y-77717422D01*
X162427183Y-77703765D01*
X162419733Y-77688911D01*
X162413173Y-77671670D01*
X162407446Y-77650855D01*
X162402495Y-77625280D01*
X162398266Y-77593755D01*
X162394701Y-77555093D01*
X162391744Y-77508107D01*
X162389340Y-77451608D01*
X162387431Y-77384409D01*
X162385962Y-77305322D01*
X162384876Y-77213160D01*
X162384118Y-77106734D01*
X162383630Y-76984857D01*
X162383358Y-76846341D01*
X162383243Y-76689999D01*
X162383231Y-76514642D01*
X162383265Y-76319082D01*
X162383289Y-76102133D01*
X162383280Y-75979513D01*
X162383243Y-75774447D01*
X162383227Y-75590116D01*
X162383288Y-75425334D01*
X162383484Y-75278916D01*
X162383870Y-75149674D01*
X162384505Y-75036422D01*
X162385444Y-74937975D01*
X162386745Y-74853144D01*
X162388464Y-74780744D01*
X162390659Y-74719589D01*
X162393385Y-74668492D01*
X162396701Y-74626267D01*
X162400662Y-74591727D01*
X162405325Y-74563686D01*
X162410747Y-74540958D01*
X162416986Y-74522356D01*
X162424097Y-74506693D01*
X162432138Y-74492784D01*
X162441166Y-74479441D01*
X162451236Y-74465479D01*
X162462407Y-74449711D01*
X162502197Y-74391867D01*
X161442314Y-74391867D01*
X161480311Y-74454966D01*
X161494993Y-74480005D01*
X161509531Y-74507586D01*
X161521627Y-74535700D01*
X161531532Y-74566551D01*
X161539494Y-74602344D01*
X161545761Y-74645283D01*
X161550582Y-74697574D01*
X161554206Y-74761419D01*
X161556881Y-74839025D01*
X161558857Y-74932594D01*
X161560382Y-75044333D01*
X161561704Y-75176445D01*
X161562613Y-75296434D01*
X161563020Y-75413063D01*
X161562767Y-75508531D01*
X161561857Y-75582556D01*
X161560293Y-75634855D01*
X161558079Y-75665149D01*
X161555220Y-75673156D01*
X161552161Y-75669858D01*
X161534006Y-75648408D01*
X161504275Y-75611889D01*
X161464639Y-75562442D01*
X161416771Y-75502207D01*
X161362343Y-75433327D01*
X161303027Y-75357943D01*
X161240495Y-75278196D01*
X161176421Y-75196228D01*
X161112475Y-75114180D01*
X161050331Y-75034194D01*
X160991661Y-74958411D01*
X160938137Y-74888973D01*
X160891430Y-74828021D01*
X160853214Y-74777696D01*
X160825161Y-74740140D01*
X160808943Y-74717495D01*
X160763635Y-74645212D01*
X160723661Y-74565463D01*
X160702130Y-74497188D01*
X160698827Y-74439844D01*
X160704116Y-74391867D01*
X159572356Y-74392117D01*
X159611867Y-74422722D01*
X159621248Y-74430089D01*
X159684183Y-74484438D01*
X159752997Y-74552259D01*
X159829596Y-74635516D01*
X159915888Y-74736178D01*
X159933052Y-74756847D01*
X159973833Y-74806409D01*
X160023588Y-74867326D01*
X160080955Y-74937898D01*
X160144569Y-75016424D01*
X160213069Y-75101204D01*
X160285090Y-75190537D01*
X160359270Y-75282722D01*
X160374517Y-75301702D01*
X160434246Y-75376060D01*
X160508653Y-75468848D01*
X160581131Y-75559388D01*
X160650314Y-75645978D01*
X160714841Y-75726918D01*
X160773347Y-75800506D01*
X160824470Y-75865044D01*
X160866847Y-75918829D01*
X160899115Y-75960162D01*
X160919910Y-75987342D01*
X160927869Y-75998668D01*
X160926111Y-76002771D01*
X160913230Y-76023334D01*
X160888885Y-76059561D01*
X160854247Y-76109824D01*
X160810486Y-76172492D01*
X160758775Y-76245936D01*
X160700284Y-76328527D01*
X160636184Y-76418636D01*
X160567646Y-76514631D01*
X160495843Y-76614885D01*
X160421944Y-76717768D01*
X160347121Y-76821650D01*
X160272545Y-76924901D01*
X160199387Y-77025892D01*
X160128819Y-77122994D01*
X160062011Y-77214577D01*
X160000135Y-77299011D01*
X159944361Y-77374667D01*
X159895862Y-77439916D01*
X159855807Y-77493128D01*
X159825369Y-77532673D01*
X159804944Y-77558026D01*
X159758899Y-77612295D01*
X159708612Y-77668775D01*
X159661815Y-77718669D01*
X159570651Y-77812400D01*
X158872445Y-77812400D01*
X158941356Y-77812349D01*
X159039607Y-77812091D01*
X159129030Y-77811637D01*
X159207333Y-77811010D01*
X159272223Y-77810235D01*
X159321411Y-77809335D01*
X159352604Y-77808334D01*
X159363511Y-77807257D01*
X159362322Y-77804037D01*
X159352176Y-77786452D01*
X159335040Y-77760158D01*
X159326540Y-77747691D01*
X159317329Y-77733622D01*
X159309233Y-77719351D01*
X159302185Y-77703479D01*
X159296117Y-77684609D01*
X159290961Y-77661341D01*
X159286651Y-77632278D01*
X159283119Y-77596021D01*
X159280297Y-77551170D01*
X159278118Y-77496328D01*
X159276514Y-77430097D01*
X159275419Y-77351077D01*
X159274765Y-77257871D01*
X159274484Y-77149079D01*
X159274509Y-77023303D01*
X159274772Y-76879145D01*
X159275206Y-76715207D01*
X159275745Y-76530089D01*
X159276279Y-76351232D01*
X159276805Y-76192374D01*
X159277350Y-76053316D01*
X159277945Y-75932665D01*
X159278619Y-75829028D01*
X159279403Y-75741011D01*
X159280326Y-75667223D01*
X159281419Y-75606269D01*
X159282712Y-75556757D01*
X159284235Y-75517293D01*
X159286019Y-75486484D01*
X159288092Y-75462938D01*
X159290486Y-75445260D01*
X159293230Y-75432059D01*
X159296356Y-75421940D01*
X159299892Y-75413511D01*
X159303791Y-75405375D01*
X159323438Y-75368544D01*
X159342225Y-75338391D01*
X159343272Y-75336908D01*
X159357602Y-75314659D01*
X159363511Y-75301702D01*
X159362504Y-75301249D01*
X159345305Y-75299803D01*
X159308656Y-75298480D01*
X159254962Y-75297316D01*
X159186630Y-75296347D01*
X159106064Y-75295611D01*
X159015670Y-75295142D01*
X158917853Y-75294978D01*
X158472195Y-75294978D01*
X158469120Y-76471845D01*
X158466045Y-77648711D01*
X158439407Y-77707622D01*
X158427485Y-77732183D01*
X158410246Y-77762434D01*
X158397074Y-77779560D01*
X158389076Y-77787591D01*
X158381378Y-77802493D01*
X158089942Y-77802493D01*
X158089474Y-77710029D01*
X158089050Y-77594617D01*
X158088706Y-77464160D01*
X158088434Y-77317716D01*
X158088227Y-77154344D01*
X158088076Y-76973101D01*
X158087972Y-76773048D01*
X158087908Y-76553241D01*
X158087876Y-76312739D01*
X158087867Y-76050602D01*
X158087867Y-73859031D01*
X158126249Y-73820649D01*
X158153355Y-73796911D01*
X158180253Y-73785111D01*
X158216560Y-73782267D01*
X158268489Y-73782267D01*
X158268489Y-73870206D01*
X158270427Y-73920102D01*
X158289199Y-74030523D01*
X158326217Y-74131987D01*
X158379369Y-74223152D01*
X158446546Y-74302673D01*
X158525638Y-74369205D01*
X158614534Y-74421406D01*
X158711125Y-74457930D01*
X158813300Y-74477434D01*
X158918950Y-74478573D01*
X159025964Y-74460005D01*
X159132232Y-74420384D01*
X159229219Y-74362516D01*
X159314293Y-74287684D01*
X159383015Y-74199615D01*
X159433918Y-74100616D01*
X159465535Y-73992993D01*
X159476400Y-73879054D01*
X159476400Y-73782267D01*
X161096753Y-73782267D01*
X161307897Y-73782280D01*
X161512020Y-73782330D01*
X161695686Y-73782430D01*
X161859991Y-73782592D01*
X162006029Y-73782829D01*
X162134894Y-73783153D01*
X162247683Y-73783575D01*
X162345488Y-73784109D01*
X162429404Y-73784767D01*
X162500527Y-73785561D01*
X162559950Y-73786504D01*
X162608768Y-73787608D01*
X162648077Y-73788884D01*
X162678969Y-73790347D01*
X162702541Y-73792007D01*
X162719886Y-73793878D01*
X162732099Y-73795972D01*
X162740275Y-73798300D01*
X162745508Y-73800876D01*
X162751504Y-73804445D01*
X162758279Y-73807978D01*
X162764478Y-73811488D01*
X162770126Y-73815918D01*
X162775247Y-73822208D01*
X162779869Y-73831301D01*
X162784015Y-73844139D01*
X162787713Y-73861662D01*
X162790987Y-73884813D01*
X162793863Y-73914534D01*
X162796367Y-73951765D01*
X162798524Y-73997449D01*
X162800360Y-74052527D01*
X162801900Y-74117941D01*
X162803170Y-74194633D01*
X162804195Y-74283544D01*
X162805001Y-74385617D01*
X162805034Y-74391867D01*
X162805614Y-74501792D01*
X162806059Y-74633011D01*
X153856426Y-75256552D02*
X153704508Y-75276567D01*
X153704508Y-75276567D02*
X153569244Y-75310202D01*
X153569244Y-75310202D02*
X153449761Y-75357725D01*
X153449761Y-75357725D02*
X153345185Y-75419405D01*
X153345185Y-75419405D02*
X153267576Y-75482965D01*
X153267576Y-75482965D02*
X153198735Y-75557099D01*
X153198735Y-75557099D02*
X153144994Y-75636871D01*
X153144994Y-75636871D02*
X153102090Y-75729091D01*
X153102090Y-75729091D02*
X153086616Y-75772161D01*
X153086616Y-75772161D02*
X153073756Y-75811142D01*
X153073756Y-75811142D02*
X153062554Y-75847289D01*
X153062554Y-75847289D02*
X153052880Y-75882434D01*
X153052880Y-75882434D02*
X153044604Y-75918410D01*
X153044604Y-75918410D02*
X153037597Y-75957050D01*
X153037597Y-75957050D02*
X153031728Y-76000185D01*
X153031728Y-76000185D02*
X153026869Y-76049649D01*
X153026869Y-76049649D02*
X153022890Y-76107273D01*
X153022890Y-76107273D02*
X153019660Y-76174891D01*
X153019660Y-76174891D02*
X153017051Y-76254334D01*
X153017051Y-76254334D02*
X153014933Y-76347436D01*
X153014933Y-76347436D02*
X153013176Y-76456027D01*
X153013176Y-76456027D02*
X153011651Y-76581942D01*
X153011651Y-76581942D02*
X153010228Y-76727012D01*
X153010228Y-76727012D02*
X153008975Y-76869778D01*
X153008975Y-76869778D02*
X153007649Y-77025968D01*
X153007649Y-77025968D02*
X153006444Y-77161239D01*
X153006444Y-77161239D02*
X153005234Y-77277246D01*
X153005234Y-77277246D02*
X153003894Y-77375645D01*
X153003894Y-77375645D02*
X153002300Y-77458093D01*
X153002300Y-77458093D02*
X153000325Y-77526246D01*
X153000325Y-77526246D02*
X152997844Y-77581760D01*
X152997844Y-77581760D02*
X152994731Y-77626292D01*
X152994731Y-77626292D02*
X152990862Y-77661498D01*
X152990862Y-77661498D02*
X152986111Y-77689034D01*
X152986111Y-77689034D02*
X152980352Y-77710556D01*
X152980352Y-77710556D02*
X152973461Y-77727722D01*
X152973461Y-77727722D02*
X152965311Y-77742186D01*
X152965311Y-77742186D02*
X152955777Y-77755606D01*
X152955777Y-77755606D02*
X152944734Y-77769638D01*
X152944734Y-77769638D02*
X152940434Y-77775071D01*
X152940434Y-77775071D02*
X152924614Y-77797910D01*
X152924614Y-77797910D02*
X152917578Y-77813463D01*
X152917578Y-77813463D02*
X152917556Y-77813922D01*
X152917556Y-77813922D02*
X152928433Y-77816121D01*
X152928433Y-77816121D02*
X152959418Y-77818147D01*
X152959418Y-77818147D02*
X153008043Y-77819942D01*
X153008043Y-77819942D02*
X153071837Y-77821451D01*
X153071837Y-77821451D02*
X153148331Y-77822616D01*
X153148331Y-77822616D02*
X153235056Y-77823380D01*
X153235056Y-77823380D02*
X153329543Y-77823686D01*
X153329543Y-77823686D02*
X153340450Y-77823689D01*
X153340450Y-77823689D02*
X153763343Y-77823689D01*
X153763343Y-77823689D02*
X153766605Y-77727622D01*
X153766605Y-77727622D02*
X153769867Y-77631556D01*
X153769867Y-77631556D02*
X153831956Y-77682543D01*
X153831956Y-77682543D02*
X153929286Y-77750057D01*
X153929286Y-77750057D02*
X154039187Y-77804749D01*
X154039187Y-77804749D02*
X154125651Y-77834978D01*
X154125651Y-77834978D02*
X154194722Y-77849666D01*
X154194722Y-77849666D02*
X154278075Y-77859659D01*
X154278075Y-77859659D02*
X154367841Y-77864646D01*
X154367841Y-77864646D02*
X154456155Y-77864313D01*
X154456155Y-77864313D02*
X154535149Y-77858351D01*
X154535149Y-77858351D02*
X154571378Y-77852638D01*
X154571378Y-77852638D02*
X154711397Y-77814776D01*
X154711397Y-77814776D02*
X154837822Y-77759932D01*
X154837822Y-77759932D02*
X154949740Y-77688924D01*
X154949740Y-77688924D02*
X155046238Y-77602568D01*
X155046238Y-77602568D02*
X155126400Y-77501679D01*
X155126400Y-77501679D02*
X155189313Y-77387076D01*
X155189313Y-77387076D02*
X155233688Y-77260984D01*
X155233688Y-77260984D02*
X155246022Y-77204401D01*
X155246022Y-77204401D02*
X155253632Y-77142202D01*
X155253632Y-77142202D02*
X155257261Y-77067363D01*
X155257261Y-77067363D02*
X155257755Y-77033467D01*
X155257755Y-77033467D02*
X155257690Y-77030282D01*
X155257690Y-77030282D02*
X154497752Y-77030282D01*
X154497752Y-77030282D02*
X154488459Y-77105333D01*
X154488459Y-77105333D02*
X154460272Y-77169160D01*
X154460272Y-77169160D02*
X154411803Y-77224798D01*
X154411803Y-77224798D02*
X154406746Y-77229211D01*
X154406746Y-77229211D02*
X154358452Y-77264037D01*
X154358452Y-77264037D02*
X154306743Y-77286620D01*
X154306743Y-77286620D02*
X154246011Y-77298540D01*
X154246011Y-77298540D02*
X154170648Y-77301383D01*
X154170648Y-77301383D02*
X154152541Y-77300978D01*
X154152541Y-77300978D02*
X154098722Y-77298325D01*
X154098722Y-77298325D02*
X154058692Y-77292909D01*
X154058692Y-77292909D02*
X154023676Y-77282745D01*
X154023676Y-77282745D02*
X153984897Y-77265850D01*
X153984897Y-77265850D02*
X153974255Y-77260672D01*
X153974255Y-77260672D02*
X153913604Y-77224844D01*
X153913604Y-77224844D02*
X153866785Y-77182212D01*
X153866785Y-77182212D02*
X153854048Y-77166973D01*
X153854048Y-77166973D02*
X153809378Y-77110462D01*
X153809378Y-77110462D02*
X153809378Y-76914586D01*
X153809378Y-76914586D02*
X153809914Y-76835939D01*
X153809914Y-76835939D02*
X153811604Y-76777988D01*
X153811604Y-76777988D02*
X153814572Y-76738875D01*
X153814572Y-76738875D02*
X153818943Y-76716741D01*
X153818943Y-76716741D02*
X153823028Y-76710274D01*
X153823028Y-76710274D02*
X153838953Y-76707111D01*
X153838953Y-76707111D02*
X153872736Y-76704488D01*
X153872736Y-76704488D02*
X153919660Y-76702655D01*
X153919660Y-76702655D02*
X153975007Y-76701857D01*
X153975007Y-76701857D02*
X153983894Y-76701842D01*
X153983894Y-76701842D02*
X154104670Y-76707096D01*
X154104670Y-76707096D02*
X154207340Y-76723263D01*
X154207340Y-76723263D02*
X154293894Y-76750961D01*
X154293894Y-76750961D02*
X154366319Y-76790808D01*
X154366319Y-76790808D02*
X154421249Y-76837758D01*
X154421249Y-76837758D02*
X154465796Y-76895645D01*
X154465796Y-76895645D02*
X154490520Y-76958693D01*
X154490520Y-76958693D02*
X154497752Y-77030282D01*
X154497752Y-77030282D02*
X155257690Y-77030282D01*
X155257690Y-77030282D02*
X155255822Y-76939712D01*
X155255822Y-76939712D02*
X155247478Y-76860812D01*
X155247478Y-76860812D02*
X155231232Y-76789590D01*
X155231232Y-76789590D02*
X155205595Y-76718864D01*
X155205595Y-76718864D02*
X155181599Y-76666493D01*
X155181599Y-76666493D02*
X155122980Y-76571196D01*
X155122980Y-76571196D02*
X155044883Y-76483170D01*
X155044883Y-76483170D02*
X154949685Y-76404017D01*
X154949685Y-76404017D02*
X154839762Y-76335340D01*
X154839762Y-76335340D02*
X154717490Y-76278741D01*
X154717490Y-76278741D02*
X154585245Y-76235821D01*
X154585245Y-76235821D02*
X154520578Y-76220882D01*
X154520578Y-76220882D02*
X154384396Y-76198777D01*
X154384396Y-76198777D02*
X154235951Y-76184194D01*
X154235951Y-76184194D02*
X154084495Y-76177813D01*
X154084495Y-76177813D02*
X153957936Y-76179445D01*
X153957936Y-76179445D02*
X153796050Y-76186224D01*
X153796050Y-76186224D02*
X153803470Y-76127245D01*
X153803470Y-76127245D02*
X153822762Y-76028092D01*
X153822762Y-76028092D02*
X153853896Y-75947372D01*
X153853896Y-75947372D02*
X153897731Y-75884466D01*
X153897731Y-75884466D02*
X153955129Y-75838756D01*
X153955129Y-75838756D02*
X154026952Y-75809622D01*
X154026952Y-75809622D02*
X154114059Y-75796447D01*
X154114059Y-75796447D02*
X154217314Y-75798611D01*
X154217314Y-75798611D02*
X154255289Y-75802612D01*
X154255289Y-75802612D02*
X154396480Y-75827780D01*
X154396480Y-75827780D02*
X154533293Y-75868814D01*
X154533293Y-75868814D02*
X154627822Y-75906815D01*
X154627822Y-75906815D02*
X154672982Y-75926190D01*
X154672982Y-75926190D02*
X154711415Y-75941760D01*
X154711415Y-75941760D02*
X154737766Y-75951405D01*
X154737766Y-75951405D02*
X154745454Y-75953452D01*
X154745454Y-75953452D02*
X154755198Y-75944374D01*
X154755198Y-75944374D02*
X154771917Y-75915405D01*
X154771917Y-75915405D02*
X154795768Y-75866217D01*
X154795768Y-75866217D02*
X154826907Y-75796484D01*
X154826907Y-75796484D02*
X154865493Y-75705879D01*
X154865493Y-75705879D02*
X154872090Y-75690089D01*
X154872090Y-75690089D02*
X154902147Y-75617772D01*
X154902147Y-75617772D02*
X154929126Y-75552425D01*
X154929126Y-75552425D02*
X154951864Y-75496906D01*
X154951864Y-75496906D02*
X154969194Y-75454072D01*
X154969194Y-75454072D02*
X154979952Y-75426781D01*
X154979952Y-75426781D02*
X154983059Y-75417942D01*
X154983059Y-75417942D02*
X154973060Y-75413187D01*
X154973060Y-75413187D02*
X154946783Y-75407910D01*
X154946783Y-75407910D02*
X154918511Y-75404231D01*
X154918511Y-75404231D02*
X154888354Y-75399474D01*
X154888354Y-75399474D02*
X154840567Y-75390028D01*
X154840567Y-75390028D02*
X154779388Y-75376820D01*
X154779388Y-75376820D02*
X154709054Y-75360776D01*
X154709054Y-75360776D02*
X154633806Y-75342820D01*
X154633806Y-75342820D02*
X154605245Y-75335797D01*
X154605245Y-75335797D02*
X154500184Y-75310209D01*
X154500184Y-75310209D02*
X154412520Y-75290147D01*
X154412520Y-75290147D02*
X154337932Y-75274969D01*
X154337932Y-75274969D02*
X154272097Y-75264035D01*
X154272097Y-75264035D02*
X154210693Y-75256704D01*
X154210693Y-75256704D02*
X154149398Y-75252335D01*
X154149398Y-75252335D02*
X154083890Y-75250287D01*
X154083890Y-75250287D02*
X154025872Y-75249889D01*
X154025872Y-75249889D02*
X153856426Y-75256552D01*
X153856426Y-75256552D02*
X153856426Y-75256552D01*
G36*
X155257261Y-77067363D02*
G01*
X155253632Y-77142202D01*
X155246022Y-77204401D01*
X155233688Y-77260984D01*
X155189313Y-77387076D01*
X155126400Y-77501679D01*
X155046238Y-77602568D01*
X154949740Y-77688924D01*
X154837822Y-77759932D01*
X154711397Y-77814776D01*
X154571378Y-77852638D01*
X154535149Y-77858351D01*
X154456155Y-77864313D01*
X154367841Y-77864646D01*
X154278075Y-77859659D01*
X154194722Y-77849666D01*
X154125651Y-77834978D01*
X154039187Y-77804749D01*
X153929286Y-77750057D01*
X153831956Y-77682543D01*
X153769867Y-77631556D01*
X153766605Y-77727622D01*
X153763343Y-77823689D01*
X153340450Y-77823689D01*
X153329543Y-77823686D01*
X153235056Y-77823380D01*
X153148331Y-77822616D01*
X153071837Y-77821451D01*
X153008043Y-77819942D01*
X152959418Y-77818147D01*
X152928433Y-77816121D01*
X152917556Y-77813922D01*
X152917578Y-77813463D01*
X152924614Y-77797910D01*
X152940434Y-77775071D01*
X152944734Y-77769638D01*
X152955777Y-77755606D01*
X152965311Y-77742186D01*
X152973461Y-77727722D01*
X152980352Y-77710556D01*
X152986111Y-77689034D01*
X152990862Y-77661498D01*
X152994731Y-77626292D01*
X152997844Y-77581760D01*
X153000325Y-77526246D01*
X153002300Y-77458093D01*
X153003894Y-77375645D01*
X153005234Y-77277246D01*
X153006444Y-77161239D01*
X153007649Y-77025968D01*
X153008595Y-76914586D01*
X153809378Y-76914586D01*
X153809378Y-77110462D01*
X153854048Y-77166973D01*
X153866785Y-77182212D01*
X153913604Y-77224844D01*
X153974255Y-77260672D01*
X153984897Y-77265850D01*
X154023676Y-77282745D01*
X154058692Y-77292909D01*
X154098722Y-77298325D01*
X154152541Y-77300978D01*
X154170648Y-77301383D01*
X154246011Y-77298540D01*
X154306743Y-77286620D01*
X154358452Y-77264037D01*
X154406746Y-77229211D01*
X154411803Y-77224798D01*
X154460272Y-77169160D01*
X154488459Y-77105333D01*
X154497752Y-77030282D01*
X154490520Y-76958693D01*
X154465796Y-76895645D01*
X154421249Y-76837758D01*
X154366319Y-76790808D01*
X154293894Y-76750961D01*
X154207340Y-76723263D01*
X154104670Y-76707096D01*
X153983894Y-76701842D01*
X153975007Y-76701857D01*
X153919660Y-76702655D01*
X153872736Y-76704488D01*
X153838953Y-76707111D01*
X153823028Y-76710274D01*
X153818943Y-76716741D01*
X153814572Y-76738875D01*
X153811604Y-76777988D01*
X153809914Y-76835939D01*
X153809378Y-76914586D01*
X153008595Y-76914586D01*
X153008975Y-76869778D01*
X153010228Y-76727012D01*
X153011651Y-76581942D01*
X153013176Y-76456027D01*
X153014933Y-76347436D01*
X153017051Y-76254334D01*
X153019660Y-76174891D01*
X153022890Y-76107273D01*
X153026869Y-76049649D01*
X153031728Y-76000185D01*
X153037597Y-75957050D01*
X153044604Y-75918410D01*
X153052880Y-75882434D01*
X153062554Y-75847289D01*
X153073756Y-75811142D01*
X153086616Y-75772161D01*
X153102090Y-75729091D01*
X153144994Y-75636871D01*
X153198735Y-75557099D01*
X153267576Y-75482965D01*
X153345185Y-75419405D01*
X153449761Y-75357725D01*
X153569244Y-75310202D01*
X153704508Y-75276567D01*
X153856426Y-75256552D01*
X154025872Y-75249889D01*
X154083890Y-75250287D01*
X154149398Y-75252335D01*
X154210693Y-75256704D01*
X154272097Y-75264035D01*
X154337932Y-75274969D01*
X154412520Y-75290147D01*
X154500184Y-75310209D01*
X154605245Y-75335797D01*
X154633806Y-75342820D01*
X154709054Y-75360776D01*
X154779388Y-75376820D01*
X154840567Y-75390028D01*
X154888354Y-75399474D01*
X154918511Y-75404231D01*
X154946783Y-75407910D01*
X154973060Y-75413187D01*
X154983059Y-75417942D01*
X154979952Y-75426781D01*
X154969194Y-75454072D01*
X154951864Y-75496906D01*
X154929126Y-75552425D01*
X154902147Y-75617772D01*
X154872090Y-75690089D01*
X154865493Y-75705879D01*
X154826907Y-75796484D01*
X154795768Y-75866217D01*
X154771917Y-75915405D01*
X154755198Y-75944374D01*
X154745454Y-75953452D01*
X154737766Y-75951405D01*
X154711415Y-75941760D01*
X154672982Y-75926190D01*
X154627822Y-75906815D01*
X154533293Y-75868814D01*
X154396480Y-75827780D01*
X154255289Y-75802612D01*
X154217314Y-75798611D01*
X154114059Y-75796447D01*
X154026952Y-75809622D01*
X153955129Y-75838756D01*
X153897731Y-75884466D01*
X153853896Y-75947372D01*
X153822762Y-76028092D01*
X153803470Y-76127245D01*
X153796050Y-76186224D01*
X153957936Y-76179445D01*
X154084495Y-76177813D01*
X154235951Y-76184194D01*
X154384396Y-76198777D01*
X154520578Y-76220882D01*
X154585245Y-76235821D01*
X154717490Y-76278741D01*
X154839762Y-76335340D01*
X154949685Y-76404017D01*
X155044883Y-76483170D01*
X155122980Y-76571196D01*
X155181599Y-76666493D01*
X155205595Y-76718864D01*
X155231232Y-76789590D01*
X155247478Y-76860812D01*
X155255822Y-76939712D01*
X155257690Y-77030282D01*
X155257755Y-77033467D01*
X155257261Y-77067363D01*
G37*
X155257261Y-77067363D02*
X155253632Y-77142202D01*
X155246022Y-77204401D01*
X155233688Y-77260984D01*
X155189313Y-77387076D01*
X155126400Y-77501679D01*
X155046238Y-77602568D01*
X154949740Y-77688924D01*
X154837822Y-77759932D01*
X154711397Y-77814776D01*
X154571378Y-77852638D01*
X154535149Y-77858351D01*
X154456155Y-77864313D01*
X154367841Y-77864646D01*
X154278075Y-77859659D01*
X154194722Y-77849666D01*
X154125651Y-77834978D01*
X154039187Y-77804749D01*
X153929286Y-77750057D01*
X153831956Y-77682543D01*
X153769867Y-77631556D01*
X153766605Y-77727622D01*
X153763343Y-77823689D01*
X153340450Y-77823689D01*
X153329543Y-77823686D01*
X153235056Y-77823380D01*
X153148331Y-77822616D01*
X153071837Y-77821451D01*
X153008043Y-77819942D01*
X152959418Y-77818147D01*
X152928433Y-77816121D01*
X152917556Y-77813922D01*
X152917578Y-77813463D01*
X152924614Y-77797910D01*
X152940434Y-77775071D01*
X152944734Y-77769638D01*
X152955777Y-77755606D01*
X152965311Y-77742186D01*
X152973461Y-77727722D01*
X152980352Y-77710556D01*
X152986111Y-77689034D01*
X152990862Y-77661498D01*
X152994731Y-77626292D01*
X152997844Y-77581760D01*
X153000325Y-77526246D01*
X153002300Y-77458093D01*
X153003894Y-77375645D01*
X153005234Y-77277246D01*
X153006444Y-77161239D01*
X153007649Y-77025968D01*
X153008595Y-76914586D01*
X153809378Y-76914586D01*
X153809378Y-77110462D01*
X153854048Y-77166973D01*
X153866785Y-77182212D01*
X153913604Y-77224844D01*
X153974255Y-77260672D01*
X153984897Y-77265850D01*
X154023676Y-77282745D01*
X154058692Y-77292909D01*
X154098722Y-77298325D01*
X154152541Y-77300978D01*
X154170648Y-77301383D01*
X154246011Y-77298540D01*
X154306743Y-77286620D01*
X154358452Y-77264037D01*
X154406746Y-77229211D01*
X154411803Y-77224798D01*
X154460272Y-77169160D01*
X154488459Y-77105333D01*
X154497752Y-77030282D01*
X154490520Y-76958693D01*
X154465796Y-76895645D01*
X154421249Y-76837758D01*
X154366319Y-76790808D01*
X154293894Y-76750961D01*
X154207340Y-76723263D01*
X154104670Y-76707096D01*
X153983894Y-76701842D01*
X153975007Y-76701857D01*
X153919660Y-76702655D01*
X153872736Y-76704488D01*
X153838953Y-76707111D01*
X153823028Y-76710274D01*
X153818943Y-76716741D01*
X153814572Y-76738875D01*
X153811604Y-76777988D01*
X153809914Y-76835939D01*
X153809378Y-76914586D01*
X153008595Y-76914586D01*
X153008975Y-76869778D01*
X153010228Y-76727012D01*
X153011651Y-76581942D01*
X153013176Y-76456027D01*
X153014933Y-76347436D01*
X153017051Y-76254334D01*
X153019660Y-76174891D01*
X153022890Y-76107273D01*
X153026869Y-76049649D01*
X153031728Y-76000185D01*
X153037597Y-75957050D01*
X153044604Y-75918410D01*
X153052880Y-75882434D01*
X153062554Y-75847289D01*
X153073756Y-75811142D01*
X153086616Y-75772161D01*
X153102090Y-75729091D01*
X153144994Y-75636871D01*
X153198735Y-75557099D01*
X153267576Y-75482965D01*
X153345185Y-75419405D01*
X153449761Y-75357725D01*
X153569244Y-75310202D01*
X153704508Y-75276567D01*
X153856426Y-75256552D01*
X154025872Y-75249889D01*
X154083890Y-75250287D01*
X154149398Y-75252335D01*
X154210693Y-75256704D01*
X154272097Y-75264035D01*
X154337932Y-75274969D01*
X154412520Y-75290147D01*
X154500184Y-75310209D01*
X154605245Y-75335797D01*
X154633806Y-75342820D01*
X154709054Y-75360776D01*
X154779388Y-75376820D01*
X154840567Y-75390028D01*
X154888354Y-75399474D01*
X154918511Y-75404231D01*
X154946783Y-75407910D01*
X154973060Y-75413187D01*
X154983059Y-75417942D01*
X154979952Y-75426781D01*
X154969194Y-75454072D01*
X154951864Y-75496906D01*
X154929126Y-75552425D01*
X154902147Y-75617772D01*
X154872090Y-75690089D01*
X154865493Y-75705879D01*
X154826907Y-75796484D01*
X154795768Y-75866217D01*
X154771917Y-75915405D01*
X154755198Y-75944374D01*
X154745454Y-75953452D01*
X154737766Y-75951405D01*
X154711415Y-75941760D01*
X154672982Y-75926190D01*
X154627822Y-75906815D01*
X154533293Y-75868814D01*
X154396480Y-75827780D01*
X154255289Y-75802612D01*
X154217314Y-75798611D01*
X154114059Y-75796447D01*
X154026952Y-75809622D01*
X153955129Y-75838756D01*
X153897731Y-75884466D01*
X153853896Y-75947372D01*
X153822762Y-76028092D01*
X153803470Y-76127245D01*
X153796050Y-76186224D01*
X153957936Y-76179445D01*
X154084495Y-76177813D01*
X154235951Y-76184194D01*
X154384396Y-76198777D01*
X154520578Y-76220882D01*
X154585245Y-76235821D01*
X154717490Y-76278741D01*
X154839762Y-76335340D01*
X154949685Y-76404017D01*
X155044883Y-76483170D01*
X155122980Y-76571196D01*
X155181599Y-76666493D01*
X155205595Y-76718864D01*
X155231232Y-76789590D01*
X155247478Y-76860812D01*
X155255822Y-76939712D01*
X155257690Y-77030282D01*
X155257755Y-77033467D01*
X155257261Y-77067363D01*
X158803043Y-73416571D02*
X158706768Y-73440809D01*
X158706768Y-73440809D02*
X158620184Y-73483641D01*
X158620184Y-73483641D02*
X158545373Y-73543419D01*
X158545373Y-73543419D02*
X158484418Y-73618494D01*
X158484418Y-73618494D02*
X158439399Y-73707220D01*
X158439399Y-73707220D02*
X158413136Y-73803530D01*
X158413136Y-73803530D02*
X158407286Y-73900795D01*
X158407286Y-73900795D02*
X158422140Y-73994654D01*
X158422140Y-73994654D02*
X158455840Y-74082511D01*
X158455840Y-74082511D02*
X158506528Y-74161770D01*
X158506528Y-74161770D02*
X158572345Y-74229836D01*
X158572345Y-74229836D02*
X158651434Y-74284112D01*
X158651434Y-74284112D02*
X158741934Y-74322002D01*
X158741934Y-74322002D02*
X158793200Y-74334426D01*
X158793200Y-74334426D02*
X158837698Y-74341947D01*
X158837698Y-74341947D02*
X158871999Y-74344919D01*
X158871999Y-74344919D02*
X158904960Y-74343094D01*
X158904960Y-74343094D02*
X158945434Y-74336225D01*
X158945434Y-74336225D02*
X158978531Y-74329250D01*
X158978531Y-74329250D02*
X159071947Y-74297741D01*
X159071947Y-74297741D02*
X159155619Y-74246617D01*
X159155619Y-74246617D02*
X159227665Y-74177429D01*
X159227665Y-74177429D02*
X159286200Y-74091728D01*
X159286200Y-74091728D02*
X159300148Y-74064489D01*
X159300148Y-74064489D02*
X159316586Y-74028122D01*
X159316586Y-74028122D02*
X159326894Y-73997582D01*
X159326894Y-73997582D02*
X159332460Y-73965450D01*
X159332460Y-73965450D02*
X159334669Y-73924307D01*
X159334669Y-73924307D02*
X159334948Y-73878222D01*
X159334948Y-73878222D02*
X159330861Y-73793865D01*
X159330861Y-73793865D02*
X159317446Y-73724586D01*
X159317446Y-73724586D02*
X159292256Y-73663961D01*
X159292256Y-73663961D02*
X159252846Y-73605567D01*
X159252846Y-73605567D02*
X159214298Y-73561302D01*
X159214298Y-73561302D02*
X159142406Y-73495484D01*
X159142406Y-73495484D02*
X159067313Y-73450053D01*
X159067313Y-73450053D02*
X158984562Y-73422850D01*
X158984562Y-73422850D02*
X158906928Y-73412576D01*
X158906928Y-73412576D02*
X158803043Y-73416571D01*
X158803043Y-73416571D02*
X158803043Y-73416571D01*
G36*
X158984562Y-73422850D02*
G01*
X159067313Y-73450053D01*
X159142406Y-73495484D01*
X159214298Y-73561302D01*
X159252846Y-73605567D01*
X159292256Y-73663961D01*
X159317446Y-73724586D01*
X159330861Y-73793865D01*
X159334948Y-73878222D01*
X159334669Y-73924307D01*
X159332460Y-73965450D01*
X159326894Y-73997582D01*
X159316586Y-74028122D01*
X159300148Y-74064489D01*
X159286200Y-74091728D01*
X159227665Y-74177429D01*
X159155619Y-74246617D01*
X159071947Y-74297741D01*
X158978531Y-74329250D01*
X158945434Y-74336225D01*
X158904960Y-74343094D01*
X158871999Y-74344919D01*
X158837698Y-74341947D01*
X158793200Y-74334426D01*
X158741934Y-74322002D01*
X158651434Y-74284112D01*
X158572345Y-74229836D01*
X158506528Y-74161770D01*
X158455840Y-74082511D01*
X158422140Y-73994654D01*
X158407286Y-73900795D01*
X158413136Y-73803530D01*
X158439399Y-73707220D01*
X158484418Y-73618494D01*
X158545373Y-73543419D01*
X158620184Y-73483641D01*
X158706768Y-73440809D01*
X158803043Y-73416571D01*
X158906928Y-73412576D01*
X158984562Y-73422850D01*
G37*
X158984562Y-73422850D02*
X159067313Y-73450053D01*
X159142406Y-73495484D01*
X159214298Y-73561302D01*
X159252846Y-73605567D01*
X159292256Y-73663961D01*
X159317446Y-73724586D01*
X159330861Y-73793865D01*
X159334948Y-73878222D01*
X159334669Y-73924307D01*
X159332460Y-73965450D01*
X159326894Y-73997582D01*
X159316586Y-74028122D01*
X159300148Y-74064489D01*
X159286200Y-74091728D01*
X159227665Y-74177429D01*
X159155619Y-74246617D01*
X159071947Y-74297741D01*
X158978531Y-74329250D01*
X158945434Y-74336225D01*
X158904960Y-74343094D01*
X158871999Y-74344919D01*
X158837698Y-74341947D01*
X158793200Y-74334426D01*
X158741934Y-74322002D01*
X158651434Y-74284112D01*
X158572345Y-74229836D01*
X158506528Y-74161770D01*
X158455840Y-74082511D01*
X158422140Y-73994654D01*
X158407286Y-73900795D01*
X158413136Y-73803530D01*
X158439399Y-73707220D01*
X158484418Y-73618494D01*
X158545373Y-73543419D01*
X158620184Y-73483641D01*
X158706768Y-73440809D01*
X158803043Y-73416571D01*
X158906928Y-73412576D01*
X158984562Y-73422850D01*
X156201571Y-74339071D02*
X156041430Y-74360245D01*
X156041430Y-74360245D02*
X155877490Y-74400385D01*
X155877490Y-74400385D02*
X155707687Y-74459889D01*
X155707687Y-74459889D02*
X155529957Y-74539154D01*
X155529957Y-74539154D02*
X155518690Y-74544699D01*
X155518690Y-74544699D02*
X155460995Y-74572725D01*
X155460995Y-74572725D02*
X155409448Y-74596802D01*
X155409448Y-74596802D02*
X155367809Y-74615249D01*
X155367809Y-74615249D02*
X155339838Y-74626386D01*
X155339838Y-74626386D02*
X155330267Y-74628933D01*
X155330267Y-74628933D02*
X155311050Y-74633941D01*
X155311050Y-74633941D02*
X155306439Y-74638147D01*
X155306439Y-74638147D02*
X155311542Y-74648580D01*
X155311542Y-74648580D02*
X155327582Y-74674868D01*
X155327582Y-74674868D02*
X155352712Y-74714257D01*
X155352712Y-74714257D02*
X155385086Y-74763991D01*
X155385086Y-74763991D02*
X155422857Y-74821315D01*
X155422857Y-74821315D02*
X155464178Y-74883476D01*
X155464178Y-74883476D02*
X155507202Y-74947718D01*
X155507202Y-74947718D02*
X155550083Y-75011285D01*
X155550083Y-75011285D02*
X155590974Y-75071425D01*
X155590974Y-75071425D02*
X155628029Y-75125380D01*
X155628029Y-75125380D02*
X155659400Y-75170397D01*
X155659400Y-75170397D02*
X155683241Y-75203721D01*
X155683241Y-75203721D02*
X155697706Y-75222597D01*
X155697706Y-75222597D02*
X155699691Y-75224787D01*
X155699691Y-75224787D02*
X155709809Y-75220138D01*
X155709809Y-75220138D02*
X155732150Y-75202962D01*
X155732150Y-75202962D02*
X155762720Y-75176440D01*
X155762720Y-75176440D02*
X155778464Y-75161964D01*
X155778464Y-75161964D02*
X155874953Y-75086682D01*
X155874953Y-75086682D02*
X155981664Y-75031241D01*
X155981664Y-75031241D02*
X156097168Y-74996141D01*
X156097168Y-74996141D02*
X156220038Y-74981880D01*
X156220038Y-74981880D02*
X156289439Y-74983051D01*
X156289439Y-74983051D02*
X156410577Y-75000212D01*
X156410577Y-75000212D02*
X156519795Y-75036094D01*
X156519795Y-75036094D02*
X156617418Y-75090959D01*
X156617418Y-75090959D02*
X156703772Y-75165070D01*
X156703772Y-75165070D02*
X156779185Y-75258688D01*
X156779185Y-75258688D02*
X156843982Y-75372076D01*
X156843982Y-75372076D02*
X156881399Y-75458667D01*
X156881399Y-75458667D02*
X156925252Y-75594366D01*
X156925252Y-75594366D02*
X156957572Y-75741850D01*
X156957572Y-75741850D02*
X156978443Y-75897314D01*
X156978443Y-75897314D02*
X156987949Y-76056956D01*
X156987949Y-76056956D02*
X156986173Y-76216973D01*
X156986173Y-76216973D02*
X156973197Y-76373561D01*
X156973197Y-76373561D02*
X156949106Y-76522918D01*
X156949106Y-76522918D02*
X156913982Y-76661240D01*
X156913982Y-76661240D02*
X156867908Y-76784724D01*
X156867908Y-76784724D02*
X156851627Y-76818978D01*
X156851627Y-76818978D02*
X156783380Y-76933064D01*
X156783380Y-76933064D02*
X156702921Y-77029557D01*
X156702921Y-77029557D02*
X156611430Y-77107670D01*
X156611430Y-77107670D02*
X156510089Y-77166617D01*
X156510089Y-77166617D02*
X156400080Y-77205612D01*
X156400080Y-77205612D02*
X156282585Y-77223868D01*
X156282585Y-77223868D02*
X156241117Y-77225211D01*
X156241117Y-77225211D02*
X156119559Y-77214290D01*
X156119559Y-77214290D02*
X155999122Y-77181474D01*
X155999122Y-77181474D02*
X155881334Y-77127439D01*
X155881334Y-77127439D02*
X155767723Y-77052865D01*
X155767723Y-77052865D02*
X155676315Y-76974539D01*
X155676315Y-76974539D02*
X155629785Y-76930008D01*
X155629785Y-76930008D02*
X155448517Y-77227271D01*
X155448517Y-77227271D02*
X155403420Y-77301433D01*
X155403420Y-77301433D02*
X155362181Y-77369646D01*
X155362181Y-77369646D02*
X155326265Y-77429459D01*
X155326265Y-77429459D02*
X155297134Y-77478420D01*
X155297134Y-77478420D02*
X155276250Y-77514079D01*
X155276250Y-77514079D02*
X155265076Y-77533984D01*
X155265076Y-77533984D02*
X155263625Y-77537079D01*
X155263625Y-77537079D02*
X155271854Y-77546718D01*
X155271854Y-77546718D02*
X155297433Y-77563999D01*
X155297433Y-77563999D02*
X155337127Y-77587283D01*
X155337127Y-77587283D02*
X155387703Y-77614934D01*
X155387703Y-77614934D02*
X155445926Y-77645315D01*
X155445926Y-77645315D02*
X155508563Y-77676790D01*
X155508563Y-77676790D02*
X155572379Y-77707722D01*
X155572379Y-77707722D02*
X155634140Y-77736473D01*
X155634140Y-77736473D02*
X155690612Y-77761408D01*
X155690612Y-77761408D02*
X155738562Y-77780889D01*
X155738562Y-77780889D02*
X155762014Y-77789318D01*
X155762014Y-77789318D02*
X155895779Y-77827133D01*
X155895779Y-77827133D02*
X156033673Y-77852136D01*
X156033673Y-77852136D02*
X156181378Y-77865140D01*
X156181378Y-77865140D02*
X156308167Y-77867468D01*
X156308167Y-77867468D02*
X156376122Y-77866373D01*
X156376122Y-77866373D02*
X156441723Y-77864275D01*
X156441723Y-77864275D02*
X156499153Y-77861434D01*
X156499153Y-77861434D02*
X156542597Y-77858106D01*
X156542597Y-77858106D02*
X156556702Y-77856422D01*
X156556702Y-77856422D02*
X156695716Y-77827587D01*
X156695716Y-77827587D02*
X156837243Y-77782468D01*
X156837243Y-77782468D02*
X156974725Y-77723750D01*
X156974725Y-77723750D02*
X157101606Y-77654120D01*
X157101606Y-77654120D02*
X157179111Y-77601441D01*
X157179111Y-77601441D02*
X157306519Y-77493239D01*
X157306519Y-77493239D02*
X157424822Y-77366671D01*
X157424822Y-77366671D02*
X157531828Y-77224866D01*
X157531828Y-77224866D02*
X157625348Y-77070951D01*
X157625348Y-77070951D02*
X157703190Y-76908053D01*
X157703190Y-76908053D02*
X157747044Y-76790756D01*
X157747044Y-76790756D02*
X157797292Y-76607128D01*
X157797292Y-76607128D02*
X157830791Y-76412581D01*
X157830791Y-76412581D02*
X157847551Y-76211325D01*
X157847551Y-76211325D02*
X157847584Y-76007568D01*
X157847584Y-76007568D02*
X157830899Y-75805521D01*
X157830899Y-75805521D02*
X157797507Y-75609392D01*
X157797507Y-75609392D02*
X157747420Y-75423391D01*
X157747420Y-75423391D02*
X157743603Y-75411803D01*
X157743603Y-75411803D02*
X157680719Y-75249750D01*
X157680719Y-75249750D02*
X157603972Y-75101832D01*
X157603972Y-75101832D02*
X157510758Y-74963865D01*
X157510758Y-74963865D02*
X157398473Y-74831661D01*
X157398473Y-74831661D02*
X157354608Y-74786399D01*
X157354608Y-74786399D02*
X157218466Y-74662457D01*
X157218466Y-74662457D02*
X157078509Y-74559915D01*
X157078509Y-74559915D02*
X156932589Y-74477656D01*
X156932589Y-74477656D02*
X156778558Y-74414564D01*
X156778558Y-74414564D02*
X156614268Y-74369523D01*
X156614268Y-74369523D02*
X156518711Y-74352033D01*
X156518711Y-74352033D02*
X156359977Y-74336466D01*
X156359977Y-74336466D02*
X156201571Y-74339071D01*
X156201571Y-74339071D02*
X156201571Y-74339071D01*
G36*
X156518711Y-74352033D02*
G01*
X156614268Y-74369523D01*
X156778558Y-74414564D01*
X156932589Y-74477656D01*
X157078509Y-74559915D01*
X157218466Y-74662457D01*
X157354608Y-74786399D01*
X157398473Y-74831661D01*
X157510758Y-74963865D01*
X157603972Y-75101832D01*
X157680719Y-75249750D01*
X157743603Y-75411803D01*
X157747420Y-75423391D01*
X157797507Y-75609392D01*
X157830899Y-75805521D01*
X157847584Y-76007568D01*
X157847551Y-76211325D01*
X157830791Y-76412581D01*
X157797292Y-76607128D01*
X157747044Y-76790756D01*
X157703190Y-76908053D01*
X157625348Y-77070951D01*
X157531828Y-77224866D01*
X157424822Y-77366671D01*
X157306519Y-77493239D01*
X157179111Y-77601441D01*
X157101606Y-77654120D01*
X156974725Y-77723750D01*
X156837243Y-77782468D01*
X156695716Y-77827587D01*
X156556702Y-77856422D01*
X156542597Y-77858106D01*
X156499153Y-77861434D01*
X156441723Y-77864275D01*
X156376122Y-77866373D01*
X156308167Y-77867468D01*
X156181378Y-77865140D01*
X156033673Y-77852136D01*
X155895779Y-77827133D01*
X155762014Y-77789318D01*
X155738562Y-77780889D01*
X155690612Y-77761408D01*
X155634140Y-77736473D01*
X155572379Y-77707722D01*
X155508563Y-77676790D01*
X155445926Y-77645315D01*
X155387703Y-77614934D01*
X155337127Y-77587283D01*
X155297433Y-77563999D01*
X155271854Y-77546718D01*
X155263625Y-77537079D01*
X155265076Y-77533984D01*
X155276250Y-77514079D01*
X155297134Y-77478420D01*
X155326265Y-77429459D01*
X155362181Y-77369646D01*
X155403420Y-77301433D01*
X155448517Y-77227271D01*
X155629785Y-76930008D01*
X155676315Y-76974539D01*
X155767723Y-77052865D01*
X155881334Y-77127439D01*
X155999122Y-77181474D01*
X156119559Y-77214290D01*
X156241117Y-77225211D01*
X156282585Y-77223868D01*
X156400080Y-77205612D01*
X156510089Y-77166617D01*
X156611430Y-77107670D01*
X156702921Y-77029557D01*
X156783380Y-76933064D01*
X156851627Y-76818978D01*
X156867908Y-76784724D01*
X156913982Y-76661240D01*
X156949106Y-76522918D01*
X156973197Y-76373561D01*
X156986173Y-76216973D01*
X156987949Y-76056956D01*
X156978443Y-75897314D01*
X156957572Y-75741850D01*
X156925252Y-75594366D01*
X156881399Y-75458667D01*
X156843982Y-75372076D01*
X156779185Y-75258688D01*
X156703772Y-75165070D01*
X156617418Y-75090959D01*
X156519795Y-75036094D01*
X156410577Y-75000212D01*
X156289439Y-74983051D01*
X156220038Y-74981880D01*
X156097168Y-74996141D01*
X155981664Y-75031241D01*
X155874953Y-75086682D01*
X155778464Y-75161964D01*
X155762720Y-75176440D01*
X155732150Y-75202962D01*
X155709809Y-75220138D01*
X155699691Y-75224787D01*
X155697706Y-75222597D01*
X155683241Y-75203721D01*
X155659400Y-75170397D01*
X155628029Y-75125380D01*
X155590974Y-75071425D01*
X155550083Y-75011285D01*
X155507202Y-74947718D01*
X155464178Y-74883476D01*
X155422857Y-74821315D01*
X155385086Y-74763991D01*
X155352712Y-74714257D01*
X155327582Y-74674868D01*
X155311542Y-74648580D01*
X155306439Y-74638147D01*
X155311050Y-74633941D01*
X155330267Y-74628933D01*
X155339838Y-74626386D01*
X155367809Y-74615249D01*
X155409448Y-74596802D01*
X155460995Y-74572725D01*
X155518690Y-74544699D01*
X155529957Y-74539154D01*
X155707687Y-74459889D01*
X155877490Y-74400385D01*
X156041430Y-74360245D01*
X156201571Y-74339071D01*
X156359977Y-74336466D01*
X156518711Y-74352033D01*
G37*
X156518711Y-74352033D02*
X156614268Y-74369523D01*
X156778558Y-74414564D01*
X156932589Y-74477656D01*
X157078509Y-74559915D01*
X157218466Y-74662457D01*
X157354608Y-74786399D01*
X157398473Y-74831661D01*
X157510758Y-74963865D01*
X157603972Y-75101832D01*
X157680719Y-75249750D01*
X157743603Y-75411803D01*
X157747420Y-75423391D01*
X157797507Y-75609392D01*
X157830899Y-75805521D01*
X157847584Y-76007568D01*
X157847551Y-76211325D01*
X157830791Y-76412581D01*
X157797292Y-76607128D01*
X157747044Y-76790756D01*
X157703190Y-76908053D01*
X157625348Y-77070951D01*
X157531828Y-77224866D01*
X157424822Y-77366671D01*
X157306519Y-77493239D01*
X157179111Y-77601441D01*
X157101606Y-77654120D01*
X156974725Y-77723750D01*
X156837243Y-77782468D01*
X156695716Y-77827587D01*
X156556702Y-77856422D01*
X156542597Y-77858106D01*
X156499153Y-77861434D01*
X156441723Y-77864275D01*
X156376122Y-77866373D01*
X156308167Y-77867468D01*
X156181378Y-77865140D01*
X156033673Y-77852136D01*
X155895779Y-77827133D01*
X155762014Y-77789318D01*
X155738562Y-77780889D01*
X155690612Y-77761408D01*
X155634140Y-77736473D01*
X155572379Y-77707722D01*
X155508563Y-77676790D01*
X155445926Y-77645315D01*
X155387703Y-77614934D01*
X155337127Y-77587283D01*
X155297433Y-77563999D01*
X155271854Y-77546718D01*
X155263625Y-77537079D01*
X155265076Y-77533984D01*
X155276250Y-77514079D01*
X155297134Y-77478420D01*
X155326265Y-77429459D01*
X155362181Y-77369646D01*
X155403420Y-77301433D01*
X155448517Y-77227271D01*
X155629785Y-76930008D01*
X155676315Y-76974539D01*
X155767723Y-77052865D01*
X155881334Y-77127439D01*
X155999122Y-77181474D01*
X156119559Y-77214290D01*
X156241117Y-77225211D01*
X156282585Y-77223868D01*
X156400080Y-77205612D01*
X156510089Y-77166617D01*
X156611430Y-77107670D01*
X156702921Y-77029557D01*
X156783380Y-76933064D01*
X156851627Y-76818978D01*
X156867908Y-76784724D01*
X156913982Y-76661240D01*
X156949106Y-76522918D01*
X156973197Y-76373561D01*
X156986173Y-76216973D01*
X156987949Y-76056956D01*
X156978443Y-75897314D01*
X156957572Y-75741850D01*
X156925252Y-75594366D01*
X156881399Y-75458667D01*
X156843982Y-75372076D01*
X156779185Y-75258688D01*
X156703772Y-75165070D01*
X156617418Y-75090959D01*
X156519795Y-75036094D01*
X156410577Y-75000212D01*
X156289439Y-74983051D01*
X156220038Y-74981880D01*
X156097168Y-74996141D01*
X155981664Y-75031241D01*
X155874953Y-75086682D01*
X155778464Y-75161964D01*
X155762720Y-75176440D01*
X155732150Y-75202962D01*
X155709809Y-75220138D01*
X155699691Y-75224787D01*
X155697706Y-75222597D01*
X155683241Y-75203721D01*
X155659400Y-75170397D01*
X155628029Y-75125380D01*
X155590974Y-75071425D01*
X155550083Y-75011285D01*
X155507202Y-74947718D01*
X155464178Y-74883476D01*
X155422857Y-74821315D01*
X155385086Y-74763991D01*
X155352712Y-74714257D01*
X155327582Y-74674868D01*
X155311542Y-74648580D01*
X155306439Y-74638147D01*
X155311050Y-74633941D01*
X155330267Y-74628933D01*
X155339838Y-74626386D01*
X155367809Y-74615249D01*
X155409448Y-74596802D01*
X155460995Y-74572725D01*
X155518690Y-74544699D01*
X155529957Y-74539154D01*
X155707687Y-74459889D01*
X155877490Y-74400385D01*
X156041430Y-74360245D01*
X156201571Y-74339071D01*
X156359977Y-74336466D01*
X156518711Y-74352033D01*
X150343493Y-75862245D02*
X150343474Y-76096662D01*
X150343474Y-76096662D02*
X150343448Y-76309603D01*
X150343448Y-76309603D02*
X150343375Y-76502168D01*
X150343375Y-76502168D02*
X150343218Y-76675459D01*
X150343218Y-76675459D02*
X150342936Y-76830576D01*
X150342936Y-76830576D02*
X150342491Y-76968620D01*
X150342491Y-76968620D02*
X150341844Y-77090692D01*
X150341844Y-77090692D02*
X150340955Y-77197894D01*
X150340955Y-77197894D02*
X150339787Y-77291326D01*
X150339787Y-77291326D02*
X150338299Y-77372090D01*
X150338299Y-77372090D02*
X150336454Y-77441286D01*
X150336454Y-77441286D02*
X150334211Y-77500015D01*
X150334211Y-77500015D02*
X150331531Y-77549379D01*
X150331531Y-77549379D02*
X150328377Y-77590478D01*
X150328377Y-77590478D02*
X150324708Y-77624413D01*
X150324708Y-77624413D02*
X150320487Y-77652286D01*
X150320487Y-77652286D02*
X150315673Y-77675198D01*
X150315673Y-77675198D02*
X150310227Y-77694249D01*
X150310227Y-77694249D02*
X150304112Y-77710540D01*
X150304112Y-77710540D02*
X150297288Y-77725173D01*
X150297288Y-77725173D02*
X150289715Y-77739249D01*
X150289715Y-77739249D02*
X150281355Y-77753868D01*
X150281355Y-77753868D02*
X150276161Y-77762974D01*
X150276161Y-77762974D02*
X150241896Y-77823689D01*
X150241896Y-77823689D02*
X151100045Y-77823689D01*
X151100045Y-77823689D02*
X151100045Y-77727733D01*
X151100045Y-77727733D02*
X151100776Y-77684370D01*
X151100776Y-77684370D02*
X151102728Y-77651205D01*
X151102728Y-77651205D02*
X151105537Y-77633424D01*
X151105537Y-77633424D02*
X151106779Y-77631778D01*
X151106779Y-77631778D02*
X151118201Y-77638662D01*
X151118201Y-77638662D02*
X151140916Y-77656505D01*
X151140916Y-77656505D02*
X151163615Y-77675879D01*
X151163615Y-77675879D02*
X151218200Y-77716614D01*
X151218200Y-77716614D02*
X151287679Y-77757617D01*
X151287679Y-77757617D02*
X151364730Y-77795123D01*
X151364730Y-77795123D02*
X151442035Y-77825364D01*
X151442035Y-77825364D02*
X151472887Y-77835012D01*
X151472887Y-77835012D02*
X151541384Y-77849578D01*
X151541384Y-77849578D02*
X151624236Y-77859539D01*
X151624236Y-77859539D02*
X151713629Y-77864583D01*
X151713629Y-77864583D02*
X151801752Y-77864396D01*
X151801752Y-77864396D02*
X151880793Y-77858666D01*
X151880793Y-77858666D02*
X151918489Y-77852858D01*
X151918489Y-77852858D02*
X152056586Y-77814797D01*
X152056586Y-77814797D02*
X152183887Y-77757073D01*
X152183887Y-77757073D02*
X152299708Y-77680211D01*
X152299708Y-77680211D02*
X152403363Y-77584739D01*
X152403363Y-77584739D02*
X152494167Y-77471179D01*
X152494167Y-77471179D02*
X152560969Y-77360381D01*
X152560969Y-77360381D02*
X152615836Y-77243625D01*
X152615836Y-77243625D02*
X152657837Y-77124276D01*
X152657837Y-77124276D02*
X152687833Y-76998283D01*
X152687833Y-76998283D02*
X152706689Y-76861594D01*
X152706689Y-76861594D02*
X152715268Y-76710158D01*
X152715268Y-76710158D02*
X152715994Y-76632711D01*
X152715994Y-76632711D02*
X152713900Y-76575934D01*
X152713900Y-76575934D02*
X151884783Y-76575934D01*
X151884783Y-76575934D02*
X151884576Y-76669002D01*
X151884576Y-76669002D02*
X151881663Y-76756692D01*
X151881663Y-76756692D02*
X151876000Y-76833772D01*
X151876000Y-76833772D02*
X151867545Y-76895009D01*
X151867545Y-76895009D02*
X151864962Y-76907350D01*
X151864962Y-76907350D02*
X151833160Y-77014633D01*
X151833160Y-77014633D02*
X151791502Y-77101658D01*
X151791502Y-77101658D02*
X151739637Y-77168642D01*
X151739637Y-77168642D02*
X151677219Y-77215805D01*
X151677219Y-77215805D02*
X151603900Y-77243365D01*
X151603900Y-77243365D02*
X151519331Y-77251541D01*
X151519331Y-77251541D02*
X151423165Y-77240551D01*
X151423165Y-77240551D02*
X151359689Y-77224829D01*
X151359689Y-77224829D02*
X151310546Y-77206639D01*
X151310546Y-77206639D02*
X151256417Y-77180791D01*
X151256417Y-77180791D02*
X151215756Y-77157089D01*
X151215756Y-77157089D02*
X151145200Y-77110721D01*
X151145200Y-77110721D02*
X151145200Y-75960530D01*
X151145200Y-75960530D02*
X151212608Y-75916962D01*
X151212608Y-75916962D02*
X151291133Y-75876040D01*
X151291133Y-75876040D02*
X151375319Y-75849389D01*
X151375319Y-75849389D02*
X151460443Y-75837465D01*
X151460443Y-75837465D02*
X151541784Y-75840722D01*
X151541784Y-75840722D02*
X151614620Y-75859615D01*
X151614620Y-75859615D02*
X151646574Y-75875184D01*
X151646574Y-75875184D02*
X151704499Y-75918181D01*
X151704499Y-75918181D02*
X151753456Y-75974953D01*
X151753456Y-75974953D02*
X151794610Y-76047575D01*
X151794610Y-76047575D02*
X151829126Y-76138121D01*
X151829126Y-76138121D02*
X151858167Y-76248666D01*
X151858167Y-76248666D02*
X151859448Y-76254533D01*
X151859448Y-76254533D02*
X151869619Y-76316788D01*
X151869619Y-76316788D02*
X151877261Y-76394594D01*
X151877261Y-76394594D02*
X151882330Y-76482720D01*
X151882330Y-76482720D02*
X151884783Y-76575934D01*
X151884783Y-76575934D02*
X152713900Y-76575934D01*
X152713900Y-76575934D02*
X152708143Y-76419895D01*
X152708143Y-76419895D02*
X152686198Y-76224059D01*
X152686198Y-76224059D02*
X152650214Y-76045332D01*
X152650214Y-76045332D02*
X152600241Y-75883845D01*
X152600241Y-75883845D02*
X152536332Y-75739726D01*
X152536332Y-75739726D02*
X152458538Y-75613106D01*
X152458538Y-75613106D02*
X152366911Y-75504115D01*
X152366911Y-75504115D02*
X152261503Y-75412883D01*
X152261503Y-75412883D02*
X152216338Y-75381932D01*
X152216338Y-75381932D02*
X152115389Y-75325785D01*
X152115389Y-75325785D02*
X152012099Y-75286174D01*
X152012099Y-75286174D02*
X151902011Y-75262014D01*
X151902011Y-75262014D02*
X151780670Y-75252219D01*
X151780670Y-75252219D02*
X151688164Y-75253265D01*
X151688164Y-75253265D02*
X151558510Y-75264231D01*
X151558510Y-75264231D02*
X151445916Y-75286046D01*
X151445916Y-75286046D02*
X151347125Y-75319714D01*
X151347125Y-75319714D02*
X151258879Y-75366236D01*
X151258879Y-75366236D02*
X151210014Y-75400448D01*
X151210014Y-75400448D02*
X151180647Y-75422362D01*
X151180647Y-75422362D02*
X151158957Y-75437333D01*
X151158957Y-75437333D02*
X151150747Y-75441733D01*
X151150747Y-75441733D02*
X151149132Y-75430904D01*
X151149132Y-75430904D02*
X151147841Y-75400251D01*
X151147841Y-75400251D02*
X151146862Y-75352526D01*
X151146862Y-75352526D02*
X151146183Y-75290479D01*
X151146183Y-75290479D02*
X151145790Y-75216862D01*
X151145790Y-75216862D02*
X151145670Y-75134427D01*
X151145670Y-75134427D02*
X151145812Y-75045925D01*
X151145812Y-75045925D02*
X151146203Y-74954107D01*
X151146203Y-74954107D02*
X151146829Y-74861724D01*
X151146829Y-74861724D02*
X151147680Y-74771528D01*
X151147680Y-74771528D02*
X151148740Y-74686271D01*
X151148740Y-74686271D02*
X151149999Y-74608703D01*
X151149999Y-74608703D02*
X151151444Y-74541576D01*
X151151444Y-74541576D02*
X151153062Y-74487641D01*
X151153062Y-74487641D02*
X151154839Y-74449650D01*
X151154839Y-74449650D02*
X151155331Y-74442667D01*
X151155331Y-74442667D02*
X151162908Y-74372251D01*
X151162908Y-74372251D02*
X151174469Y-74317102D01*
X151174469Y-74317102D02*
X151192208Y-74269981D01*
X151192208Y-74269981D02*
X151218318Y-74223647D01*
X151218318Y-74223647D02*
X151224585Y-74214067D01*
X151224585Y-74214067D02*
X151249017Y-74177378D01*
X151249017Y-74177378D02*
X150343689Y-74177378D01*
X150343689Y-74177378D02*
X150343493Y-75862245D01*
X150343493Y-75862245D02*
X150343493Y-75862245D01*
G36*
X152715268Y-76710158D02*
G01*
X152706689Y-76861594D01*
X152687833Y-76998283D01*
X152657837Y-77124276D01*
X152615836Y-77243625D01*
X152560969Y-77360381D01*
X152494167Y-77471179D01*
X152403363Y-77584739D01*
X152299708Y-77680211D01*
X152183887Y-77757073D01*
X152056586Y-77814797D01*
X151918489Y-77852858D01*
X151880793Y-77858666D01*
X151801752Y-77864396D01*
X151713629Y-77864583D01*
X151624236Y-77859539D01*
X151541384Y-77849578D01*
X151472887Y-77835012D01*
X151442035Y-77825364D01*
X151364730Y-77795123D01*
X151287679Y-77757617D01*
X151218200Y-77716614D01*
X151163615Y-77675879D01*
X151140916Y-77656505D01*
X151118201Y-77638662D01*
X151106779Y-77631778D01*
X151105537Y-77633424D01*
X151102728Y-77651205D01*
X151100776Y-77684370D01*
X151100045Y-77727733D01*
X151100045Y-77823689D01*
X150241896Y-77823689D01*
X150276161Y-77762974D01*
X150281355Y-77753868D01*
X150289715Y-77739249D01*
X150297288Y-77725173D01*
X150304112Y-77710540D01*
X150310227Y-77694249D01*
X150315673Y-77675198D01*
X150320487Y-77652286D01*
X150324708Y-77624413D01*
X150328377Y-77590478D01*
X150331531Y-77549379D01*
X150334211Y-77500015D01*
X150336454Y-77441286D01*
X150338299Y-77372090D01*
X150339787Y-77291326D01*
X150340955Y-77197894D01*
X150341844Y-77090692D01*
X150342491Y-76968620D01*
X150342936Y-76830576D01*
X150343218Y-76675459D01*
X150343375Y-76502168D01*
X150343448Y-76309603D01*
X150343474Y-76096662D01*
X150343485Y-75960530D01*
X151145200Y-75960530D01*
X151145200Y-77110721D01*
X151215756Y-77157089D01*
X151256417Y-77180791D01*
X151310546Y-77206639D01*
X151359689Y-77224829D01*
X151423165Y-77240551D01*
X151519331Y-77251541D01*
X151603900Y-77243365D01*
X151677219Y-77215805D01*
X151739637Y-77168642D01*
X151791502Y-77101658D01*
X151833160Y-77014633D01*
X151864962Y-76907350D01*
X151867545Y-76895009D01*
X151876000Y-76833772D01*
X151881663Y-76756692D01*
X151884576Y-76669002D01*
X151884783Y-76575934D01*
X151882330Y-76482720D01*
X151877261Y-76394594D01*
X151869619Y-76316788D01*
X151859448Y-76254533D01*
X151858167Y-76248666D01*
X151829126Y-76138121D01*
X151794610Y-76047575D01*
X151753456Y-75974953D01*
X151704499Y-75918181D01*
X151646574Y-75875184D01*
X151614620Y-75859615D01*
X151541784Y-75840722D01*
X151460443Y-75837465D01*
X151375319Y-75849389D01*
X151291133Y-75876040D01*
X151212608Y-75916962D01*
X151145200Y-75960530D01*
X150343485Y-75960530D01*
X150343493Y-75862245D01*
X150343689Y-74177378D01*
X151249017Y-74177378D01*
X151224585Y-74214067D01*
X151218318Y-74223647D01*
X151192208Y-74269981D01*
X151174469Y-74317102D01*
X151162908Y-74372251D01*
X151155331Y-74442667D01*
X151154839Y-74449650D01*
X151153062Y-74487641D01*
X151151444Y-74541576D01*
X151149999Y-74608703D01*
X151148740Y-74686271D01*
X151147680Y-74771528D01*
X151146829Y-74861724D01*
X151146203Y-74954107D01*
X151145812Y-75045925D01*
X151145670Y-75134427D01*
X151145790Y-75216862D01*
X151146183Y-75290479D01*
X151146862Y-75352526D01*
X151147841Y-75400251D01*
X151149132Y-75430904D01*
X151150747Y-75441733D01*
X151158957Y-75437333D01*
X151180647Y-75422362D01*
X151210014Y-75400448D01*
X151258879Y-75366236D01*
X151347125Y-75319714D01*
X151445916Y-75286046D01*
X151558510Y-75264231D01*
X151688164Y-75253265D01*
X151780670Y-75252219D01*
X151902011Y-75262014D01*
X152012099Y-75286174D01*
X152115389Y-75325785D01*
X152216338Y-75381932D01*
X152261503Y-75412883D01*
X152366911Y-75504115D01*
X152458538Y-75613106D01*
X152536332Y-75739726D01*
X152600241Y-75883845D01*
X152650214Y-76045332D01*
X152686198Y-76224059D01*
X152708143Y-76419895D01*
X152713900Y-76575934D01*
X152715994Y-76632711D01*
X152715268Y-76710158D01*
G37*
X152715268Y-76710158D02*
X152706689Y-76861594D01*
X152687833Y-76998283D01*
X152657837Y-77124276D01*
X152615836Y-77243625D01*
X152560969Y-77360381D01*
X152494167Y-77471179D01*
X152403363Y-77584739D01*
X152299708Y-77680211D01*
X152183887Y-77757073D01*
X152056586Y-77814797D01*
X151918489Y-77852858D01*
X151880793Y-77858666D01*
X151801752Y-77864396D01*
X151713629Y-77864583D01*
X151624236Y-77859539D01*
X151541384Y-77849578D01*
X151472887Y-77835012D01*
X151442035Y-77825364D01*
X151364730Y-77795123D01*
X151287679Y-77757617D01*
X151218200Y-77716614D01*
X151163615Y-77675879D01*
X151140916Y-77656505D01*
X151118201Y-77638662D01*
X151106779Y-77631778D01*
X151105537Y-77633424D01*
X151102728Y-77651205D01*
X151100776Y-77684370D01*
X151100045Y-77727733D01*
X151100045Y-77823689D01*
X150241896Y-77823689D01*
X150276161Y-77762974D01*
X150281355Y-77753868D01*
X150289715Y-77739249D01*
X150297288Y-77725173D01*
X150304112Y-77710540D01*
X150310227Y-77694249D01*
X150315673Y-77675198D01*
X150320487Y-77652286D01*
X150324708Y-77624413D01*
X150328377Y-77590478D01*
X150331531Y-77549379D01*
X150334211Y-77500015D01*
X150336454Y-77441286D01*
X150338299Y-77372090D01*
X150339787Y-77291326D01*
X150340955Y-77197894D01*
X150341844Y-77090692D01*
X150342491Y-76968620D01*
X150342936Y-76830576D01*
X150343218Y-76675459D01*
X150343375Y-76502168D01*
X150343448Y-76309603D01*
X150343474Y-76096662D01*
X150343485Y-75960530D01*
X151145200Y-75960530D01*
X151145200Y-77110721D01*
X151215756Y-77157089D01*
X151256417Y-77180791D01*
X151310546Y-77206639D01*
X151359689Y-77224829D01*
X151423165Y-77240551D01*
X151519331Y-77251541D01*
X151603900Y-77243365D01*
X151677219Y-77215805D01*
X151739637Y-77168642D01*
X151791502Y-77101658D01*
X151833160Y-77014633D01*
X151864962Y-76907350D01*
X151867545Y-76895009D01*
X151876000Y-76833772D01*
X151881663Y-76756692D01*
X151884576Y-76669002D01*
X151884783Y-76575934D01*
X151882330Y-76482720D01*
X151877261Y-76394594D01*
X151869619Y-76316788D01*
X151859448Y-76254533D01*
X151858167Y-76248666D01*
X151829126Y-76138121D01*
X151794610Y-76047575D01*
X151753456Y-75974953D01*
X151704499Y-75918181D01*
X151646574Y-75875184D01*
X151614620Y-75859615D01*
X151541784Y-75840722D01*
X151460443Y-75837465D01*
X151375319Y-75849389D01*
X151291133Y-75876040D01*
X151212608Y-75916962D01*
X151145200Y-75960530D01*
X150343485Y-75960530D01*
X150343493Y-75862245D01*
X150343689Y-74177378D01*
X151249017Y-74177378D01*
X151224585Y-74214067D01*
X151218318Y-74223647D01*
X151192208Y-74269981D01*
X151174469Y-74317102D01*
X151162908Y-74372251D01*
X151155331Y-74442667D01*
X151154839Y-74449650D01*
X151153062Y-74487641D01*
X151151444Y-74541576D01*
X151149999Y-74608703D01*
X151148740Y-74686271D01*
X151147680Y-74771528D01*
X151146829Y-74861724D01*
X151146203Y-74954107D01*
X151145812Y-75045925D01*
X151145670Y-75134427D01*
X151145790Y-75216862D01*
X151146183Y-75290479D01*
X151146862Y-75352526D01*
X151147841Y-75400251D01*
X151149132Y-75430904D01*
X151150747Y-75441733D01*
X151158957Y-75437333D01*
X151180647Y-75422362D01*
X151210014Y-75400448D01*
X151258879Y-75366236D01*
X151347125Y-75319714D01*
X151445916Y-75286046D01*
X151558510Y-75264231D01*
X151688164Y-75253265D01*
X151780670Y-75252219D01*
X151902011Y-75262014D01*
X152012099Y-75286174D01*
X152115389Y-75325785D01*
X152216338Y-75381932D01*
X152261503Y-75412883D01*
X152366911Y-75504115D01*
X152458538Y-75613106D01*
X152536332Y-75739726D01*
X152600241Y-75883845D01*
X152650214Y-76045332D01*
X152686198Y-76224059D01*
X152708143Y-76419895D01*
X152713900Y-76575934D01*
X152715994Y-76632711D01*
X152715268Y-76710158D01*
D13*
X175940000Y-93100000D03*
X175940000Y-84100000D03*
X137340000Y-105170000D03*
X137340000Y-96170000D03*
X137280000Y-83730000D03*
X137280000Y-92730000D03*
M02*
