G04 #@! TF.GenerationSoftware,KiCad,Pcbnew,(5.99.0-8045-ga69a4be853)*
G04 #@! TF.CreationDate,2021-01-01T20:50:11-08:00*
G04 #@! TF.ProjectId,gtb-6layer-no-mask,6774622d-366c-4617-9965-722d6e6f2d6d,rev?*
G04 #@! TF.SameCoordinates,Original*
G04 #@! TF.FileFunction,Soldermask,Top*
G04 #@! TF.FilePolarity,Negative*
%FSLAX46Y46*%
G04 Gerber Fmt 4.6, Leading zero omitted, Abs format (unit mm)*
G04 Created by KiCad (PCBNEW (5.99.0-8045-ga69a4be853)) date 2021-01-01 20:50:11*
%MOMM*%
%LPD*%
G01*
G04 APERTURE LIST*
%ADD10C,0.100000*%
%ADD11R,1.600000X1.600000*%
%ADD12C,1.600000*%
%ADD13C,1.998980*%
%ADD14R,1.800000X1.800000*%
%ADD15C,1.800000*%
%ADD16O,1.600000X1.600000*%
G04 APERTURE END LIST*
D10*
X177800000Y-81915000D02*
X177800000Y-106680000D01*
X177800000Y-106680000D02*
X156427159Y-119133602D01*
X156427159Y-119133602D02*
X135255000Y-106680000D01*
X135255000Y-106680000D02*
X134984802Y-81921928D01*
X134984802Y-81921928D02*
X156210000Y-69850000D01*
X156210000Y-69850000D02*
X156845000Y-69850000D01*
X156845000Y-69850000D02*
X177800000Y-81915000D01*
G36*
X177800000Y-81915000D02*
G01*
X177800000Y-106680000D01*
X156427159Y-119133602D01*
X135255000Y-106680000D01*
X134984802Y-81921928D01*
X156210000Y-69850000D01*
X156845000Y-69850000D01*
X177800000Y-81915000D01*
G37*
X177800000Y-81915000D02*
X177800000Y-106680000D01*
X156427159Y-119133602D01*
X135255000Y-106680000D01*
X134984802Y-81921928D01*
X156210000Y-69850000D01*
X156845000Y-69850000D01*
X177800000Y-81915000D01*
D11*
X152070000Y-95270000D03*
D12*
X154610000Y-95270000D03*
X157150000Y-95270000D03*
X159690000Y-95270000D03*
X159690000Y-87650000D03*
X157150000Y-87650000D03*
X154610000Y-87650000D03*
X152070000Y-87650000D03*
D13*
X175940000Y-93100000D03*
X175940000Y-84100000D03*
X137340000Y-105170000D03*
X137340000Y-96170000D03*
X137280000Y-83730000D03*
X137280000Y-92730000D03*
D14*
X144920000Y-95340000D03*
D15*
X144920000Y-92800000D03*
D12*
X175960000Y-104290000D03*
D16*
X175960000Y-96790000D03*
D14*
X154880000Y-82800000D03*
D15*
X157420000Y-82800000D03*
D14*
X155120000Y-100090000D03*
D15*
X157660000Y-100090000D03*
D14*
X165640000Y-95080000D03*
D15*
X165640000Y-92540000D03*
M02*
