%FSLAX45Y45*%
G04 Gerber Fmt 4.5, Leading zero omitted, Abs format (unit mm)*
G04 Created by KiCad (PCBNEW (5.99.0-8437-ge27bd5cf15)) date 2021-01-20 14:38:44*
%MOMM*%
%LPD*%
G01*
G04 APERTURE LIST*
%TA.AperFunction,Profile*%
%ADD10C,0.406400*%
%TD*%
%ADD11C,0.200000*%
%ADD12C,0.040000*%
%ADD13C,0.080000*%
%ADD14C,0.090000*%
%ADD15C,0.100000*%
%ADD16C,0.100076*%
G04 APERTURE END LIST*
D10*
X17846358Y-8170926D02*
X17846358Y-10710926D01*
X13446950Y-10710926D02*
X13446950Y-8170926D01*
X15646654Y-6900926D02*
X17846358Y-8170926D01*
X13446950Y-8170926D02*
X15646654Y-6900926D01*
X15646654Y-11980926D02*
X13446950Y-10710926D01*
X17846358Y-10710926D02*
X15646654Y-11980926D01*
D11*
D12*
X14840000Y-10995000D02*
X14880000Y-11035000D01*
X14880000Y-10995000D02*
X14840000Y-11035000D01*
X15628000Y-10981000D02*
X15668000Y-11021000D01*
X15668000Y-10981000D02*
X15628000Y-11021000D01*
X16422000Y-10988000D02*
X16462000Y-11028000D01*
X16462000Y-10988000D02*
X16422000Y-11028000D01*
D13*
X17636000Y-9679000D02*
G75*
G03*
X17636000Y-9679000I-40000J0D01*
G01*
X17636000Y-10429000D02*
G75*
G03*
X17636000Y-10429000I-40000J0D01*
G01*
D14*
X14492000Y-9235000D02*
X14492000Y-9325000D01*
X14447000Y-9280000D02*
X14537000Y-9280000D01*
X14492000Y-9489000D02*
X14492000Y-9579000D01*
X14447000Y-9534000D02*
X14537000Y-9534000D01*
X15488000Y-8235000D02*
X15488000Y-8325000D01*
X15443000Y-8280000D02*
X15533000Y-8280000D01*
X15512000Y-9964000D02*
X15512000Y-10054000D01*
X15467000Y-10009000D02*
X15557000Y-10009000D01*
X15742000Y-8235000D02*
X15742000Y-8325000D01*
X15697000Y-8280000D02*
X15787000Y-8280000D01*
X15766000Y-9964000D02*
X15766000Y-10054000D01*
X15721000Y-10009000D02*
X15811000Y-10009000D01*
X16564000Y-9209000D02*
X16564000Y-9299000D01*
X16519000Y-9254000D02*
X16609000Y-9254000D01*
X16564000Y-9463000D02*
X16564000Y-9553000D01*
X16519000Y-9508000D02*
X16609000Y-9508000D01*
D15*
X15242356Y-8800356D02*
X15242356Y-8729644D01*
X15171644Y-8729644D01*
X15171644Y-8800356D01*
X15242356Y-8800356D01*
X15242356Y-9562356D02*
X15242356Y-9491644D01*
X15171644Y-9491644D01*
X15171644Y-9562356D01*
X15242356Y-9562356D01*
X15496356Y-8800356D02*
X15496356Y-8729644D01*
X15425644Y-8729644D01*
X15425644Y-8800356D01*
X15496356Y-8800356D01*
X15496356Y-9562356D02*
X15496356Y-9491644D01*
X15425644Y-9491644D01*
X15425644Y-9562356D01*
X15496356Y-9562356D01*
X15750356Y-8800356D02*
X15750356Y-8729644D01*
X15679644Y-8729644D01*
X15679644Y-8800356D01*
X15750356Y-8800356D01*
X15750356Y-9562356D02*
X15750356Y-9491644D01*
X15679644Y-9491644D01*
X15679644Y-9562356D01*
X15750356Y-9562356D01*
X16004356Y-8800356D02*
X16004356Y-8729644D01*
X15933644Y-8729644D01*
X15933644Y-8800356D01*
X16004356Y-8800356D01*
X16004356Y-9562356D02*
X16004356Y-9491644D01*
X15933644Y-9491644D01*
X15933644Y-9562356D01*
X16004356Y-9562356D01*
D16*
X13728000Y-8423038D02*
X13778038Y-8373000D01*
X13728000Y-8322962D01*
X13677962Y-8373000D01*
X13728000Y-8423038D01*
X13728000Y-9323038D02*
X13778038Y-9273000D01*
X13728000Y-9222962D01*
X13677962Y-9273000D01*
X13728000Y-9323038D01*
X13734000Y-9667038D02*
X13784038Y-9617000D01*
X13734000Y-9566962D01*
X13683962Y-9617000D01*
X13734000Y-9667038D01*
X13734000Y-10567038D02*
X13784038Y-10517000D01*
X13734000Y-10466962D01*
X13683962Y-10517000D01*
X13734000Y-10567038D01*
X17594000Y-8460038D02*
X17644038Y-8410000D01*
X17594000Y-8359962D01*
X17543962Y-8410000D01*
X17594000Y-8460038D01*
X17594000Y-9360038D02*
X17644038Y-9310000D01*
X17594000Y-9259962D01*
X17543962Y-9310000D01*
X17594000Y-9360038D01*
D11*
X13684249Y-12311722D02*
X13684249Y-12111722D01*
X13731868Y-12111722D01*
X13760439Y-12121246D01*
X13779487Y-12140293D01*
X13789011Y-12159341D01*
X13798534Y-12197436D01*
X13798534Y-12226007D01*
X13789011Y-12264103D01*
X13779487Y-12283150D01*
X13760439Y-12302198D01*
X13731868Y-12311722D01*
X13684249Y-12311722D01*
X13884249Y-12311722D02*
X13884249Y-12178388D01*
X13884249Y-12216484D02*
X13893772Y-12197436D01*
X13903296Y-12187912D01*
X13922344Y-12178388D01*
X13941392Y-12178388D01*
X14008058Y-12311722D02*
X14008058Y-12178388D01*
X14008058Y-12111722D02*
X13998534Y-12121246D01*
X14008058Y-12130769D01*
X14017582Y-12121246D01*
X14008058Y-12111722D01*
X14008058Y-12130769D01*
X14131868Y-12311722D02*
X14112820Y-12302198D01*
X14103296Y-12283150D01*
X14103296Y-12111722D01*
X14236630Y-12311722D02*
X14217582Y-12302198D01*
X14208058Y-12283150D01*
X14208058Y-12111722D01*
X14465201Y-12311722D02*
X14465201Y-12111722D01*
X14531868Y-12254579D01*
X14598534Y-12111722D01*
X14598534Y-12311722D01*
X14779487Y-12311722D02*
X14779487Y-12206960D01*
X14769963Y-12187912D01*
X14750915Y-12178388D01*
X14712820Y-12178388D01*
X14693772Y-12187912D01*
X14779487Y-12302198D02*
X14760439Y-12311722D01*
X14712820Y-12311722D01*
X14693772Y-12302198D01*
X14684249Y-12283150D01*
X14684249Y-12264103D01*
X14693772Y-12245055D01*
X14712820Y-12235531D01*
X14760439Y-12235531D01*
X14779487Y-12226007D01*
X14874725Y-12178388D02*
X14874725Y-12378388D01*
X14874725Y-12187912D02*
X14893772Y-12178388D01*
X14931868Y-12178388D01*
X14950915Y-12187912D01*
X14960439Y-12197436D01*
X14969963Y-12216484D01*
X14969963Y-12273626D01*
X14960439Y-12292674D01*
X14950915Y-12302198D01*
X14931868Y-12311722D01*
X14893772Y-12311722D01*
X14874725Y-12302198D01*
X15055677Y-12292674D02*
X15065201Y-12302198D01*
X15055677Y-12311722D01*
X15046153Y-12302198D01*
X15055677Y-12292674D01*
X15055677Y-12311722D01*
X15055677Y-12187912D02*
X15065201Y-12197436D01*
X15055677Y-12206960D01*
X15046153Y-12197436D01*
X15055677Y-12187912D01*
X15055677Y-12206960D01*
D12*
X13386630Y-12621246D02*
X13426630Y-12661246D01*
X13426630Y-12621246D02*
X13386630Y-12661246D01*
D11*
X13722344Y-12531722D02*
X13741392Y-12531722D01*
X13760439Y-12541246D01*
X13769963Y-12550769D01*
X13779487Y-12569817D01*
X13789011Y-12607912D01*
X13789011Y-12655531D01*
X13779487Y-12693626D01*
X13769963Y-12712674D01*
X13760439Y-12722198D01*
X13741392Y-12731722D01*
X13722344Y-12731722D01*
X13703296Y-12722198D01*
X13693772Y-12712674D01*
X13684249Y-12693626D01*
X13674725Y-12655531D01*
X13674725Y-12607912D01*
X13684249Y-12569817D01*
X13693772Y-12550769D01*
X13703296Y-12541246D01*
X13722344Y-12531722D01*
X13874725Y-12712674D02*
X13884249Y-12722198D01*
X13874725Y-12731722D01*
X13865201Y-12722198D01*
X13874725Y-12712674D01*
X13874725Y-12731722D01*
X14055677Y-12598388D02*
X14055677Y-12731722D01*
X14008058Y-12522198D02*
X13960439Y-12665055D01*
X14084249Y-12665055D01*
X14198534Y-12531722D02*
X14217582Y-12531722D01*
X14236630Y-12541246D01*
X14246153Y-12550769D01*
X14255677Y-12569817D01*
X14265201Y-12607912D01*
X14265201Y-12655531D01*
X14255677Y-12693626D01*
X14246153Y-12712674D01*
X14236630Y-12722198D01*
X14217582Y-12731722D01*
X14198534Y-12731722D01*
X14179487Y-12722198D01*
X14169963Y-12712674D01*
X14160439Y-12693626D01*
X14150915Y-12655531D01*
X14150915Y-12607912D01*
X14160439Y-12569817D01*
X14169963Y-12550769D01*
X14179487Y-12541246D01*
X14198534Y-12531722D01*
X14389011Y-12531722D02*
X14408058Y-12531722D01*
X14427106Y-12541246D01*
X14436630Y-12550769D01*
X14446153Y-12569817D01*
X14455677Y-12607912D01*
X14455677Y-12655531D01*
X14446153Y-12693626D01*
X14436630Y-12712674D01*
X14427106Y-12722198D01*
X14408058Y-12731722D01*
X14389011Y-12731722D01*
X14369963Y-12722198D01*
X14360439Y-12712674D01*
X14350915Y-12693626D01*
X14341392Y-12655531D01*
X14341392Y-12607912D01*
X14350915Y-12569817D01*
X14360439Y-12550769D01*
X14369963Y-12541246D01*
X14389011Y-12531722D01*
X14541392Y-12731722D02*
X14541392Y-12598388D01*
X14541392Y-12617436D02*
X14550915Y-12607912D01*
X14569963Y-12598388D01*
X14598534Y-12598388D01*
X14617582Y-12607912D01*
X14627106Y-12626960D01*
X14627106Y-12731722D01*
X14627106Y-12626960D02*
X14636630Y-12607912D01*
X14655677Y-12598388D01*
X14684249Y-12598388D01*
X14703296Y-12607912D01*
X14712820Y-12626960D01*
X14712820Y-12731722D01*
X14808058Y-12731722D02*
X14808058Y-12598388D01*
X14808058Y-12617436D02*
X14817582Y-12607912D01*
X14836630Y-12598388D01*
X14865201Y-12598388D01*
X14884249Y-12607912D01*
X14893772Y-12626960D01*
X14893772Y-12731722D01*
X14893772Y-12626960D02*
X14903296Y-12607912D01*
X14922344Y-12598388D01*
X14950915Y-12598388D01*
X14969963Y-12607912D01*
X14979487Y-12626960D01*
X14979487Y-12731722D01*
X15369963Y-12522198D02*
X15198534Y-12779341D01*
X15627106Y-12531722D02*
X15646153Y-12531722D01*
X15665201Y-12541246D01*
X15674725Y-12550769D01*
X15684249Y-12569817D01*
X15693772Y-12607912D01*
X15693772Y-12655531D01*
X15684249Y-12693626D01*
X15674725Y-12712674D01*
X15665201Y-12722198D01*
X15646153Y-12731722D01*
X15627106Y-12731722D01*
X15608058Y-12722198D01*
X15598534Y-12712674D01*
X15589011Y-12693626D01*
X15579487Y-12655531D01*
X15579487Y-12607912D01*
X15589011Y-12569817D01*
X15598534Y-12550769D01*
X15608058Y-12541246D01*
X15627106Y-12531722D01*
X15779487Y-12712674D02*
X15789011Y-12722198D01*
X15779487Y-12731722D01*
X15769963Y-12722198D01*
X15779487Y-12712674D01*
X15779487Y-12731722D01*
X15912820Y-12531722D02*
X15931868Y-12531722D01*
X15950915Y-12541246D01*
X15960439Y-12550769D01*
X15969963Y-12569817D01*
X15979487Y-12607912D01*
X15979487Y-12655531D01*
X15969963Y-12693626D01*
X15960439Y-12712674D01*
X15950915Y-12722198D01*
X15931868Y-12731722D01*
X15912820Y-12731722D01*
X15893772Y-12722198D01*
X15884249Y-12712674D01*
X15874725Y-12693626D01*
X15865201Y-12655531D01*
X15865201Y-12607912D01*
X15874725Y-12569817D01*
X15884249Y-12550769D01*
X15893772Y-12541246D01*
X15912820Y-12531722D01*
X16169963Y-12731722D02*
X16055677Y-12731722D01*
X16112820Y-12731722D02*
X16112820Y-12531722D01*
X16093772Y-12560293D01*
X16074725Y-12579341D01*
X16055677Y-12588865D01*
X16350915Y-12531722D02*
X16255677Y-12531722D01*
X16246153Y-12626960D01*
X16255677Y-12617436D01*
X16274725Y-12607912D01*
X16322344Y-12607912D01*
X16341392Y-12617436D01*
X16350915Y-12626960D01*
X16360439Y-12646007D01*
X16360439Y-12693626D01*
X16350915Y-12712674D01*
X16341392Y-12722198D01*
X16322344Y-12731722D01*
X16274725Y-12731722D01*
X16255677Y-12722198D01*
X16246153Y-12712674D01*
X16427106Y-12531722D02*
X16560439Y-12531722D01*
X16474725Y-12731722D01*
X16627106Y-12531722D02*
X16627106Y-12569817D01*
X16703296Y-12531722D02*
X16703296Y-12569817D01*
X16998534Y-12807912D02*
X16989011Y-12798388D01*
X16969963Y-12769817D01*
X16960439Y-12750769D01*
X16950915Y-12722198D01*
X16941392Y-12674579D01*
X16941392Y-12636484D01*
X16950915Y-12588865D01*
X16960439Y-12560293D01*
X16969963Y-12541246D01*
X16989011Y-12512674D01*
X16998534Y-12503150D01*
X17055677Y-12531722D02*
X17179487Y-12531722D01*
X17112820Y-12607912D01*
X17141392Y-12607912D01*
X17160439Y-12617436D01*
X17169963Y-12626960D01*
X17179487Y-12646007D01*
X17179487Y-12693626D01*
X17169963Y-12712674D01*
X17160439Y-12722198D01*
X17141392Y-12731722D01*
X17084249Y-12731722D01*
X17065201Y-12722198D01*
X17055677Y-12712674D01*
X17417582Y-12731722D02*
X17417582Y-12531722D01*
X17503296Y-12731722D02*
X17503296Y-12626960D01*
X17493773Y-12607912D01*
X17474725Y-12598388D01*
X17446154Y-12598388D01*
X17427106Y-12607912D01*
X17417582Y-12617436D01*
X17627106Y-12731722D02*
X17608058Y-12722198D01*
X17598534Y-12712674D01*
X17589011Y-12693626D01*
X17589011Y-12636484D01*
X17598534Y-12617436D01*
X17608058Y-12607912D01*
X17627106Y-12598388D01*
X17655677Y-12598388D01*
X17674725Y-12607912D01*
X17684249Y-12617436D01*
X17693773Y-12636484D01*
X17693773Y-12693626D01*
X17684249Y-12712674D01*
X17674725Y-12722198D01*
X17655677Y-12731722D01*
X17627106Y-12731722D01*
X17808058Y-12731722D02*
X17789011Y-12722198D01*
X17779487Y-12703150D01*
X17779487Y-12531722D01*
X17960439Y-12722198D02*
X17941392Y-12731722D01*
X17903296Y-12731722D01*
X17884249Y-12722198D01*
X17874725Y-12703150D01*
X17874725Y-12626960D01*
X17884249Y-12607912D01*
X17903296Y-12598388D01*
X17941392Y-12598388D01*
X17960439Y-12607912D01*
X17969963Y-12626960D01*
X17969963Y-12646007D01*
X17874725Y-12665055D01*
X18046154Y-12722198D02*
X18065201Y-12731722D01*
X18103296Y-12731722D01*
X18122344Y-12722198D01*
X18131868Y-12703150D01*
X18131868Y-12693626D01*
X18122344Y-12674579D01*
X18103296Y-12665055D01*
X18074725Y-12665055D01*
X18055677Y-12655531D01*
X18046154Y-12636484D01*
X18046154Y-12626960D01*
X18055677Y-12607912D01*
X18074725Y-12598388D01*
X18103296Y-12598388D01*
X18122344Y-12607912D01*
X18198534Y-12807912D02*
X18208058Y-12798388D01*
X18227106Y-12769817D01*
X18236630Y-12750769D01*
X18246154Y-12722198D01*
X18255677Y-12674579D01*
X18255677Y-12636484D01*
X18246154Y-12588865D01*
X18236630Y-12560293D01*
X18227106Y-12541246D01*
X18208058Y-12512674D01*
X18198534Y-12503150D01*
D13*
X13426630Y-12905246D02*
G75*
G03*
X13426630Y-12905246I-40000J0D01*
G01*
D11*
X13722344Y-12795722D02*
X13741392Y-12795722D01*
X13760439Y-12805246D01*
X13769963Y-12814769D01*
X13779487Y-12833817D01*
X13789011Y-12871912D01*
X13789011Y-12919531D01*
X13779487Y-12957626D01*
X13769963Y-12976674D01*
X13760439Y-12986198D01*
X13741392Y-12995722D01*
X13722344Y-12995722D01*
X13703296Y-12986198D01*
X13693772Y-12976674D01*
X13684249Y-12957626D01*
X13674725Y-12919531D01*
X13674725Y-12871912D01*
X13684249Y-12833817D01*
X13693772Y-12814769D01*
X13703296Y-12805246D01*
X13722344Y-12795722D01*
X13874725Y-12976674D02*
X13884249Y-12986198D01*
X13874725Y-12995722D01*
X13865201Y-12986198D01*
X13874725Y-12976674D01*
X13874725Y-12995722D01*
X13998534Y-12881436D02*
X13979487Y-12871912D01*
X13969963Y-12862388D01*
X13960439Y-12843341D01*
X13960439Y-12833817D01*
X13969963Y-12814769D01*
X13979487Y-12805246D01*
X13998534Y-12795722D01*
X14036630Y-12795722D01*
X14055677Y-12805246D01*
X14065201Y-12814769D01*
X14074725Y-12833817D01*
X14074725Y-12843341D01*
X14065201Y-12862388D01*
X14055677Y-12871912D01*
X14036630Y-12881436D01*
X13998534Y-12881436D01*
X13979487Y-12890960D01*
X13969963Y-12900484D01*
X13960439Y-12919531D01*
X13960439Y-12957626D01*
X13969963Y-12976674D01*
X13979487Y-12986198D01*
X13998534Y-12995722D01*
X14036630Y-12995722D01*
X14055677Y-12986198D01*
X14065201Y-12976674D01*
X14074725Y-12957626D01*
X14074725Y-12919531D01*
X14065201Y-12900484D01*
X14055677Y-12890960D01*
X14036630Y-12881436D01*
X14198534Y-12795722D02*
X14217582Y-12795722D01*
X14236630Y-12805246D01*
X14246153Y-12814769D01*
X14255677Y-12833817D01*
X14265201Y-12871912D01*
X14265201Y-12919531D01*
X14255677Y-12957626D01*
X14246153Y-12976674D01*
X14236630Y-12986198D01*
X14217582Y-12995722D01*
X14198534Y-12995722D01*
X14179487Y-12986198D01*
X14169963Y-12976674D01*
X14160439Y-12957626D01*
X14150915Y-12919531D01*
X14150915Y-12871912D01*
X14160439Y-12833817D01*
X14169963Y-12814769D01*
X14179487Y-12805246D01*
X14198534Y-12795722D01*
X14389011Y-12795722D02*
X14408058Y-12795722D01*
X14427106Y-12805246D01*
X14436630Y-12814769D01*
X14446153Y-12833817D01*
X14455677Y-12871912D01*
X14455677Y-12919531D01*
X14446153Y-12957626D01*
X14436630Y-12976674D01*
X14427106Y-12986198D01*
X14408058Y-12995722D01*
X14389011Y-12995722D01*
X14369963Y-12986198D01*
X14360439Y-12976674D01*
X14350915Y-12957626D01*
X14341392Y-12919531D01*
X14341392Y-12871912D01*
X14350915Y-12833817D01*
X14360439Y-12814769D01*
X14369963Y-12805246D01*
X14389011Y-12795722D01*
X14541392Y-12995722D02*
X14541392Y-12862388D01*
X14541392Y-12881436D02*
X14550915Y-12871912D01*
X14569963Y-12862388D01*
X14598534Y-12862388D01*
X14617582Y-12871912D01*
X14627106Y-12890960D01*
X14627106Y-12995722D01*
X14627106Y-12890960D02*
X14636630Y-12871912D01*
X14655677Y-12862388D01*
X14684249Y-12862388D01*
X14703296Y-12871912D01*
X14712820Y-12890960D01*
X14712820Y-12995722D01*
X14808058Y-12995722D02*
X14808058Y-12862388D01*
X14808058Y-12881436D02*
X14817582Y-12871912D01*
X14836630Y-12862388D01*
X14865201Y-12862388D01*
X14884249Y-12871912D01*
X14893772Y-12890960D01*
X14893772Y-12995722D01*
X14893772Y-12890960D02*
X14903296Y-12871912D01*
X14922344Y-12862388D01*
X14950915Y-12862388D01*
X14969963Y-12871912D01*
X14979487Y-12890960D01*
X14979487Y-12995722D01*
X15369963Y-12786198D02*
X15198534Y-13043341D01*
X15627106Y-12795722D02*
X15646153Y-12795722D01*
X15665201Y-12805246D01*
X15674725Y-12814769D01*
X15684249Y-12833817D01*
X15693772Y-12871912D01*
X15693772Y-12919531D01*
X15684249Y-12957626D01*
X15674725Y-12976674D01*
X15665201Y-12986198D01*
X15646153Y-12995722D01*
X15627106Y-12995722D01*
X15608058Y-12986198D01*
X15598534Y-12976674D01*
X15589011Y-12957626D01*
X15579487Y-12919531D01*
X15579487Y-12871912D01*
X15589011Y-12833817D01*
X15598534Y-12814769D01*
X15608058Y-12805246D01*
X15627106Y-12795722D01*
X15779487Y-12976674D02*
X15789011Y-12986198D01*
X15779487Y-12995722D01*
X15769963Y-12986198D01*
X15779487Y-12976674D01*
X15779487Y-12995722D01*
X15912820Y-12795722D02*
X15931868Y-12795722D01*
X15950915Y-12805246D01*
X15960439Y-12814769D01*
X15969963Y-12833817D01*
X15979487Y-12871912D01*
X15979487Y-12919531D01*
X15969963Y-12957626D01*
X15960439Y-12976674D01*
X15950915Y-12986198D01*
X15931868Y-12995722D01*
X15912820Y-12995722D01*
X15893772Y-12986198D01*
X15884249Y-12976674D01*
X15874725Y-12957626D01*
X15865201Y-12919531D01*
X15865201Y-12871912D01*
X15874725Y-12833817D01*
X15884249Y-12814769D01*
X15893772Y-12805246D01*
X15912820Y-12795722D01*
X16046153Y-12795722D02*
X16169963Y-12795722D01*
X16103296Y-12871912D01*
X16131868Y-12871912D01*
X16150915Y-12881436D01*
X16160439Y-12890960D01*
X16169963Y-12910007D01*
X16169963Y-12957626D01*
X16160439Y-12976674D01*
X16150915Y-12986198D01*
X16131868Y-12995722D01*
X16074725Y-12995722D01*
X16055677Y-12986198D01*
X16046153Y-12976674D01*
X16360439Y-12995722D02*
X16246153Y-12995722D01*
X16303296Y-12995722D02*
X16303296Y-12795722D01*
X16284249Y-12824293D01*
X16265201Y-12843341D01*
X16246153Y-12852865D01*
X16541392Y-12795722D02*
X16446153Y-12795722D01*
X16436630Y-12890960D01*
X16446153Y-12881436D01*
X16465201Y-12871912D01*
X16512820Y-12871912D01*
X16531868Y-12881436D01*
X16541392Y-12890960D01*
X16550915Y-12910007D01*
X16550915Y-12957626D01*
X16541392Y-12976674D01*
X16531868Y-12986198D01*
X16512820Y-12995722D01*
X16465201Y-12995722D01*
X16446153Y-12986198D01*
X16436630Y-12976674D01*
X16627106Y-12795722D02*
X16627106Y-12833817D01*
X16703296Y-12795722D02*
X16703296Y-12833817D01*
X16998534Y-13071912D02*
X16989011Y-13062388D01*
X16969963Y-13033817D01*
X16960439Y-13014769D01*
X16950915Y-12986198D01*
X16941392Y-12938579D01*
X16941392Y-12900484D01*
X16950915Y-12852865D01*
X16960439Y-12824293D01*
X16969963Y-12805246D01*
X16989011Y-12776674D01*
X16998534Y-12767150D01*
X17065201Y-12814769D02*
X17074725Y-12805246D01*
X17093773Y-12795722D01*
X17141392Y-12795722D01*
X17160439Y-12805246D01*
X17169963Y-12814769D01*
X17179487Y-12833817D01*
X17179487Y-12852865D01*
X17169963Y-12881436D01*
X17055677Y-12995722D01*
X17179487Y-12995722D01*
X17417582Y-12995722D02*
X17417582Y-12795722D01*
X17503296Y-12995722D02*
X17503296Y-12890960D01*
X17493773Y-12871912D01*
X17474725Y-12862388D01*
X17446154Y-12862388D01*
X17427106Y-12871912D01*
X17417582Y-12881436D01*
X17627106Y-12995722D02*
X17608058Y-12986198D01*
X17598534Y-12976674D01*
X17589011Y-12957626D01*
X17589011Y-12900484D01*
X17598534Y-12881436D01*
X17608058Y-12871912D01*
X17627106Y-12862388D01*
X17655677Y-12862388D01*
X17674725Y-12871912D01*
X17684249Y-12881436D01*
X17693773Y-12900484D01*
X17693773Y-12957626D01*
X17684249Y-12976674D01*
X17674725Y-12986198D01*
X17655677Y-12995722D01*
X17627106Y-12995722D01*
X17808058Y-12995722D02*
X17789011Y-12986198D01*
X17779487Y-12967150D01*
X17779487Y-12795722D01*
X17960439Y-12986198D02*
X17941392Y-12995722D01*
X17903296Y-12995722D01*
X17884249Y-12986198D01*
X17874725Y-12967150D01*
X17874725Y-12890960D01*
X17884249Y-12871912D01*
X17903296Y-12862388D01*
X17941392Y-12862388D01*
X17960439Y-12871912D01*
X17969963Y-12890960D01*
X17969963Y-12910007D01*
X17874725Y-12929055D01*
X18046154Y-12986198D02*
X18065201Y-12995722D01*
X18103296Y-12995722D01*
X18122344Y-12986198D01*
X18131868Y-12967150D01*
X18131868Y-12957626D01*
X18122344Y-12938579D01*
X18103296Y-12929055D01*
X18074725Y-12929055D01*
X18055677Y-12919531D01*
X18046154Y-12900484D01*
X18046154Y-12890960D01*
X18055677Y-12871912D01*
X18074725Y-12862388D01*
X18103296Y-12862388D01*
X18122344Y-12871912D01*
X18198534Y-13071912D02*
X18208058Y-13062388D01*
X18227106Y-13033817D01*
X18236630Y-13014769D01*
X18246154Y-12986198D01*
X18255677Y-12938579D01*
X18255677Y-12900484D01*
X18246154Y-12852865D01*
X18236630Y-12824293D01*
X18227106Y-12805246D01*
X18208058Y-12776674D01*
X18198534Y-12767150D01*
D14*
X13381630Y-13124246D02*
X13381630Y-13214246D01*
X13336630Y-13169246D02*
X13426630Y-13169246D01*
D11*
X13722344Y-13059722D02*
X13741392Y-13059722D01*
X13760439Y-13069246D01*
X13769963Y-13078769D01*
X13779487Y-13097817D01*
X13789011Y-13135912D01*
X13789011Y-13183531D01*
X13779487Y-13221626D01*
X13769963Y-13240674D01*
X13760439Y-13250198D01*
X13741392Y-13259722D01*
X13722344Y-13259722D01*
X13703296Y-13250198D01*
X13693772Y-13240674D01*
X13684249Y-13221626D01*
X13674725Y-13183531D01*
X13674725Y-13135912D01*
X13684249Y-13097817D01*
X13693772Y-13078769D01*
X13703296Y-13069246D01*
X13722344Y-13059722D01*
X13874725Y-13240674D02*
X13884249Y-13250198D01*
X13874725Y-13259722D01*
X13865201Y-13250198D01*
X13874725Y-13240674D01*
X13874725Y-13259722D01*
X13979487Y-13259722D02*
X14017582Y-13259722D01*
X14036630Y-13250198D01*
X14046153Y-13240674D01*
X14065201Y-13212103D01*
X14074725Y-13174007D01*
X14074725Y-13097817D01*
X14065201Y-13078769D01*
X14055677Y-13069246D01*
X14036630Y-13059722D01*
X13998534Y-13059722D01*
X13979487Y-13069246D01*
X13969963Y-13078769D01*
X13960439Y-13097817D01*
X13960439Y-13145436D01*
X13969963Y-13164484D01*
X13979487Y-13174007D01*
X13998534Y-13183531D01*
X14036630Y-13183531D01*
X14055677Y-13174007D01*
X14065201Y-13164484D01*
X14074725Y-13145436D01*
X14198534Y-13059722D02*
X14217582Y-13059722D01*
X14236630Y-13069246D01*
X14246153Y-13078769D01*
X14255677Y-13097817D01*
X14265201Y-13135912D01*
X14265201Y-13183531D01*
X14255677Y-13221626D01*
X14246153Y-13240674D01*
X14236630Y-13250198D01*
X14217582Y-13259722D01*
X14198534Y-13259722D01*
X14179487Y-13250198D01*
X14169963Y-13240674D01*
X14160439Y-13221626D01*
X14150915Y-13183531D01*
X14150915Y-13135912D01*
X14160439Y-13097817D01*
X14169963Y-13078769D01*
X14179487Y-13069246D01*
X14198534Y-13059722D01*
X14389011Y-13059722D02*
X14408058Y-13059722D01*
X14427106Y-13069246D01*
X14436630Y-13078769D01*
X14446153Y-13097817D01*
X14455677Y-13135912D01*
X14455677Y-13183531D01*
X14446153Y-13221626D01*
X14436630Y-13240674D01*
X14427106Y-13250198D01*
X14408058Y-13259722D01*
X14389011Y-13259722D01*
X14369963Y-13250198D01*
X14360439Y-13240674D01*
X14350915Y-13221626D01*
X14341392Y-13183531D01*
X14341392Y-13135912D01*
X14350915Y-13097817D01*
X14360439Y-13078769D01*
X14369963Y-13069246D01*
X14389011Y-13059722D01*
X14541392Y-13259722D02*
X14541392Y-13126388D01*
X14541392Y-13145436D02*
X14550915Y-13135912D01*
X14569963Y-13126388D01*
X14598534Y-13126388D01*
X14617582Y-13135912D01*
X14627106Y-13154960D01*
X14627106Y-13259722D01*
X14627106Y-13154960D02*
X14636630Y-13135912D01*
X14655677Y-13126388D01*
X14684249Y-13126388D01*
X14703296Y-13135912D01*
X14712820Y-13154960D01*
X14712820Y-13259722D01*
X14808058Y-13259722D02*
X14808058Y-13126388D01*
X14808058Y-13145436D02*
X14817582Y-13135912D01*
X14836630Y-13126388D01*
X14865201Y-13126388D01*
X14884249Y-13135912D01*
X14893772Y-13154960D01*
X14893772Y-13259722D01*
X14893772Y-13154960D02*
X14903296Y-13135912D01*
X14922344Y-13126388D01*
X14950915Y-13126388D01*
X14969963Y-13135912D01*
X14979487Y-13154960D01*
X14979487Y-13259722D01*
X15369963Y-13050198D02*
X15198534Y-13307341D01*
X15627106Y-13059722D02*
X15646153Y-13059722D01*
X15665201Y-13069246D01*
X15674725Y-13078769D01*
X15684249Y-13097817D01*
X15693772Y-13135912D01*
X15693772Y-13183531D01*
X15684249Y-13221626D01*
X15674725Y-13240674D01*
X15665201Y-13250198D01*
X15646153Y-13259722D01*
X15627106Y-13259722D01*
X15608058Y-13250198D01*
X15598534Y-13240674D01*
X15589011Y-13221626D01*
X15579487Y-13183531D01*
X15579487Y-13135912D01*
X15589011Y-13097817D01*
X15598534Y-13078769D01*
X15608058Y-13069246D01*
X15627106Y-13059722D01*
X15779487Y-13240674D02*
X15789011Y-13250198D01*
X15779487Y-13259722D01*
X15769963Y-13250198D01*
X15779487Y-13240674D01*
X15779487Y-13259722D01*
X15912820Y-13059722D02*
X15931868Y-13059722D01*
X15950915Y-13069246D01*
X15960439Y-13078769D01*
X15969963Y-13097817D01*
X15979487Y-13135912D01*
X15979487Y-13183531D01*
X15969963Y-13221626D01*
X15960439Y-13240674D01*
X15950915Y-13250198D01*
X15931868Y-13259722D01*
X15912820Y-13259722D01*
X15893772Y-13250198D01*
X15884249Y-13240674D01*
X15874725Y-13221626D01*
X15865201Y-13183531D01*
X15865201Y-13135912D01*
X15874725Y-13097817D01*
X15884249Y-13078769D01*
X15893772Y-13069246D01*
X15912820Y-13059722D01*
X16046153Y-13059722D02*
X16169963Y-13059722D01*
X16103296Y-13135912D01*
X16131868Y-13135912D01*
X16150915Y-13145436D01*
X16160439Y-13154960D01*
X16169963Y-13174007D01*
X16169963Y-13221626D01*
X16160439Y-13240674D01*
X16150915Y-13250198D01*
X16131868Y-13259722D01*
X16074725Y-13259722D01*
X16055677Y-13250198D01*
X16046153Y-13240674D01*
X16350915Y-13059722D02*
X16255677Y-13059722D01*
X16246153Y-13154960D01*
X16255677Y-13145436D01*
X16274725Y-13135912D01*
X16322344Y-13135912D01*
X16341392Y-13145436D01*
X16350915Y-13154960D01*
X16360439Y-13174007D01*
X16360439Y-13221626D01*
X16350915Y-13240674D01*
X16341392Y-13250198D01*
X16322344Y-13259722D01*
X16274725Y-13259722D01*
X16255677Y-13250198D01*
X16246153Y-13240674D01*
X16531868Y-13126388D02*
X16531868Y-13259722D01*
X16484249Y-13050198D02*
X16436630Y-13193055D01*
X16560439Y-13193055D01*
X16627106Y-13059722D02*
X16627106Y-13097817D01*
X16703296Y-13059722D02*
X16703296Y-13097817D01*
X16998534Y-13335912D02*
X16989011Y-13326388D01*
X16969963Y-13297817D01*
X16960439Y-13278769D01*
X16950915Y-13250198D01*
X16941392Y-13202579D01*
X16941392Y-13164484D01*
X16950915Y-13116865D01*
X16960439Y-13088293D01*
X16969963Y-13069246D01*
X16989011Y-13040674D01*
X16998534Y-13031150D01*
X17103296Y-13145436D02*
X17084249Y-13135912D01*
X17074725Y-13126388D01*
X17065201Y-13107341D01*
X17065201Y-13097817D01*
X17074725Y-13078769D01*
X17084249Y-13069246D01*
X17103296Y-13059722D01*
X17141392Y-13059722D01*
X17160439Y-13069246D01*
X17169963Y-13078769D01*
X17179487Y-13097817D01*
X17179487Y-13107341D01*
X17169963Y-13126388D01*
X17160439Y-13135912D01*
X17141392Y-13145436D01*
X17103296Y-13145436D01*
X17084249Y-13154960D01*
X17074725Y-13164484D01*
X17065201Y-13183531D01*
X17065201Y-13221626D01*
X17074725Y-13240674D01*
X17084249Y-13250198D01*
X17103296Y-13259722D01*
X17141392Y-13259722D01*
X17160439Y-13250198D01*
X17169963Y-13240674D01*
X17179487Y-13221626D01*
X17179487Y-13183531D01*
X17169963Y-13164484D01*
X17160439Y-13154960D01*
X17141392Y-13145436D01*
X17417582Y-13259722D02*
X17417582Y-13059722D01*
X17503296Y-13259722D02*
X17503296Y-13154960D01*
X17493773Y-13135912D01*
X17474725Y-13126388D01*
X17446154Y-13126388D01*
X17427106Y-13135912D01*
X17417582Y-13145436D01*
X17627106Y-13259722D02*
X17608058Y-13250198D01*
X17598534Y-13240674D01*
X17589011Y-13221626D01*
X17589011Y-13164484D01*
X17598534Y-13145436D01*
X17608058Y-13135912D01*
X17627106Y-13126388D01*
X17655677Y-13126388D01*
X17674725Y-13135912D01*
X17684249Y-13145436D01*
X17693773Y-13164484D01*
X17693773Y-13221626D01*
X17684249Y-13240674D01*
X17674725Y-13250198D01*
X17655677Y-13259722D01*
X17627106Y-13259722D01*
X17808058Y-13259722D02*
X17789011Y-13250198D01*
X17779487Y-13231150D01*
X17779487Y-13059722D01*
X17960439Y-13250198D02*
X17941392Y-13259722D01*
X17903296Y-13259722D01*
X17884249Y-13250198D01*
X17874725Y-13231150D01*
X17874725Y-13154960D01*
X17884249Y-13135912D01*
X17903296Y-13126388D01*
X17941392Y-13126388D01*
X17960439Y-13135912D01*
X17969963Y-13154960D01*
X17969963Y-13174007D01*
X17874725Y-13193055D01*
X18046154Y-13250198D02*
X18065201Y-13259722D01*
X18103296Y-13259722D01*
X18122344Y-13250198D01*
X18131868Y-13231150D01*
X18131868Y-13221626D01*
X18122344Y-13202579D01*
X18103296Y-13193055D01*
X18074725Y-13193055D01*
X18055677Y-13183531D01*
X18046154Y-13164484D01*
X18046154Y-13154960D01*
X18055677Y-13135912D01*
X18074725Y-13126388D01*
X18103296Y-13126388D01*
X18122344Y-13135912D01*
X18198534Y-13335912D02*
X18208058Y-13326388D01*
X18227106Y-13297817D01*
X18236630Y-13278769D01*
X18246154Y-13250198D01*
X18255677Y-13202579D01*
X18255677Y-13164484D01*
X18246154Y-13116865D01*
X18236630Y-13088293D01*
X18227106Y-13069246D01*
X18208058Y-13040674D01*
X18198534Y-13031150D01*
D15*
X13411985Y-13468601D02*
X13411985Y-13397890D01*
X13341274Y-13397890D01*
X13341274Y-13468601D01*
X13411985Y-13468601D01*
D11*
X13789011Y-13523722D02*
X13674725Y-13523722D01*
X13731868Y-13523722D02*
X13731868Y-13323722D01*
X13712820Y-13352293D01*
X13693772Y-13371341D01*
X13674725Y-13380865D01*
X13874725Y-13504674D02*
X13884249Y-13514198D01*
X13874725Y-13523722D01*
X13865201Y-13514198D01*
X13874725Y-13504674D01*
X13874725Y-13523722D01*
X14008058Y-13323722D02*
X14027106Y-13323722D01*
X14046153Y-13333246D01*
X14055677Y-13342769D01*
X14065201Y-13361817D01*
X14074725Y-13399912D01*
X14074725Y-13447531D01*
X14065201Y-13485626D01*
X14055677Y-13504674D01*
X14046153Y-13514198D01*
X14027106Y-13523722D01*
X14008058Y-13523722D01*
X13989011Y-13514198D01*
X13979487Y-13504674D01*
X13969963Y-13485626D01*
X13960439Y-13447531D01*
X13960439Y-13399912D01*
X13969963Y-13361817D01*
X13979487Y-13342769D01*
X13989011Y-13333246D01*
X14008058Y-13323722D01*
X14198534Y-13323722D02*
X14217582Y-13323722D01*
X14236630Y-13333246D01*
X14246153Y-13342769D01*
X14255677Y-13361817D01*
X14265201Y-13399912D01*
X14265201Y-13447531D01*
X14255677Y-13485626D01*
X14246153Y-13504674D01*
X14236630Y-13514198D01*
X14217582Y-13523722D01*
X14198534Y-13523722D01*
X14179487Y-13514198D01*
X14169963Y-13504674D01*
X14160439Y-13485626D01*
X14150915Y-13447531D01*
X14150915Y-13399912D01*
X14160439Y-13361817D01*
X14169963Y-13342769D01*
X14179487Y-13333246D01*
X14198534Y-13323722D01*
X14389011Y-13323722D02*
X14408058Y-13323722D01*
X14427106Y-13333246D01*
X14436630Y-13342769D01*
X14446153Y-13361817D01*
X14455677Y-13399912D01*
X14455677Y-13447531D01*
X14446153Y-13485626D01*
X14436630Y-13504674D01*
X14427106Y-13514198D01*
X14408058Y-13523722D01*
X14389011Y-13523722D01*
X14369963Y-13514198D01*
X14360439Y-13504674D01*
X14350915Y-13485626D01*
X14341392Y-13447531D01*
X14341392Y-13399912D01*
X14350915Y-13361817D01*
X14360439Y-13342769D01*
X14369963Y-13333246D01*
X14389011Y-13323722D01*
X14541392Y-13523722D02*
X14541392Y-13390388D01*
X14541392Y-13409436D02*
X14550915Y-13399912D01*
X14569963Y-13390388D01*
X14598534Y-13390388D01*
X14617582Y-13399912D01*
X14627106Y-13418960D01*
X14627106Y-13523722D01*
X14627106Y-13418960D02*
X14636630Y-13399912D01*
X14655677Y-13390388D01*
X14684249Y-13390388D01*
X14703296Y-13399912D01*
X14712820Y-13418960D01*
X14712820Y-13523722D01*
X14808058Y-13523722D02*
X14808058Y-13390388D01*
X14808058Y-13409436D02*
X14817582Y-13399912D01*
X14836630Y-13390388D01*
X14865201Y-13390388D01*
X14884249Y-13399912D01*
X14893772Y-13418960D01*
X14893772Y-13523722D01*
X14893772Y-13418960D02*
X14903296Y-13399912D01*
X14922344Y-13390388D01*
X14950915Y-13390388D01*
X14969963Y-13399912D01*
X14979487Y-13418960D01*
X14979487Y-13523722D01*
X15369963Y-13314198D02*
X15198534Y-13571341D01*
X15627106Y-13323722D02*
X15646153Y-13323722D01*
X15665201Y-13333246D01*
X15674725Y-13342769D01*
X15684249Y-13361817D01*
X15693772Y-13399912D01*
X15693772Y-13447531D01*
X15684249Y-13485626D01*
X15674725Y-13504674D01*
X15665201Y-13514198D01*
X15646153Y-13523722D01*
X15627106Y-13523722D01*
X15608058Y-13514198D01*
X15598534Y-13504674D01*
X15589011Y-13485626D01*
X15579487Y-13447531D01*
X15579487Y-13399912D01*
X15589011Y-13361817D01*
X15598534Y-13342769D01*
X15608058Y-13333246D01*
X15627106Y-13323722D01*
X15779487Y-13504674D02*
X15789011Y-13514198D01*
X15779487Y-13523722D01*
X15769963Y-13514198D01*
X15779487Y-13504674D01*
X15779487Y-13523722D01*
X15912820Y-13323722D02*
X15931868Y-13323722D01*
X15950915Y-13333246D01*
X15960439Y-13342769D01*
X15969963Y-13361817D01*
X15979487Y-13399912D01*
X15979487Y-13447531D01*
X15969963Y-13485626D01*
X15960439Y-13504674D01*
X15950915Y-13514198D01*
X15931868Y-13523722D01*
X15912820Y-13523722D01*
X15893772Y-13514198D01*
X15884249Y-13504674D01*
X15874725Y-13485626D01*
X15865201Y-13447531D01*
X15865201Y-13399912D01*
X15874725Y-13361817D01*
X15884249Y-13342769D01*
X15893772Y-13333246D01*
X15912820Y-13323722D01*
X16046153Y-13323722D02*
X16169963Y-13323722D01*
X16103296Y-13399912D01*
X16131868Y-13399912D01*
X16150915Y-13409436D01*
X16160439Y-13418960D01*
X16169963Y-13438007D01*
X16169963Y-13485626D01*
X16160439Y-13504674D01*
X16150915Y-13514198D01*
X16131868Y-13523722D01*
X16074725Y-13523722D01*
X16055677Y-13514198D01*
X16046153Y-13504674D01*
X16265201Y-13523722D02*
X16303296Y-13523722D01*
X16322344Y-13514198D01*
X16331868Y-13504674D01*
X16350915Y-13476103D01*
X16360439Y-13438007D01*
X16360439Y-13361817D01*
X16350915Y-13342769D01*
X16341392Y-13333246D01*
X16322344Y-13323722D01*
X16284249Y-13323722D01*
X16265201Y-13333246D01*
X16255677Y-13342769D01*
X16246153Y-13361817D01*
X16246153Y-13409436D01*
X16255677Y-13428484D01*
X16265201Y-13438007D01*
X16284249Y-13447531D01*
X16322344Y-13447531D01*
X16341392Y-13438007D01*
X16350915Y-13428484D01*
X16360439Y-13409436D01*
X16531868Y-13390388D02*
X16531868Y-13523722D01*
X16484249Y-13314198D02*
X16436630Y-13457055D01*
X16560439Y-13457055D01*
X16627106Y-13323722D02*
X16627106Y-13361817D01*
X16703296Y-13323722D02*
X16703296Y-13361817D01*
X16998534Y-13599912D02*
X16989011Y-13590388D01*
X16969963Y-13561817D01*
X16960439Y-13542769D01*
X16950915Y-13514198D01*
X16941392Y-13466579D01*
X16941392Y-13428484D01*
X16950915Y-13380865D01*
X16960439Y-13352293D01*
X16969963Y-13333246D01*
X16989011Y-13304674D01*
X16998534Y-13295150D01*
X17103296Y-13409436D02*
X17084249Y-13399912D01*
X17074725Y-13390388D01*
X17065201Y-13371341D01*
X17065201Y-13361817D01*
X17074725Y-13342769D01*
X17084249Y-13333246D01*
X17103296Y-13323722D01*
X17141392Y-13323722D01*
X17160439Y-13333246D01*
X17169963Y-13342769D01*
X17179487Y-13361817D01*
X17179487Y-13371341D01*
X17169963Y-13390388D01*
X17160439Y-13399912D01*
X17141392Y-13409436D01*
X17103296Y-13409436D01*
X17084249Y-13418960D01*
X17074725Y-13428484D01*
X17065201Y-13447531D01*
X17065201Y-13485626D01*
X17074725Y-13504674D01*
X17084249Y-13514198D01*
X17103296Y-13523722D01*
X17141392Y-13523722D01*
X17160439Y-13514198D01*
X17169963Y-13504674D01*
X17179487Y-13485626D01*
X17179487Y-13447531D01*
X17169963Y-13428484D01*
X17160439Y-13418960D01*
X17141392Y-13409436D01*
X17417582Y-13523722D02*
X17417582Y-13323722D01*
X17503296Y-13523722D02*
X17503296Y-13418960D01*
X17493773Y-13399912D01*
X17474725Y-13390388D01*
X17446154Y-13390388D01*
X17427106Y-13399912D01*
X17417582Y-13409436D01*
X17627106Y-13523722D02*
X17608058Y-13514198D01*
X17598534Y-13504674D01*
X17589011Y-13485626D01*
X17589011Y-13428484D01*
X17598534Y-13409436D01*
X17608058Y-13399912D01*
X17627106Y-13390388D01*
X17655677Y-13390388D01*
X17674725Y-13399912D01*
X17684249Y-13409436D01*
X17693773Y-13428484D01*
X17693773Y-13485626D01*
X17684249Y-13504674D01*
X17674725Y-13514198D01*
X17655677Y-13523722D01*
X17627106Y-13523722D01*
X17808058Y-13523722D02*
X17789011Y-13514198D01*
X17779487Y-13495150D01*
X17779487Y-13323722D01*
X17960439Y-13514198D02*
X17941392Y-13523722D01*
X17903296Y-13523722D01*
X17884249Y-13514198D01*
X17874725Y-13495150D01*
X17874725Y-13418960D01*
X17884249Y-13399912D01*
X17903296Y-13390388D01*
X17941392Y-13390388D01*
X17960439Y-13399912D01*
X17969963Y-13418960D01*
X17969963Y-13438007D01*
X17874725Y-13457055D01*
X18046154Y-13514198D02*
X18065201Y-13523722D01*
X18103296Y-13523722D01*
X18122344Y-13514198D01*
X18131868Y-13495150D01*
X18131868Y-13485626D01*
X18122344Y-13466579D01*
X18103296Y-13457055D01*
X18074725Y-13457055D01*
X18055677Y-13447531D01*
X18046154Y-13428484D01*
X18046154Y-13418960D01*
X18055677Y-13399912D01*
X18074725Y-13390388D01*
X18103296Y-13390388D01*
X18122344Y-13399912D01*
X18198534Y-13599912D02*
X18208058Y-13590388D01*
X18227106Y-13561817D01*
X18236630Y-13542769D01*
X18246154Y-13514198D01*
X18255677Y-13466579D01*
X18255677Y-13428484D01*
X18246154Y-13380865D01*
X18236630Y-13352293D01*
X18227106Y-13333246D01*
X18208058Y-13304674D01*
X18198534Y-13295150D01*
D16*
X13376592Y-13747284D02*
X13426630Y-13697246D01*
X13376592Y-13647208D01*
X13326554Y-13697246D01*
X13376592Y-13747284D01*
D11*
X13789011Y-13787722D02*
X13674725Y-13787722D01*
X13731868Y-13787722D02*
X13731868Y-13587722D01*
X13712820Y-13616293D01*
X13693772Y-13635341D01*
X13674725Y-13644865D01*
X13874725Y-13768674D02*
X13884249Y-13778198D01*
X13874725Y-13787722D01*
X13865201Y-13778198D01*
X13874725Y-13768674D01*
X13874725Y-13787722D01*
X14008058Y-13587722D02*
X14027106Y-13587722D01*
X14046153Y-13597246D01*
X14055677Y-13606769D01*
X14065201Y-13625817D01*
X14074725Y-13663912D01*
X14074725Y-13711531D01*
X14065201Y-13749626D01*
X14055677Y-13768674D01*
X14046153Y-13778198D01*
X14027106Y-13787722D01*
X14008058Y-13787722D01*
X13989011Y-13778198D01*
X13979487Y-13768674D01*
X13969963Y-13749626D01*
X13960439Y-13711531D01*
X13960439Y-13663912D01*
X13969963Y-13625817D01*
X13979487Y-13606769D01*
X13989011Y-13597246D01*
X14008058Y-13587722D01*
X14198534Y-13587722D02*
X14217582Y-13587722D01*
X14236630Y-13597246D01*
X14246153Y-13606769D01*
X14255677Y-13625817D01*
X14265201Y-13663912D01*
X14265201Y-13711531D01*
X14255677Y-13749626D01*
X14246153Y-13768674D01*
X14236630Y-13778198D01*
X14217582Y-13787722D01*
X14198534Y-13787722D01*
X14179487Y-13778198D01*
X14169963Y-13768674D01*
X14160439Y-13749626D01*
X14150915Y-13711531D01*
X14150915Y-13663912D01*
X14160439Y-13625817D01*
X14169963Y-13606769D01*
X14179487Y-13597246D01*
X14198534Y-13587722D01*
X14455677Y-13787722D02*
X14341392Y-13787722D01*
X14398534Y-13787722D02*
X14398534Y-13587722D01*
X14379487Y-13616293D01*
X14360439Y-13635341D01*
X14341392Y-13644865D01*
X14541392Y-13787722D02*
X14541392Y-13654388D01*
X14541392Y-13673436D02*
X14550915Y-13663912D01*
X14569963Y-13654388D01*
X14598534Y-13654388D01*
X14617582Y-13663912D01*
X14627106Y-13682960D01*
X14627106Y-13787722D01*
X14627106Y-13682960D02*
X14636630Y-13663912D01*
X14655677Y-13654388D01*
X14684249Y-13654388D01*
X14703296Y-13663912D01*
X14712820Y-13682960D01*
X14712820Y-13787722D01*
X14808058Y-13787722D02*
X14808058Y-13654388D01*
X14808058Y-13673436D02*
X14817582Y-13663912D01*
X14836630Y-13654388D01*
X14865201Y-13654388D01*
X14884249Y-13663912D01*
X14893772Y-13682960D01*
X14893772Y-13787722D01*
X14893772Y-13682960D02*
X14903296Y-13663912D01*
X14922344Y-13654388D01*
X14950915Y-13654388D01*
X14969963Y-13663912D01*
X14979487Y-13682960D01*
X14979487Y-13787722D01*
X15369963Y-13578198D02*
X15198534Y-13835341D01*
X15627106Y-13587722D02*
X15646153Y-13587722D01*
X15665201Y-13597246D01*
X15674725Y-13606769D01*
X15684249Y-13625817D01*
X15693772Y-13663912D01*
X15693772Y-13711531D01*
X15684249Y-13749626D01*
X15674725Y-13768674D01*
X15665201Y-13778198D01*
X15646153Y-13787722D01*
X15627106Y-13787722D01*
X15608058Y-13778198D01*
X15598534Y-13768674D01*
X15589011Y-13749626D01*
X15579487Y-13711531D01*
X15579487Y-13663912D01*
X15589011Y-13625817D01*
X15598534Y-13606769D01*
X15608058Y-13597246D01*
X15627106Y-13587722D01*
X15779487Y-13768674D02*
X15789011Y-13778198D01*
X15779487Y-13787722D01*
X15769963Y-13778198D01*
X15779487Y-13768674D01*
X15779487Y-13787722D01*
X15912820Y-13587722D02*
X15931868Y-13587722D01*
X15950915Y-13597246D01*
X15960439Y-13606769D01*
X15969963Y-13625817D01*
X15979487Y-13663912D01*
X15979487Y-13711531D01*
X15969963Y-13749626D01*
X15960439Y-13768674D01*
X15950915Y-13778198D01*
X15931868Y-13787722D01*
X15912820Y-13787722D01*
X15893772Y-13778198D01*
X15884249Y-13768674D01*
X15874725Y-13749626D01*
X15865201Y-13711531D01*
X15865201Y-13663912D01*
X15874725Y-13625817D01*
X15884249Y-13606769D01*
X15893772Y-13597246D01*
X15912820Y-13587722D01*
X16046153Y-13587722D02*
X16169963Y-13587722D01*
X16103296Y-13663912D01*
X16131868Y-13663912D01*
X16150915Y-13673436D01*
X16160439Y-13682960D01*
X16169963Y-13702007D01*
X16169963Y-13749626D01*
X16160439Y-13768674D01*
X16150915Y-13778198D01*
X16131868Y-13787722D01*
X16074725Y-13787722D01*
X16055677Y-13778198D01*
X16046153Y-13768674D01*
X16265201Y-13787722D02*
X16303296Y-13787722D01*
X16322344Y-13778198D01*
X16331868Y-13768674D01*
X16350915Y-13740103D01*
X16360439Y-13702007D01*
X16360439Y-13625817D01*
X16350915Y-13606769D01*
X16341392Y-13597246D01*
X16322344Y-13587722D01*
X16284249Y-13587722D01*
X16265201Y-13597246D01*
X16255677Y-13606769D01*
X16246153Y-13625817D01*
X16246153Y-13673436D01*
X16255677Y-13692484D01*
X16265201Y-13702007D01*
X16284249Y-13711531D01*
X16322344Y-13711531D01*
X16341392Y-13702007D01*
X16350915Y-13692484D01*
X16360439Y-13673436D01*
X16531868Y-13654388D02*
X16531868Y-13787722D01*
X16484249Y-13578198D02*
X16436630Y-13721055D01*
X16560439Y-13721055D01*
X16627106Y-13587722D02*
X16627106Y-13625817D01*
X16703296Y-13587722D02*
X16703296Y-13625817D01*
X16998534Y-13863912D02*
X16989011Y-13854388D01*
X16969963Y-13825817D01*
X16960439Y-13806769D01*
X16950915Y-13778198D01*
X16941392Y-13730579D01*
X16941392Y-13692484D01*
X16950915Y-13644865D01*
X16960439Y-13616293D01*
X16969963Y-13597246D01*
X16989011Y-13568674D01*
X16998534Y-13559150D01*
X17160439Y-13587722D02*
X17122344Y-13587722D01*
X17103296Y-13597246D01*
X17093773Y-13606769D01*
X17074725Y-13635341D01*
X17065201Y-13673436D01*
X17065201Y-13749626D01*
X17074725Y-13768674D01*
X17084249Y-13778198D01*
X17103296Y-13787722D01*
X17141392Y-13787722D01*
X17160439Y-13778198D01*
X17169963Y-13768674D01*
X17179487Y-13749626D01*
X17179487Y-13702007D01*
X17169963Y-13682960D01*
X17160439Y-13673436D01*
X17141392Y-13663912D01*
X17103296Y-13663912D01*
X17084249Y-13673436D01*
X17074725Y-13682960D01*
X17065201Y-13702007D01*
X17417582Y-13787722D02*
X17417582Y-13587722D01*
X17503296Y-13787722D02*
X17503296Y-13682960D01*
X17493773Y-13663912D01*
X17474725Y-13654388D01*
X17446154Y-13654388D01*
X17427106Y-13663912D01*
X17417582Y-13673436D01*
X17627106Y-13787722D02*
X17608058Y-13778198D01*
X17598534Y-13768674D01*
X17589011Y-13749626D01*
X17589011Y-13692484D01*
X17598534Y-13673436D01*
X17608058Y-13663912D01*
X17627106Y-13654388D01*
X17655677Y-13654388D01*
X17674725Y-13663912D01*
X17684249Y-13673436D01*
X17693773Y-13692484D01*
X17693773Y-13749626D01*
X17684249Y-13768674D01*
X17674725Y-13778198D01*
X17655677Y-13787722D01*
X17627106Y-13787722D01*
X17808058Y-13787722D02*
X17789011Y-13778198D01*
X17779487Y-13759150D01*
X17779487Y-13587722D01*
X17960439Y-13778198D02*
X17941392Y-13787722D01*
X17903296Y-13787722D01*
X17884249Y-13778198D01*
X17874725Y-13759150D01*
X17874725Y-13682960D01*
X17884249Y-13663912D01*
X17903296Y-13654388D01*
X17941392Y-13654388D01*
X17960439Y-13663912D01*
X17969963Y-13682960D01*
X17969963Y-13702007D01*
X17874725Y-13721055D01*
X18046154Y-13778198D02*
X18065201Y-13787722D01*
X18103296Y-13787722D01*
X18122344Y-13778198D01*
X18131868Y-13759150D01*
X18131868Y-13749626D01*
X18122344Y-13730579D01*
X18103296Y-13721055D01*
X18074725Y-13721055D01*
X18055677Y-13711531D01*
X18046154Y-13692484D01*
X18046154Y-13682960D01*
X18055677Y-13663912D01*
X18074725Y-13654388D01*
X18103296Y-13654388D01*
X18122344Y-13663912D01*
X18198534Y-13863912D02*
X18208058Y-13854388D01*
X18227106Y-13825817D01*
X18236630Y-13806769D01*
X18246154Y-13778198D01*
X18255677Y-13730579D01*
X18255677Y-13692484D01*
X18246154Y-13644865D01*
X18236630Y-13616293D01*
X18227106Y-13597246D01*
X18208058Y-13568674D01*
X18198534Y-13559150D01*
M02*
